<?xml version="1.0" encoding="utf-8"?>
<!-- Generator: Adobe Illustrator 21.0.0, SVG Export Plug-In . SVG Version: 6.00 Build 0)  -->
<svg version="1.1" id="图层_1" xmlns="http://www.w3.org/2000/svg" xmlns:xlink="http://www.w3.org/1999/xlink" x="0px" y="0px"
	 viewBox="0 0 1000 1000" style="enable-background:new 0 0 1000 1000;" xml:space="preserve">
<g>
	<g>
		<path d="M718.6,588.4c-5.2-0.8-10.1,1.3-13.1,4.9l-0.1-0.1c-0.3,0.4-0.6,0.7-0.9,1.1c-21.6,26.7-52.4,45.7-87.6,52
			c-0.8,0.1-1.5,0.2-2.3,0.2c-3.8,0.2-7.5,0.7-11,1.5c-26.7,6.4-46.1,31.4-43.7,60.6c2.3,27.7,24.7,50,52.4,52.2
			c28.4,2.2,52.9-16.3,59.9-42.1c1.3-4.8,2-9.8,2-15v0c0-1.8,0.2-4.7,0.6-6.5c6.4-32.8,23.8-61.6,48.2-82.6c0.2-0.2,0.5-0.4,0.7-0.5
			c1.2-0.8,2.3-1.7,3.3-2.8c2.6-3,3.9-7,3.2-11.4C729.3,594.1,724.5,589.3,718.6,588.4z"/>
		<path d="M841.1,809.8c5.2,0.8,10.1-1.3,13.1-4.9l0.1,0.1c0.3-0.4,0.6-0.7,0.9-1.1c21.6-26.7,52.4-45.7,87.6-52
			c0.8-0.1,1.5-0.2,2.3-0.2c3.8-0.2,7.5-0.7,11-1.5c26.7-6.4,46.1-31.4,43.7-60.6c-2.3-27.7-24.7-50-52.4-52.2
			c-28.4-2.2-52.9,16.3-59.9,42.1c-1.3,4.8-2,9.8-2,15v0c0,1.8-0.2,4.7-0.6,6.5c-6.4,32.8-23.8,61.6-48.2,82.6
			c-0.2,0.2-0.5,0.4-0.7,0.5c-1.2,0.8-2.3,1.7-3.3,2.8c-2.6,3-3.9,7-3.2,11.4C830.4,804.1,835.2,808.9,841.1,809.8z"/>
		<path d="M669.1,756c-0.8,5.2,1.3,10.1,4.9,13.1l-0.1,0.1c0.4,0.3,0.7,0.6,1.1,0.9c26.7,21.6,45.7,52.4,52,87.6
			c0.1,0.8,0.2,1.5,0.2,2.3c0.2,3.8,0.7,7.5,1.5,11c6.4,26.7,31.4,46.1,60.6,43.7c27.7-2.3,50-24.7,52.2-52.4
			c2.2-28.4-16.3-52.9-42.1-59.9c-4.8-1.3-9.8-2-15-2h0c-1.8,0-4.7-0.2-6.5-0.6c-32.8-6.4-61.6-23.8-82.6-48.2
			c-0.2-0.2-0.4-0.5-0.5-0.7c-0.8-1.2-1.7-2.3-2.8-3.3c-3-2.6-7-3.9-11.4-3.2C674.8,745.3,670,750.1,669.1,756z"/>
		<path d="M897.1,631.3c0.8-5.2-1.3-10.1-4.9-13.1l0.1-0.1c-0.4-0.3-0.7-0.6-1.1-0.9c-26.7-21.6-45.7-52.4-52-87.6
			c-0.1-0.8-0.2-1.5-0.2-2.3c-0.2-3.8-0.7-7.5-1.5-11c-6.4-26.7-31.4-46.1-60.6-43.7c-27.7,2.3-50,24.7-52.2,52.4
			c-2.2,28.4,16.3,52.9,42.1,59.9c4.8,1.3,9.8,2,15,2h0c1.8,0,4.7,0.2,6.5,0.6c32.8,6.4,61.6,23.8,82.6,48.2
			c0.2,0.2,0.4,0.5,0.5,0.7c0.8,1.2,1.7,2.3,2.8,3.3c3,2.6,7,3.9,11.4,3.2C891.4,642,896.1,637.2,897.1,631.3z"/>
		<path d="M538.7,728c-0.2-2.5-0.2-5-0.1-7.5c-38.1,12.1-79.3,18.8-122.3,18.8c-44.9,0-88.6-7.1-129.9-21.2c-8.9-3-18.7-2.3-27.1,2
			L195.9,753l8.4-50.5c2.1-12.9-3.2-26-13.8-33.7C113.4,613.1,69.1,532.1,69.1,446.8c0-161.3,155.7-292.5,347.1-292.5
			s347.1,131.2,347.1,292.5c0,3.2-0.1,6.3-0.2,9.5c6.1-2.9,12.7-4.7,19.6-5.3c19.6-1.6,37.3,6.6,48.7,20.3c0.6-8.1,1-16.2,1-24.4
			c0-97.6-44-189.1-123.9-257.5C630.3,122.1,526.4,85.1,416.2,85.1s-214,37-292.4,104.1C44,257.7,0,349.2,0,446.8
			c0,101.1,48.1,196.5,132.7,264.9l-16,96.1c-2.2,13.4,3.2,26.7,14.2,34.7c6.2,4.5,13.6,6.8,20.9,6.8c5.6,0,11.2-1.3,16.5-4
			l110-57.1c44.2,13.5,90.5,20.3,137.9,20.3c58,0,114.2-10.2,165.9-29.7C558.7,773,540.8,752.6,538.7,728z"/>
	</g>
</g>
</svg>
