<?xml version="1.0" encoding="utf-8"?>
<!-- Generator: Adobe Illustrator 21.0.0, SVG Export Plug-In . SVG Version: 6.00 Build 0)  -->
<svg version="1.1" id="图层_1" xmlns="http://www.w3.org/2000/svg" xmlns:xlink="http://www.w3.org/1999/xlink" x="0px" y="0px"
	 viewBox="0 0 1000 1000" style="enable-background:new 0 0 1000 1000;" xml:space="preserve">
<g>
	<path d="M730.9,179.6h99v98.4c0,0.4,0,0.9,0,1.3c0.4,17.8,15.2,32,33,31.6c18.2,0,32.9-14.8,32.9-33v-132c0-0.4,0-0.8,0-1.3
		c-0.4-17.9-15.1-32-33-31.7c-2.2,0-4.4,0.2-6.6,0.7H730.9c-0.4,0-0.9,0-1.3,0c-17.9,0.4-32,15.1-31.7,33
		C697.9,164.8,712.7,179.6,730.9,179.6z"/>
	<path d="M990.3,504.9L523.8,38.3c-0.1-0.1-0.1-0.1-0.2-0.2c-12.9-12.8-33.8-12.8-46.6,0.2c-0.1,0.1-0.2,0.3-0.3,0.4
		c-0.1,0.1-0.3,0.2-0.4,0.3L9.7,504.9c-0.1,0.1-0.1,0.1-0.2,0.2C-3.3,518-3.2,538.9,9.7,551.7c13.1,12.7,33.8,12.7,46.9,0
		l443.7-443.1l443.1,443.1c12.9,12.9,33.9,13,46.8,0C1003.2,538.8,1003.2,517.8,990.3,504.9z"/>
	<path d="M863,509.5c-18.1,0.3-32.7,14.9-33.1,32.9v363H632V739.7c0-0.2,0-0.4,0-0.7c-0.4-17.9-15.2-32-33-31.6c-0.1,0-0.2,0-0.3,0
		c-0.1,0-0.2,0-0.2,0h-198c-0.2,0-0.4,0-0.6,0c-17.4,0.3-31.4,14.4-31.7,31.7c0,0.2,0,0.4,0,0.5v0.7l-0.1,0.1c0,0.4,0,0.9,0.1,1.3
		v163.7H170.1V542.5c0-18.2-14.8-33-33-33s-33,14.8-33,33v395.9c0,18.2,14.8,33,33,33c0.2,0,0.4,0,0.7,0h263.3c0.4,0,0.9,0,1.3,0
		c17.8-0.4,32-15.2,31.6-33c0-0.1,0-0.2,0-0.3c0-0.1,0-0.2,0-0.2V773.4h132v164.3c0,0.2,0,0.3,0,0.5c0,0.1,0,0.1,0,0.2
		c0,18.2,14.7,33,32.9,33h263.6c0.1,0,0.2,0,0.4,0c0.1,0,0.2,0,0.4,0c0.3,0,0.7,0,1,0c17.8-0.4,31.9-15.1,31.6-32.8c0,0,0-0.1,0-0.1
		c0,0,0,0,0,0V542.5C895.5,524.4,881,509.9,863,509.5z"/>
</g>
</svg>
