<?xml version="1.0" encoding="utf-8"?>
<!-- Generator: Adobe Illustrator 21.0.0, SVG Export Plug-In . SVG Version: 6.00 Build 0)  -->
<svg version="1.1" id="图层_1" xmlns="http://www.w3.org/2000/svg" xmlns:xlink="http://www.w3.org/1999/xlink" x="0px" y="0px"
	 viewBox="0 0 1000 1000" style="enable-background:new 0 0 1000 1000;" xml:space="preserve">
<path d="M970.5,386.8L857.1,273.4l113.4-113.4c36.6-36.6,36.6-96,0-132.6s-96-36.6-132.6,0L509.3,356.1
	c-49.5-27.7-106.7-43.5-167.6-43.5C151.9,312.6-2,466.5-2,656.3S151.9,1000,341.8,1000s343.7-153.9,343.7-343.7
	c0-60.8-15.8-118.1-43.5-167.6l82.7-82.7L838,519.4c18.3,18.3,42.3,27.4,66.3,27.4s47.9-9.2,66.3-27.4
	C1007.1,482.8,1007.1,423.4,970.5,386.8z M452.2,766.7c-29.5,29.6-68.7,45.8-110.4,45.8s-80.9-16.2-110.4-45.8
	c-29.6-29.5-45.8-68.7-45.8-110.4c0-41.7,16.2-80.9,45.8-110.4c29.5-29.6,68.7-45.8,110.4-45.8s80.9,16.2,110.4,45.8
	c29.6,29.5,45.8,68.7,45.8,110.4S481.8,737.2,452.2,766.7z"/>
</svg>
