<?xml version="1.0" encoding="utf-8"?>
<!-- Generator: Adobe Illustrator 21.0.0, SVG Export Plug-In . SVG Version: 6.00 Build 0)  -->
<svg version="1.1" id="图层_1" xmlns="http://www.w3.org/2000/svg" xmlns:xlink="http://www.w3.org/1999/xlink" x="0px" y="0px"
	 viewBox="0 0 1000 1000" style="enable-background:new 0 0 1000 1000;" xml:space="preserve">
<g>
	<path d="M499.9,574.7c-44.3,0-80.3,34.6-80.3,77.7c0,30.4,18.1,56.3,44.1,69v99.5c0,4.4,4,8.2,8.6,8.2h55.6c4.9,0,8.6-3.8,8.6-8.2
		v-99.5c26-13,44.1-38.8,43.9-69C580.4,609.6,544.2,574.7,499.9,574.7z"/>
	<path d="M835.6,419.2H368.2c-16.1,0-28.9-13-28.9-28.9V256.9c0-85.8,72.4-155.7,161-155.7c88.9,0,161,69.9,161,155.7
		c0,16.1,13,28.9,28.9,28.9h42.4c16.1,0,28.9-13,28.9-28.9v-4.2c0-139.4-117.1-252.8-261.4-252.8S238.5,113.2,238.5,252.7v137.4
		c0,16.1-13,28.9-28.9,28.9h-45c-35.7,0-64.6,27.8-64.6,62.4v456c0,34.6,28.9,62.4,64.6,62.4h671.1c35.7,0,64.4-27.8,64.4-62.4
		V481.7C900.3,447,871.4,419.2,835.6,419.2z M809.2,877.2c0,23.2-19,42.1-42.1,42.1H233c-23.2,0-42.1-19-42.1-42.1V541.9
		c0-23.2,19-42.1,42.1-42.1H767c23.2,0,42.1,19,42.1,42.1V877.2z"/>
</g>
</svg>
