<?xml version="1.0" encoding="utf-8"?>
<!-- Generator: Adobe Illustrator 21.0.0, SVG Export Plug-In . SVG Version: 6.00 Build 0)  -->
<svg version="1.1" id="图层_1" xmlns="http://www.w3.org/2000/svg" xmlns:xlink="http://www.w3.org/1999/xlink" x="0px" y="0px"
	 viewBox="0 0 1000 1000" style="enable-background:new 0 0 1000 1000;" xml:space="preserve">
<style type="text/css">
	.st0{fill:#040000;}
</style>
<g>
	<g>
		<path class="st0" d="M742.4,93.4c-1.6-0.8-3.3-1.1-5-1.1c0,0,0,0,0,0c-2.8,0-5.6,1-7.7,2.9L620,190h-86.8
			c-6.6,0-11.9,5.5-11.9,12.2v150.3c0,6.7,5.3,12.1,11.9,12.2l86.8,0l109.7,95c2.2,1.9,4.9,2.9,7.7,2.9c1.7,0,3.5-0.4,5-1.1
			c4.2-2,6.9-6.3,6.9-11v-346C749.3,99.7,746.6,95.3,742.4,93.4z M725.4,130.6v293.5L632,343.2c-2.1-1.8-4.8-2.8-7.6-2.8
			c-0.3,0-0.7,0-1,0l-0.1,0c-0.2,0-0.5-0.1-0.7-0.1l-77.6,0v-126h79.3c0,0,0.1,0,0.1,0c0.7,0,1.2-0.2,1.5-0.3l0.1,0
			c0.7-0.1,1.5-0.2,2.4-0.5c0.9-0.4,1.6-0.8,2.2-1.2c0,0,0,0,0.1,0c0.3-0.1,0.8-0.4,1.4-0.9L725.4,130.6z"/>
		<path class="st0" d="M853.6,131.4c-1.8-1.1-3.9-1.7-6.1-1.7c-4.2,0-8.2,2.3-10.3,6c-3.3,5.7-1.4,13.2,4.2,16.6
			c42.9,26,69.5,73.9,69.5,125c0,50.9-26.4,98.7-69,124.7c-5.6,3.4-7.4,10.9-4.1,16.6c2.1,3.7,6.1,6,10.3,6c2.1,0,4.3-0.6,6.1-1.7
			c49.7-30.4,80.6-86.2,80.6-145.5C934.8,217.7,903.7,161.8,853.6,131.4z"/>
		<path class="st0" d="M806.3,172c-2.1-1.9-4.9-2.9-7.7-2.9c-3.5,0-6.9,1.6-9.1,4.3c-4.2,5.1-3.5,12.8,1.4,17.1
			c25,21.6,39.3,53.3,39.3,86.9c0,32.4-13.5,63.3-37,84.8c-4.8,4.4-5.3,12.1-1,17.1c2.2,2.6,5.5,4.1,8.9,4.1c2.9,0,5.7-1.1,7.9-3.1
			c28.5-26.2,44.9-63.7,44.9-102.9C854,236.6,836.6,198.2,806.3,172z"/>
	</g>
	<path d="M834.7,775.2c-14.3-76.1-56-144.2-119.2-192.5l0,0c-7.3-5.6-17.7-4.2-23.2,3.1c-5.6,7.3-4.2,17.7,3.1,23.2
		c52.9,40.5,89,96.5,104,159.4c-48.7-8.3-98.7-12.6-149.7-12.6c-92.9,0-182.4,23-266.5,49.5c-48.3,15.2-88.6,29.1-147.1,39.3
		c2-2.7,3.2-6.1,3.2-9.8c0-156.6,127.4-284,283.9-284c62.9,0,119.3-27.8,157.8-71.7h-47.8c-30.2,24.1-68.4,38.6-110,38.6
		c-97.4,0-176.6-79.2-176.6-176.6s79.2-176.6,176.6-176.6c3.7,0,7.4,0.2,11,0.4v-33.2c-3.7-0.2-7.3-0.3-11-0.3
		c-115.7,0-209.8,94.1-209.8,209.8c0,83.8,49.5,156,120.6,189.6C302.5,569.4,206.1,691,206.1,834.9c0,5.6,2.7,10.5,6.9,13.5
		C161.2,855.8,95,860.8,0,862c137.3,87.3,300.2,138,475,138c196.5,0,378-64,525-172.2C947.3,805.1,892.1,787.4,834.7,775.2
		L834.7,775.2z"/>
</g>
</svg>
