<?xml version="1.0" encoding="utf-8"?>
<!-- Generator: Adobe Illustrator 19.0.0, SVG Export Plug-In . SVG Version: 6.00 Build 0)  -->
<svg version="1.1" id="图层_1" xmlns="http://www.w3.org/2000/svg" xmlns:xlink="http://www.w3.org/1999/xlink" x="0px" y="0px"
	 viewBox="0 0 1000 1000" enable-background="new 0 0 1000 1000" xml:space="preserve">
<g id="XMLID_525_">
	<path id="XMLID_532_" d="M500,0C270.802,0,85,188.839,85,421.784C85,736.716,500,1000,500,1000s415-263.284,415-578.216
		C915,188.839,729.198,0,500,0z M500,641c-124.264,0-225-100.736-225-225s100.736-225,225-225s225,100.736,225,225
		S624.264,641,500,641z"/>
	<path id="XMLID_533_" d="M599.624,300.435L457.346,442.713l-56.969-56.969c-15.621-15.621-40.948-15.621-56.568,0
		c-15.621,15.621-15.621,40.947,0,56.568l85.253,85.253c7.811,7.811,18.047,11.716,28.284,11.716s20.474-3.905,28.284-11.716
		l170.562-170.563c15.621-15.621,15.621-40.947,0-56.568S615.245,284.813,599.624,300.435z"/>
</g>
</svg>
