<?xml version="1.0" encoding="utf-8"?>
<!-- Generator: Adobe Illustrator 19.0.0, SVG Export Plug-In . SVG Version: 6.00 Build 0)  -->
<svg version="1.1" id="图层_1" xmlns="http://www.w3.org/2000/svg" xmlns:xlink="http://www.w3.org/1999/xlink" x="0px" y="0px"
	 viewBox="0 0 1000 1000" enable-background="new 0 0 1000 1000" xml:space="preserve">
<g id="XMLID_547_">
	<path id="XMLID_26_" d="M940,165H60c-33.137,0-60,26.863-60,60v550c0,33.137,26.863,60,60,60h880c33.137,0,60-26.863,60-60V225
		C1000,191.863,973.137,165,940,165z M892.353,284.187L663.688,498.483l217.646,218.273c15.599,15.644,15.562,40.97-0.082,56.568
		C873.446,781.109,863.227,785,853.009,785c-10.257,0-20.511-3.92-28.325-11.757L605.287,553.214l-77.935,73.038
		c-7.692,7.209-17.522,10.813-27.353,10.813s-19.66-3.604-27.353-10.813l-77.934-73.037L175.316,773.243
		C167.503,781.08,157.246,785,146.991,785c-10.219,0-20.437-3.89-28.243-11.675c-15.644-15.599-15.681-40.926-0.082-56.568
		l217.647-218.273L107.647,284.187c-16.119-15.106-16.94-40.42-1.834-56.539c15.106-16.118,40.419-16.94,56.539-1.834L500,542.245
		l337.647-316.432c16.12-15.106,41.432-14.284,56.539,1.834C909.293,243.767,908.472,269.08,892.353,284.187z"/>
</g>
</svg>
