<?xml version="1.0" encoding="utf-8"?>
<!-- Generator: Adobe Illustrator 22.0.0, SVG Export Plug-In . SVG Version: 6.00 Build 0)  -->
<svg version="1.1" id="图层_1" xmlns="http://www.w3.org/2000/svg" xmlns:xlink="http://www.w3.org/1999/xlink" x="0px" y="0px"
	 viewBox="0 0 1000 1000" style="enable-background:new 0 0 1000 1000;" xml:space="preserve">
<g>
	<path d="M1000,727.4c0-5.3-3.7-10.2-9-11.2l-56.9-8.7c-3.1-10.3-7.4-20.5-12.8-30.5c10.6-14.6,22.1-28.3,32.7-42.6
		c1.5-2.2,2.5-4.3,2.5-7.1c0-2.5-0.6-5-2.2-6.8c-13.1-18.4-34.8-37.6-51.3-52.9c-2.2-1.9-5-3.1-7.8-3.1c-2.8,0-5.6,0.9-7.5,2.8
		l-44.1,33.3c-9-4.7-18.4-8.4-28-11.5l-8.7-57.2c-0.6-5.3-5.6-9.3-11.2-9.3h-69c-5.6,0-9.9,3.7-11.2,8.7c-5,18.7-6.8,38.9-9,57.8
		c-9.6,3.1-19.3,7.1-28.3,11.8l-42.9-33.3c-2.5-1.9-5.3-3.1-8.1-3.1c-10.6,0-52.5,45.4-60,55.6c-1.6,2.2-2.8,4.3-2.8,7.1
		c0,2.8,1.2,5.3,3.1,7.5c11.5,14,22.6,28,33.2,42.9c-5,9.3-9,18.7-12.1,28.6l-57.8,8.7c-4.7,1-8.4,6.5-8.4,11.2v69
		c0,5.2,3.7,10.2,9,11.2l56.9,8.4c3.1,10.5,7.5,20.8,12.8,30.8c-10.6,14.6-22.1,28.3-32.7,42.6c-1.5,2.2-2.4,4.3-2.4,7.1
		c0,2.5,0.6,5,2.2,7.1c13.1,18,34.8,37.3,51.3,52.2c2.2,2.2,4.9,3.4,7.8,3.4c2.8,0,5.6-1,7.8-2.8l43.8-33.3c9,4.6,18.3,8.4,28,11.5
		l8.7,57.2c0.6,5.3,5.6,9.3,11.2,9.3h69c5.6,0,9.9-3.7,11.2-8.7c4.9-18.6,6.9-38.8,9-57.8c9.6-3.1,19.3-7.1,28.3-11.8l42.9,33.6
		c2.5,1.6,5.3,2.8,8.1,2.8c10.6,0,52.5-45.7,60-55.6c1.9-2.2,2.8-4.4,2.8-7.2c0-2.8-1.2-5.6-3.1-7.8c-11.5-14-22.7-27.6-33.2-42.9
		c4.9-9,8.7-18.3,12.1-28.3l57.5-8.7c5-0.9,8.7-6.5,8.7-11.2h0V727.4z M761.3,840.8c-43.8,0-79.5-35.7-79.5-79.5
		c0-43.8,35.7-79.6,79.5-79.6c43.8,0,79.6,35.8,79.6,79.6C840.8,805.1,805.1,840.8,761.3,840.8z"/>
	<path d="M508.7,895.2c0-11.8,2.9-23,8.6-33.3c-14.7-3.6-27.9-12-37.4-24.1c-9.5-12.1-14.8-27.3-14.8-42.6v-69
		c0-5.2,0.6-10.3,1.8-15.4H240.1c-19.6,0-35.6-15.9-35.6-35.6s15.9-35.7,35.6-35.7h268.2c-0.8-4-1.1-8.1-1.1-12.2
		c0-14.5,4.6-28.2,13.7-40.8l0,0l0,0c7.1-9.7,22.9-26.8,34.8-38.7c25.9-25.7,45.9-40.6,71.5-40.6c11.5,0,22.7,2.9,33.1,8.6
		c8.2-29.8,35.3-50.5,66.4-50.5h69c16,0,31.6,5.6,43.9,15.8c11,9.1,18.8,21.2,22.4,34.6c6.8-3.8,14.3-6.3,22.2-7.6l0.7-438.3
		C884.8,31.3,848.1,0,803,0L81.6,1.6C36.7,1.6,0,32.9,0,71.4v764.7l134.4,112.2l105.2-91.1l101.8,92.1l102-92.1l68.7,59.7
		C509.8,910,508.7,902.7,508.7,895.2z M294.8,392.5c-18.1-0.2-33-15-33.1-33c0.2-18.2,15-33.1,33-33.2H381l-85.1-101.5
		c-5.7-5.9-8.9-14.4-8.9-23.5c0-11.4,8-20.5,11.4-23.9c5.9-5.9,14.6-9.2,23.9-9.2c11.4,0,20.5,8,23.9,11.4l0.6,0.7l93.6,111.2
		l93.6-111.2c5.1-6.5,12.7-10.6,21.1-11.6c9.2-1,18.9,1.9,26.6,8.1c6.6,5.3,10.8,12.8,11.8,21.3c1,9.2-1.9,18.8-8.1,26.5
		l-85.5,101.9h86.2c18.1,0.2,32.9,15,33.1,33c-0.2,18.2-15,33-33,33.2H473.5v32.7H590c18.3,0,33.1,14.9,33.1,33.1
		c0,18.2-14.9,33.1-33.1,33.1H477.7l-0.1,75.7c-2.7,19-16.8,31.8-35.1,31.8h-0.1c-18-0.2-32.9-15-33.1-33v-74.5H294.8
		c-18.3,0-33.1-14.9-33.1-33.1c0-18.2,14.9-33.1,33.1-33.1h112.4v-32.7H294.8z"/>
</g>
</svg>
