<?xml version="1.0" encoding="utf-8"?>
<!-- Generator: Adobe Illustrator 19.0.0, SVG Export Plug-In . SVG Version: 6.00 Build 0)  -->
<svg version="1.1" id="图层_1" xmlns="http://www.w3.org/2000/svg" xmlns:xlink="http://www.w3.org/1999/xlink" x="0px" y="0px"
	 viewBox="0 0 1000 1000" enable-background="new 0 0 1000 1000" xml:space="preserve">
<g id="XMLID_559_">
	<path id="XMLID_561_" d="M333,221.966V36.994C333,16.563,316.437,0,295.981,0H37.037C16.582,0,0,16.563,0,36.994v296.339
		L74.459,259h221.837C316.751,259,333,242.397,333,221.966z"/>
	<path id="XMLID_565_" d="M861,587V219.043C861,174.775,825.184,139,780.864,139H413v82.966c0,15.77-2.943,31.115-9.076,45.599
		c-5.904,13.944-14.172,26.453-24.902,37.171c-10.724,10.711-23.231,19.139-37.175,25.031c-14.472,6.114-29.797,9.234-45.55,9.234
		H139v522.111L300.218,700H587.06c0.423-14.478,3.359-28.532,9.017-41.892c5.904-13.944,14.172-26.407,24.903-37.124
		c10.724-10.711,23.231-19.046,37.175-24.937c14.471-6.113,29.796-9.047,45.549-9.047H861z"/>
	<path id="XMLID_566_" d="M962.963,667H703.704C683.249,667,667,683.229,667,703.661v184.971C667,909.063,683.249,926,703.704,926
		h221.837l74.459,74V703.661C1000,683.229,983.417,667,962.963,667z"/>
</g>
</svg>
