<?xml version="1.0" encoding="utf-8"?>
<!-- Generator: Adobe Illustrator 19.0.0, SVG Export Plug-In . SVG Version: 6.00 Build 0)  -->
<svg version="1.1" id="图层_1" xmlns="http://www.w3.org/2000/svg" xmlns:xlink="http://www.w3.org/1999/xlink" x="0px" y="0px"
	 viewBox="0 0 1000 1000" enable-background="new 0 0 1000 1000" xml:space="preserve">
<g id="XMLID_580_">
	<path id="XMLID_586_" d="M817.69,2h-460C324.553,2,297,29.847,297,62.984v346.297c1-0.004,1.233-0.022,1.851-0.022
		c33.696,0,67.149,5.707,98.149,16.95v-3.225c0-11.045,9.644-20.984,20.69-20.984h460c11.046,0,19.31,9.939,19.31,20.984v40
		C897,474.03,888.736,482,877.69,482H493.481c4.268,4,8.452,8.215,12.524,12.287c27.848,27.847,49.426,60.112,64.135,96.384
		c1.287,3.174,2.496,6.329,3.668,9.329H777.69c11.046,0,19.31,9.939,19.31,20.984v40C797,672.03,788.736,680,777.69,680H590.825
		c0.46,7,0.701,13.966,0.701,20.751c0,37.886-7.195,74.593-21.386,109.587C559.588,836.359,545.483,861,528.083,882H937.69
		c33.137,0,59.31-25.879,59.31-59.016v-640C997,83.573,917.101,2,817.69,2z M897,264c0,11.046-8.954,20-20,20H417
		c-11.046,0-20-8.954-20-20v-40c0-11.046,8.954-20,20-20h460c11.046,0,20,8.954,20,20V264z"/>
	<path id="XMLID_591_" d="M299.541,489.259c-54.252,0-108.503,20.696-149.896,62.089c-69.819,69.819-80.512,176.124-32.56,257.403
		L18.487,907.35c-20.697,20.697-20.697,54.251,0,74.948c10.348,10.348,23.91,15.522,37.473,15.522
		c13.563,0,27.126-5.174,37.475-15.522l98.598-98.598c33.174,19.571,70.518,29.374,107.847,29.374
		c54.131,0,108.232-20.611,149.556-61.935c82.786-82.784,82.786-217.006,0-299.79C408.044,509.955,353.793,489.259,299.541,489.259z
		 M421.422,680.493L302.219,799.695c-7.501,7.501-17.676,11.716-28.284,11.716c-0.001,0,0,0,0,0
		c-10.609,0-20.783-4.214-28.284-11.716l-59.582-59.582c-15.621-15.621-15.621-40.947,0-56.568c15.622-15.62,40.949-15.621,56.568,0
		l31.297,31.298l90.919-90.918c15.621-15.62,40.948-15.62,56.568,0C437.043,639.546,437.043,664.872,421.422,680.493z"/>
</g>
</svg>
