<?xml version="1.0" encoding="utf-8"?>
<!-- Generator: Adobe Illustrator 19.0.0, SVG Export Plug-In . SVG Version: 6.00 Build 0)  -->
<svg version="1.1" id="图层_1" xmlns="http://www.w3.org/2000/svg" xmlns:xlink="http://www.w3.org/1999/xlink" x="0px" y="0px"
	 viewBox="0 0 1000 1000" enable-background="new 0 0 1000 1000" xml:space="preserve">
<g id="XMLID_85_">
	<path id="XMLID_86_" d="M976.8,405.831L845,303.403V127.727C845,93.209,817.039,66,782.522,66h-0.011
		C747.993,66,720,93.209,720,127.727v78.517L536.8,63.831c-21.661-16.837-51.972-16.837-73.633,0l-439.995,342
		c-26.163,20.336-30.884,58.031-10.548,84.194c20.335,26.162,58.032,30.887,84.196,10.551l403.179-313.379l403.179,313.379
		c10.947,8.509,23.912,12.63,36.78,12.63c17.888,0,35.577-7.965,47.404-23.181C1007.698,463.862,1002.963,426.167,976.8,405.831z"/>
	<path id="XMLID_88_" d="M544.116,275.51c-24.408-24.408-63.942-24.408-88.349,0L142.82,526.131
		C129.038,539.914,123,558.531,125,576.523v272.029C125,903.78,169.461,949,224.689,949H375V788.389
		C375,733.161,419.771,689,475,689h50c55.228,0,100,44.161,100,99.389V949h150.311C830.539,949,875,903.78,875,848.552V576.523
		c2-17.992-4.057-36.609-17.84-50.392L544.116,275.51z"/>
</g>
</svg>
