<?xml version="1.0" encoding="utf-8"?>
<!-- Generator: Adobe Illustrator 21.0.0, SVG Export Plug-In . SVG Version: 6.00 Build 0)  -->
<svg version="1.1" id="图层_1" xmlns="http://www.w3.org/2000/svg" xmlns:xlink="http://www.w3.org/1999/xlink" x="0px" y="0px"
	 viewBox="0 0 1000 1000" style="enable-background:new 0 0 1000 1000;" xml:space="preserve">
<style type="text/css">
	.st0{fill-rule:evenodd;clip-rule:evenodd;}
</style>
<g>
	<path class="st0" d="M865.3,50H134.7C59.9,50-0.8,110.7-0.8,185.6V660c0,74.9,60.7,135.6,135.6,135.6h331.4v86.7H195
		c-18.7,0-33.9,15.2-33.9,33.9c0,18.7,15.2,33.9,33.9,33.9h610c18.7,0,33.9-15.2,33.9-33.9c0-18.7-15.2-33.9-33.9-33.9H533.9v-86.7
		h331.4c74.9,0,135.6-60.7,135.6-135.6V185.6C1000.8,110.7,940.1,50,865.3,50L865.3,50z M933.1,632.9c0,52.4-42.5,94.9-94.9,94.9
		H161.8c-52.4,0-94.9-42.5-94.9-94.9V212.7c0-52.4,42.5-94.9,94.9-94.9h676.3c52.4,0,94.9,42.5,94.9,94.9V632.9L933.1,632.9z"/>
	<path class="st0" d="M684.5,603.7c-3-2.2-6.2-4.3-9.5-6.1l-82.4-44.9l2.6,2.8l-47.6,104l-45-51.6L573,535c-1.5-4-2.4-8.3-2.4-12.8
		l-0.6-42.1c10.5-10.7,21.3-43.6,25.2-63.9c8.2-4.2,18.4-14.7,21.5-40.3c1.5-12.7-2.2-22.5-7.3-28.9c6.8-23.1,20.8-92.1-3.1-130.6
		c-0.8-1.4-1.9-2.4-2.9-3.7l-17-16.5c-7.3-4.7-15.7-8.1-25.2-10c-11-13.9-32.1-21.5-60.5-21.5c-43,0.8-74.4,13.9-93.4,39
		c-22.6,29.7-26.7,83.8-12.5,143c-5.3,6.4-9.2,16.3-7.6,29.3c3.1,25.6,13.3,36.1,21.5,40.3c4,20.2,15,53.2,25.8,64l-1,41.9
		c0,4.5-0.9,8.9-2.5,13l68.3,70.6l-46.8,53.7l-47.8-104l2.6-2.6l-82.1,44.8c-3.1,1.7-6.1,3.6-8.9,5.7c-13.5,6.5-23.2,24.8-23.2,46.4
		v33.3h414v-33.3C707,628.6,697.6,610.5,684.5,603.7z"/>
</g>
</svg>
