<?xml version="1.0" encoding="utf-8"?>
<!-- Generator: Adobe Illustrator 21.0.0, SVG Export Plug-In . SVG Version: 6.00 Build 0)  -->
<svg version="1.1" id="图层_1" xmlns="http://www.w3.org/2000/svg" xmlns:xlink="http://www.w3.org/1999/xlink" x="0px" y="0px"
	 viewBox="0 0 1000 1000" style="enable-background:new 0 0 1000 1000;" xml:space="preserve">
<style type="text/css">
	.st0{fill-rule:evenodd;clip-rule:evenodd;}
</style>
<g>
	<path class="st0" d="M969.7,771.3L969.7,771.3H30.5c-17.5,0-31.6,14.9-31.6,32.5c0,18.1,14,32.7,31.6,32.7h939.3
		c17.3,0,31.4-14.7,31.4-32.7C1001.1,786.1,987.1,771.3,969.7,771.3L969.7,771.3L969.7,771.3z"/>
	<path class="st0" d="M730.3,308.9L730.3,308.9H512.7c-10.5,0-18.6,8.5-18.6,19.1c0,11,8.1,19.5,18.6,19.5h217.6
		c10.3,0,18.6-8.5,18.6-19.5C748.9,317.4,740.6,308.9,730.3,308.9L730.3,308.9L730.3,308.9z"/>
	<path class="st0" d="M730.3,475.7L730.3,475.7H512.7c-10.5,0-18.6,8.9-18.6,19.1c0,11.1,8.1,20.2,18.6,20.2h217.6
		c10.3,0,18.6-9.1,18.6-20.2C748.9,484.6,740.6,475.7,730.3,475.7L730.3,475.7L730.3,475.7z"/>
	<path class="st0" d="M730.3,392.4L730.3,392.4H512.7c-10.5,0-18.6,8.7-18.6,19.3c0,10.6,8.1,19.3,18.6,19.3h217.6
		c10.3,0,18.6-8.7,18.6-19.3C748.9,401.1,740.6,392.4,730.3,392.4L730.3,392.4L730.3,392.4z"/>
	<path class="st0" d="M878.1,163.5h-756c-17.3,0-31.6,14.7-31.6,32.5v514.9c0,17.9,14.2,32.1,31.6,32.1h756
		c17.8,0,31.4-14.2,31.4-32.1V196C909.5,178.2,895.8,163.5,878.1,163.5z M846.7,678.6H153.5V228.3h693.2V678.6z"/>
	<polygon class="st0" points="289.1,347.5 289.1,347.5 433.4,347.5 433.4,475.7 289.1,475.7 289.1,347.5 	"/>
	<path class="st0" d="M270.1,515L270.1,515h182.3c10.7,0,18.8-9.1,18.8-20.2V328c0-10.6-8.1-19.1-18.8-19.1H270.1
		c-10.5,0-19,8.5-19,19.1v166.8C251.1,505.8,259.6,515,270.1,515L270.1,515L270.1,515z"/>
	<path class="st0" d="M730.3,559.4H270.1c-10.5,0-19,8.7-19,19.8c0,10.6,8.5,19.1,19,19.1h460.1c10.3,0,18.6-8.5,18.6-19.1
		C748.9,568.1,740.6,559.4,730.3,559.4L730.3,559.4L730.3,559.4z"/>
</g>
</svg>
