<?xml version="1.0" encoding="utf-8"?>
<!-- Generator: Adobe Illustrator 21.0.0, SVG Export Plug-In . SVG Version: 6.00 Build 0)  -->
<svg version="1.1" id="图层_1" xmlns="http://www.w3.org/2000/svg" xmlns:xlink="http://www.w3.org/1999/xlink" x="0px" y="0px"
	 viewBox="0 0 1000 1000" style="enable-background:new 0 0 1000 1000;" xml:space="preserve">
<style type="text/css">
	.st0{fill-rule:evenodd;clip-rule:evenodd;}
</style>
<g>
	<path class="st0" d="M342.9,188.3L342.9,188.3v-32.4h81v-29.1c0-37.6,30.4-68,68-68c37.6,0,68,30.5,68,68v29.1h81v32.4h134.4
		c55.4,0.1,100.3,45,100.4,100.4v550.6c-0.1,55.4-45,100.3-100.4,100.4H572.9V998h202.4c87.6-0.1,158.6-71.1,158.7-158.7V288.7
		c-0.1-87.6-71.1-158.6-158.7-158.7h-76.1V97.6h-84.4C601.2,40.7,550.4,0.5,491.9,0.4C433.4,0.5,382.6,40.7,369,97.6h-84.3V130
		h-59.9C137.1,130.1,66.1,201.1,66,288.7v388.7h58.3V288.7c0.1-55.4,45-100.3,100.4-100.4H342.9"/>
	<path class="st0" d="M110.9,999.6c-0.2-0.9-0.8-2.1-0.8-3.2c0.4-38-0.5-95.6,1-133.6c1.9-48.5,42-91.5,90.5-98
		c14.5-1.8,29.4-1.6,43.8-1.7c22.8-0.2,45.7,0,68.2-0.5C209.8,749,158.4,662,165.5,585.5c7.2-84.5,77.7-149.6,162.5-150.1
		c82.9-0.4,154,63.1,162.7,146.7c8.8,82.7-47.1,167.6-147.4,180.9c26.6,0,53,0.1,79.7-0.2c21.6-0.4,42.6,0.9,62.2,11.1
		c36.4,19,58.2,49.1,60.3,90.2c2.1,38.3,0.4,96.3,0.4,135.3L110.9,999.6L110.9,999.6z"/>
	<path class="st0" d="M642.3,471.7h98.1v-73.3h63.2v221.7h-63.2v-88.6h-98.1v88.6h-63.8V398.4h63.8V471.7L642.3,471.7z M642.8,922.4
		h-46.9V647.6h96.4c15.1,0,29.4,1.9,43,5.8c13.5,3.9,24.6,9.5,33.2,16.9c8.6,7.4,15.2,17.2,19.8,29.3c4.6,12.1,2.9,50.5-1.8,60.5
		c-4.8,10-10.1,18.2-16.1,24.5l-10,11.1c2.8,3.9,5.5,7.6,8.2,11.1c2.6,3.5,5.1,8.3,7.4,14.3c2.2,6,4.6,5.8,7.1,20.9l20.5,80.6H755
		L736.6,845c-1.4-8.1-4.5-15.9-9-22.7c-4.5-7-31.8-6.6-44.8-6.6h-39.9L642.8,922.4L642.8,922.4z M642.8,691.3v76.9h43.1
		c10.5,0,20.4-1.4,29.5-4.2c9.1-2.9,16.4-8.1,21.8-15.7c5.5-7.6,6.6-20.6,4.5-26.5c-2.4-6.2-6.3-11.6-11.4-15.9
		c-5.5-4.8-12.7-8.4-21.6-10.9c-8.9-2.5-18.4-3.7-28.2-3.7H642.8L642.8,691.3z"/>
</g>
</svg>
