<?xml version="1.0" encoding="utf-8"?>
<!-- Generator: Adobe Illustrator 21.0.0, SVG Export Plug-In . SVG Version: 6.00 Build 0)  -->
<svg version="1.1" id="图层_1" xmlns="http://www.w3.org/2000/svg" xmlns:xlink="http://www.w3.org/1999/xlink" x="0px" y="0px"
	 viewBox="0 0 1000 1000" style="enable-background:new 0 0 1000 1000;" xml:space="preserve">
<style type="text/css">
	.st0{fill-rule:evenodd;clip-rule:evenodd;}
</style>
<g>
	<path class="st0" d="M517.6,982.4c0,9.7-6.7,17.6-15,17.6c-8.3,0-24.5-7.8-24.5-17.5l-2.1-77.8c-5.9-8.8-12.1-17.4-18.5-25.7
		c-3.1-3.9-6.1-7.5-9.2-11c-40.5-38.9-52.5-8.4-101.9,0.8c-1.8,0.2-3.7,0.4-5.5,0.6c-49.8,4-95-27.8-132.1-62.5
		c-2.8-2.5-3.7-6.6-2.1-10c0.4-1.9,1.4-3.6,2.9-4.8c18.1-23.1,43.9-41.4,69.9-49.2c59-17.6,107.1,26.3,140,78.3
		c10,5.2,19.3,11.9,28,19.7l-0.4-0.2c5.6,4.6,15.6,14.5,28.9,32.4l-0.4-159.6c0-31.2,39.4-30.7,39.4,0.7l0.3,112.4
		c20.8-32.7,36.1-48.5,43.7-54.8c-0.1,0.1-0.3,0.1-0.4,0.2c8.4-7.8,17.8-14.5,27.9-20c32.7-52.6,80.7-97,139.7-79.5
		c26,7.7,51.9,26.1,70.1,49.3c1.5,1.2,2.5,2.9,2.9,4.8c1.6,3.5,0.8,7.6-2,10.2c-37,35.1-82.1,67.3-131.8,63.6
		c-1.9-0.1-3.7-0.3-5.6-0.6c-49.5-9.1-61.6-39.8-101.9-0.4c-3,3.5-6.1,7.1-9.2,11.1c-11.9,15.5-22.7,31.7-32.4,48.6
		c-0.3,0.5-0.6,0.7-0.9,1.1L517.6,982.4L517.6,982.4z"/>
	<path class="st0" d="M624.7,0c-7.9,21.1-11.6,44.6-13.7,67.3c-47.3,14.2-129.7,41.5-173.6,64.3c-10.8-10.9-22.2-21.3-34.1-31.1
		C455.9,56.3,556.7,19.9,624.7,0L624.7,0z"/>
	<path class="st0" d="M407.2,143C373,163.3,293,227.9,280.4,243.1c7.3-43.8,10.6-100.3,5-144.5c-2-17.4-5.4-34.6-10-51.5
		C319.3,70,371.4,107.5,407.2,143L407.2,143z"/>
	<path class="st0" d="M229.9,578.3c-79.6-94.6,15.7-258.5,92.6-326.2C424.4,162.3,554.8,110,693.4,79.6
		c-27.6,35.4-35.8,95.2-25,142.4c13,56.9,53.7,104,70.8,159.6c15.2,49.5,25.7,105.7,5.6,155.5c-19.1,47.4-64.9,76.2-114.9,91.5
		c-73.2,22.5-156.9,25.5-233.2,18.2C336.9,641,268.8,624.5,229.9,578.3L229.9,578.3z"/>
</g>
</svg>
