<?xml version="1.0" encoding="utf-8"?>
<!-- Generator: Adobe Illustrator 21.0.0, SVG Export Plug-In . SVG Version: 6.00 Build 0)  -->
<svg version="1.1" id="图层_1" xmlns="http://www.w3.org/2000/svg" xmlns:xlink="http://www.w3.org/1999/xlink" x="0px" y="0px"
	 viewBox="0 0 1000 1000" style="enable-background:new 0 0 1000 1000;" xml:space="preserve">
<style type="text/css">
	.st0{fill-rule:evenodd;clip-rule:evenodd;}
</style>
<g>
	<path class="st0" d="M945.4,261.2c0-41.2-17.9-73.7-62.8-88.8L344.3,2.4c-34.7-10.3-73,13.4-73,54.5v138.9H129.2
		c-41.2,0-74.7,33.3-74.7,74.5v655.2c0,41.2,33.4,74.5,74.7,74.5h741.5c41.2,0,74.7-33.3,74.7-74.5V275c0-4.7-0.5-9.3-1.3-13.9
		C945,261.2,945.4,261.2,945.4,261.2z M880.2,888.1c0,25.8-20.9,46.7-46.7,46.7h-667c-25.8,0-46.6-20.9-46.6-46.7V307.7
		c0-25.8,20-46.7,45.7-46.7h105.7v0.1c0,0,1-0.1,2.9-0.1h559.4c25.8,0,46.7,20.9,46.7,46.7V888.1z"/>
	<path class="st0" d="M595.9,391.5c-49.3,0-71,26.1-95.9,56.2c0,0,0,0,0,0c0,0,0,0,0,0c-24.9-30.1-46.6-56.2-95.9-56.2
		c-75.3,0-132.3,67.8-132.3,151.2c0,153.7,199.7,282.2,228.2,282.2c0,0,0,0,0,0s0,0,0,0c28.5,0,228.2-128.4,228.2-282.2
		C728.2,459.3,671.2,391.5,595.9,391.5z"/>
</g>
</svg>
