<?xml version="1.0" encoding="utf-8"?>
<!-- Generator: Adobe Illustrator 19.0.0, SVG Export Plug-In . SVG Version: 6.00 Build 0)  -->
<svg version="1.1" id="图层_1" xmlns="http://www.w3.org/2000/svg" xmlns:xlink="http://www.w3.org/1999/xlink" x="0px" y="0px"
	 viewBox="0 0 1000 1000" enable-background="new 0 0 1000 1000" xml:space="preserve">
<path id="XMLID_112_" d="M936.111,696H921V563.018C921,474.793,849.224,403,761,403H560v-99h15c33.137,0,60-26.474,60-59.611v-150
	C635,61.252,608.137,34,575,34H425c-33.137,0-60,27.252-60,60.389v150C365,277.526,391.863,304,425,304h15v99H239
	c-88.224,0-160,71.793-160,160.018V696H63.889C30.752,696,4,722.474,4,755.611v150C4,938.748,30.752,966,63.889,966h150
	C247.026,966,274,938.748,274,905.611v-150C274,722.474,247.026,696,213.889,696H199V563.018C199,540.961,216.944,523,239,523h201
	v173h-15c-33.137,0-60,26.474-60,59.611v150C365,938.748,391.863,966,425,966h150c33.137,0,60-27.252,60-60.389v-150
	C635,722.474,608.137,696,575,696h-15V523h201c22.056,0,40,17.961,40,40.018V696h-14.889C752.974,696,726,722.474,726,755.611v150
	C726,938.748,752.974,966,786.111,966h150C969.248,966,996,938.748,996,905.611v-150C996,722.474,969.248,696,936.111,696z"/>
</svg>
