<?xml version="1.0" encoding="utf-8"?>
<!-- Generator: Adobe Illustrator 21.0.0, SVG Export Plug-In . SVG Version: 6.00 Build 0)  -->
<svg version="1.1" id="图层_1" xmlns="http://www.w3.org/2000/svg" xmlns:xlink="http://www.w3.org/1999/xlink" x="0px" y="0px"
	 viewBox="0 0 1000 1000" style="enable-background:new 0 0 1000 1000;" xml:space="preserve">
<style type="text/css">
	.st0{fill-rule:evenodd;clip-rule:evenodd;}
</style>
<path class="st0" d="M482,190.9c4.4,0.5,8.7,0.8,12.9,0.8c39.1,0,67.2-23.2,71.7-59.3c2.6-21.2-2.3-41.8-14.5-61.3
	c-11-17.4-28-33.9-50.8-49.3c-10.8-7.3-22.8-14.1-35.5-20.2c-5.3-2.5-11.5-2.2-16.5,1c-5,3.2-7.9,8.7-7.7,14.6
	c0.7,26.8-4,69.4-7.6,99.2c-2.4,19.5-0.9,34.1,4.5,45.8C443.8,173.6,455.6,187.6,482,190.9z"/>
<path class="st0" d="M882.4,542.2h-64.8v-87.9c0-50.7-41-91.5-91.5-91.5H275.4c-50.4,0-91.5,41-91.5,91.5v87.6H118
	c-33.4,0-60.9,27.3-60.9,60.9v336.4c0,33.6,27.3,60.9,60.9,60.9h764c33.4,0,60.9-27.3,60.9-60.9V602.9
	C942.7,569.6,915.7,542.5,882.4,542.2z M244.8,454.6c0-16.8,13.7-30.4,30.4-30.4H726c16.9,0,30.4,13.5,30.4,30.4v87.6H244.8V454.6z
	 M881.5,939H118V603.2h763.5V939z"/>
<path class="st0" d="M759,768.5c-59.8,0-110.6-60.1-129.5-144c-18.9,83.9-69.7,144-129.5,144s-110.6-60.1-129.5-144
	c-18.9,83.9-69.7,144-129.5,144c-64.7,0-119-70.4-133.5-165.3c-2.5,16.4-3.9,33.4-3.9,51c0,119.5,61.5,216.3,137.4,216.3
	c59.8,0,110.6-60.1,129.5-144c18.9,83.9,69.7,144,129.5,144s110.6-60.1,129.5-144c18.9,83.9,69.7,144,129.5,144
	c75.9,0,137.4-96.8,137.4-216.3c0-17.6-1.3-34.7-3.9-51C878,698,823.8,768.5,759,768.5z"/>
<rect x="414" y="236.3" class="st0" width="172" height="146.5"/>
</svg>
