<?xml version="1.0" encoding="utf-8"?>
<!-- Generator: Adobe Illustrator 19.0.0, SVG Export Plug-In . SVG Version: 6.00 Build 0)  -->
<svg version="1.1" id="图层_1" xmlns="http://www.w3.org/2000/svg" xmlns:xlink="http://www.w3.org/1999/xlink" x="0px" y="0px"
	 viewBox="0 0 1000 1000" enable-background="new 0 0 1000 1000" xml:space="preserve">
<path id="XMLID_168_" d="M940,24H60C26.863,24,0,50.739,0,83.876v892.268L252.269,724H940c33.137,0,60-26.987,60-60.124v-580
	C1000,50.739,973.137,24,940,24z M750,592c0,11.046-8.954,20-20,20H270c-11.046,0-20-8.954-20-20v-40c0-11.046,8.954-20,20-20h460
	c11.046,0,20,8.954,20,20V592z M750,394c0,11.046-8.954,20-20,20H270c-11.046,0-20-8.954-20-20v-40c0-11.046,8.954-20,20-20h460
	c11.046,0,20,8.954,20,20V394z M750,196c0,11.046-8.954,20-20,20H270c-11.046,0-20-8.954-20-20v-40c0-11.046,8.954-20,20-20h460
	c11.046,0,20,8.954,20,20V196z"/>
</svg>
