<?xml version="1.0" encoding="utf-8"?>
<!-- Generator: Adobe Illustrator 21.0.0, SVG Export Plug-In . SVG Version: 6.00 Build 0)  -->
<svg version="1.1" id="图层_1" xmlns="http://www.w3.org/2000/svg" xmlns:xlink="http://www.w3.org/1999/xlink" x="0px" y="0px"
	 viewBox="0 0 1000 1000" style="enable-background:new 0 0 1000 1000;" xml:space="preserve">
<g>
	<path d="M950,650c-22.3,0-42.7-15.1-48.4-37.7c-1.8-7-44.2-162.3-201.5-162.3c-79.3,0-117,37.7-164.6,85.3
		C484.3,586.4,420.7,650,300,650C110.9,650,22.1,494.4,1.5,412.1c-6.7-26.8,9.6-54,36.4-60.6c26.8-6.7,53.9,9.6,60.6,36.4
		c1.7,6.4,44,162.1,201.5,162.1c79.3,0,117-37.7,164.6-85.3C515.7,413.6,579.3,350,700,350c189.1,0,277.9,155.6,298.5,237.9
		c6.7,26.8-9.6,54-36.4,60.6C958,649.5,954,650,950,650z"/>
</g>
</svg>
