<?xml version="1.0" encoding="utf-8"?>
<!-- Generator: Adobe Illustrator 21.0.0, SVG Export Plug-In . SVG Version: 6.00 Build 0)  -->
<svg version="1.1" id="图层_1" xmlns="http://www.w3.org/2000/svg" xmlns:xlink="http://www.w3.org/1999/xlink" x="0px" y="0px"
	 viewBox="0 0 1000 1000" style="enable-background:new 0 0 1000 1000;" xml:space="preserve">
<g>
	<path d="M935.2,376c15.4,0,48.8-4,55.7-10.8c6.8-6.7,9-9,9-15c0-6-3.5-18.2-10.2-25.5c-6.7-7.3-35-11-51.6-13.1
		c-16.6-2.1-18.9,0-23.2,2.7c-6.8,4.2-7.2,42.8-7.2,42.8l-16.2,0.4c-10.5-25.6-25.2-77-48-117.6c-25-44.2-51.2-58-62.1-61.5
		c-10.8-3.3-20.5-5.6-93.8-12.9C612.7,158,553.1,157,500,157c-53.1,0-112.7,1.2-187.5,8.6c-73.3,7.5-83,9.6-93.7,12.9
		c-10.7,3.3-37.1,17.3-62.1,61.5c-22.9,40.5-37.5,92-48,117.6l-16.2-0.4c0,0-0.2-38.6-7.2-42.8c-4.3-2.7-6.6-5-23.3-2.7
		c-16.6,2.3-44.9,5.8-51.6,13.1C3.7,332,0.2,344.3,0.2,350.3c0,6,2.2,8.4,9,15C16,372,49.4,376,64.9,376c15.4,0,15.8-6.9,23.2-6.2
		c3.3,0.4,9,3.7,14.4,5.4c-6.4,15.2-5.5,11.7-40,34.9c-34.2,23.1-49.4,35-51.6,39.6C7.8,456.1,0,513.8,0,572.7
		c0,59,4.3,112,4.3,130.8c0,7.9,0,21.7,1.8,35c1.2,7.9,2.9,15.6,6.1,21.5c5.3,10.6,10.1,11.5,30.3,10.6c25.8-1.2,63.1,0,101.6,1.5
		c25.8,1,52.1,1.9,75.6,2.5c58.6,1.2,41.4-8.5,66.4-8.1c25,0.4,123.6,4.4,213.9,4.4c90.2,0,189.1-4,213.9-4.4
		c25-0.4,7.8,9.2,66.4,8.1c23.4-0.4,49.8-1.5,75.6-2.5c38.5-1.3,76-2.7,101.6-1.5c20.1,1,25,0,30.3-10.6c2.9-6,4.9-13.6,6.1-21.5
		c1.9-13.3,1.8-27.1,1.8-35c0.4-18.6,4.7-71.9,4.7-130.8c0-59-7.8-116.6-10.9-122.9c-2.3-4.6-17.4-16.7-51.6-39.6
		c-34.6-23.2-33.8-19.8-40-34.9c5.7-1.7,11.1-5,14.4-5.4C919.3,369.1,919.7,376,935.2,376z M168.4,281.9
		c9.4-21.5,37.5-64.7,51.2-72.4c3.3-1.9,32.4-10.9,105.3-15.7c67-4.4,141-6.1,175.4-6.1c34.4,0,108.4,1.7,175.4,6.1
		c72.7,4.8,102.2,13.6,105.3,15.7c17.6,11.9,41.8,50.9,51.2,72.4c9.4,21.5,21.9,63.8,19.5,69.5c-2.4,5.8,2.3,8.6-29.3,6.1
		c-31.5-2.3-228.9-4.8-321.9-4.8c-92.8,0-290.2,2.5-321.9,4.8c-31.6,2.3-26.9-0.4-29.3-6.1C146.5,345.7,159,303.6,168.4,281.9z
		 M200.2,533.1c-17.6,0-65-7.9-75.2-8.3c-10.1-0.4-19.1,6.7-24.4,8.1c-5.3,1.3-15.6-2.3-31.2-7.1c-15.6-4.8-24.8-3.5-29.9-24.4
		c-5.3-20.7,0-50.5,0-50.5c33.8-1.5,66.4,1.6,127.5,18.4c61.1,16.9,95.1,49.4,95.1,49.4s-7.8,0.2-21.9,3.6
		C226.2,525.8,217.8,533.3,200.2,533.1z M699.6,673.8c-27.9,3.6-144.9,4.6-199.6,4.6c-54.7,0-171.7-1.2-199.6-4.6
		c-28.5-3.7-65.6-37.3-40-64c34.6-36.3,28.1-35.2,106.7-45.1c68-8.6,119.5-9,133-9c13.3,0,65,0.6,133,9c78.5,10,72.1,8.8,106.6,45.1
		C765.2,636.5,728.1,670.1,699.6,673.8z M960.6,451.3c0-0.4,5.3,29.4,0,50.3c-5.3,20.8-14.3,19.6-29.9,24.4
		c-15.6,4.8-26,8.2-31.2,7.1c-5.3-1.2-14.3-8.3-24.4-8.1c-10.1,0.4-57.6,8.3-75.2,8.3c-17.6,0-26-7.3-40-10.8
		c-14.1-3.5-21.9-3.5-21.9-3.5s33.8-32.7,95.1-49.4C894.2,452.8,926.8,449.8,960.6,451.3z"/>
	<path d="M42.2,795.9c-19.9,1-25,0-30.3-10.6c-2.9-5.9-4.9-13.6-6-21.5c0,4.6,0,10.4-0.2,15.5v2.1c0,2.1,0.2,4,0.2,5.6v0.2
		c0.2,5,0.4,9.2,0.8,12.5c2.5,22.5,5.3,35.7,12.3,39.8c5.9,3.4,12.1,3.4,19.5,3.4h84c5.3,0,18.6-1,21.1-30c0,0,0.4-5,0.4-15.6
		C104.9,795.9,68,794.8,42.2,795.9z"/>
	<path d="M994,779.4c0-5.2,0-10.9-0.2-15.5c-1.2,7.9-3.1,15.6-6,21.5c-5.3,10.6-10.4,11.5-30.3,10.6c-25.8-1.1-62.7,0-101.8,1.5
		c0,10.6,0.4,15.5,0.4,15.5c2.5,29,15.8,30,21.1,30h84c7.4,0,14.3,0,19.5-3.4c6.8-4.4,9.8-17.3,12.3-39.8c0.4-3.3,0.6-7.5,0.8-12.5
		v-0.2c0-1.5,0.2-3.5,0.2-5.6h0V779.4z"/>
</g>
</svg>
