<?xml version="1.0" encoding="utf-8"?>
<!-- Generator: Adobe Illustrator 21.0.0, SVG Export Plug-In . SVG Version: 6.00 Build 0)  -->
<svg version="1.1" id="图层_1" xmlns="http://www.w3.org/2000/svg" xmlns:xlink="http://www.w3.org/1999/xlink" x="0px" y="0px"
	 viewBox="0 0 1000 1000" style="enable-background:new 0 0 1000 1000;" xml:space="preserve">
<style type="text/css">
	.st0{fill-rule:evenodd;clip-rule:evenodd;}
</style>
<g>
	<path class="st0" d="M500,439.4c112.9,0,204.7-98.6,204.7-219.7C704.7,98.6,612.9,0,500,0C387.1,0,295.3,98.6,295.3,219.7
		C295.3,340.9,387.1,439.4,500,439.4L500,439.4z M476.3,760.1L665,491.6c-41-10.6-97.7-21.5-164.2-21.5c-4.5,0-120.3-9.2-240.6,46
		c0,0-15.3,1.5-45.2,47.9c-45.8,74.7-116,183.6-136.8,219.8C63.7,807.5,27,855.4,50.8,905.6c26.2,50,48.5,87.9,57.3,94.4h113.1
		C219.1,914.1,298.7,772.9,476.3,760.1L476.3,760.1z M499.9,823.6c-119.2,0-215.7,77.4-215.7,176.4h431.5
		C715.6,901.1,619.1,823.6,499.9,823.6L499.9,823.6z M922.5,785c-34.8-59.9-112.3-181.5-118.5-192.4c-8.1-14.3-33.6-69.1-81.2-83.9
		c-5.1-1.6-11.7-3.7-19.6-6.2L522.5,759.9c172.7,10.4,258.1,145.3,258.1,240l103.5,0.2c0,0,11,1.1,65-97.2
		C969.3,851.3,947.3,828.9,922.5,785L922.5,785z"/>
</g>
</svg>
