<?xml version="1.0" encoding="utf-8"?>
<!-- Generator: Adobe Illustrator 21.0.0, SVG Export Plug-In . SVG Version: 6.00 Build 0)  -->
<svg version="1.1" id="图层_1" xmlns="http://www.w3.org/2000/svg" xmlns:xlink="http://www.w3.org/1999/xlink" x="0px" y="0px"
	 viewBox="0 0 1000 1000" style="enable-background:new 0 0 1000 1000;" xml:space="preserve">
<g>
	<path d="M887.6,26.5H112.4C50.4,26.5,0,74.4,0,133.4v733.3c0,58.9,50.4,106.8,112.4,106.8h775.2c62,0,112.4-47.9,112.4-106.8V133.4
		C1000,74.4,949.6,26.5,887.6,26.5z M83.8,133.4c0-14.6,12.8-26.5,28.6-26.5h775.2c15.8,0,28.6,11.9,28.6,26.5v733.3
		c0,14.6-12.8,26.5-28.6,26.5H112.4c-15.8,0-28.6-11.9-28.6-26.5V133.4z"/>
	<path d="M469.7,389.6c7.3,6.7,17.6,10.3,29.8,10.3h319.4c9.6,0,22.9-2.2,32.2-12.8c6.5-7.4,10-17.8,10-30.1
		c0-11.7-4.3-22.6-12.1-30.5c-7.8-8-18.5-12.4-30.2-12.4H499.5c-9.6,0-22.9,2.2-32.2,12.8c-6.5,7.4-10,17.8-10,30.1
		C457.3,371,461.5,382,469.7,389.6z"/>
	<path d="M499.5,699.2h319.4c9.6,0,22.9-2.2,32.2-12.8c6.5-7.4,10-17.8,10-30.1c0-11.7-4.3-22.6-12.1-30.5
		c-7.8-8-18.5-12.4-30.2-12.4H499.5c-9.6,0-22.9,2.2-32.2,12.8c-6.5,7.4-10,17.8-10,30.1c0,11.7,4.3,22.6,12.1,30.5
		C477.2,694.8,487.9,699.2,499.5,699.2z"/>
	<path d="M238,441.6c8.6,8.6,20.1,13.3,32.2,13.3c12.2,0,23.6-4.7,32.2-13.3l137.1-137.1c17.8-17.8,17.8-46.7,0-64.5
		c-8.6-8.6-20.1-13.3-32.2-13.3c-12.2,0-23.6,4.7-32.2,13.3L270.2,345l-54.5-54.5c-8.6-8.6-20.1-13.3-32.2-13.3
		c-12.2,0-23.6,4.7-32.2,13.3c-17.8,17.8-17.8,46.7,0,64.5L238,441.6z"/>
	<path d="M295.4,536.4c-66,0-119.6,53.7-119.6,119.6c0,66,53.7,119.6,119.6,119.6S415,722,415,656.1
		C415,590.1,361.3,536.4,295.4,536.4z M329.2,656.1c0,18.6-15.2,33.8-33.8,33.8c-18.6,0-33.8-15.2-33.8-33.8
		c0-18.6,15.2-33.8,33.8-33.8C314,622.3,329.2,637.4,329.2,656.1z"/>
</g>
</svg>
