<?xml version="1.0" encoding="utf-8"?>
<!-- Generator: Adobe Illustrator 21.0.0, SVG Export Plug-In . SVG Version: 6.00 Build 0)  -->
<svg version="1.1" id="图层_1" xmlns="http://www.w3.org/2000/svg" xmlns:xlink="http://www.w3.org/1999/xlink" x="0px" y="0px"
	 viewBox="0 0 1000 1000" style="enable-background:new 0 0 1000 1000;" xml:space="preserve">
<g>
	<path d="M887.5,26.5H112.5c-62,0-112.5,48-112.5,107v733c0,59,50.5,107,112.5,107h774.9c62,0,112.5-48,112.5-107v-733
		C1000,74.5,949.5,26.5,887.5,26.5z M915.9,133.5v733c0,14.5-12.7,26.3-28.4,26.3H112.5c-15.7,0-28.4-11.8-28.4-26.3v-733
		c0-14.5,12.8-26.3,28.4-26.3h774.9C903.1,107.1,915.9,119,915.9,133.5z"/>
	<path d="M816.9,720.7H183.1c-23.2,0-42,19.3-42,43.1c0,23.7,18.9,43,42,43h633.8c23.2,0,42-19.3,42-43
		C859,740.1,840.1,720.7,816.9,720.7z"/>
	<path d="M859.1,244.6L859.1,244.6c-0.1-3.9-0.8-6.9-1.5-9.3c-0.4-2.3-1.1-4.6-2.1-6.8c-1.3-3-2.8-5.1-3.8-6.4
		c-1.4-2.2-2.9-4.5-4.8-6.1l-0.8-0.9l-0.2-0.3l-0.3-0.2c-2.4-2.2-4.6-3.5-6-4.3c-1.5-1-4-2.6-7.4-3.9c-3.1-1.2-5.8-1.7-7.6-1.9
		c-1.4-0.4-4.1-1-7.4-1H626.8c-23.2,0-42.1,18.9-42.1,42.1c0,23.2,18.9,42.1,42.1,42.1h95.9L529,502.7L346.2,333.4l-7.4-6.9L332,334
		L151.6,534.4c-7.5,8.4-11.3,19.2-10.7,30.4c0.5,11.1,5.6,21.6,13.8,29c7.7,7,17.8,10.9,28.2,10.9c11.9,0,23.3-5.1,31.3-14
		l130-144.4L527,615.5l7.4,6.9l6.8-7.5L775,355.1v101.7c0,23.2,18.9,42.1,42.1,42.1c23.2,0,42-18.9,42-42.1L859.1,244.6L859.1,244.6
		z"/>
</g>
</svg>
