<?xml version="1.0" encoding="utf-8"?>
<!-- Generator: Adobe Illustrator 19.0.0, SVG Export Plug-In . SVG Version: 6.00 Build 0)  -->
<svg version="1.1" id="图层_1" xmlns="http://www.w3.org/2000/svg" xmlns:xlink="http://www.w3.org/1999/xlink" x="0px" y="0px"
	 viewBox="0 0 1000 1000" enable-background="new 0 0 1000 1000" xml:space="preserve">
<g id="XMLID_162_">
	<path id="XMLID_66_" d="M800,0H200c-33.137,0-60,26.863-60,60v880c0,33.137,26.863,60,60,60h600c33.137,0,60-26.863,60-60V60
		C860,26.863,833.137,0,800,0z M531.813,189c-16.568,0-30-13.432-30-30s13.432-30,30-30h124.99C673.372,129,687,142.703,687,159.271
		v124.99c0,16.568-13.432,30-30,30s-30-13.432-30-30v-50.998l-309.476,309.31L275,500.079L585.943,189H531.813z M595,520v250h-60
		V520H595z M465,610v160h-60V610H465z M275,660h60v110h-60V660z M725,890H275v-60h450V890z M725,770h-60V390h60V770z"/>
</g>
</svg>
