<?xml version="1.0" encoding="utf-8"?>
<!-- Generator: Adobe Illustrator 21.0.0, SVG Export Plug-In . SVG Version: 6.00 Build 0)  -->
<svg version="1.1" id="图层_1" xmlns="http://www.w3.org/2000/svg" xmlns:xlink="http://www.w3.org/1999/xlink" x="0px" y="0px"
	 viewBox="0 0 1000 1000" style="enable-background:new 0 0 1000 1000;" xml:space="preserve">
<style type="text/css">
	.st0{fill-rule:evenodd;clip-rule:evenodd;}
</style>
<g>
	<path d="M430,110c43.2,0,85.1,8.4,124.5,25.1c38.1,16.1,72.3,39.2,101.7,68.6s52.5,63.7,68.6,101.7C741.6,344.9,750,386.8,750,430
		s-8.4,85.1-25.1,124.5c-16.1,38.1-39.2,72.3-68.6,101.7s-63.7,52.5-101.7,68.6C515.1,741.6,473.2,750,430,750s-85.1-8.4-124.5-25.1
		c-38.1-16.1-72.3-39.2-101.7-68.6s-52.5-63.7-68.6-101.7C118.4,515.1,110,473.2,110,430s8.4-85.1,25.1-124.5
		c16.1-38.1,39.2-72.3,68.6-101.7s63.7-52.5,101.7-68.6C344.9,118.4,386.8,110,430,110 M430,0C192.5,0,0,192.5,0,430
		s192.5,430,430,430s430-192.5,430-430S667.5,0,430,0L430,0z"/>
</g>
<path class="st0" d="M906.2,984L676.1,753.9c-21.4-21.4-21.4-56.4,0-77.8l0,0c21.4-21.4,56.4-21.4,77.8,0L984,906.2
	c21.4,21.4,21.4,56.4,0,77.8l0,0C962.6,1005.3,927.6,1005.3,906.2,984z"/>
</svg>
