<?xml version="1.0" encoding="utf-8"?>
<!-- Generator: Adobe Illustrator 21.0.0, SVG Export Plug-In . SVG Version: 6.00 Build 0)  -->
<svg version="1.1" id="图层_1" xmlns="http://www.w3.org/2000/svg" xmlns:xlink="http://www.w3.org/1999/xlink" x="0px" y="0px"
	 viewBox="0 0 1000 1000" style="enable-background:new 0 0 1000 1000;" xml:space="preserve">
<style type="text/css">
	.st0{fill-rule:evenodd;clip-rule:evenodd;}
</style>
<g>
	<path class="st0" d="M435.2,854.6C418.5,815.1,410,773.2,410,730s8.5-85.1,25.2-124.6c16.1-38.1,39.2-72.3,68.6-101.7
		c3.7-3.7,7.5-7.3,11.4-10.8c14.7-21.5,28.7-65.7,34.2-94.1c13-6.7,29.2-23.3,34-63.9c2.4-20.1-3.4-35.7-11.6-45.9
		c10.8-36.6,32.9-146-5-207c-1.3-2.2-3.1-3.9-4.6-5.9l-27-26.2c-11.6-7.4-24.9-12.8-40-15.8C477.8,12,444.3,0,399.4,0
		c-68.1,1.3-117.9,22.1-148.1,61.9c-35.8,47.1-42.4,132.8-19.8,226.7c-8.3,10.2-14.5,25.9-12,46.4c4.9,40.6,21.1,57.2,34.1,63.9
		c6.3,32.1,23.8,84.4,40.9,101.4l0,8.6c0.2,18.8,0.3,65.4-1.5,86.5c-11.3,26-79.3,71.1-122.8,88.2C97.9,712,7.9,747.4,1.2,859.5
		l-1.1,18.4c0,0.4-0.1,0.8-0.1,1.2c0,37.4,179.7,67.6,401.4,67.6c31.5,0,62.2-0.6,91.6-1.8C468.7,918.3,449.3,887.9,435.2,854.6z"/>
	<path d="M730,460c-149.1,0-270,120.9-270,270s120.9,270,270,270s270-120.9,270-270S879.1,460,730,460z M752.1,847.6L730,867.1
		l-22.1-19.4c-78.5-70.2-130.2-115.8-130.2-172.5c0-46.3,36.5-82.2,83.7-82.2c26.7,0,51.8,12,68.5,31.4
		c16.8-19.4,41.9-31.4,68.5-31.4c47.2,0,83.8,35.8,83.8,82.2C882.3,731.9,830.5,777.4,752.1,847.6z"/>
</g>
</svg>
