<?xml version="1.0" encoding="utf-8"?>
<!-- Generator: Adobe Illustrator 21.0.0, SVG Export Plug-In . SVG Version: 6.00 Build 0)  -->
<svg version="1.1" id="图层_1" xmlns="http://www.w3.org/2000/svg" xmlns:xlink="http://www.w3.org/1999/xlink" x="0px" y="0px"
	 viewBox="0 0 1000 1000" style="enable-background:new 0 0 1000 1000;" xml:space="preserve">
<style type="text/css">
	.st0{fill-rule:evenodd;clip-rule:evenodd;}
</style>
<path class="st0" d="M835.4,419.3H339V256.9c0-85.9,72.3-155.8,161.1-155.8c88.8,0,161,69.9,161,155.8v29h100.3v-33.2
	C761.4,113.4,644.2,0,500,0S238.5,113.4,238.5,252.8v166.5h-74c-35.7,0-64.6,27.9-64.6,62.4v455.8c0,34.6,28.9,62.5,64.6,62.5h670.9
	c35.7,0,64.5-27.9,64.5-62.5V481.7C900,447.2,871.1,419.3,835.4,419.3z M536.3,721.5V821c0,4.4-3.8,8.2-8.5,8.2h-55.5
	c-4.7,0-8.5-3.7-8.5-8.2v-99.5c-26.1-12.9-44.1-38.7-44.1-69c0-42.9,36-77.7,80.3-77.7c44.4,0,80.4,34.9,80.4,77.7
	C580.4,682.7,562.4,708.6,536.3,721.5z"/>
</svg>
