<?xml version="1.0" encoding="utf-8"?>
<!-- Generator: Adobe Illustrator 21.0.0, SVG Export Plug-In . SVG Version: 6.00 Build 0)  -->
<svg version="1.1" id="图层_1" xmlns="http://www.w3.org/2000/svg" xmlns:xlink="http://www.w3.org/1999/xlink" x="0px" y="0px"
	 viewBox="0 0 1000 1000" style="enable-background:new 0 0 1000 1000;" xml:space="preserve">
<g>
	<path d="M500,200c40.5,0,79.8,7.9,116.7,23.5c35.7,15.1,67.8,36.8,95.4,64.4c27.6,27.6,49.2,59.7,64.4,95.4
		C792.1,420.2,800,459.5,800,500c0,40.5-7.9,79.8-23.5,116.7c-15.1,35.7-36.8,67.8-64.4,95.4s-59.7,49.2-95.4,64.4
		C579.8,792.1,540.5,800,500,800c-40.5,0-79.8-7.9-116.7-23.5c-35.7-15.1-67.8-36.8-95.4-64.4c-27.6-27.6-49.2-59.7-64.4-95.4
		C207.9,579.8,200,540.5,200,500c0-40.5,7.9-79.8,23.5-116.7c15.1-35.7,36.8-67.8,64.4-95.4s59.7-49.2,95.4-64.4
		C420.2,207.9,459.5,200,500,200 M500,100c-220.8,0-400,179.2-400,400c0,220.8,179.2,400,400,400c220.8,0,400-179.2,400-400
		C900,279.2,720.8,100,500,100L500,100z"/>
</g>
</svg>
