<?xml version="1.0" encoding="utf-8"?>
<!-- Generator: Adobe Illustrator 21.0.0, SVG Export Plug-In . SVG Version: 6.00 Build 0)  -->
<svg version="1.1" id="图层_1" xmlns="http://www.w3.org/2000/svg" xmlns:xlink="http://www.w3.org/1999/xlink" x="0px" y="0px"
	 viewBox="0 0 1000 1000" style="enable-background:new 0 0 1000 1000;" xml:space="preserve">
<g>
	<path d="M100,600C44.8,600,0,555.2,0,500c0-55.2,44.8-100,100-100c55.2,0,100,44.8,100,100C200,555.2,155.2,600,100,600z"/>
</g>
<g>
	<path d="M900,600c-55.2,0-100-44.8-100-100c0-55.2,44.8-100,100-100c55.2,0,100,44.8,100,100C1000,555.2,955.2,600,900,600z"/>
</g>
<g>
	<path d="M500,600c-55.2,0-100-44.8-100-100c0-55.2,44.8-100,100-100c55.2,0,100,44.8,100,100C600,555.2,555.2,600,500,600z"/>
</g>
</svg>
