<?xml version="1.0" encoding="utf-8"?>
<!-- Generator: Adobe Illustrator 21.0.0, SVG Export Plug-In . SVG Version: 6.00 Build 0)  -->
<svg version="1.1" id="图层_1" xmlns="http://www.w3.org/2000/svg" xmlns:xlink="http://www.w3.org/1999/xlink" x="0px" y="0px"
	 viewBox="0 0 1000 1000" style="enable-background:new 0 0 1000 1000;" xml:space="preserve">
<path d="M900,240c15.9,0,31,6.3,42.3,17.7C953.7,269,960,284.1,960,300v400c0,15.9-6.3,31-17.7,42.3C931,753.7,915.9,760,900,760
	H100c-15.9,0-31-6.3-42.3-17.7C46.3,731,40,715.9,40,700V300c0-15.9,6.3-31,17.7-42.3C69,246.3,84.1,240,100,240H900 M900,200H100
	C45,200,0,245,0,300v400c0,55,45,100,100,100h800c55,0,100-45,100-100V300C1000,245,955,200,900,200L900,200z"/>
<g>
	<path d="M221,590c-49.7,0-90-40.3-90-90c0-49.7,40.3-90,90-90c49.7,0,90,40.3,90,90C311,549.7,270.6,590,221,590z"/>
	<path d="M779,590c-49.7,0-90-40.3-90-90c0-49.7,40.3-90,90-90c49.7,0,90,40.3,90,90C869,549.7,828.7,590,779,590z"/>
	<path d="M500,590c-49.7,0-90-40.3-90-90c0-49.7,40.3-90,90-90c49.7,0,90,40.3,90,90C590,549.7,549.7,590,500,590z"/>
</g>
</svg>
