<?xml version="1.0" encoding="utf-8"?>
<!-- Generator: Adobe Illustrator 19.0.0, SVG Export Plug-In . SVG Version: 6.00 Build 0)  -->
<svg version="1.1" id="图层_1" xmlns="http://www.w3.org/2000/svg" xmlns:xlink="http://www.w3.org/1999/xlink" x="0px" y="0px"
	 viewBox="0 0 1000 1000" enable-background="new 0 0 1000 1000" xml:space="preserve">
<g id="XMLID_89_">
	<path id="XMLID_2_" d="M465.745,701c3.942-20,9.896-39.114,17.855-57.931c15.113-35.731,36.808-67.739,64.341-95.271
		C575.123,520.616,607,499.276,642,484.192V295H177v406H465.745z M353,449c0,11.046-8.954,20-20,20h-77c-11.046,0-20-8.954-20-20
		v-77c0-11.046,8.954-20,20-20h77c11.046,0,20,8.954,20,20V449z M353,628c0,11.046-8.954,20-20,20h-77c-11.046,0-20-8.954-20-20v-77
		c0-11.046,8.954-20,20-20h77c11.046,0,20,8.954,20,20V628z"/>
	<path id="XMLID_468_" d="M460.016,761h-303.04C134.884,761,117,743.369,117,721.278V274.887C117,252.795,134.884,235,156.976,235
		h504.879C683.946,235,702,252.795,702,274.887v190.749c19-3.739,38.453-5.636,58.158-5.636c19.94,0,39.842,1.937,58.842,5.765V60
		c0-33.137-27.032-60-60.17-60H60C26.863,0,0,26.863,0,60v757.318C0,850.455,26.863,877,60,877h423.83
		c-0.075,0-0.156-0.329-0.23-0.506C468.105,839.86,460.181,801,460.016,761z M529,126c0,11.046-8.954,20-20,20H309
		c-11.046,0-20-8.954-20-20v-20c0-11.046,8.954-20,20-20h200c11.046,0,20,8.954,20,20V126z"/>
	<path id="XMLID_480_" d="M760,520c-132.548,0-240,107.452-240,240s107.452,240,240,240s240-107.452,240-240S892.548,520,760,520z
		 M897.828,638.012l-89.934,107.617C809.258,750.182,810,755.003,810,760c0,27.614-22.386,50-50,50
		c-22.025,0-40.71-14.248-47.377-34.024l-117.925-40.979c-13.412-4.661-20.507-19.312-15.846-32.725v0
		c4.661-13.412,19.312-20.507,32.725-15.846l112.299,39.025C732.979,715.936,745.792,710,760,710c3.37,0,6.66,0.338,9.843,0.974
		l88.529-105.935c9.105-10.896,25.319-12.347,36.215-3.242v0C905.482,610.903,906.933,627.116,897.828,638.012z"/>
</g>
</svg>
