<?xml version="1.0" encoding="utf-8"?>
<!-- Generator: Adobe Illustrator 19.0.0, SVG Export Plug-In . SVG Version: 6.00 Build 0)  -->
<svg version="1.1" id="图层_1" xmlns="http://www.w3.org/2000/svg" xmlns:xlink="http://www.w3.org/1999/xlink" x="0px" y="0px"
	 viewBox="0 0 1000 1000" enable-background="new 0 0 1000 1000" xml:space="preserve">
<g id="XMLID_115_">
	<path id="XMLID_435_" d="M277,43c0-22.091-18.718-40-40.809-40h-10C204.1,3,187,20.909,187,43v43h90V43z"/>
	<path id="XMLID_440_" d="M629.277,884.567c-30.711,0-61.421-11.716-84.853-35.147L379.911,684.906
		c-46.863-46.863-46.863-122.842,0-169.705c46.861-46.863,122.842-46.863,169.705,0l79.867,79.661L802,422.551V266
		c0-99.411-81.001-180-180.412-180H617v127c0,22.091-17.992,40-40.083,40h-10C544.825,253,527,235.091,527,213V86h-80v127
		c0,22.091-18.355,40-40.446,40h-10C374.463,253,357,235.091,357,213V86h-80v127c0,22.091-18.718,40-40.809,40h-10
		C204.1,253,187,235.091,187,213V86H61.588C28.451,86,2,112.863,2,146v790c0,33.137,26.451,60,59.588,60h680
		C774.725,996,802,969.137,802,936V761.962l-87.664,87.458C690.904,872.852,659.988,884.567,629.277,884.567z"/>
	<path id="XMLID_451_" d="M447,43c0-22.091-18.355-40-40.446-40h-10C374.463,3,357,20.909,357,43v43h90V43z"/>
	<path id="XMLID_452_" d="M617,43c0-22.091-17.992-40-40.083-40h-10C544.825,3,527,20.909,527,43v43h90V43z"/>
	<path id="XMLID_453_" d="M986.696,407.148c-15.621-15.621-40.947-15.621-56.568,0L629.277,707.999L493.048,571.77
		c-15.621-15.621-40.947-15.621-56.568,0c-15.621,15.621-15.621,40.947,0,56.568l164.514,164.514
		c7.811,7.811,18.047,11.716,28.284,11.716s20.474-3.905,28.284-11.716l329.135-329.135
		C1002.317,448.096,1002.317,422.77,986.696,407.148z"/>
</g>
</svg>
