<?xml version="1.0" encoding="utf-8"?>
<!-- Generator: Adobe Illustrator 21.0.0, SVG Export Plug-In . SVG Version: 6.00 Build 0)  -->
<svg version="1.1" id="图层_1" xmlns="http://www.w3.org/2000/svg" xmlns:xlink="http://www.w3.org/1999/xlink" x="0px" y="0px"
	 viewBox="0 0 1000 1000" style="enable-background:new 0 0 1000 1000;" xml:space="preserve">
<path d="M900,200c13.2,0,25.8,5.2,35.3,14.7s14.7,22,14.7,35.3v500c0,13.2-5.2,25.8-14.7,35.3c-9.5,9.5-22,14.7-35.3,14.7H100
	c-13.2,0-25.8-5.2-35.3-14.7c-9.5-9.5-14.7-22-14.7-35.3V250c0-13.2,5.2-25.8,14.7-35.3c9.5-9.5,22-14.7,35.3-14.7H900 M900,150H100
	C45,150,0,195,0,250v500c0,55,45,100,100,100h800c55,0,100-45,100-100V250C1000,195,955,150,900,150L900,150z"/>
<g>
	<path d="M418,582v-17.2h-96.9c-4.2,22.9-12.5,42.2-25,57.8c34.4,12.5,100.5,19.3,198.4,20.3c-2.1,3.1-5.2,9.9-9.4,20.3
		c-4.2,7.3-6.8,12.5-7.8,15.6c-97.9-2.1-169.3-12.5-214.1-31.2c-22.9,14.6-62.5,28.6-118.8,42.2c-2.1-3.1-5.2-8.3-9.4-15.6
		c-6.2-9.4-10.9-16.7-14.1-21.9c54.2-9.4,87-16.7,98.4-21.9c-17.7-11.5-34.9-26.6-51.6-45.3l28.1-20.3h-42.2V396.1h132.8v-31.2
		H127.3v-34.4h359.4v34.4H328.9c0,10.4,0,20.8,0,31.2h129.7V582H418z M194.5,430.5v34.4h92.2c0-11.5,0-22.9,0-34.4H194.5z
		 M283.6,530.5c1-10.4,1.6-21.9,1.6-34.4h-90.6v34.4H283.6z M197.7,564.8c22.9,21.9,42.2,35.9,57.8,42.2
		c12.5-9.4,20.3-23.4,23.4-42.2H197.7z M327.3,496.1c0,4.2-0.5,9.9-1.6,17.2c0,8.3-0.5,14.1-1.6,17.2H418v-34.4H327.3z M418,430.5
		h-89.1c0,3.1,0,8.3,0,15.6c-1,8.3-1.6,14.6-1.6,18.8H418V430.5z"/>
	<path d="M557,433.6c-1-2.1-3.1-5.2-6.2-9.4c-6.2-10.4-11.5-18.2-15.6-23.4c64.6-26,115.1-56.2,151.6-90.6l48.4,6.2
		c-12.5,11.5-25,21.9-37.5,31.2h164.1v37.5c-77.1,64.6-185.4,112-325,142.2c-1-2.1-2.6-5.2-4.7-9.4c-1-5.2-4.7-14.1-10.9-26.6
		c56.2-11.5,104.2-24.5,143.8-39.1c-19.8-18.8-37-33.8-51.6-45.3l31.2-18.8c4.2,3.1,10.9,8.3,20.3,15.6
		c16.7,12.5,30.2,22.9,40.6,31.2l-4.7,3.1c37.5-15.6,71.3-34.4,101.6-56.2h-150C631.5,396.6,599.7,413.8,557,433.6z M563.3,602.3
		c-10.4-18.8-17.7-30.7-21.9-35.9c80.2-25,143.2-58.3,189.1-100l46.9,7.8c-11.5,9.4-21.9,18.2-31.2,26.6h132.8v35.9
		c-74,79.2-187.5,129.7-340.6,151.6c-3.1-11.5-7.8-23.4-14.1-35.9c72.9-10.4,127.6-22.9,164.1-37.5c-5.2-5.2-13-12.5-23.4-21.9
		c-10.4-9.4-18.2-16.7-23.4-21.9l34.4-17.2c6.2,5.2,15.1,12.5,26.6,21.9c11.5,9.4,19.8,16.7,25,21.9c35.4-16.7,67.7-37.5,96.9-62.5
		H700.8C659.1,562.3,613.3,584.6,563.3,602.3z"/>
</g>
</svg>
