<?xml version="1.0" encoding="utf-8"?>
<!-- Generator: Adobe Illustrator 19.0.0, SVG Export Plug-In . SVG Version: 6.00 Build 0)  -->
<svg version="1.1" id="图层_1" xmlns="http://www.w3.org/2000/svg" xmlns:xlink="http://www.w3.org/1999/xlink" x="0px" y="0px"
	 viewBox="0 0 1000 1000" enable-background="new 0 0 1000 1000" xml:space="preserve">
<g id="XMLID_217_">
	<path id="XMLID_262_" d="M327.803,466.239c3.751,3.75,8.838,5.858,14.143,5.858s10.392-2.107,14.143-5.858l72.193-72.193
		c7.811-7.811,7.811-20.474,0-28.284s-20.475-7.811-28.285,0l-58.051,58.051l-21.941-21.942c-7.812-7.81-20.475-7.81-28.284,0
		c-7.811,7.811-7.812,20.474-0.001,28.285L327.803,466.239z"/>
	<path id="XMLID_382_" d="M800,111H665V95.52C665,73.428,647.259,56,625.375,56h-42.302c0-31-24.624-56-55-56h-55
		c-30.375,0-55,25-55,56h-43.447C352.741,56,335,73.428,335,95.52V111H200c-33.137,0-60,26.704-60,59.841v768.318
		C140,972.296,166.863,999,200,999h600c33.137,0,60-26.704,60-59.841V170.841C860,137.704,833.137,111,800,111z M270,346
		c0-11.046,8.954-20,20-20h140c11.046,0,20,8.954,20,20v140c0,11.046-8.954,20-20,20H290c-11.046,0-20-8.954-20-20V346z M451,773
		c0,11.046-8.954,20-20,20H291c-11.046,0-20-8.954-20-20V633c0-11.046,8.954-20,20-20h140c11.046,0,20,8.954,20,20V773z M511,396
		c0-11.046,8.954-20,20-20h180c11.046,0,20,8.954,20,20v40c0,11.046-8.954,20-20,20H531c-11.046,0-20-8.954-20-20V396z M732,723
		c0,11.046-8.954,20-20,20H532c-11.046,0-20-8.954-20-20v-40c0-11.046,8.954-20,20-20h180c11.046,0,20,8.954,20,20V723z"/>
	<path id="XMLID_390_" d="M400.996,652.761l-58.051,58.051l-21.941-21.942c-7.812-7.81-20.475-7.81-28.284,0
		c-7.811,7.811-7.812,20.474-0.001,28.285l36.084,36.085c3.751,3.75,8.838,5.858,14.143,5.858s10.392-2.107,14.143-5.858
		l72.193-72.193c7.811-7.811,7.811-20.474,0-28.284S408.807,644.951,400.996,652.761z"/>
</g>
</svg>
