<?xml version="1.0" encoding="utf-8"?>
<!-- Generator: Adobe Illustrator 19.0.0, SVG Export Plug-In . SVG Version: 6.00 Build 0)  -->
<svg version="1.1" id="图层_1" xmlns="http://www.w3.org/2000/svg" xmlns:xlink="http://www.w3.org/1999/xlink" x="0px" y="0px"
	 viewBox="0 0 1000 1000" enable-background="new 0 0 1000 1000" xml:space="preserve">
<g id="XMLID_59_">
	<path id="XMLID_400_" d="M690,656v2.943c0,32.053-12.482,62.217-35.147,84.882C632.188,766.489,602.053,779,570,779H430
		c-32.053,0-62.188-12.511-84.853-35.176C322.482,721.159,310,690.996,310,658.943V656H61.143c-12.438,0-24.594-1.871-36.143-5.474
		V904c0,33.137,26.863,60,60,60h830c33.137,0,60-26.863,60-60V650.526c-11.549,3.604-23.705,5.474-36.143,5.474H690z"/>
	<path id="XMLID_410_" d="M939,208H734v-76.335C734,78.976,691.578,36,638.889,36H361.111C308.422,36,266,78.976,266,131.665V208H61
		c-33.137,0-60,26.863-60,60v268c0,33.137,26.863,60,60,60h309v63c0,33.137,26.863,60,60,60h140c33.137,0,60-26.863,60-60v-63h309
		c33.137,0,60-26.863,60-60V268C999,234.863,972.137,208,939,208z M550,596v43H450v-43v-57h100V596z M654,208H346v-76.335
		c0-8.577,6.534-15.665,15.111-15.665h277.777c8.578,0,15.111,7.088,15.111,15.665V208z"/>
</g>
</svg>
