<?xml version="1.0" encoding="utf-8"?>
<!-- Generator: Adobe Illustrator 16.0.0, SVG Export Plug-In . SVG Version: 6.00 Build 0)  -->
<!DOCTYPE svg PUBLIC "-//W3C//DTD SVG 1.1//EN" "http://www.w3.org/Graphics/SVG/1.1/DTD/svg11.dtd">
<svg version="1.1" id="图形" xmlns="http://www.w3.org/2000/svg" xmlns:xlink="http://www.w3.org/1999/xlink" x="0px" y="0px"
	 width="80px" height="81.839px" viewBox="0 0 80 81.839" enable-background="new 0 0 80 81.839" xml:space="preserve">
<rect x="22.818" display="none" fill="#F1F1F1" width="80" height="81.839"/>
<g>
	<path fill="#444444" d="M50.923,5.493l0.007,40.879c6.208-5.48,14.725-6.328,22.056-1.708L72.978,5.494L50.923,5.493z
		 M70.115,12.103v5.141L54.13,17.248l-0.005-5.141L70.115,12.103z M54.13,28v-5.13l15.99-0.004v5.129L54.13,28z"/>
	<path fill="#444444" d="M0.433,75.331h22.059V5.442H0.433V75.331z M11.286,65.566c-4.064,0-7.354-3.298-7.354-7.359
		c0-4.066,3.29-7.35,7.354-7.35c4.06,0,7.354,3.283,7.354,7.35C18.641,62.268,15.346,65.566,11.286,65.566z M3.632,12.159h15.991
		v5.135H3.632V12.159z M3.632,22.816h15.991v5.137H3.632V22.816z"/>
	<path fill="#444444" d="M47.759,49.583V5.441H25.706v69.888h22.053v-4.062C42.775,65.083,43.665,54.108,47.759,49.583z
		 M28.902,12.159h15.994v5.135H28.902V12.159z M28.902,22.816h15.994v5.137H28.902V22.816z M36.555,65.566
		c-4.064,0-7.355-3.298-7.355-7.359c0-4.066,3.291-7.35,7.355-7.35c4.066,0,7.354,3.283,7.354,7.35
		C43.909,62.268,40.621,65.566,36.555,65.566z"/>
	<g>
		<g>
			<path fill="#444444" d="M63.154,77.235c-9.166,0-16.603-7.435-16.603-16.602c0-9.166,7.437-16.603,16.603-16.603
				s16.602,7.437,16.602,16.603C79.756,69.8,72.32,77.235,63.154,77.235z M70.979,64.547l-3.914-3.914l3.914-3.912
				c0.258-0.259,0.41-0.607,0.41-0.973c0-0.369-0.149-0.737-0.41-0.995l-1.947-1.947c-0.26-0.259-0.628-0.411-0.993-0.411
				c-0.368,0-0.713,0.15-0.974,0.411l-3.914,3.915l-3.912-3.915c-0.259-0.259-0.607-0.411-0.977-0.411
				c-0.366,0-0.733,0.15-0.99,0.411l-1.948,1.947c-0.259,0.258-0.411,0.626-0.411,0.995c0,0.365,0.15,0.712,0.411,0.973l3.915,3.912
				l-3.915,3.914c-0.259,0.257-0.411,0.604-0.411,0.971c0,0.368,0.15,0.736,0.411,0.996l1.948,1.946
				c0.257,0.259,0.625,0.411,0.99,0.411c0.368,0,0.716-0.149,0.977-0.411l3.912-3.913l3.914,3.913
				c0.257,0.259,0.604,0.411,0.974,0.411c0.367,0,0.733-0.149,0.993-0.411l1.947-1.946c0.258-0.26,0.41-0.628,0.41-0.996
				C71.39,65.152,71.24,64.804,70.979,64.547z"/>
		</g>
	</g>
</g>
</svg>
