<?xml version="1.0" encoding="utf-8"?>
<!-- Generator: Adobe Illustrator 16.0.0, SVG Export Plug-In . SVG Version: 6.00 Build 0)  -->
<!DOCTYPE svg PUBLIC "-//W3C//DTD SVG 1.1//EN" "http://www.w3.org/Graphics/SVG/1.1/DTD/svg11.dtd">
<svg version="1.1" id="图形" xmlns="http://www.w3.org/2000/svg" xmlns:xlink="http://www.w3.org/1999/xlink" x="0px" y="0px"
	 width="80px" height="81.839px" viewBox="0 0 80 81.839" enable-background="new 0 0 80 81.839" xml:space="preserve">
<rect x="22.818" display="none" fill="#F1F1F1" width="80" height="81.839"/>
<path fill="#444444" d="M79.8,9.167v63.698c0,2.953-2.421,5.361-5.362,5.361H5.599c-2.94,0-5.354-2.419-5.354-5.361V9.167
	c0-2.943,2.414-5.36,5.354-5.36h9.338v5.683c-1.7,0.801-2.876,2.529-2.876,4.532c0,2.761,2.246,5.01,5.011,5.01
	c2.762,0,5.007-2.249,5.007-5.01c0-1.992-1.172-3.721-2.854-4.521V3.806h11.936v5.683c-1.701,0.801-2.877,2.529-2.877,4.532
	c0,2.761,2.246,5.01,5.012,5.01c2.763,0,5.001-2.249,5.001-5.01c0-1.992-1.165-3.721-2.854-4.521V3.806h11.462v5.683
	c-1.7,0.801-2.875,2.529-2.875,4.532c0,2.761,2.239,5.01,5.005,5.01c2.763,0,5.008-2.249,5.008-5.01
	c0-1.992-1.167-3.721-2.857-4.521V3.806h11.191v5.683c-1.699,0.801-2.876,2.529-2.876,4.532c0,2.761,2.247,5.01,5.013,5.01
	c2.763,0,5.007-2.249,5.007-5.01c0-1.992-1.17-3.721-2.854-4.521V3.806h7.773C77.385,3.805,79.8,6.224,79.8,9.167L79.8,9.167z
	 M9.528,25.393v40.545h62.34V25.393H9.528L9.528,25.393z M58.131,38.905l-16.319,16.32l-3.066,3.066
	c-0.406,0.406-0.969,0.633-1.532,0.633c-0.563,0-1.126-0.227-1.534-0.633l-3.065-3.066l-8.16-8.159
	c-0.406-0.407-0.631-0.969-0.631-1.534c0-0.563,0.226-1.126,0.631-1.532l3.067-3.065c0.405-0.406,0.968-0.63,1.533-0.63
	c0.562,0,1.126,0.224,1.531,0.63l6.628,6.65l14.788-14.812c0.406-0.406,0.969-0.631,1.53-0.631c0.565,0,1.129,0.225,1.535,0.631
	l3.063,3.067c0.406,0.406,0.635,0.968,0.635,1.531C58.766,37.935,58.537,38.501,58.131,38.905z"/>
</svg>
