<?xml version="1.0" encoding="utf-8"?>
<!-- Generator: Adobe Illustrator 16.0.0, SVG Export Plug-In . SVG Version: 6.00 Build 0)  -->
<!DOCTYPE svg PUBLIC "-//W3C//DTD SVG 1.1//EN" "http://www.w3.org/Graphics/SVG/1.1/DTD/svg11.dtd">
<svg version="1.1" id="图形" xmlns="http://www.w3.org/2000/svg" xmlns:xlink="http://www.w3.org/1999/xlink" x="0px" y="0px"
	 width="80px" height="81.839px" viewBox="0 0 80 81.839" enable-background="new 0 0 80 81.839" xml:space="preserve">
<rect x="22.818" display="none" fill="#F1F1F1" width="80" height="81.839"/>
<g>
	<path fill="#444444" d="M62.896,8.954L30.874,40.977l32.022,32.021c0.489,0.489,0.815,1.223,0.815,1.875s-0.326,1.385-0.815,1.875
		l-4.073,4.072c-0.489,0.489-1.222,0.815-1.874,0.815s-1.386-0.326-1.875-0.815l-37.97-37.97c-0.489-0.489-0.815-1.223-0.815-1.874
		c0-0.653,0.326-1.386,0.815-1.875l37.97-37.97c0.489-0.489,1.223-0.815,1.875-0.815s1.385,0.326,1.874,0.815l4.073,4.073
		c0.489,0.489,0.815,1.142,0.815,1.875C63.711,7.733,63.385,8.465,62.896,8.954z"/>
</g>
</svg>
