<?xml version="1.0" encoding="utf-8"?>
<!-- Generator: Adobe Illustrator 16.0.0, SVG Export Plug-In . SVG Version: 6.00 Build 0)  -->
<!DOCTYPE svg PUBLIC "-//W3C//DTD SVG 1.1//EN" "http://www.w3.org/Graphics/SVG/1.1/DTD/svg11.dtd">
<svg version="1.1" id="图形" xmlns="http://www.w3.org/2000/svg" xmlns:xlink="http://www.w3.org/1999/xlink" x="0px" y="0px"
	 width="80px" height="81.839px" viewBox="0 0 80 81.839" enable-background="new 0 0 80 81.839" xml:space="preserve">
<rect x="22.818" display="none" fill="#F1F1F1" width="80" height="81.839"/>
<g>
	<path fill="#444444" d="M78.974,58.853l-3.976,3.976c-0.479,0.477-1.113,0.795-1.83,0.795c-0.635,0-1.352-0.318-1.829-0.795
		L40.088,31.576L8.835,62.829c-0.478,0.477-1.193,0.795-1.83,0.795c-0.636,0-1.352-0.318-1.829-0.795l-3.976-3.976
		c-0.478-0.479-0.796-1.192-0.796-1.83c0-0.637,0.318-1.352,0.796-1.829l37.057-37.057c0.478-0.477,1.193-0.795,1.83-0.795
		c0.636,0,1.352,0.318,1.829,0.795l37.057,37.057c0.478,0.478,0.796,1.192,0.796,1.829C79.77,57.661,79.451,58.375,78.974,58.853z"
		/>
</g>
</svg>
