<?xml version="1.0" encoding="utf-8"?>
<!-- Generator: Adobe Illustrator 16.0.0, SVG Export Plug-In . SVG Version: 6.00 Build 0)  -->
<!DOCTYPE svg PUBLIC "-//W3C//DTD SVG 1.1//EN" "http://www.w3.org/Graphics/SVG/1.1/DTD/svg11.dtd">
<svg version="1.1" id="图形" xmlns="http://www.w3.org/2000/svg" xmlns:xlink="http://www.w3.org/1999/xlink" x="0px" y="0px"
	 width="80px" height="81.839px" viewBox="0 0 80 81.839" enable-background="new 0 0 80 81.839" xml:space="preserve">
<rect x="22.818" display="none" fill="#F1F1F1" width="80" height="81.839"/>
<g>
	<path fill="#444444" d="M78.972,25.703L41.85,62.825c-0.479,0.479-1.195,0.797-1.833,0.797s-1.354-0.318-1.833-0.797L1.063,25.703
		c-0.478-0.479-0.797-1.195-0.797-1.833c0-0.638,0.319-1.354,0.797-1.833l3.982-3.982c0.479-0.479,1.116-0.797,1.833-0.797
		c0.637,0,1.354,0.319,1.833,0.797l31.307,31.306l31.306-31.306c0.479-0.479,1.195-0.797,1.833-0.797
		c0.639,0,1.354,0.319,1.833,0.797l3.982,3.982c0.479,0.479,0.797,1.195,0.797,1.833C79.769,24.507,79.45,25.224,78.972,25.703z"/>
</g>
</svg>
