<?xml version="1.0" encoding="utf-8"?>
<!-- Generator: Adobe Illustrator 16.0.0, SVG Export Plug-In . SVG Version: 6.00 Build 0)  -->
<!DOCTYPE svg PUBLIC "-//W3C//DTD SVG 1.1//EN" "http://www.w3.org/Graphics/SVG/1.1/DTD/svg11.dtd">
<svg version="1.1" id="图形" xmlns="http://www.w3.org/2000/svg" xmlns:xlink="http://www.w3.org/1999/xlink" x="0px" y="0px"
	 width="80px" height="81.839px" viewBox="0 0 80 81.839" enable-background="new 0 0 80 81.839" xml:space="preserve">
<rect x="22.818" display="none" fill="#F1F1F1" width="80" height="81.839"/>
<g enable-background="new    ">
	<path fill="#444444" d="M79.677,20.451c0,1.668-1.382,3.05-3.052,3.05H3.403c-1.669,0-3.052-1.382-3.052-3.05V8.247
		c0-1.67,1.382-3.051,3.052-3.051h73.222c1.666,0,3.048,1.382,3.048,3.051L79.677,20.451L79.677,20.451z M76.625,75.368
		c0,1.669-1.381,3.051-3.05,3.051H6.452c-1.667,0-3.049-1.382-3.049-3.051V29.604c0-1.669,1.382-3.051,3.049-3.051h67.121
		c1.672,0,3.052,1.383,3.052,3.051V75.368L76.625,75.368z M46.116,35.706H33.912c-1.668,0-3.051,1.382-3.051,3.052
		c0,1.669,1.382,3.052,3.051,3.052h12.205c1.667,0,3.049-1.383,3.049-3.052C49.165,37.088,47.783,35.706,46.116,35.706z"/>
</g>
</svg>
