<?xml version="1.0" encoding="utf-8"?>
<!-- Generator: Adobe Illustrator 16.0.0, SVG Export Plug-In . SVG Version: 6.00 Build 0)  -->
<!DOCTYPE svg PUBLIC "-//W3C//DTD SVG 1.1//EN" "http://www.w3.org/Graphics/SVG/1.1/DTD/svg11.dtd">
<svg version="1.1" id="图形" xmlns="http://www.w3.org/2000/svg" xmlns:xlink="http://www.w3.org/1999/xlink" x="0px" y="0px"
	 width="80px" height="81.839px" viewBox="0 0 80 81.839" enable-background="new 0 0 80 81.839" xml:space="preserve">
<rect x="22.818" display="none" fill="#F1F1F1" width="80" height="81.839"/>
<g>
	<path fill="#444444" d="M63.59,42.848L25.652,80.788c-0.489,0.488-1.222,0.814-1.873,0.814c-0.652,0-1.385-0.326-1.873-0.814
		l-4.07-4.071c-0.489-0.488-0.815-1.141-0.815-1.872c0-0.652,0.326-1.384,0.815-1.872L49.83,40.977L17.836,8.982
		c-0.489-0.489-0.815-1.221-0.815-1.873c0-0.651,0.326-1.384,0.815-1.873l4.07-4.07c0.488-0.488,1.221-0.814,1.873-0.814
		c0.651,0,1.384,0.326,1.873,0.814L63.59,39.104c0.488,0.489,0.813,1.221,0.813,1.873C64.403,41.629,64.078,42.36,63.59,42.848z"/>
</g>
</svg>
