<?xml version="1.0" encoding="utf-8"?>
<!-- Generator: Adobe Illustrator 16.0.0, SVG Export Plug-In . SVG Version: 6.00 Build 0)  -->
<!DOCTYPE svg PUBLIC "-//W3C//DTD SVG 1.1//EN" "http://www.w3.org/Graphics/SVG/1.1/DTD/svg11.dtd">
<svg version="1.1" id="图形" xmlns="http://www.w3.org/2000/svg" xmlns:xlink="http://www.w3.org/1999/xlink" x="0px" y="0px"
	 width="80px" height="81.839px" viewBox="0 0 80 81.839" enable-background="new 0 0 80 81.839" xml:space="preserve">
<rect x="22.818" display="none" fill="#F1F1F1" width="80" height="81.839"/>
<g>
	<path fill="#444444" d="M39.969,80.201c-21.935,0-39.73-17.795-39.73-39.729s17.795-39.73,39.73-39.73s39.73,17.795,39.73,39.73
		S61.904,80.201,39.969,80.201z M65.732,38.092L47.006,19.366l-4.709-4.708c-0.621-0.621-1.447-0.931-2.328-0.931
		c-0.879,0-1.708,0.311-2.328,0.931l-4.708,4.708L14.207,38.092c-0.621,0.62-0.932,1.448-0.932,2.328
		c0,0.881,0.311,1.707,0.932,2.327l4.708,4.71c0.62,0.619,1.449,0.932,2.327,0.932c0.881,0,1.707-0.313,2.329-0.932l9.777-9.781
		v25.972c0,1.811,1.501,3.312,3.311,3.312h6.622c1.81,0,3.312-1.501,3.312-3.312V37.676l9.775,9.78
		c0.622,0.619,1.452,0.982,2.33,0.982s1.703-0.363,2.325-0.982l4.709-4.708c0.621-0.621,0.931-1.448,0.931-2.328
		C66.663,39.541,66.354,38.712,65.732,38.092z"/>
</g>
</svg>
