<?xml version="1.0" encoding="utf-8"?>
<!-- Generator: Adobe Illustrator 16.0.0, SVG Export Plug-In . SVG Version: 6.00 Build 0)  -->
<!DOCTYPE svg PUBLIC "-//W3C//DTD SVG 1.1//EN" "http://www.w3.org/Graphics/SVG/1.1/DTD/svg11.dtd">
<svg version="1.1" id="图形" xmlns="http://www.w3.org/2000/svg" xmlns:xlink="http://www.w3.org/1999/xlink" x="0px" y="0px"
	 width="80px" height="81.839px" viewBox="0 0 80 81.839" enable-background="new 0 0 80 81.839" xml:space="preserve">
<rect x="22.818" display="none" fill="#F1F1F1" width="80" height="81.839"/>
<path fill="#444444" d="M79.719,7.964v63.451c0,2.936-2.403,5.341-5.335,5.341H5.808c-2.937,0-5.342-2.405-5.342-5.341V7.964
	c0-2.935,2.404-5.343,5.342-5.343h9.299v5.658c-1.694,0.798-2.862,2.519-2.862,4.516c0,2.754,2.232,4.986,4.984,4.986
	c2.755,0,4.99-2.231,4.99-4.986c0-1.988-1.162-3.703-2.844-4.507V2.622h11.89V8.28c-1.689,0.798-2.862,2.518-2.862,4.516
	c0,2.755,2.235,4.986,4.99,4.986c2.753,0,4.985-2.231,4.985-4.986c0-1.987-1.163-3.703-2.844-4.507V2.624h11.414v5.657
	C45.254,9.08,44.08,10.8,44.08,12.798c0,2.754,2.236,4.986,4.992,4.986c2.754,0,4.986-2.231,4.986-4.986
	c0-1.988-1.162-3.704-2.842-4.507V2.625h11.146v5.658c-1.688,0.794-2.859,2.515-2.859,4.512c0,2.754,2.234,4.986,4.99,4.986
	c2.754,0,4.983-2.231,4.983-4.986c0-1.988-1.165-3.703-2.839-4.507V2.622h7.742C77.319,2.621,79.719,5.025,79.719,7.964
	L79.719,7.964z M9.719,24.119V64.51h62.095V24.119H9.719L9.719,24.119z M35.558,28.691h-4.374c-1.864,2.403-4.598,3.997-8.191,4.76
	v3.469h0.733c1.719,0,2.826,0.12,3.326,0.357c0.491,0.241,0.797,0.598,0.908,1.063c0.106,0.467,0.164,1.863,0.164,4.176v16.03h7.435
	L35.558,28.691L35.558,28.691z M54.731,28.691H38.723l-0.299,15.063h7.358c0-0.874,0.027-1.425,0.102-1.664
	c0.068-0.234,0.226-0.458,0.461-0.664c0.234-0.207,0.536-0.313,0.884-0.313c0.543,0,0.943,0.199,1.179,0.601
	c0.235,0.413,0.357,1.164,0.357,2.279V49.9c-0.027,2.072-0.047,3.235-0.064,3.513c-0.02,0.269-0.143,0.515-0.374,0.743
	c-0.234,0.235-0.541,0.352-0.916,0.352c-0.813,0-1.282-0.399-1.421-1.214c-0.139-0.81-0.207-2.176-0.207-4.098v-1.857h-7.434v1.622
	c0,2.771,0.305,4.826,0.925,6.151c0.618,1.332,1.653,2.327,3.121,2.996c1.465,0.675,3.155,1.009,5.078,1.009
	c1.712,0,3.155-0.229,4.344-0.675c1.192-0.446,2.12-1.097,2.781-1.931c0.66-0.842,1.098-1.763,1.304-2.749
	c0.201-0.993,0.303-2.544,0.303-4.647v-4.264c0-3.271-0.529-5.477-1.576-6.624c-1.058-1.15-2.615-1.725-4.67-1.725
	c-1.826,0-3.317,0.682-4.472,2.047v-5.102h9.247L54.731,28.691L54.731,28.691z"/>
</svg>
