<?xml version="1.0" encoding="utf-8"?>
<!-- Generator: Adobe Illustrator 16.0.0, SVG Export Plug-In . SVG Version: 6.00 Build 0)  -->
<!DOCTYPE svg PUBLIC "-//W3C//DTD SVG 1.1//EN" "http://www.w3.org/Graphics/SVG/1.1/DTD/svg11.dtd">
<svg version="1.1" id="图形" xmlns="http://www.w3.org/2000/svg" xmlns:xlink="http://www.w3.org/1999/xlink" x="0px" y="0px"
	 width="80px" height="81.839px" viewBox="0 0 80 81.839" enable-background="new 0 0 80 81.839" xml:space="preserve">
<rect x="22.818" display="none" fill="#F1F1F1" width="80" height="81.839"/>
<g>
	<path fill="#444444" d="M40.081,80.092c-21.92,0-39.704-17.786-39.704-39.704c0-21.92,17.784-39.704,39.704-39.704
		s39.704,17.784,39.704,39.704C79.785,62.306,61.999,80.092,40.081,80.092z M40.081,12.265c-15.51,0-28.124,12.615-28.124,28.124
		s12.615,28.124,28.124,28.124s28.122-12.615,28.122-28.124S55.589,12.265,40.081,12.265z M59.932,45.35
		c0,0.881-0.774,1.655-1.653,1.655H40.081v9.928c0,0.929-0.724,1.655-1.654,1.655c-0.466,0-0.879-0.204-1.241-0.517L20.694,41.578
		c-0.311-0.311-0.466-0.775-0.466-1.189c0-0.415,0.155-0.879,0.466-1.189l16.543-16.543c0.311-0.311,0.775-0.465,1.189-0.465
		c0.879,0,1.654,0.775,1.654,1.653v9.927h18.197c0.879,0,1.653,0.775,1.653,1.654V45.35z"/>
</g>
</svg>
