<?xml version="1.0" encoding="utf-8"?>
<!-- Generator: Adobe Illustrator 16.0.0, SVG Export Plug-In . SVG Version: 6.00 Build 0)  -->
<!DOCTYPE svg PUBLIC "-//W3C//DTD SVG 1.1//EN" "http://www.w3.org/Graphics/SVG/1.1/DTD/svg11.dtd">
<svg version="1.1" id="图形" xmlns="http://www.w3.org/2000/svg" xmlns:xlink="http://www.w3.org/1999/xlink" x="0px" y="0px"
	 width="80px" height="81.839px" viewBox="0 0 80 81.839" enable-background="new 0 0 80 81.839" xml:space="preserve">
<rect x="22.818" display="none" fill="#F1F1F1" width="80" height="81.839"/>
<path fill="#444444" d="M29.65,30.474c-5.103,5.665-9.438,11.418-12.584,17.318l2.013,1.814l-3.49,1.167
	c-3.909,8.511-5.226,17.334-2.687,26.61C11.02,77.6,9.138,77.811,7.254,78.02c-0.431,1.229-0.863,2.456-1.29,3.681
	c23.317,0,46.637,0,69.953,0c-0.698-0.927-1.397-1.858-2.1-2.779c-1.882-1.046-3.765-2.092-5.643-3.136
	c0.683-3.124,1.066-6.091,1.173-8.92l-2.537-3.251l2.461-1.417c-0.482-6.52-2.53-12.244-5.796-17.346l-2.635-1.326l-0.393-2.817
	c-2.767-3.356-6.095-6.427-9.857-9.276C43.607,31.112,36.632,30.792,29.65,30.474L29.65,30.474z M49.249,50.196h-7.47v-1.239
	c0-1.319-0.088-2.174-0.259-2.582c-0.175-0.414-0.536-0.615-1.103-0.615c-0.458,0-0.8,0.173-1.029,0.524
	c-0.226,0.354-0.336,0.876-0.336,1.582c0,1.175,0.235,1.995,0.699,2.464c0.457,0.465,1.801,1.378,4.036,2.737
	c1.896,1.149,3.193,2.03,3.881,2.637c0.684,0.611,1.271,1.476,1.745,2.594c0.477,1.116,0.714,2.508,0.714,4.172
	c0,2.663-0.64,4.754-1.918,6.275c-1.287,1.518-3.213,2.453-5.783,2.811v2.813h-3.452v-2.885c-1.999-0.201-3.744-0.969-5.234-2.312
	c-1.495-1.335-2.242-3.676-2.242-7.008v-1.459h7.476v1.83c0,2.013,0.079,3.257,0.233,3.739c0.151,0.493,0.527,0.73,1.116,0.73
	c0.498,0,0.878-0.167,1.132-0.505c0.239-0.343,0.368-0.847,0.368-1.515c0-1.674-0.129-2.874-0.357-3.6
	c-0.237-0.72-1.033-1.51-2.406-2.36c-2.279-1.431-3.831-2.475-4.656-3.153c-0.811-0.672-1.527-1.615-2.12-2.843
	c-0.602-1.219-0.903-2.592-0.903-4.138c0-2.232,0.639-3.983,1.9-5.256c1.26-1.271,3.161-2.055,5.691-2.352v-2.388h3.454v2.386
	c2.31,0.296,4.034,1.068,5.185,2.318c1.146,1.252,1.718,2.984,1.718,5.191C49.325,49.093,49.301,49.568,49.249,50.196L49.249,50.196
	z M33.823,21.049l14.758,1.257l4.184-11.725l-7.529-4.5L43.452,16.55L43.137,3.155l-3.871-0.316l0.522,12.46L35.5,0.221
	l-8.166,2.406L33.823,21.049L33.823,21.049z M29.993,28.192c-1.309-0.068-2.312-1.183-2.232-2.497
	c0.068-1.304,1.186-2.305,2.491-2.229l20.933,1.149c1.309,0.073,2.306,1.188,2.235,2.497c-0.076,1.304-1.19,2.305-2.496,2.233
	L29.993,28.192z"/>
</svg>
