<?xml version="1.0" encoding="utf-8"?>
<!-- Generator: Adobe Illustrator 21.0.0, SVG Export Plug-In . SVG Version: 6.00 Build 0)  -->
<svg version="1.1" id="图层_1" xmlns="http://www.w3.org/2000/svg" xmlns:xlink="http://www.w3.org/1999/xlink" x="0px" y="0px"
	 viewBox="0 0 1000 1000" style="enable-background:new 0 0 1000 1000;" xml:space="preserve">
<g>
	<rect x="526.5" y="921.4" width="122.5" height="78.6"/>
	<path d="M412.5,0H61C27.4,0,0,27.4,0,61v351.4c0,33.7,27.4,61,61,61h351.4c33.7,0,61-27.4,61-61V61C473.5,27.4,446.1,0,412.5,0z
		 M394.9,78.6v316.3H78.6V78.6H394.9z"/>
	<rect x="526.5" y="631.4" width="78.6" height="122.5"/>
	<rect x="526.5" y="778.4" width="78.6" height="122.5"/>
	<path d="M412.5,526.5H61c-33.7,0-61,27.4-61,61V939c0,33.7,27.4,61,61,61h351.4c33.7,0,61-27.4,61-61V587.5
		C473.5,553.9,446.1,526.5,412.5,526.5z M394.9,605.1v316.3H78.6V605.1H394.9z"/>
	<rect x="877.5" y="921.4" width="122.5" height="78.6"/>
	<rect x="877.5" y="526.5" width="122.5" height="78.6"/>
	<path d="M939,0H587.5c-33.7,0-61,27.4-61,61v351.4c0,33.7,27.4,61,61,61H939c33.7,0,61-27.4,61-61V61C1000,27.4,972.6,0,939,0z
		 M921.4,78.6v316.3H605.1V78.6H921.4z"/>
	<rect x="921.4" y="631.4" width="78.6" height="122.5"/>
	<rect x="702" y="526.5" width="122.5" height="78.6"/>
	<rect x="702" y="921.4" width="122.5" height="78.6"/>
	<rect x="526.5" y="526.5" width="122.5" height="78.6"/>
	<rect x="921.4" y="778.4" width="78.6" height="122.5"/>
</g>
</svg>
