<?xml version="1.0" encoding="utf-8"?>
<!-- Generator: Adobe Illustrator 16.0.0, SVG Export Plug-In . SVG Version: 6.00 Build 0)  -->
<!DOCTYPE svg PUBLIC "-//W3C//DTD SVG 1.1//EN" "http://www.w3.org/Graphics/SVG/1.1/DTD/svg11.dtd">
<svg version="1.1" id="图形" xmlns="http://www.w3.org/2000/svg" xmlns:xlink="http://www.w3.org/1999/xlink" x="0px" y="0px"
	 width="80px" height="81.839px" viewBox="0 0 80 81.839" enable-background="new 0 0 80 81.839" xml:space="preserve">
<rect x="22.818" display="none" fill="#F1F1F1" width="80" height="81.839"/>
<g>
	<path fill="#444444" d="M71.8,69.786H51.565c0,6.37-5.195,11.564-11.563,11.564c-6.371,0-11.564-5.194-11.564-11.564H8.201
		c-3.163,0-5.783-2.62-5.783-5.782c6.686-5.647,14.455-15.766,14.455-37.582c0-8.673,7.182-18.159,19.152-19.92
		c-0.226-0.543-0.361-1.129-0.361-1.761c0-2.394,1.942-4.336,4.336-4.336c2.394,0,4.335,1.942,4.335,4.336
		c0,0.632-0.138,1.218-0.361,1.761c11.972,1.763,19.153,11.248,19.153,19.92c0,21.816,7.771,31.935,14.454,37.582
		C77.584,67.166,74.963,69.786,71.8,69.786z M40,76.288c-3.568,0-6.503-2.935-6.503-6.502c0-0.408-0.317-0.727-0.724-0.727
		c-0.406,0-0.723,0.318-0.723,0.727c0,4.381,3.568,7.95,7.951,7.95c0.407,0,0.723-0.32,0.723-0.727
		C40.723,76.602,40.407,76.288,40,76.288z"/>
</g>
</svg>
