<?xml version="1.0" encoding="utf-8"?>
<!-- Generator: Adobe Illustrator 16.0.0, SVG Export Plug-In . SVG Version: 6.00 Build 0)  -->
<!DOCTYPE svg PUBLIC "-//W3C//DTD SVG 1.1//EN" "http://www.w3.org/Graphics/SVG/1.1/DTD/svg11.dtd">
<svg version="1.1" id="图形" xmlns="http://www.w3.org/2000/svg" xmlns:xlink="http://www.w3.org/1999/xlink" x="0px" y="0px"
	 width="80px" height="81.839px" viewBox="0 0 80 81.839" enable-background="new 0 0 80 81.839" xml:space="preserve">
<rect x="22.818" display="none" fill="#F1F1F1" width="80" height="81.839"/>
<g>
	<path fill="#444444" d="M79.627,33.842c0,3.145-2.523,5.669-5.67,5.669V56.52c0,3.102-2.567,5.669-5.67,5.669
		c-7.885-6.555-20.595-15.544-35.963-16.83c-5.271,1.774-7.087,7.929-3.633,11.471c-3.101,5.096,0.885,8.682,5.581,12.357
		c-2.747,5.404-14.173,5.493-18.248,1.727c-2.566-7.885-6.377-15.769-3.276-25.733h-5.4c-3.899,0-7.086-3.189-7.086-7.085v-8.504
		c0-3.897,3.189-7.085,7.086-7.085h21.258c17.006,0,31.182-9.922,39.684-17.007c3.1,0,5.67,2.568,5.67,5.669v17.007
		C77.104,28.172,79.627,30.698,79.627,33.842z M68.29,12.671c-11.56,8.857-22.766,13.951-34.014,15.191V39.82
		c11.249,1.241,22.456,6.246,34.014,15.104V12.671z"/>
</g>
</svg>
