<?xml version="1.0" encoding="utf-8"?>
<!-- Generator: Adobe Illustrator 16.0.0, SVG Export Plug-In . SVG Version: 6.00 Build 0)  -->
<!DOCTYPE svg PUBLIC "-//W3C//DTD SVG 1.1//EN" "http://www.w3.org/Graphics/SVG/1.1/DTD/svg11.dtd">
<svg version="1.1" id="图形" xmlns="http://www.w3.org/2000/svg" xmlns:xlink="http://www.w3.org/1999/xlink" x="0px" y="0px"
	 width="80px" height="81.839px" viewBox="0 0 80 81.839" enable-background="new 0 0 80 81.839" xml:space="preserve">
<rect x="22.818" display="none" fill="#F1F1F1" width="80" height="81.839"/>
<g enable-background="new    ">
	<path fill="#444444" d="M79.47,27.118L66.335,70.395c-1.196,4.062-5.396,7.213-9.505,7.213H12.739
		c-4.872,0-10.08-3.87-11.848-8.838c-0.764-2.148-0.764-4.251-0.096-6.067c0.096-0.953,0.287-1.911,0.334-3.058
		c0.049-0.763-0.381-1.385-0.286-1.957c0.192-1.148,1.194-1.96,1.958-3.25c1.433-2.387,3.057-6.259,3.583-8.739
		c0.238-0.907-0.238-1.957,0-2.771c0.238-0.908,1.147-1.574,1.623-2.439c1.291-2.197,2.963-6.448,3.202-8.693
		c0.096-1.002-0.383-2.102-0.095-2.866c0.333-1.099,1.386-1.576,2.102-2.531c1.146-1.577,3.057-6.115,3.345-8.647
		c0.095-0.813-0.384-1.625-0.239-2.485c0.19-0.907,1.336-1.862,2.101-2.962c2.005-2.962,2.387-9.506,8.453-7.787l-0.046,0.145
		c0.813-0.192,1.624-0.431,2.437-0.431h36.352c2.246,0,4.253,1.004,5.443,2.675c1.242,1.72,1.529,3.964,0.861,6.21l-13.092,43.28
		c-2.245,7.356-3.487,8.977-9.555,8.977H7.771c-0.621,0-1.385,0.147-1.816,0.719c-0.382,0.573-0.429,1.005-0.047,2.054
		c0.955,2.771,4.25,3.344,6.879,3.344h44.091c1.766,0,3.819-1.005,4.346-2.725l14.33-47.146c0.287-0.907,0.287-1.862,0.24-2.723
		c1.095,0.43,2.098,1.1,2.815,2.056C79.804,22.675,80.14,24.92,79.47,27.118z M24.873,34.808h29.043c0.813,0,1.72-0.667,2.005-1.529
		l1.004-3.058c0.286-0.86-0.191-1.528-1.052-1.528H26.831c-0.812,0-1.72,0.668-2.007,1.528l-1.002,3.058
		C23.535,34.14,24.011,34.808,24.873,34.808z M28.836,22.579h29.044c0.812,0,1.721-0.669,2.006-1.529l1.003-3.057
		c0.286-0.861-0.192-1.531-1.051-1.531H30.796c-0.813,0-1.72,0.669-2.006,1.531l-1.003,3.057
		C27.5,21.91,27.977,22.579,28.836,22.579z"/>
</g>
</svg>
