<?xml version="1.0" encoding="utf-8"?>
<!-- Generator: Adobe Illustrator 16.0.0, SVG Export Plug-In . SVG Version: 6.00 Build 0)  -->
<!DOCTYPE svg PUBLIC "-//W3C//DTD SVG 1.1//EN" "http://www.w3.org/Graphics/SVG/1.1/DTD/svg11.dtd">
<svg version="1.1" id="图形" xmlns="http://www.w3.org/2000/svg" xmlns:xlink="http://www.w3.org/1999/xlink" x="0px" y="0px"
	 width="80px" height="81.839px" viewBox="0 0 80 81.839" enable-background="new 0 0 80 81.839" xml:space="preserve">
<rect x="22.818" display="none" fill="#F1F1F1" width="80" height="81.839"/>
<g>
	<path fill="#444444" d="M40.073,80.706c-21.965,0-39.785-17.82-39.785-39.786c0-21.965,17.82-39.785,39.785-39.785
		c21.965,0,39.786,17.82,39.786,39.785C79.858,62.885,62.038,80.706,40.073,80.706z M65.871,30.145l-4.713-4.662
		c-0.622-0.622-1.453-0.984-2.332-0.984c-0.881,0-1.71,0.362-2.33,0.984L35.358,46.567L23.651,34.858
		c-0.622-0.621-1.451-0.983-2.332-0.983c-0.881,0-1.709,0.363-2.331,0.983l-4.714,4.663c-0.622,0.622-0.932,1.503-0.932,2.384
		s0.311,1.709,0.932,2.331l18.753,18.752c0.622,0.623,1.502,0.985,2.331,0.985c0.881,0,1.761-0.362,2.383-0.985l28.13-28.129
		c0.621-0.621,0.933-1.45,0.933-2.331S66.492,30.767,65.871,30.145z"/>
</g>
</svg>
