<?xml version="1.0" encoding="utf-8"?>
<!-- Generator: Adobe Illustrator 16.0.0, SVG Export Plug-In . SVG Version: 6.00 Build 0)  -->
<!DOCTYPE svg PUBLIC "-//W3C//DTD SVG 1.1//EN" "http://www.w3.org/Graphics/SVG/1.1/DTD/svg11.dtd">
<svg version="1.1" id="图形" xmlns="http://www.w3.org/2000/svg" xmlns:xlink="http://www.w3.org/1999/xlink" x="0px" y="0px"
	 width="80px" height="81.839px" viewBox="0 0 80 81.839" enable-background="new 0 0 80 81.839" xml:space="preserve">
<rect x="22.818" display="none" fill="#F1F1F1" width="80" height="81.839"/>
<g>
	<path fill="#444444" d="M39.998,63.018c-2.158,0-4.318-0.136-6.389-0.354c-5.773,5.11-12.647,8.723-20.271,10.664
		c-1.586,0.442-3.306,0.751-5.024,0.971C7.346,74.386,6.42,73.683,6.2,72.624c0-0.042,0-0.042,0-0.042
		c-0.22-1.104,0.528-1.764,1.19-2.559c2.776-3.131,5.949-5.774,8.021-13.133C6.332,51.737,0.516,43.757,0.516,34.812
		c0-15.556,17.67-28.203,39.485-28.203c21.813,0,39.484,12.603,39.484,28.203C79.485,50.416,61.813,63.018,39.998,63.018z"/>
</g>
</svg>
