<?xml version="1.0" encoding="utf-8"?>
<!-- Generator: Adobe Illustrator 21.0.0, SVG Export Plug-In . SVG Version: 6.00 Build 0)  -->
<svg version="1.1" id="图层_1" xmlns="http://www.w3.org/2000/svg" xmlns:xlink="http://www.w3.org/1999/xlink" x="0px" y="0px"
	 viewBox="0 0 1000 1000" style="enable-background:new 0 0 1000 1000;" xml:space="preserve">
<style type="text/css">
	.st0{fill-rule:evenodd;clip-rule:evenodd;}
</style>
<g>
	<path class="st0" d="M510.5,359.3c-107.1,0-194.2,87.1-194.2,194.2c0,107.1,87.1,194.2,194.2,194.2c107.1,0,194.2-87.1,194.2-194.2
		C704.7,446.4,617.6,359.3,510.5,359.3L510.5,359.3 M923.3,191.9H741.6l-71.6-92c-4-5.1-10-8-16.5-8H357c-6.6,0-12.9,3.1-16.8,8.5
		l-67.4,91.5H76.7C34.4,191.9,0,226.3,0,268.6v562.8c0,42.3,34.4,76.7,76.7,76.7h846.5c42.3,0,76.7-34.4,76.7-76.7V268.6
		C1000,226.3,965.6,191.9,923.3,191.9L923.3,191.9 M510.5,789.5c-130.2,0-236-105.9-236-236c0-130.2,105.9-236,236-236
		c130.2,0,236,105.9,236,236C746.5,683.6,640.6,789.5,510.5,789.5L510.5,789.5 M834.1,369.3c-16.9,0-30.6-13.7-30.6-30.6
		c0-16.9,13.7-30.6,30.6-30.6c16.9,0,30.6,13.7,30.6,30.6C864.6,355.6,850.9,369.3,834.1,369.3L834.1,369.3 M834.1,369.3
		L834.1,369.3z"/>
</g>
</svg>
