<?xml version="1.0" encoding="utf-8"?>
<!-- Generator: Adobe Illustrator 16.0.0, SVG Export Plug-In . SVG Version: 6.00 Build 0)  -->
<!DOCTYPE svg PUBLIC "-//W3C//DTD SVG 1.1//EN" "http://www.w3.org/Graphics/SVG/1.1/DTD/svg11.dtd">
<svg version="1.1" id="图形" xmlns="http://www.w3.org/2000/svg" xmlns:xlink="http://www.w3.org/1999/xlink" x="0px" y="0px"
	 width="80px" height="81.839px" viewBox="0 0 80 81.839" enable-background="new 0 0 80 81.839" xml:space="preserve">
<rect x="22.818" display="none" fill="#F1F1F1" width="80" height="81.839"/>
<g>
	<path fill="#444444" d="M79.694,58.441c0,0.697-0.541,1.24-1.24,1.24h-3.717v4.955c0,4.105-3.328,7.433-7.432,7.433
		c-4.104,0-7.432-3.327-7.432-7.433v-4.955H20.233v4.955c0,4.105-3.33,7.433-7.433,7.433c-4.103,0-7.432-3.327-7.432-7.433v-4.955
		H1.652c-0.697,0-1.239-0.543-1.239-1.24V43.575c0-4.8,3.872-8.671,8.671-8.671h1.084l4.065-16.221
		c1.199-4.878,5.923-8.555,10.956-8.555h29.731c5.035,0,9.757,3.677,10.955,8.555l4.068,16.221h1.083
		c4.803,0,8.672,3.871,8.672,8.671v14.866H79.694z M12.799,41.099c-3.406,0-6.193,2.786-6.193,6.194
		c0,3.406,2.788,6.192,6.193,6.192s6.194-2.786,6.194-6.192C18.993,43.885,16.207,41.099,12.799,41.099z M59.721,34.905
		l-3.446-13.82c-0.116-0.425-0.89-1.045-1.355-1.045h-29.73c-0.464,0-1.239,0.62-1.355,1.045l-3.444,13.82H59.721z M67.308,41.099
		c-3.406,0-6.193,2.786-6.193,6.194c0,3.406,2.787,6.192,6.193,6.192c3.407,0,6.195-2.786,6.195-6.192
		C73.503,43.885,70.715,41.099,67.308,41.099z"/>
</g>
</svg>
