<?xml version="1.0" encoding="utf-8"?>
<!-- Generator: Adobe Illustrator 16.0.0, SVG Export Plug-In . SVG Version: 6.00 Build 0)  -->
<!DOCTYPE svg PUBLIC "-//W3C//DTD SVG 1.1//EN" "http://www.w3.org/Graphics/SVG/1.1/DTD/svg11.dtd">
<svg version="1.1" id="图形" xmlns="http://www.w3.org/2000/svg" xmlns:xlink="http://www.w3.org/1999/xlink" x="0px" y="0px"
	 width="80px" height="81.839px" viewBox="0 0 80 81.839" enable-background="new 0 0 80 81.839" xml:space="preserve">
<rect x="22.818" display="none" fill="#F1F1F1" width="80" height="81.839"/>
<g>
	<path fill="#444444" d="M62.611,30.84c0,12.528-13.946,22.668-31.17,22.668c-2.701,0-5.313-0.265-7.793-0.708
		c-3.674,2.611-7.836,4.516-12.309,5.667c-1.194,0.311-2.479,0.53-3.807,0.708c-0.044,0-0.089,0-0.133,0
		c-0.664,0-1.283-0.532-1.417-1.285c-0.175-0.841,0.399-1.372,0.886-1.946c1.726-1.948,3.674-3.674,5.179-7.353
		C4.875,44.432,0.271,38.012,0.271,30.839C0.271,18.31,14.217,8.17,31.44,8.17C48.663,8.17,62.611,18.31,62.611,30.84z M5.939,30.84
		c0,4.87,3.276,9.562,8.943,12.84l4.296,2.479l-1.551,3.72c0.93-0.532,1.86-1.106,2.745-1.727l1.949-1.371l2.345,0.441
		c2.215,0.398,4.472,0.62,6.775,0.62c13.814,0,25.502-7.795,25.502-17.002c0-9.209-11.688-17.004-25.502-17.004
		C17.627,13.836,5.939,21.631,5.939,30.84z M73.015,67.28c0.489,0.573,1.066,1.104,0.889,1.945c-0.18,0.797-0.841,1.372-1.55,1.285
		c-1.329-0.179-2.613-0.398-3.808-0.709c-4.474-1.151-8.631-3.056-12.309-5.667c-2.479,0.441-5.093,0.707-7.791,0.707
		c-8.015,0-15.364-2.213-20.899-5.844c1.285,0.09,2.612,0.178,3.897,0.178c9.521,0,18.506-2.746,25.368-7.704
		c7.394-5.401,11.466-12.707,11.466-20.632c0-2.303-0.355-4.56-1.017-6.729c7.479,4.116,12.351,10.669,12.351,18.063
		c0,7.218-4.602,13.596-11.778,17.755C69.34,63.601,71.288,65.328,73.015,67.28z"/>
</g>
</svg>
