<?xml version="1.0" encoding="utf-8"?>
<!-- Generator: Adobe Illustrator 16.0.0, SVG Export Plug-In . SVG Version: 6.00 Build 0)  -->
<!DOCTYPE svg PUBLIC "-//W3C//DTD SVG 1.1//EN" "http://www.w3.org/Graphics/SVG/1.1/DTD/svg11.dtd">
<svg version="1.1" id="图形" xmlns="http://www.w3.org/2000/svg" xmlns:xlink="http://www.w3.org/1999/xlink" x="0px" y="0px"
	 width="80px" height="81.839px" viewBox="0 0 80 81.839" enable-background="new 0 0 80 81.839" xml:space="preserve">
<rect x="22.818" display="none" fill="#F1F1F1" width="80" height="81.839"/>
<g enable-background="new    ">
	<path fill="#444444" d="M40,80.646c-21.933,0-39.727-17.794-39.727-39.727S18.067,1.192,40,1.192
		c21.931,0,39.728,17.794,39.728,39.727S61.931,80.646,40,80.646z M40,12.78c-15.518,0-28.14,12.621-28.14,28.14
		c0,15.52,12.623,28.14,28.14,28.14c15.519,0,28.138-12.622,28.138-28.14C68.138,25.401,55.519,12.78,40,12.78z M46.621,45.885
		c0,0.931-0.724,1.655-1.655,1.655H28.413c-0.931,0-1.656-0.725-1.656-1.655v-3.311c0-0.931,0.725-1.655,1.656-1.655H40V22.711
		c0-0.932,0.725-1.656,1.655-1.656h3.311c0.932,0,1.655,0.724,1.655,1.656V45.885z"/>
</g>
</svg>
