<?xml version="1.0" encoding="utf-8"?>
<!-- Generator: Adobe Illustrator 16.0.0, SVG Export Plug-In . SVG Version: 6.00 Build 0)  -->
<!DOCTYPE svg PUBLIC "-//W3C//DTD SVG 1.1//EN" "http://www.w3.org/Graphics/SVG/1.1/DTD/svg11.dtd">
<svg version="1.1" id="图形" xmlns="http://www.w3.org/2000/svg" xmlns:xlink="http://www.w3.org/1999/xlink" x="0px" y="0px"
	 width="80px" height="81.839px" viewBox="0 0 80 81.839" enable-background="new 0 0 80 81.839" xml:space="preserve">
<rect x="22.818" display="none" fill="#F1F1F1" width="80" height="81.839"/>
<path fill-rule="evenodd" clip-rule="evenodd" fill="#444444" d="M78.465,73.938c0,0,0-58.723,0-66.792s-6.753-6.754-6.753-6.754
	s-45.59,0-53.47,0c-7.878,0-7.131,4.878-7.131,4.878l-0.013,8.496h1.728c3.006,0,5.441,2.688,5.441,6.001
	c0,3.319-2.436,6.006-5.441,6.006h-1.732v2.359v6.156v0.114h1.732c3.006,0,5.441,2.689,5.441,6.002c0,3.319-2.436,6.005-5.441,6.005
	h-1.732v0.929v6.472v2.353h1.732c3.006,0,5.441,2.69,5.441,6.004c0,3.32-2.436,6.006-5.441,6.006h-1.732v5.013
	c0,8.814,6.397,8.441,6.397,8.441s47.84,0,54.968,0C79.588,81.627,78.465,73.938,78.465,73.938z M66.813,59.072
	c0,1.071-0.868,1.939-1.939,1.939H27.379c-1.07,0-1.938-0.868-1.938-1.939v-0.005h-0.004c0,0,0-7.068,5.167-9.641
	c3.264-1.621,2.009-0.303,6.021-1.97c4.008-1.659,4.962-2.24,4.962-2.24l0.038-3.828c0,0-1.505-1.149-1.973-4.751
	c-0.937,0.271-1.25-1.105-1.304-1.98c-0.052-0.846-0.545-3.489,0.603-3.25c-0.235-1.764-0.404-3.354-0.321-4.198
	c0.289-2.958,3.138-6.05,7.526-6.275c5.165,0.226,7.21,3.315,7.497,6.273c0.086,0.844-0.102,2.436-0.334,4.197
	c1.147-0.235,0.646,2.401,0.589,3.248c-0.049,0.876-0.364,2.247-1.303,1.977c-0.469,3.603-1.974,4.743-1.974,4.743l0.036,3.81
	c0,0,0.949,0.543,4.962,2.202c4.01,1.666,2.755,0.423,6.02,2.048c5.164,2.568,5.164,9.637,5.164,9.637V59.072z M16.925,19.795
	c0,2.643-2.141,4.784-4.784,4.784H6.254c-2.643,0-4.784-2.141-4.784-4.784l0,0c0-2.643,2.141-4.783,4.784-4.783h5.888
	C14.784,15.012,16.925,17.153,16.925,19.795L16.925,19.795z M16.925,40.479c0,2.642-2.141,4.783-4.784,4.783H6.254
	c-2.643,0-4.784-2.141-4.784-4.783l0,0c0-2.643,2.141-4.784,4.784-4.784h5.888C14.784,35.696,16.925,37.837,16.925,40.479
	L16.925,40.479z M16.925,62.148c0,2.642-2.141,4.783-4.784,4.783H6.254c-2.643,0-4.784-2.142-4.784-4.783l0,0
	c0-2.644,2.141-4.785,4.784-4.785h5.888C14.784,57.363,16.925,59.504,16.925,62.148L16.925,62.148z"/>
</svg>
