<?xml version="1.0" encoding="utf-8"?>
<!-- Generator: Adobe Illustrator 16.0.0, SVG Export Plug-In . SVG Version: 6.00 Build 0)  -->
<!DOCTYPE svg PUBLIC "-//W3C//DTD SVG 1.1//EN" "http://www.w3.org/Graphics/SVG/1.1/DTD/svg11.dtd">
<svg version="1.1" id="图形" xmlns="http://www.w3.org/2000/svg" xmlns:xlink="http://www.w3.org/1999/xlink" x="0px" y="0px"
	 width="80px" height="81.839px" viewBox="0 0 80 81.839" enable-background="new 0 0 80 81.839" xml:space="preserve">
<rect x="22.818" display="none" fill="#F1F1F1" width="80" height="81.839"/>
<g>
	<g>
		<path fill="#444444" d="M55.902,77.741h4.441h3.236v-3.235V63.542C61.002,68.468,58.247,73.641,55.902,77.741z"/>
		<path fill="#444444" d="M32.956,71.267c0.735,2.044,1.453,4.254,2.093,6.474H21.292h-1.058l-0.868-0.646L3.086,64.977l-1.32-0.98
			v-1.617V3.497V0.259h3.238h55.338h3.235v3.238v12.679c-3.32-0.582-4.963,0.336-6.474,3.157V6.738H8.25v52.35l9.856-3.645
			l1.401-0.515l0.412,1.441l4.252,14.896H32.956z M21.001,70.259l-3.341-11.688l-8.269,3.043L21.001,70.259z"/>
		<polygon fill="#444444" points="16.394,41.95 16.394,44.642 44.494,44.642 46.088,41.95 		"/>
		<rect x="16.394" y="33.873" fill="#444444" width="33.055" height="2.691"/>
		<rect x="16.394" y="25.059" fill="#444444" width="33.055" height="2.691"/>
		<rect x="16.394" y="16.981" fill="#444444" width="33.055" height="2.693"/>
	</g>
	<g>
		<path fill="#444444" d="M72.241,41.346L52.503,77.539l-13.984,4.115l-4.112-13.98l19.739-36.195L72.241,41.346z M51.616,69.805
			L41.394,64.23l-2.159,3.956l1.061,3.597l4.302-1.263l1.265,4.3l3.597-1.057L51.616,69.805z M56.902,36.876
			c-0.201,0.059-0.382,0.186-0.499,0.403L43.546,60.857c-0.12,0.218-0.128,0.44-0.068,0.641c0.13,0.438,0.521,0.65,0.956,0.521
			c0.204-0.058,0.385-0.185,0.504-0.402l12.855-23.578c0.117-0.217,0.126-0.441,0.07-0.642
			C57.731,36.96,57.339,36.747,56.902,36.876z M77.7,31.341l-3.939,7.22l-18.099-9.866l3.947-7.188
			c0.537-1.034,1.507-1.831,2.649-2.167c1.147-0.335,2.394-0.192,3.438,0.378l10.213,5.54c1.012,0.579,1.804,1.55,2.145,2.692
			C78.388,29.094,78.245,30.34,77.7,31.341z"/>
	</g>
</g>
</svg>
