<?xml version="1.0" encoding="utf-8"?>
<!-- Generator: Adobe Illustrator 16.0.0, SVG Export Plug-In . SVG Version: 6.00 Build 0)  -->
<!DOCTYPE svg PUBLIC "-//W3C//DTD SVG 1.1//EN" "http://www.w3.org/Graphics/SVG/1.1/DTD/svg11.dtd">
<svg version="1.1" id="图形" xmlns="http://www.w3.org/2000/svg" xmlns:xlink="http://www.w3.org/1999/xlink" x="0px" y="0px"
	 width="80px" height="81.839px" viewBox="0 0 80 81.839" enable-background="new 0 0 80 81.839" xml:space="preserve">
<rect x="22.818" display="none" fill="#F1F1F1" width="80" height="81.839"/>
<path fill="#444444" d="M72.623,11.059H7.636c-3.989,0-7.222,3.232-7.222,7.221v43.326c0,3.989,3.232,7.222,7.222,7.222h64.987
	c3.99,0,7.222-3.232,7.222-7.222V18.28C79.845,14.291,76.613,11.059,72.623,11.059L72.623,11.059z M24.485,21.288
	c5.552,0,10.06,4.501,10.06,10.063c0,5.553-4.508,10.054-10.06,10.054c-5.554,0-10.062-4.501-10.062-10.054
	C14.423,25.791,18.931,21.288,24.485,21.288L24.485,21.288z M40.128,60.402H8.839v-4.469c0-6.169,5-11.17,11.171-11.17h8.944
	c6.169,0,11.173,5,11.173,11.17V60.402z M71.418,37.539H48.555v-3.617h22.863V37.539z M72.623,29.11H42.536v-3.608h30.087V29.11z"/>
</svg>
