<?xml version="1.0" encoding="utf-8"?>
<!-- Generator: Adobe Illustrator 16.0.0, SVG Export Plug-In . SVG Version: 6.00 Build 0)  -->
<!DOCTYPE svg PUBLIC "-//W3C//DTD SVG 1.1//EN" "http://www.w3.org/Graphics/SVG/1.1/DTD/svg11.dtd">
<svg version="1.1" id="图形" xmlns="http://www.w3.org/2000/svg" xmlns:xlink="http://www.w3.org/1999/xlink" x="0px" y="0px"
	 width="80px" height="81.839px" viewBox="0 0 80 81.839" enable-background="new 0 0 80 81.839" xml:space="preserve">
<rect x="22.818" display="none" fill="#F1F1F1" width="80" height="81.839"/>
<g enable-background="new    ">
	<path fill="#444444" d="M77.761,75.888c0,3.176-2.636,5.808-5.812,5.808H8.046c-3.177,0-5.809-2.632-5.809-5.808V6.173
		c0-3.177,2.632-5.809,5.809-5.809h63.903c3.18,0,5.813,2.632,5.813,5.809L77.761,75.888L77.761,75.888z M71.949,9.079
		c0-1.589-1.314-2.905-2.901-2.905H10.951c-1.589,0-2.905,1.316-2.905,2.905v11.618c0,1.588,1.316,2.904,2.905,2.904h58.092
		c1.589,0,2.906-1.316,2.906-2.904V9.079L71.949,9.079z M13.855,29.41c-3.223,0-5.81,2.589-5.81,5.81
		c0,3.223,2.587,5.809,5.81,5.809s5.81-2.586,5.81-5.809C19.665,32,17.078,29.41,13.855,29.41z M13.855,46.839
		c-3.223,0-5.81,2.588-5.81,5.81c0,3.223,2.587,5.812,5.81,5.812s5.81-2.589,5.81-5.812C19.665,49.427,17.078,46.839,13.855,46.839z
		 M13.855,64.268c-3.223,0-5.81,2.586-5.81,5.809s2.587,5.813,5.81,5.813s5.81-2.591,5.81-5.813S17.078,64.268,13.855,64.268z
		 M31.283,29.41c-3.222,0-5.81,2.589-5.81,5.81c0,3.223,2.589,5.809,5.81,5.809c3.224,0,5.81-2.586,5.81-5.809
		C37.093,32,34.506,29.41,31.283,29.41z M31.283,46.839c-3.222,0-5.81,2.588-5.81,5.81c0,3.223,2.589,5.812,5.81,5.812
		c3.224,0,5.81-2.589,5.81-5.812C37.093,49.427,34.506,46.839,31.283,46.839z M31.283,64.268c-3.222,0-5.81,2.586-5.81,5.809
		s2.589,5.813,5.81,5.813c3.224,0,5.81-2.591,5.81-5.813S34.506,64.268,31.283,64.268z M48.712,29.41
		c-3.223,0-5.812,2.589-5.812,5.81c0,3.223,2.589,5.809,5.812,5.809c3.224,0,5.81-2.586,5.81-5.809
		C54.521,32,51.936,29.41,48.712,29.41z M48.712,46.839c-3.223,0-5.812,2.588-5.812,5.81c0,3.223,2.589,5.812,5.812,5.812
		c3.224,0,5.81-2.589,5.81-5.812C54.521,49.427,51.936,46.839,48.712,46.839z M48.712,64.268c-3.223,0-5.812,2.586-5.812,5.809
		s2.589,5.813,5.812,5.813c3.224,0,5.81-2.591,5.81-5.813S51.936,64.268,48.712,64.268z M66.141,29.41
		c-3.225,0-5.813,2.589-5.813,5.81c0,3.223,2.588,5.809,5.813,5.809c3.224,0,5.809-2.586,5.809-5.809
		C71.949,32,69.364,29.41,66.141,29.41z M71.949,52.649c0-3.176-2.631-5.81-5.809-5.81c-3.176,0-5.813,2.634-5.813,5.81v17.428
		c0,3.18,2.637,5.813,5.813,5.813c3.178,0,5.809-2.634,5.809-5.813V52.649z"/>
</g>
</svg>
