<?xml version="1.0" encoding="utf-8"?>
<!-- Generator: Adobe Illustrator 16.0.0, SVG Export Plug-In . SVG Version: 6.00 Build 0)  -->
<!DOCTYPE svg PUBLIC "-//W3C//DTD SVG 1.1//EN" "http://www.w3.org/Graphics/SVG/1.1/DTD/svg11.dtd">
<svg version="1.1" id="图形" xmlns="http://www.w3.org/2000/svg" xmlns:xlink="http://www.w3.org/1999/xlink" x="0px" y="0px"
	 width="80px" height="81.839px" viewBox="0 0 80 81.839" enable-background="new 0 0 80 81.839" xml:space="preserve">
<rect x="22.818" display="none" fill="#F1F1F1" width="80" height="81.839"/>
<g>
	<path fill="#444444" d="M75.621,16.587c0-3.693-3.061-6.716-6.714-6.716H7.127c-4.491,0-6.715,3.526-6.715,7.639
		c0,3.82,4.239,8.562,7.219,10.575c6.505,4.533,13.093,9.065,19.6,13.64c1.743,1.206,4.569,3.406,7.044,4.704
		c0.584-3.315,0.595-6.495,4.834-5.583l0.504-1.343c-2.394-3.021-3.063-2.812-1.385-5.749c0.7-1.121,5.541-6.884,8.522-6.716
		c1.535,0.087,2.368,1.195,3.888,2.615l1.232-0.518c-0.111-1.673-0.59-4.071,0.963-4.827c1.629-0.609,9.738-1.245,11.624-0.085
		c1.094,0.672,0.881,4.91,0.881,4.91l1.552,0.419c1.485-1.28,3.981-3.454,3.981-3.454C73.53,23.582,75.621,20.224,75.621,16.587z"/>
	<path fill="#444444" d="M39.613,55.454c-0.63,0.085-3.988-0.044-4.523-1.105c-0.1-0.2-0.541-2.064-0.541-2.064
		c-3.375-0.996-6.357-3.25-9.037-5.229c-6.84-4.995-13.892-9.734-20.857-14.478c-1.554-1.049-2.981-2.268-4.237-3.651V62.25
		c0,3.693,3.021,6.713,6.715,6.713h37.354c-2.285-2.263-6.333-6.563-7.263-8.431c-0.504-1.014,1.537-2.51,2.687-3.904L39.613,55.454
		z"/>
	<g>
		<path fill="#444444" d="M79.588,50.934c0,0.41-0.329,0.905-0.768,0.988l-5.095,0.772c-0.305,0.882-0.636,1.709-1.074,2.506
			c0.936,1.349,1.927,2.56,2.944,3.796c0.166,0.196,0.274,0.44,0.274,0.688c0,0.25-0.081,0.442-0.249,0.636
			c-0.66,0.877-4.376,4.926-5.313,4.926c-0.247,0-0.494-0.108-0.714-0.248l-3.799-2.972c-0.797,0.413-1.651,0.768-2.505,1.042
			c-0.191,1.684-0.36,3.471-0.798,5.121c-0.112,0.44-0.497,0.771-0.991,0.771h-6.113c-0.494,0-0.936-0.358-0.991-0.825l-0.769-5.067
			c-0.854-0.274-1.682-0.607-2.479-1.016l-3.881,2.945c-0.194,0.163-0.439,0.248-0.688,0.248c-0.251,0-0.495-0.111-0.689-0.303
			c-1.459-1.321-3.386-3.031-4.542-4.626c-0.138-0.193-0.193-0.412-0.193-0.633c0-0.25,0.082-0.438,0.216-0.633
			c0.939-1.265,1.954-2.479,2.892-3.771c-0.469-0.883-0.853-1.79-1.13-2.724l-5.04-0.744c-0.467-0.085-0.797-0.527-0.797-0.991
			v-6.112c0-0.413,0.331-0.907,0.743-0.992l5.121-0.771c0.276-0.879,0.634-1.706,1.073-2.533c-0.938-1.322-1.929-2.559-2.943-3.798
			c-0.165-0.191-0.273-0.413-0.273-0.662c0-0.248,0.108-0.44,0.248-0.633c0.661-0.909,4.376-4.927,5.313-4.927
			c0.249,0,0.493,0.11,0.717,0.276l3.797,2.946c0.799-0.414,1.652-0.772,2.504-1.047c0.194-1.68,0.359-3.469,0.798-5.121
			c0.112-0.441,0.496-0.771,0.99-0.771h6.113c0.492,0,0.937,0.359,0.991,0.826l0.771,5.066c0.853,0.276,1.68,0.607,2.479,1.019
			l3.905-2.946c0.168-0.166,0.415-0.246,0.662-0.246c0.251,0,0.494,0.109,0.69,0.275c1.46,1.349,3.387,3.056,4.543,4.682
			c0.142,0.164,0.195,0.384,0.195,0.605c0,0.249-0.083,0.441-0.217,0.632c-0.937,1.267-1.957,2.479-2.896,3.773
			c0.471,0.88,0.859,1.787,1.13,2.697l5.038,0.768c0.469,0.086,0.798,0.524,0.798,0.992V50.934L79.588,50.934z M58.446,40.773
			c-3.881,0-7.043,3.167-7.043,7.049s3.162,7.043,7.043,7.043c3.883,0,7.045-3.161,7.045-7.043S62.326,40.773,58.446,40.773z"/>
	</g>
</g>
</svg>
