<?xml version="1.0" encoding="utf-8"?>
<!-- Generator: Adobe Illustrator 21.0.0, SVG Export Plug-In . SVG Version: 6.00 Build 0)  -->
<svg version="1.1" id="图层_1" xmlns="http://www.w3.org/2000/svg" xmlns:xlink="http://www.w3.org/1999/xlink" x="0px" y="0px"
	 viewBox="0 0 2000 1000" style="enable-background:new 0 0 2000 1000;" xml:space="preserve">
<g>
	<path d="M30.4,1006.1c-6.9-15.1-17-32-30.4-50.5c168-35,275.9-69.9,323.6-104.6c-55.7-30.2-117.2-78.2-184.5-143.8l39.2-34.5
		c69.4,63.6,133,109.6,190.7,138.1c46-47.1,73.5-104.4,82.5-172.1H107.7V226.4h360.7c0.3-15.8,0.7-32.8,1-51c0-8.9,0-18.6,0-28.9
		c0-8.9,0-21.1,0-36.6H29.4V59.4h923.5v50.5H524.1c0,25.8,0,46.9,0,63.4c-0.3,18.6-0.7,36.3-1,53.1h352.5v463.3h-54.6v-51H506.6
		c-10.3,78-38.8,143.1-85.5,195.3c100.3,44.7,288.1,72.8,563.3,84.5c-8.2,15.5-16.3,34.9-24.2,58.2
		C679.7,960.9,486,927.4,378.8,876.2C324.1,924.6,208,967.9,30.4,1006.1z M162.3,275.8v131.9h304c0.3-14.1,0.7-36.1,1-66
		c0.3-29.2,0.7-51.2,1-66H162.3z M457.6,589.2c4.1-32.3,6.7-76.6,7.7-133h-303v133H457.6z M511.7,589.2h309.2v-133h-302
		c-0.3,6.2-0.7,14.9-1,26.3C516.2,533,514.1,568.5,511.7,589.2z M820.9,275.8H523.1c-0.3,14.4-0.9,36.4-1.5,66
		c-0.7,29.6-1.2,51.5-1.5,66h301V275.8z"/>
	<path d="M1545-6.1l58.2,17c-42.9,40.2-80.4,72.5-112.3,96.9h464.8v53.1c-200.3,182.1-487.2,319.2-860.6,411.2
		c-9.6-20.3-19.1-37.8-28.3-52.6c350.8-82.1,620.3-202.3,808.6-360.7h-451.9c-1.7,1.4-4.3,3.3-7.7,5.7c-20.6,14.8-36.6,25.4-47.9,32
		c58.1,36.4,114.4,73.7,169,111.8l-40.2,42.3c-64.6-49.8-123-91.6-175.2-125.2c-55,32-111.3,61.8-169,89.7
		c-10-16.1-21.1-31.8-33.5-46.9C1286.4,197,1428.5,105.6,1545-6.1z M1665,396.9l50,32c-1.7,1.4-4.5,3.4-8.2,6.2
		c-39.9,32.6-70.3,56.5-91.2,71.6H2000v57.2c-197.9,225-494.5,371.4-890,439.1c-6.9-18.6-15.3-36.4-25.3-53.6
		c369.3-59.1,651-189.6,845.1-391.7h-387c-33.7,23.4-65.8,43.6-96.4,60.8c46,31.6,100,70.1,161.8,115.4l-40.2,41.2
		c-57.7-47.7-114.1-90.7-169-128.8c-71.5,38.8-147,74.4-226.7,106.7c-12.4-19.6-24.1-36.9-35-52
		C1344.5,627.1,1520.4,525.8,1665,396.9z"/>
</g>
</svg>
