<?xml version="1.0" encoding="utf-8"?>
<!-- Generator: Adobe Illustrator 16.0.0, SVG Export Plug-In . SVG Version: 6.00 Build 0)  -->
<!DOCTYPE svg PUBLIC "-//W3C//DTD SVG 1.1//EN" "http://www.w3.org/Graphics/SVG/1.1/DTD/svg11.dtd">
<svg version="1.1" id="图形" xmlns="http://www.w3.org/2000/svg" xmlns:xlink="http://www.w3.org/1999/xlink" x="0px" y="0px"
	 width="80px" height="81.839px" viewBox="0 0 80 81.839" enable-background="new 0 0 80 81.839" xml:space="preserve">
<rect x="22.818" display="none" fill="#F1F1F1" width="80" height="81.839"/>
<g>
	<path fill="#444444" d="M79.6,76.133c0,2.342-1.901,4.243-4.243,4.243H32.928c-2.342,0-4.244-1.901-4.244-4.243v-7.07H4.643
		c-2.343,0-4.244-1.901-4.244-4.245V5.42c0-2.342,1.9-4.243,4.244-4.243h48.086c2.342,0,4.243,1.899,4.243,4.243v14.496
		c0.573,0.354,1.104,0.751,1.587,1.238l18.032,18.032c1.681,1.679,3.009,4.906,3.009,7.248V76.133L79.6,76.133z M45.657,8.25
		c0-0.751-0.661-1.415-1.412-1.415H13.13c-0.751,0-1.414,0.664-1.414,1.415v2.829c0,0.751,0.663,1.415,1.414,1.415h31.113
		c0.752,0,1.414-0.664,1.414-1.415V8.25L45.657,8.25z M73.942,74.719V46.434H55.557c-2.343,0-4.243-1.901-4.243-4.244V23.805H34.343
		v50.914H73.942z M70.186,40.777L56.972,27.563v13.214H70.186z"/>
</g>
</svg>
