<?xml version="1.0" encoding="utf-8"?>
<!-- Generator: Adobe Illustrator 16.0.0, SVG Export Plug-In . SVG Version: 6.00 Build 0)  -->
<!DOCTYPE svg PUBLIC "-//W3C//DTD SVG 1.1//EN" "http://www.w3.org/Graphics/SVG/1.1/DTD/svg11.dtd">
<svg version="1.1" id="图形" xmlns="http://www.w3.org/2000/svg" xmlns:xlink="http://www.w3.org/1999/xlink" x="0px" y="0px"
	 width="80px" height="81.839px" viewBox="0 0 80 81.839" enable-background="new 0 0 80 81.839" xml:space="preserve">
<rect x="22.818" display="none" fill="#F1F1F1" width="80" height="81.839"/>
<g>
	<g enable-background="new    ">
		<path fill="#444444" d="M37.999,56.497l-0.312-0.937c-2.754-0.259-7.058-0.087-7.146-2.928c0-3.798,0-4.411,0-8.21H5.749
			c-0.573,0-1.08-0.504-1.08-1.079V15.267c0-0.573,0.506-1.081,1.08-1.081h53.997c0.573,0,1.08,0.507,1.08,1.081l0,0v6.161
			c2.87,0.016,2.819,1.894,3.358,7.621c0,0,0.46,0.184,0.959,0.392V15.267c0-2.971-2.429-5.399-5.399-5.399H5.749
			c-2.97,0-5.399,2.429-5.399,5.399v36.718c0,2.969,2.43,5.398,5.399,5.398h18.359c0,2.938-2.16,5.229-2.16,6.479
			c0,1.18,0.978,2.16,2.16,2.16h13.194C35.494,64.125,32.265,60.124,37.999,56.497z"/>
	</g>
	<g>
		<path fill="#444444" d="M79.771,51.495c0,0.452-0.361,0.992-0.842,1.081l-5.56,0.842c-0.331,0.962-0.692,1.865-1.175,2.734
			c1.022,1.474,2.104,2.794,3.218,4.148c0.181,0.21,0.302,0.48,0.302,0.751c0,0.27-0.089,0.482-0.271,0.692
			c-0.721,0.961-4.777,5.379-5.801,5.379c-0.27,0-0.54-0.12-0.779-0.27l-4.148-3.248c-0.872,0.451-1.805,0.842-2.735,1.144
			c-0.209,1.832-0.391,3.788-0.87,5.591c-0.122,0.481-0.543,0.842-1.084,0.842h-6.672c-0.54,0-1.021-0.391-1.08-0.9l-0.843-5.532
			c-0.931-0.302-1.832-0.661-2.703-1.11l-4.24,3.215c-0.208,0.18-0.479,0.27-0.751,0.27c-0.269,0-0.54-0.12-0.75-0.331
			c-1.593-1.442-3.698-3.304-4.959-5.048c-0.15-0.21-0.21-0.451-0.21-0.692c0-0.271,0.089-0.48,0.24-0.691
			c1.023-1.383,2.134-2.705,3.157-4.118c-0.511-0.959-0.934-1.952-1.234-2.974l-5.5-0.811c-0.511-0.09-0.872-0.573-0.872-1.084
			v-6.671c0-0.45,0.361-0.992,0.812-1.082l5.59-0.841c0.302-0.962,0.692-1.863,1.174-2.765c-1.023-1.443-2.104-2.795-3.217-4.148
			c-0.18-0.209-0.301-0.45-0.301-0.721c0-0.27,0.121-0.48,0.27-0.691c0.72-0.992,4.779-5.38,5.799-5.38
			c0.272,0,0.543,0.119,0.783,0.301l4.146,3.214c0.872-0.45,1.806-0.842,2.736-1.142c0.209-1.834,0.39-3.788,0.872-5.591
			c0.12-0.481,0.541-0.841,1.08-0.841h6.672c0.543,0,1.022,0.391,1.084,0.902l0.84,5.53c0.932,0.3,1.834,0.661,2.704,1.112
			l4.269-3.216c0.181-0.18,0.451-0.27,0.721-0.27c0.269,0,0.542,0.119,0.752,0.301c1.594,1.472,3.698,3.336,4.959,5.108
			c0.15,0.18,0.211,0.419,0.211,0.66c0,0.271-0.089,0.481-0.241,0.692c-1.022,1.383-2.133,2.705-3.155,4.116
			c0.51,0.962,0.932,1.954,1.233,2.947l5.498,0.839c0.512,0.09,0.872,0.573,0.872,1.083V51.495L79.771,51.495z M56.69,40.407
			c-4.237,0-7.694,3.456-7.694,7.693s3.457,7.692,7.694,7.692s7.692-3.455,7.692-7.692S60.928,40.407,56.69,40.407z"/>
	</g>
</g>
</svg>
