<?xml version="1.0" encoding="utf-8"?>
<!-- Generator: Adobe Illustrator 16.0.0, SVG Export Plug-In . SVG Version: 6.00 Build 0)  -->
<!DOCTYPE svg PUBLIC "-//W3C//DTD SVG 1.1//EN" "http://www.w3.org/Graphics/SVG/1.1/DTD/svg11.dtd">
<svg version="1.1" id="图形" xmlns="http://www.w3.org/2000/svg" xmlns:xlink="http://www.w3.org/1999/xlink" x="0px" y="0px"
	 width="80px" height="81.839px" viewBox="0 0 80 81.839" enable-background="new 0 0 80 81.839" xml:space="preserve">
<rect x="22.818" display="none" fill="#F1F1F1" width="80" height="81.839"/>
<g>
	<path fill="#444444" d="M63.751,69.685H18.838c-10.197,0-18.494-8.298-18.494-18.494c0-7.184,4.169-13.706,10.65-16.719
		c-0.041-0.619-0.083-1.197-0.083-1.775c0-11.682,9.454-21.136,21.136-21.136c8.587,0,16.306,5.202,19.568,13.127
		c1.899-1.651,4.335-2.56,6.853-2.56c5.82,0,10.567,4.748,10.567,10.568c0,2.023-0.577,4.004-1.692,5.697
		c7.184,1.692,12.261,8.09,12.261,15.438C79.604,62.584,72.504,69.685,63.751,69.685z M52.813,40.995L38.281,26.463
		c-0.248-0.248-0.578-0.372-0.95-0.372c-0.331,0-0.702,0.124-0.95,0.372L21.893,40.953c-0.248,0.289-0.413,0.62-0.413,0.99
		c0,0.744,0.578,1.322,1.321,1.322h9.247v14.53c0,0.703,0.619,1.321,1.321,1.321h7.926c0.701,0,1.32-0.618,1.32-1.321v-14.53h9.248
		c0.742,0,1.32-0.619,1.32-1.322C53.184,41.614,53.06,41.242,52.813,40.995z"/>
</g>
</svg>
