<?xml version="1.0" encoding="utf-8"?>
<!-- Generator: Adobe Illustrator 19.0.0, SVG Export Plug-In . SVG Version: 6.00 Build 0)  -->
<svg version="1.1" id="图层_1" xmlns="http://www.w3.org/2000/svg" xmlns:xlink="http://www.w3.org/1999/xlink" x="0px" y="0px"
	 viewBox="0 0 1000 1000" style="enable-background:new 0 0 1000 1000;" xml:space="preserve">
<style type="text/css">
	.st0{fill-rule:evenodd;clip-rule:evenodd;}
</style>
<g id="XMLID_2_">
	<path id="XMLID_3_" class="st0" d="M0,1000h500V0H0V1000L0,1000z M312.5,125h125v125h-125V125L312.5,125z M312.5,375h125v125h-125
		V375L312.5,375z M312.5,625h125v125h-125V625L312.5,625z M62.5,125h125v125h-125V125L62.5,125z M62.5,375h125v125h-125V375
		L62.5,375z M62.5,625h125v125h-125V625L62.5,625z M562.5,312.5H1000V375H562.5V312.5L562.5,312.5z M562.5,1000h125V750H875v250h125
		V437.5H562.5V1000L562.5,1000z"/>
</g>
</svg>
