<?xml version="1.0" encoding="utf-8"?>
<!-- Generator: Adobe Illustrator 16.0.0, SVG Export Plug-In . SVG Version: 6.00 Build 0)  -->
<!DOCTYPE svg PUBLIC "-//W3C//DTD SVG 1.1//EN" "http://www.w3.org/Graphics/SVG/1.1/DTD/svg11.dtd">
<svg version="1.1" id="图形" xmlns="http://www.w3.org/2000/svg" xmlns:xlink="http://www.w3.org/1999/xlink" x="0px" y="0px"
	 width="80px" height="81.839px" viewBox="0 0 80 81.839" enable-background="new 0 0 80 81.839" xml:space="preserve">
<rect x="22.818" display="none" fill="#F1F1F1" width="80" height="81.839"/>
<g>
	<path fill="#444444" d="M77.524,75.556c0,3.159-2.615,5.774-5.774,5.774H8.249c-3.157,0-5.773-2.615-5.773-5.774V17.828
		c0-3.156,2.615-5.773,5.773-5.773h5.773V7.725c0-3.969,3.248-7.216,7.216-7.216h2.886c3.969,0,7.215,3.249,7.215,7.216v4.329
		h17.318V7.725c0-3.969,3.248-7.216,7.216-7.216h2.887c3.968,0,7.217,3.249,7.217,7.216v4.329h5.772
		c3.157,0,5.773,2.616,5.773,5.773L77.524,75.556L77.524,75.556z M21.238,42.363v-12.99H8.249v12.99H21.238z M21.238,59.681V45.248
		H8.249v14.434H21.238z M21.238,75.556V62.567H8.249v12.989H21.238z M25.568,7.725c0-0.768-0.676-1.443-1.443-1.443h-2.887
		c-0.767,0-1.443,0.675-1.443,1.443v12.989c0,0.768,0.676,1.444,1.443,1.444h2.887c0.767,0,1.443-0.676,1.443-1.444V7.725z
		 M38.557,42.363v-12.99H24.125v12.99H38.557z M38.557,59.681V45.248H24.125v14.434H38.557z M38.557,75.556V62.567H24.125v12.989
		H38.557z M55.876,42.363v-12.99H41.443v12.99H55.876z M55.876,59.681V45.248H41.443v14.434H55.876z M55.876,75.556V62.567H41.443
		v12.989H55.876z M60.205,7.725c0-0.768-0.677-1.443-1.443-1.443h-2.886c-0.767,0-1.443,0.675-1.443,1.443v12.989
		c0,0.768,0.677,1.444,1.443,1.444h2.886c0.767,0,1.443-0.676,1.443-1.444V7.725z M71.75,42.363v-12.99H58.762v12.99H71.75z
		 M71.75,59.681V45.248H58.762v14.434H71.75z M71.75,75.556V62.567H58.762v12.989H71.75z"/>
</g>
</svg>
