<?xml version="1.0" encoding="utf-8"?>
<!-- Generator: Adobe Illustrator 16.0.0, SVG Export Plug-In . SVG Version: 6.00 Build 0)  -->
<!DOCTYPE svg PUBLIC "-//W3C//DTD SVG 1.1//EN" "http://www.w3.org/Graphics/SVG/1.1/DTD/svg11.dtd">
<svg version="1.1" id="图形" xmlns="http://www.w3.org/2000/svg" xmlns:xlink="http://www.w3.org/1999/xlink" x="0px" y="0px"
	 width="80px" height="81.839px" viewBox="0 0 80 81.839" enable-background="new 0 0 80 81.839" xml:space="preserve">
<rect x="22.818" display="none" fill="#F1F1F1" width="80" height="81.839"/>
<g>
	<path fill="#444444" d="M9.002,9.204h47.703c4.88,0,8.834,2.816,8.834,6.288v41.5c0,3.473-3.954,6.287-8.834,6.287H9.002
		c-4.878,0-8.833-2.814-8.833-6.287v-41.5C0.169,12.018,4.124,9.204,9.002,9.204z M5.468,59.505h54.773V18.006H5.468V59.505z"/>
	<path fill="#444444" d="M19.604,68.308h54.77v-41.5h-1.768h-1.968h-3.331v-8.813h5.302h0.238c4.034,0.585,6.831,3.255,6.831,6.298
		v41.502c0,3.472-3.956,6.286-8.837,6.286H23.139c-4.231,0-7.761-2.121-8.625-4.949v-1.941l5.091-0.03L19.604,68.308L19.604,68.308z
		"/>
</g>
</svg>
