<?xml version="1.0" encoding="utf-8"?>
<!-- Generator: Adobe Illustrator 16.0.0, SVG Export Plug-In . SVG Version: 6.00 Build 0)  -->
<!DOCTYPE svg PUBLIC "-//W3C//DTD SVG 1.1//EN" "http://www.w3.org/Graphics/SVG/1.1/DTD/svg11.dtd">
<svg version="1.1" id="图形" xmlns="http://www.w3.org/2000/svg" xmlns:xlink="http://www.w3.org/1999/xlink" x="0px" y="0px"
	 width="80px" height="81.839px" viewBox="0 0 80 81.839" enable-background="new 0 0 80 81.839" xml:space="preserve">
<rect x="22.818" display="none" fill="#F1F1F1" width="80" height="81.839"/>
<path fill="#444444" d="M2.426,24.868h55.197c-0.508,1.314-1.005,2.632-1.486,3.956H4.406v38.389h62.81V51
	c0.814-1.817,1.606-3.638,2.372-5.475l0.03,0.007l1.161-2.943l0.14-0.354c0.086,0.015,0.167,0.028,0.255,0.043v26.912v1.98h-1.979
	H2.426H0.447v-1.98V26.847v-1.979H2.426L2.426,24.868z M10.451,49.116v2.929h20.274v-2.929H10.451L10.451,49.116z M10.451,40.795
	v2.928H44.92v-2.928H10.451L10.451,40.795z M10.451,32.477v2.929H44.92v-2.929H10.451L10.451,32.477z M73.25,22.72
	c0.356-1.195,0.59-2.302,0.726-3.312l2.484,0.896c-1.786,3.519-7.01,13.996-6.587,15.295c0.616,1.884,2.327,1.856,2.333,1.856
	l0.466-2.338c0,0-0.539,0.063-0.637-0.227c-0.201-0.614,7.011-14.667,7.031-14.707l0.586-1.148l-1.212-0.436l-4.33-1.56
	c-0.215-6.813-6.249-6.964-10.262,2.408c-2.377,5.542-4.42,11.074-6.212,16.594l9.831,3.535C69.616,34.115,71.55,28.501,73.25,22.72
	L73.25,22.72z M53.731,50.882l-2.195,2.654l1.127,7.024l0.991,0.363l1.538-4.268c-0.488-0.391-0.701-1.059-0.476-1.676
	c0.28-0.778,1.138-1.181,1.911-0.903c0.774,0.282,1.176,1.137,0.897,1.912c-0.223,0.619-0.813,0.998-1.437,0.981l-1.536,4.272
	l1.051,0.383l5.145-4.404l0.202-3.734L53.731,50.882L53.731,50.882z M66.944,40.884l-9.74-3.505
	c-1.299,4.091-2.456,8.179-3.506,12.26c2.706,0.981,5.411,1.951,8.117,2.924C63.635,48.751,65.347,44.857,66.944,40.884
	L66.944,40.884z M23.834,61.539l1.576,2.104c0.017-0.014,6.366-6.578,6.316-5.638c-0.019,0.326-0.65,0.986-1.182,1.55
	c-0.688,0.72-1.284,1.348-1.311,2.164c-0.039,1.096,0.592,1.761,2.36,1.821c1.516,0.05,2.972-0.424,4.308-0.86
	c1-0.323,1.899-0.611,2.342-0.579c0.164,0.524,0.609,0.811,1.271,0.919c0.634,0.1,1.354-0.165,2.13-0.455l0.395-0.147l-0.053,0.227
	H41.98c-0.305,1.286-0.514,2.158-0.246,2.868c0.407,1.088,1.172,1.383,2.538,0.87c1.07-0.401,3.798-0.039,3.806-0.039l0.308-2.613
	c-0.007-0.005-2.202-0.3-3.942-0.064c0.027-0.125,0.065-0.263,0.099-0.411h-0.006c0.086-0.354,0.177-0.735,0.266-1.131
	c0.345-1.56-0.251-2.282-1.354-2.529c-0.843-0.191-1.82,0.179-2.726,0.516c-0.163,0.06-0.307,0.118-0.431,0.171
	c-1.352-1.35-3.158-0.763-5.204-0.098c-0.681,0.22-1.398,0.451-2.088,0.594c0.673-0.75,1.299-1.611,1.353-2.64
	C34.609,53.35,23.863,61.514,23.834,61.539z"/>
</svg>
