<?xml version="1.0" encoding="utf-8"?>
<!-- Generator: Adobe Illustrator 16.0.0, SVG Export Plug-In . SVG Version: 6.00 Build 0)  -->
<!DOCTYPE svg PUBLIC "-//W3C//DTD SVG 1.1//EN" "http://www.w3.org/Graphics/SVG/1.1/DTD/svg11.dtd">
<svg version="1.1" id="图形" xmlns="http://www.w3.org/2000/svg" xmlns:xlink="http://www.w3.org/1999/xlink" x="0px" y="0px"
	 width="80px" height="81.839px" viewBox="0 0 80 81.839" enable-background="new 0 0 80 81.839" xml:space="preserve">
<rect x="22.818" display="none" fill="#F1F1F1" width="80" height="81.839"/>
<g>
	<path fill="#444444" d="M79.77,46.771c0,0.775-0.624,1.709-1.453,1.863l-9.582,1.453c-0.57,1.656-1.192,3.209-2.021,4.713
		c1.76,2.537,3.625,4.816,5.544,7.145c0.312,0.367,0.519,0.836,0.519,1.301c0,0.463-0.156,0.824-0.468,1.189
		c-1.242,1.654-8.235,9.271-9.995,9.271c-0.468,0-0.935-0.207-1.349-0.467l-7.148-5.594c-1.503,0.777-3.108,1.451-4.714,1.969
		c-0.363,3.158-0.674,6.525-1.501,9.633c-0.207,0.828-0.932,1.453-1.865,1.453H34.238c-0.935,0-1.763-0.674-1.866-1.553l-1.45-9.531
		c-1.607-0.518-3.161-1.141-4.664-1.922l-7.302,5.547c-0.363,0.313-0.83,0.469-1.295,0.469c-0.467,0-0.933-0.207-1.296-0.572
		c-2.745-2.486-6.37-5.695-8.548-8.701c-0.26-0.367-0.361-0.779-0.361-1.189c0-0.467,0.155-0.832,0.415-1.191
		c1.76-2.383,3.678-4.662,5.439-7.096c-0.881-1.658-1.606-3.369-2.125-5.127l-9.479-1.402c-0.881-0.156-1.501-0.984-1.501-1.867
		V35.065c0-0.777,0.622-1.709,1.398-1.865l9.636-1.451c0.518-1.657,1.191-3.211,2.019-4.764c-1.761-2.486-3.627-4.818-5.541-7.147
		c-0.312-0.363-0.52-0.778-0.52-1.243c0-0.467,0.208-0.829,0.467-1.191c1.243-1.711,8.236-9.272,9.997-9.272
		c0.466,0,0.932,0.208,1.347,0.519l7.148,5.541c1.502-0.777,3.108-1.45,4.713-1.969c0.362-3.158,0.673-6.527,1.503-9.634
		c0.207-0.83,0.931-1.45,1.866-1.45h11.499c0.934,0,1.758,0.673,1.865,1.554l1.449,9.532c1.607,0.517,3.16,1.138,4.662,1.916
		l7.356-5.542c0.31-0.312,0.776-0.466,1.241-0.466c0.467,0,0.934,0.208,1.297,0.519c2.744,2.538,6.371,5.748,8.547,8.804
		c0.259,0.312,0.361,0.725,0.361,1.14c0,0.466-0.153,0.828-0.414,1.19c-1.759,2.383-3.676,4.662-5.438,7.096
		c0.878,1.659,1.605,3.368,2.124,5.077l9.478,1.448c0.88,0.157,1.5,0.986,1.5,1.866v11.499H79.77z M39.986,27.657
		c-7.303,0-13.26,5.957-13.26,13.261c0,7.303,5.957,13.262,13.26,13.262c7.304,0,13.261-5.959,13.261-13.262
		C53.247,33.613,47.29,27.657,39.986,27.657z"/>
</g>
</svg>
