<?xml version="1.0" encoding="utf-8"?>
<!-- Generator: Adobe Illustrator 16.0.0, SVG Export Plug-In . SVG Version: 6.00 Build 0)  -->
<!DOCTYPE svg PUBLIC "-//W3C//DTD SVG 1.1//EN" "http://www.w3.org/Graphics/SVG/1.1/DTD/svg11.dtd">
<svg version="1.1" id="图形" xmlns="http://www.w3.org/2000/svg" xmlns:xlink="http://www.w3.org/1999/xlink" x="0px" y="0px"
	 width="80px" height="81.839px" viewBox="0 0 80 81.839" enable-background="new 0 0 80 81.839" xml:space="preserve">
<rect x="22.818" display="none" fill="#F1F1F1" width="80" height="81.839"/>
<g>
	<path fill="#444444" d="M39.977,80.515c-21.976,0-39.806-17.83-39.806-39.807S18.001,0.902,39.977,0.902
		c21.977,0,39.807,17.83,39.807,39.806S61.954,80.515,39.977,80.515z M39.977,12.513c-15.549,0-28.195,12.646-28.195,28.196
		c0,15.55,12.646,28.197,28.195,28.197c15.55,0,28.197-12.647,28.197-28.197C68.174,25.159,55.527,12.513,39.977,12.513z
		 M38.993,58.281c-1.295,1.295-3.369,1.295-4.665,0L19.09,43.042c-1.296-1.297-1.296-3.37,0-4.665l5.287-5.287
		c1.296-1.296,3.369-1.296,4.665,0l7.619,7.619l14.253-14.253c1.297-1.296,3.37-1.296,4.666,0l5.286,5.287
		c1.297,1.296,1.297,3.369,0,4.665L38.993,58.281z"/>
</g>
</svg>
