<?xml version="1.0" encoding="utf-8"?>
<!-- Generator: Adobe Illustrator 16.0.0, SVG Export Plug-In . SVG Version: 6.00 Build 0)  -->
<!DOCTYPE svg PUBLIC "-//W3C//DTD SVG 1.1//EN" "http://www.w3.org/Graphics/SVG/1.1/DTD/svg11.dtd">
<svg version="1.1" id="图形" xmlns="http://www.w3.org/2000/svg" xmlns:xlink="http://www.w3.org/1999/xlink" x="0px" y="0px"
	 width="80px" height="81.839px" viewBox="0 0 80 81.839" enable-background="new 0 0 80 81.839" xml:space="preserve">
<rect x="22.818" display="none" fill="#F1F1F1" width="80" height="81.839"/>
<g>
	<path fill="#444444" d="M40.034,80.733H40c-7.388,0-14.602-2.04-20.863-5.899l5.772-9.363c4.524,2.788,9.742,4.263,15.09,4.263
		L40.034,80.733z M49.21,79.661l-2.537-10.703c5.181-1.229,9.921-3.882,13.71-7.674l7.781,7.775
		C62.932,74.295,56.378,77.961,49.21,79.661z M11.889,69.113C6.647,63.885,2.974,57.334,1.269,50.168l10.701-2.547
		c1.232,5.179,3.891,9.916,7.687,13.702L11.889,69.113z M73.895,61.815l-9.359-5.779c2.798-4.531,4.277-9.758,4.277-15.116v-0.135
		h11v0.135C79.813,48.32,77.766,55.545,73.895,61.815z M0.188,40.987V40.92c0-7.373,2.032-14.576,5.877-20.829l9.37,5.762
		c-2.779,4.519-4.248,9.729-4.248,15.067L0.188,40.987z M68.018,34.164c-1.243-5.176-3.91-9.909-7.714-13.687l7.752-7.805
		c5.253,5.217,8.938,11.761,10.657,18.924L68.018,34.164z M19.577,20.596l-7.797-7.76C17.002,7.589,23.55,3.91,30.713,2.198
		l2.558,10.698C28.094,14.134,23.358,16.796,19.577,20.596z M55.043,16.34c-4.514-2.769-9.715-4.233-15.043-4.233h-0.101v-11H40
		c7.359,0,14.551,2.025,20.795,5.857L55.043,16.34z"/>
</g>
</svg>
