<?xml version="1.0" encoding="utf-8"?>
<!-- Generator: Adobe Illustrator 16.0.0, SVG Export Plug-In . SVG Version: 6.00 Build 0)  -->
<!DOCTYPE svg PUBLIC "-//W3C//DTD SVG 1.1//EN" "http://www.w3.org/Graphics/SVG/1.1/DTD/svg11.dtd">
<svg version="1.1" id="图形" xmlns="http://www.w3.org/2000/svg" xmlns:xlink="http://www.w3.org/1999/xlink" x="0px" y="0px"
	 width="80px" height="81.839px" viewBox="0 0 80 81.839" enable-background="new 0 0 80 81.839" xml:space="preserve">
<rect x="22.818" display="none" fill="#F1F1F1" width="80" height="81.839"/>
<g>
	<g>
		<path fill="#444444" d="M9.467,11.188h-7.76c-0.687,0-1.293,0.607-1.293,1.294v7.76c0,0.688,0.607,1.294,1.293,1.294h7.76
			c0.688,0,1.294-0.606,1.294-1.294v-7.76C10.761,11.795,10.155,11.188,9.467,11.188z"/>
		<path fill="#444444" d="M9.467,26.708h-7.76c-0.687,0-1.293,0.607-1.293,1.294v7.761c0,0.687,0.607,1.293,1.293,1.293h7.76
			c0.688,0,1.294-0.606,1.294-1.293v-7.761C10.761,27.314,10.155,26.708,9.467,26.708z"/>
		<path fill="#444444" d="M9.467,57.749h-7.76c-0.687,0-1.293,0.607-1.293,1.296v7.761c0,0.687,0.607,1.292,1.293,1.292h7.76
			c0.688,0,1.294-0.605,1.294-1.292v-7.761C10.761,58.356,10.155,57.749,9.467,57.749z"/>
		<path fill="#444444" d="M9.467,42.23h-7.76c-0.687,0-1.293,0.604-1.293,1.293v7.762c0,0.688,0.607,1.296,1.293,1.296h7.76
			c0.688,0,1.294-0.608,1.294-1.296v-7.762C10.761,42.834,10.155,42.23,9.467,42.23z"/>
		<path fill="#444444" d="M71.546,26.708H17.228c-0.687,0-1.293,0.607-1.293,1.294v7.761c0,0.687,0.606,1.293,1.293,1.293h54.318
			c0.691,0,1.295-0.606,1.295-1.293v-7.761C72.841,27.314,72.234,26.708,71.546,26.708z"/>
		<path fill="#444444" d="M15.935,59.044v7.761c0,0.687,0.606,1.292,1.293,1.292h30.357c-0.529-0.488-1.127-1.487-1.231-1.991
			c-0.318-1.539,1.45-2.903,2.562-4.12l-0.12-0.563c-4.446-0.048-5.059-1.026-5.31-3.668H17.228
			C16.54,57.749,15.935,58.356,15.935,59.044z"/>
		<path fill="#444444" d="M71.546,11.188H17.228c-0.687,0-1.293,0.607-1.293,1.294v7.76c0,0.688,0.606,1.294,1.293,1.294h54.318
			c0.691,0,1.295-0.606,1.295-1.294v-7.76C72.841,11.795,72.234,11.188,71.546,11.188z"/>
		<path fill="#444444" d="M47.801,50.224l0.474-0.919c-1.483-1.815-2.133-3.202-1.616-4.596c0.321-0.865,1.331-1.684,2.34-2.479
			h-31.77c-0.687,0-1.293,0.604-1.293,1.291v7.763c0,0.688,0.606,1.294,1.293,1.294h26.481
			C43.709,52.576,43.764,49.945,47.801,50.224z"/>
	</g>
	<g>
		<path fill="#444444" d="M79.711,58.313c0,0.331-0.265,0.727-0.618,0.793l-4.078,0.619c-0.242,0.705-0.506,1.368-0.857,2.004
			c0.747,1.084,1.54,2.052,2.355,3.045c0.134,0.152,0.223,0.352,0.223,0.55s-0.068,0.353-0.198,0.507
			c-0.529,0.706-3.506,3.945-4.254,3.945c-0.198,0-0.397-0.088-0.575-0.198l-3.04-2.377c-0.641,0.33-1.324,0.615-2.009,0.836
			c-0.151,1.346-0.285,2.778-0.639,4.099c-0.088,0.354-0.397,0.617-0.794,0.617h-4.895c-0.396,0-0.75-0.287-0.793-0.66l-0.62-4.056
			c-0.683-0.221-1.346-0.481-1.981-0.813l-3.106,2.359c-0.154,0.132-0.354,0.198-0.551,0.198c-0.198,0-0.397-0.088-0.55-0.245
			c-1.17-1.059-2.713-2.423-3.641-3.704c-0.111-0.154-0.153-0.332-0.153-0.506c0-0.198,0.065-0.354,0.178-0.509
			c0.75-1.015,1.563-1.984,2.313-3.02c-0.373-0.705-0.684-1.434-0.904-2.184l-4.036-0.595c-0.374-0.066-0.64-0.417-0.64-0.793
			v-4.893c0-0.331,0.264-0.729,0.595-0.795l4.101-0.619c0.219-0.703,0.508-1.365,0.859-2.029c-0.751-1.058-1.542-2.048-2.358-3.039
			c-0.134-0.154-0.221-0.332-0.221-0.53s0.087-0.354,0.196-0.507c0.529-0.728,3.505-3.946,4.258-3.946
			c0.194,0,0.396,0.087,0.57,0.221l3.043,2.361c0.64-0.332,1.321-0.616,2.004-0.839c0.153-1.346,0.288-2.776,0.641-4.101
			c0.087-0.353,0.396-0.617,0.794-0.617h4.894c0.396,0,0.751,0.285,0.794,0.661l0.617,4.057c0.686,0.223,1.345,0.484,1.984,0.815
			l3.129-2.361c0.134-0.133,0.332-0.197,0.529-0.197c0.196,0,0.396,0.087,0.55,0.221c1.167,1.082,2.711,2.447,3.64,3.749
			c0.108,0.134,0.15,0.308,0.15,0.483c0,0.195-0.065,0.355-0.174,0.506c-0.751,1.018-1.567,1.984-2.313,3.022
			c0.374,0.704,0.684,1.431,0.902,2.159l4.036,0.617c0.374,0.069,0.639,0.42,0.639,0.794L79.711,58.313L79.711,58.313z
			 M62.782,50.18c-3.109,0-5.644,2.534-5.644,5.642c0,3.112,2.533,5.647,5.644,5.647c3.109,0,5.643-2.535,5.643-5.647
			C68.425,52.714,65.891,50.18,62.782,50.18z"/>
	</g>
</g>
</svg>
