<?xml version="1.0" encoding="utf-8"?>
<!-- Generator: Adobe Illustrator 21.0.0, SVG Export Plug-In . SVG Version: 6.00 Build 0)  -->
<svg version="1.1" id="图层_1" xmlns="http://www.w3.org/2000/svg" xmlns:xlink="http://www.w3.org/1999/xlink" x="0px" y="0px"
	 viewBox="0 0 1000 1000" style="enable-background:new 0 0 1000 1000;" xml:space="preserve">
<path d="M874.2,0H125.8C83.7,0,49.4,34.2,49.4,76.4v847.3c0,42.1,34.3,76.4,76.4,76.4h748.5c42.1,0,76.4-34.2,76.4-76.4V76.4
	C950.6,34.2,916.3,0,874.2,0z M514,654.7c0,13.4-10.9,24.3-24.3,24.3H194.3c-13.4,0-24.3-10.9-24.3-24.3v-32.4
	c0-13.4,10.9-24.3,24.3-24.3h295.4c13.4,0,24.3,10.9,24.3,24.3V654.7z M514,486.7c0,13.4-10.9,24.3-24.3,24.3H194.3
	c-13.4,0-24.3-10.9-24.3-24.3v-32.4c0-13.4,10.9-24.3,24.3-24.3h295.4c13.4,0,24.3,10.9,24.3,24.3V486.7z M514,318.7
	c0,13.4-10.9,24.3-24.3,24.3H194.3c-13.4,0-24.3-10.9-24.3-24.3v-32.4c0-13.4,10.9-24.3,24.3-24.3h295.4c13.4,0,24.3,10.9,24.3,24.3
	V318.7z M801,697.7c-0.2,1.2-0.1,2.4-0.7,3.6l-52,113.9c-1.4,3.1-3.6,5.6-6.3,7.3c-2.8,1.8-6.1,2.8-9.6,2.7
	c-6.8-0.2-12.9-4.4-15.4-10.7l-45.6-114l129.7-2.9C801,697.7,801,697.7,801,697.7z M802.4,663.4l-134,3L666.3,316l141.9-3.2
	L802.4,663.4z M808.9,278.7l-142.1,3.2l1.2-34.8c0.2-2.7,1.9-23,21.1-35.3c6.5-4.2,14.2-6.8,22.8-7.8c28.8-3.4,58.3-0.9,59.6-0.7
	c1.7,0.1,3.4,0.6,5,1.2c3.3,1.4,32.2,13.9,32.8,39.3C809.5,251.1,809.2,265.6,808.9,278.7z"/>
</svg>
