<?xml version="1.0" encoding="utf-8"?>
<!-- Generator: Adobe Illustrator 16.0.0, SVG Export Plug-In . SVG Version: 6.00 Build 0)  -->
<!DOCTYPE svg PUBLIC "-//W3C//DTD SVG 1.1//EN" "http://www.w3.org/Graphics/SVG/1.1/DTD/svg11.dtd">
<svg version="1.1" id="图形" xmlns="http://www.w3.org/2000/svg" xmlns:xlink="http://www.w3.org/1999/xlink" x="0px" y="0px"
	 width="80px" height="81.839px" viewBox="0 0 80 81.839" enable-background="new 0 0 80 81.839" xml:space="preserve">
<rect x="22.818" display="none" fill="#F1F1F1" width="80" height="81.839"/>
<path fill="#444444" d="M79.48,48.605l-45.853,9.254c-1.174,3.715-1.111,7.355,0.368,10.968l44.892-10.134l0.631,2.783L33.49,71.863
	l-1.338-0.234L1.853,52.854c-1.662-3.792-2.206-7.635,0-11.599l2.958-0.456v1.005l38.81,8.656c0.535-1.346,0.853-2.73,0.929-4.146
	c0.086-1.575-0.118-3.204-0.64-4.9L4.529,33.467l0.369-2.721l0.186-0.06l0.001-0.01H5.11l2.366-0.718l0.092-2.432l36.087,8.733
	c0.494-1.243,0.789-2.511,0.859-3.828c0.079-1.454-0.108-2.963-0.598-4.547L7.47,19.865l0.004-3.685l28.69-7.298l33.224,6.756
	c1.765,3.242,1.328,6.286,0,9.248l-2.396,1.371l4.436,0.683c1.9,3.413,1.424,6.729,0,9.994l-7.301,4.524l15.456,4.21L79.48,48.605
	L79.48,48.605z M35.895,64.925l0.145,0.698l41.808-8.646l-0.144-0.694L35.895,64.925L35.895,64.925z M35.771,62.085l0.139,0.695
	l41.809-8.64l-0.144-0.693L35.771,62.085L35.771,62.085z M35.605,59.568l0.171,0.834l41.808-8.64l-0.171-0.833L35.605,59.568z"/>
</svg>
