<?xml version="1.0" encoding="utf-8"?>
<!-- Generator: Adobe Illustrator 21.0.0, SVG Export Plug-In . SVG Version: 6.00 Build 0)  -->
<svg version="1.1" id="图层_1" xmlns="http://www.w3.org/2000/svg" xmlns:xlink="http://www.w3.org/1999/xlink" x="0px" y="0px"
	 viewBox="0 0 1000 1000" style="enable-background:new 0 0 1000 1000;" xml:space="preserve">
<style type="text/css">
	.st0{fill:none;}
</style>
<g>
	<path class="st0" d="M120.7,282.9h462.7c11.1,0,20.1-9,20.1-20.1v-40.2c0-11.1-9-20.1-20.1-20.1H120.7c-11.1,0-20.1,9-20.1,20.1
		v40.2C100.6,273.9,109.6,282.9,120.7,282.9z"/>
	<path d="M984.4,909.8l-99.2-99.2c48.2-81.8,37.5-188.7-32.8-258.9c-41.6-41.6-96.2-62.5-150.8-62.5c-54.6,0-109.2,20.8-150.8,62.5
		c-83.3,83.3-83.3,218.3,0,301.6c41.6,41.6,96,62.3,150.4,62.3c37.6,0,75.1-9.9,108.5-29.5l99.2,99.2c10.4,10.4,24.1,15.6,37.7,15.6
		c13.6,0,27.3-5.2,37.7-15.6C1005.2,964.4,1005.2,930.6,984.4,909.8z M704.5,846C623.6,846,558,780.4,558,699.5S623.6,553,704.5,553
		S851,618.6,851,699.5S785.4,846,704.5,846z"/>
	<path d="M643-0.8H181.9c-5.7,0-11.3,0.3-16.8,0.8H61.2C27.5,0,0,27.5,0,61.2v119.9v228.4v415.4c0,32.9,26.7,59.5,59.5,59.5h412.2
		c-17.5-21.1-31.7-46-42.3-72.1c-14.3-35.2-21.5-72.2-21.5-110.3c0-6.8,0.2-13.7,0.7-20.8l2.5-21.8c1.5-12.7,4.1-25.2,7.9-37.4
		l6.7-21.2c1.2-3,2.4-6.2,3.7-9.4c14.8-36.5,36.5-69,64.5-97c4.1-4.1,8.3-8.2,12.6-12.3H119.9c-10.7,0-19.3-8.6-19.3-19.3v-36.2
		v-3.2c0-11.5,9.4-20.9,20.9-20.9h461.1l0-0.8c11.5,0,20.9,9.4,20.9,20.9v3.2c31.2-11.3,64.8-17.1,98.7-17.1c0.6,0,0.9,0,1.9,0V60.4
		C704.2,26.7,676.6-0.8,643-0.8z M603.6,262.8c0,11.1-9,20.1-20.1,20.1H120.7c-11.1,0-20.1-9-20.1-20.1v-39.5
		c0-11.1,9-20.1,20.1-20.1h462.7l-0.2-0.8h0.2c11.1,0,20.1,9,20.1,20.1V262.8z"/>
</g>
</svg>
