<?xml version="1.0" encoding="utf-8"?>
<!-- Generator: Adobe Illustrator 16.0.0, SVG Export Plug-In . SVG Version: 6.00 Build 0)  -->
<!DOCTYPE svg PUBLIC "-//W3C//DTD SVG 1.1//EN" "http://www.w3.org/Graphics/SVG/1.1/DTD/svg11.dtd">
<svg version="1.1" id="图形" xmlns="http://www.w3.org/2000/svg" xmlns:xlink="http://www.w3.org/1999/xlink" x="0px" y="0px"
	 width="80px" height="81.839px" viewBox="0 0 80 81.839" enable-background="new 0 0 80 81.839" xml:space="preserve">
<rect x="22.818" display="none" fill="#F1F1F1" width="80" height="81.839"/>
<g>
	<path fill="#444444" d="M79.717,58.132c0,3.64-2.979,6.619-6.619,6.619H50.589c0,3.518,2.649,6.494,2.649,7.944
		c0,1.447-1.198,2.648-2.649,2.648H29.406c-1.448,0-2.648-1.199-2.648-2.648c0-1.531,2.648-4.346,2.648-7.944H6.899
		c-3.641,0-6.62-2.979-6.62-6.619V13.115c0-3.64,2.979-6.62,6.62-6.62h66.199c3.64,0,6.619,2.979,6.619,6.62V58.132z M74.421,13.115
		c0-0.703-0.621-1.323-1.323-1.323H6.899c-0.704,0-1.324,0.62-1.324,1.323v34.422c0,0.705,0.62,1.324,1.324,1.324h66.199
		c0.702,0,1.323-0.619,1.323-1.324V13.115z"/>
</g>
</svg>
