<?xml version="1.0" encoding="utf-8"?>
<!-- Generator: Adobe Illustrator 16.0.0, SVG Export Plug-In . SVG Version: 6.00 Build 0)  -->
<!DOCTYPE svg PUBLIC "-//W3C//DTD SVG 1.1//EN" "http://www.w3.org/Graphics/SVG/1.1/DTD/svg11.dtd">
<svg version="1.1" id="图形" xmlns="http://www.w3.org/2000/svg" xmlns:xlink="http://www.w3.org/1999/xlink" x="0px" y="0px"
	 width="80px" height="81.839px" viewBox="0 0 80 81.839" enable-background="new 0 0 80 81.839" xml:space="preserve">
<rect x="22.818" display="none" fill="#F1F1F1" width="80" height="81.839"/>
<path fill="#444444" d="M46.379,37.899v20.033h-4.838l-1.934-12.689L37.67,57.932h-5.268v-20.05
	c-2.091-1.088-3.527-3.277-3.527-5.787V21.837c0-3.586,2.934-6.518,6.518-6.518h8.025c3.586,0,6.518,2.935,6.518,6.518v10.257
	C49.936,34.615,48.485,36.814,46.379,37.899L46.379,37.899z M50.613,55.589l-3.088,5.882h12.115l-1.623,4.368l15.956-6.991
	l-10.987-6.346l-1.147,3.087H50.613L50.613,55.589z M27.803,55.589H17.292l-1.15-3.089L5.156,58.844l15.955,6.993l-1.627-4.368
	h11.408L27.803,55.589L27.803,55.589z M34.992,60.849h8.892l1.439,7.455h9.507L39.708,81.518L24.583,68.304h8.97L34.992,60.849
	L34.992,60.849z M39.594,0.336c3.798,0,6.868,3.075,6.868,6.869c0,3.792-3.073,6.865-6.868,6.865c-3.792,0-6.862-3.073-6.862-6.865
	C32.729,3.41,35.802,0.336,39.594,0.336z"/>
</svg>
