<?xml version="1.0" encoding="utf-8"?>
<!-- Generator: Adobe Illustrator 16.0.0, SVG Export Plug-In . SVG Version: 6.00 Build 0)  -->
<!DOCTYPE svg PUBLIC "-//W3C//DTD SVG 1.1//EN" "http://www.w3.org/Graphics/SVG/1.1/DTD/svg11.dtd">
<svg version="1.1" id="图形" xmlns="http://www.w3.org/2000/svg" xmlns:xlink="http://www.w3.org/1999/xlink" x="0px" y="0px"
	 width="80px" height="81.839px" viewBox="0 0 80 81.839" enable-background="new 0 0 80 81.839" xml:space="preserve">
<rect x="22.818" display="none" fill="#F1F1F1" width="80" height="81.839"/>
<path fill="#444444" d="M38.851,0.595h4.485v12.021h-4.485V0.595L38.851,0.595z M77.412,34.775v4.484H65.388v-4.484H77.412
	L77.412,34.775z M71.443,16.88l2.24,3.886l-10.406,6.005l-2.244-3.881L71.443,16.88L71.443,16.88z M57.327,4.371L51.323,14.78
	l3.88,2.242l6.013-10.408L57.327,4.371L57.327,4.371z M4.673,39.159v-4.483h12.019v4.483H4.673L4.673,39.159z M8.448,20.675
	l2.242-3.882l10.408,6.01l-2.244,3.886L8.448,20.675L8.448,20.675z M20.959,6.563l6.009,10.409l3.886-2.242L24.842,4.322
	L20.959,6.563L20.959,6.563z M41.131,18.217c4.634,0,10.418,2.394,13.705,5.679c3.508,3.507,5.681,8.354,5.681,13.704
	c0,3.597-0.984,6.969-2.697,9.858c-1.563,2.637-3.732,4.881-6.319,6.521v1.994l0.747-0.063l1.445-0.128l0.576,1.353
	c0.467,1.11,0.692,2.209,0.686,3.288c-0.005,1.116-0.242,2.177-0.704,3.214l-0.15,0.336l0.169,0.397
	c0.467,1.105,0.692,2.202,0.686,3.295c-0.005,1.105-0.242,2.177-0.704,3.203l-0.484,1.09l-1.18,0.099L30.635,74l-1.512,0.128
	l-0.542-1.427c-0.352-0.936-0.613-1.911-0.661-2.983c-0.044-1.12,0.148-2.272,0.725-3.492l0.124-0.263L28.58,65.47
	c-0.352-0.944-0.613-1.916-0.66-2.984c-0.044-1.117,0.148-2.269,0.724-3.488l0.493-1.043l1.149-0.101l0.834-0.073v-3.579
	c-2.679-1.621-4.932-3.873-6.562-6.545c-1.786-2.937-2.813-6.383-2.813-10.054c0-5.348,2.17-10.196,5.675-13.704
	C30.931,20.387,35.776,18.217,41.131,18.217L41.131,18.217z M46.891,75.438c0,0.084,0.005,0.155,0.005,0.239
	c0,3.075-2.495,5.566-5.57,5.566c-2.822,0-5.157-2.098-5.523-4.825L46.891,75.438L46.891,75.438z M50.924,67.299l-18.962,1.676
	c-0.029,0.201-0.037,0.402-0.029,0.587c0.004,0.092,0.012,0.182,0.026,0.271l18.943-1.664c0.029-0.174,0.042-0.34,0.042-0.504
	C50.944,67.545,50.936,67.429,50.924,67.299L50.924,67.299z M50.924,60.067l-18.96,1.673c-0.029,0.205-0.037,0.396-0.029,0.59
	c0.004,0.09,0.012,0.183,0.026,0.273l18.943-1.676c0.028-0.162,0.042-0.336,0.042-0.502C50.944,60.306,50.936,60.187,50.924,60.067z
	"/>
</svg>
