<?xml version="1.0" encoding="utf-8"?>
<!-- Generator: Adobe Illustrator 16.0.0, SVG Export Plug-In . SVG Version: 6.00 Build 0)  -->
<!DOCTYPE svg PUBLIC "-//W3C//DTD SVG 1.1//EN" "http://www.w3.org/Graphics/SVG/1.1/DTD/svg11.dtd">
<svg version="1.1" id="图形" xmlns="http://www.w3.org/2000/svg" xmlns:xlink="http://www.w3.org/1999/xlink" x="0px" y="0px"
	 width="80px" height="81.839px" viewBox="0 0 80 81.839" enable-background="new 0 0 80 81.839" xml:space="preserve">
<rect x="22.818" display="none" fill="#F1F1F1" width="80" height="81.839"/>
<g>
	<rect x="79.626" y="35.635" fill="#444444" width="0.001" height="0.038"/>
	<polygon fill="#444444" points="49.425,60.603 30.494,60.603 28.602,62.001 3.436,80.535 76.473,80.535 51.323,62.001 	"/>
	<polygon fill="#444444" points="55.052,59.269 55.048,59.269 79.646,77.394 79.646,41.146 69.204,48.839 	"/>
	<polygon fill="#444444" points="79.646,35.655 79.609,35.655 79.608,35.654 69.204,27.987 69.204,43.375 79.646,35.689 
		79.646,35.682 79.646,35.682 79.646,35.681 	"/>
	<polygon fill="#444444" points="24.886,59.261 10.777,48.872 0.254,41.122 0.254,41.125 0.254,77.401 24.884,59.263 	"/>
	<polygon fill="#444444" points="10.726,27.975 0.365,35.604 10.726,43.28 	"/>
	<polygon fill="#444444" points="29.479,11.057 29.479,15.467 25.07,15.467 15.135,15.467 15.135,46.545 28.613,56.53 
		51.335,56.529 64.795,46.622 64.795,1.109 29.479,1.109 29.479,1.153 	"/>
	<polygon fill="#444444" points="15.131,11.057 25.07,11.057 25.07,1.153 	"/>
</g>
</svg>
