<?xml version="1.0" encoding="utf-8"?>
<!-- Generator: Adobe Illustrator 16.0.0, SVG Export Plug-In . SVG Version: 6.00 Build 0)  -->
<!DOCTYPE svg PUBLIC "-//W3C//DTD SVG 1.1//EN" "http://www.w3.org/Graphics/SVG/1.1/DTD/svg11.dtd">
<svg version="1.1" id="Layer_1" xmlns:sketch="http://www.bohemiancoding.com/sketch/ns"
	 xmlns="http://www.w3.org/2000/svg" xmlns:xlink="http://www.w3.org/1999/xlink" x="0px" y="0px" width="80px" height="81.84px"
	 viewBox="0 0 80 81.84" enable-background="new 0 0 80 81.84" xml:space="preserve">
<title>Mail</title>
<desc>Created with Sketch.</desc>
<path fill="#58595B" d="M77.604,20.13l-0.181-0.09c-0.515-1.646-2.036-2.852-3.85-2.852H6.427c-2.234,0-4.052,1.818-4.052,4.052
	v39.361c0,2.234,1.818,4.052,4.052,4.052h67.146c2.233,0,4.052-1.817,4.052-4.052V21.239L77.604,20.13z M30.389,41.837L5.848,59.221
	V24.249C10.456,27.346,20.951,34.93,30.389,41.837z M33.342,44.001c1.982,1.455,3.883,2.854,5.626,4.141l1.038,0.766l1.033-0.771
	c1.729-1.292,3.619-2.695,5.591-4.155L70.909,61.18H9.09L33.342,44.001z M49.569,41.808c9.463-6.982,20.013-14.646,24.583-17.662
	v35.075L49.569,41.808z M56.542,32.385c-6.99,5.096-13.976,10.284-16.547,12.198c-2.585-1.904-9.611-7.071-16.625-12.155
	C13.875,25.546,9.19,22.204,6.705,20.66h66.476C70.65,22.206,65.935,25.539,56.542,32.385z"/>
</svg>
