<?xml version="1.0" encoding="utf-8"?>
<!-- Generator: Adobe Illustrator 16.0.0, SVG Export Plug-In . SVG Version: 6.00 Build 0)  -->
<!DOCTYPE svg PUBLIC "-//W3C//DTD SVG 1.1//EN" "http://www.w3.org/Graphics/SVG/1.1/DTD/svg11.dtd">
<svg version="1.1" id="图形" xmlns="http://www.w3.org/2000/svg" xmlns:xlink="http://www.w3.org/1999/xlink" x="0px" y="0px"
	 width="80px" height="81.839px" viewBox="0 0 80 81.839" enable-background="new 0 0 80 81.839" xml:space="preserve">
<rect x="22.818" display="none" fill="#F1F1F1" width="80" height="81.839"/>
<g>
	<path fill="#444444" d="M14.152,45.776H8.67c-4.09,0-7.936-1.965-7.936-6.503c0-3.313-0.123-14.438,5.071-14.438
		c0.858,0,5.113,3.476,10.635,3.476c1.88,0,3.682-0.328,5.44-0.939c-0.122,0.9-0.205,1.799-0.205,2.699
		c0,3.722,1.185,7.404,3.313,10.471C20.736,40.663,16.892,42.503,14.152,45.776z M57.877,77.189h-35.75
		c-6.545,0-10.921-3.967-10.921-10.592c0-9.242,2.167-23.439,14.152-23.439c1.392,0,6.462,5.688,14.643,5.688
		c8.182,0,13.252-5.688,14.645-5.688c11.982,0,14.149,14.197,14.149,23.439C68.798,73.222,64.421,77.189,57.877,77.189z
		 M71.333,45.776h-5.48c-2.742-3.272-6.585-5.113-10.841-5.236c2.128-3.067,3.315-6.749,3.315-10.471c0-0.9-0.085-1.799-0.207-2.699
		c1.758,0.613,3.557,0.939,5.437,0.939c5.524,0,9.778-3.477,10.638-3.477c5.194,0,5.072,11.126,5.072,14.439
		C79.27,43.814,75.426,45.776,71.333,45.776z M39.98,45.391c-8.017,0-14.521-6.506-14.521-14.521
		c0-8.017,6.506-14.522,14.521-14.522c8.016,0,14.521,6.505,14.521,14.522C54.503,38.888,47.998,45.391,39.98,45.391z
		 M40.359,21.189c-3.083,0-5.389,1.324-7.016,4.029c-0.168,0.265-0.093,0.605,0.151,0.795l2.496,1.89
		c0.095,0.076,0.227,0.114,0.359,0.114c0.17,0,0.359-0.076,0.473-0.227c0.887-1.134,1.267-1.475,1.626-1.739
		c0.321-0.226,0.944-0.454,1.626-0.454c1.21,0,2.326,0.775,2.326,1.606c0,0.984-0.511,1.477-1.666,2.005
		c-1.342,0.605-3.177,2.173-3.177,4.008v0.681c0,0.34,0.265,0.605,0.605,0.605h3.63c0.341,0,0.604-0.265,0.604-0.605
		c0-0.435,0.549-1.363,1.438-1.872c1.438-0.813,3.403-1.91,3.403-4.784C47.242,23.78,43.612,21.189,40.359,21.189z M42.401,36.316
		c0-0.341-0.267-0.605-0.604-0.605h-3.633c-0.34,0-0.605,0.264-0.605,0.605v3.63c0,0.34,0.265,0.605,0.605,0.605h3.633
		c0.338,0,0.604-0.265,0.604-0.605V36.316z M16.017,25.14c-5.656,0-10.245-4.588-10.245-10.244c0-5.657,4.589-10.246,10.245-10.246
		c5.655,0,10.244,4.589,10.244,10.246C26.262,20.552,21.672,25.14,16.017,25.14z M16.283,8.065c-2.174,0-3.801,0.934-4.948,2.842
		c-0.119,0.186-0.067,0.426,0.106,0.559l1.76,1.335c0.067,0.054,0.161,0.081,0.253,0.081c0.121,0,0.253-0.055,0.333-0.161
		c0.625-0.8,0.893-1.041,1.148-1.228c0.225-0.158,0.666-0.318,1.146-0.318c0.854,0,1.641,0.545,1.641,1.131
		c0,0.695-0.361,1.042-1.174,1.417c-0.948,0.426-2.243,1.533-2.243,2.826v0.48c0,0.242,0.188,0.428,0.427,0.428h2.56
		c0.242,0,0.428-0.186,0.428-0.428c0-0.305,0.386-0.96,1.014-1.32c1.016-0.574,2.401-1.347,2.401-3.375
		C21.139,9.893,18.578,8.065,16.283,8.065z M17.725,18.735c0-0.24-0.186-0.426-0.428-0.426h-2.56c-0.242,0-0.428,0.186-0.428,0.426
		v2.563c0,0.241,0.188,0.426,0.428,0.426h2.56c0.242,0,0.428-0.185,0.428-0.426V18.735z M63.168,25.14
		c-5.657,0-10.247-4.588-10.247-10.244c0-5.657,4.59-10.246,10.247-10.246c5.655,0,10.243,4.589,10.243,10.246
		C73.411,20.552,68.821,25.14,63.168,25.14z M63.432,8.065c-2.173,0-3.801,0.934-4.947,2.842c-0.119,0.186-0.066,0.426,0.106,0.559
		l1.762,1.335c0.066,0.054,0.159,0.081,0.253,0.081c0.119,0,0.253-0.055,0.332-0.161c0.63-0.8,0.894-1.041,1.147-1.228
		c0.227-0.158,0.668-0.318,1.148-0.318c0.854,0,1.642,0.545,1.642,1.131c0,0.695-0.36,1.042-1.176,1.417
		c-0.946,0.426-2.243,1.533-2.243,2.826v0.48c0,0.242,0.188,0.428,0.429,0.428h2.562c0.241,0,0.429-0.186,0.429-0.428
		c0-0.305,0.388-0.96,1.012-1.32c1.015-0.574,2.4-1.347,2.4-3.375C68.29,9.893,65.728,8.065,63.432,8.065z M64.875,18.735
		c0-0.24-0.188-0.426-0.429-0.426h-2.56c-0.241,0-0.429,0.186-0.429,0.426v2.563c0,0.241,0.188,0.426,0.429,0.426h2.56
		c0.241,0,0.429-0.185,0.429-0.426V18.735z"/>
</g>
</svg>
