<?xml version="1.0" encoding="utf-8"?>
<!-- Generator: Adobe Illustrator 16.0.0, SVG Export Plug-In . SVG Version: 6.00 Build 0)  -->
<!DOCTYPE svg PUBLIC "-//W3C//DTD SVG 1.1//EN" "http://www.w3.org/Graphics/SVG/1.1/DTD/svg11.dtd">
<svg version="1.1" id="图形" xmlns="http://www.w3.org/2000/svg" xmlns:xlink="http://www.w3.org/1999/xlink" x="0px" y="0px"
	 width="80px" height="81.839px" viewBox="0 0 80 81.839" enable-background="new 0 0 80 81.839" xml:space="preserve">
<rect x="22.818" display="none" fill="#F1F1F1" width="80" height="81.839"/>
<g>
	<path fill="#444444" d="M73.439,38.993L51.486,57.788L73.42,78.866c0.14-0.405,0.231-0.833,0.231-1.284V40.212
		C73.651,39.784,73.565,39.378,73.439,38.993z"/>
	<path fill="#444444" d="M34.23,57.628l5.769,4.694l5.782-4.706l2.927-2.381l22.046-18.871c-0.363-0.108-0.738-0.183-1.133-0.183
		H53.6l-8.5,10.154c-1.279,1.526-3.11,2.4-5.024,2.4c-1.915,0-3.746-0.874-5.026-2.403l-8.5-10.151H10.381
		c-0.397,0-0.773,0.074-1.136,0.183l22.059,18.882L34.23,57.628z"/>
	<path fill="#444444" d="M39.999,67.135l-8.548-6.957L9.293,81.442c0.349,0.101,0.709,0.171,1.088,0.171h59.24
		c0.38,0,0.738-0.07,1.088-0.171L48.56,60.167L39.999,67.135z"/>
	<path fill="#444444" d="M6.561,38.993c-0.125,0.386-0.211,0.791-0.211,1.22v37.369c0,0.453,0.092,0.879,0.23,1.284l21.943-21.069
		L6.561,38.993z"/>
	<path fill="#444444" d="M37.91,43.939c0.596,0.709,1.38,1.064,2.165,1.064c0.784,0,1.568-0.355,2.164-1.064l16.31-19.483
		c1.19-1.422,0.648-2.585-1.207-2.585h-8.573c-0.927,0-2.149,0-3.37,0V3.596c0-1.855-1.519-3.371-3.374-3.371h-3.902
		c-1.853,0-3.371,1.516-3.371,3.371v18.274c-1.222,0-2.444,0-3.372,0h-8.572c-1.855,0-2.398,1.163-1.207,2.585L37.91,43.939z"/>
</g>
</svg>
