<?xml version="1.0" encoding="utf-8"?>
<!-- Generator: Adobe Illustrator 16.0.0, SVG Export Plug-In . SVG Version: 6.00 Build 0)  -->
<!DOCTYPE svg PUBLIC "-//W3C//DTD SVG 1.1//EN" "http://www.w3.org/Graphics/SVG/1.1/DTD/svg11.dtd">
<svg version="1.1" id="图形" xmlns="http://www.w3.org/2000/svg" xmlns:xlink="http://www.w3.org/1999/xlink" x="0px" y="0px"
	 width="80px" height="81.839px" viewBox="0 0 80 81.839" enable-background="new 0 0 80 81.839" xml:space="preserve">
<rect x="22.818" display="none" fill="#F1F1F1" width="80" height="81.839"/>
<g>
	<rect x="17.81" y="43.091" fill="#444444" width="33.999" height="2.77"/>
	<path fill="#444444" d="M66.345,0.211h-3.331H6.102H2.771v3.331v60.567v1.66l1.354,1.004l16.745,12.469l0.892,0.662h1.086h24.17
		c-2.691-1.229-4.564-3.951-5.441-6.659H25.809l-4.375-15.325l-0.422-1.479l-1.442,0.532L9.434,60.721V6.876h50.249v36.83
		c2.341,0.019,4.638,0.538,6.662,1.5V3.542V0.211L66.345,0.211z M19.115,60.189l3.435,12.021L10.61,63.317L19.115,60.189z"/>
	<rect x="17.81" y="17.41" fill="#444444" width="33.999" height="2.771"/>
	<rect x="17.81" y="34.781" fill="#444444" width="33.999" height="2.77"/>
	<rect x="17.81" y="25.72" fill="#444444" width="33.999" height="2.771"/>
	<g>
		<g>
			<path fill="#444444" d="M59.368,81.64c-9.822,0-17.791-7.97-17.791-17.791c0-9.822,7.969-17.791,17.791-17.791
				c9.823,0,17.792,7.969,17.792,17.791C77.16,73.67,69.191,81.64,59.368,81.64z M69.745,62.364c0-0.809-0.67-1.482-1.479-1.482
				H50.473c-0.812,0-1.482,0.674-1.482,1.482v2.966c0,0.812,0.671,1.482,1.482,1.482h17.792c0.81,0,1.48-0.671,1.48-1.482V62.364
				L69.745,62.364z"/>
		</g>
	</g>
</g>
</svg>
