<?xml version="1.0" encoding="utf-8"?>
<!-- Generator: Adobe Illustrator 16.0.0, SVG Export Plug-In . SVG Version: 6.00 Build 0)  -->
<!DOCTYPE svg PUBLIC "-//W3C//DTD SVG 1.1//EN" "http://www.w3.org/Graphics/SVG/1.1/DTD/svg11.dtd">
<svg version="1.1" id="Layer_1" xmlns:sketch="http://www.bohemiancoding.com/sketch/ns"
	 xmlns="http://www.w3.org/2000/svg" xmlns:xlink="http://www.w3.org/1999/xlink" x="0px" y="0px" width="80px" height="81.84px"
	 viewBox="0 0 80 81.84" enable-background="new 0 0 80 81.84" xml:space="preserve">
<title>Mail-has-mail</title>
<desc>Created with Sketch.</desc>
<g>
	<path fill="#6B6C6E" d="M72.887,27.557L40.847,8.775c-0.523-0.306-1.17-0.306-1.694,0L7.114,27.557
		c-1.914,0.251-3.396,1.893-3.396,3.874v37.957c0,2.154,1.753,3.907,3.907,3.907h64.75c2.154,0,3.907-1.753,3.907-3.907V31.431
		C76.282,29.449,74.801,27.808,72.887,27.557z M30.686,51.327L7.067,68.057V34.648C11.882,38.022,22.375,45.392,30.686,51.327z
		 M66.235,35.319l-11.723,8.318v-0.485H25.487v0.371c-0.702-0.497-1.403-0.993-2.102-1.487H52.28v-3.349H23.254v3.256
		c-3.405-2.406-6.711-4.734-9.489-6.686v-1.594c0-0.303,0.255-0.558,0.558-0.558h51.354c0.303,0,0.559,0.255,0.559,0.558V35.319z
		 M31.254,47.618c-0.518-0.368-1.04-0.74-1.568-1.116h20.791l-2.662,1.89v-0.773H31.254z M44.185,50.968l-4.167,2.957
		c-1.188-0.868-2.573-1.872-4.083-2.957H44.185z M33.566,53.39c2.103,1.511,3.971,2.865,5.44,3.949
		c0.295,0.218,0.645,0.327,0.994,0.327c0.339,0,0.68-0.103,0.969-0.309l5.527-3.923l23.311,16.511H10.193L33.566,53.39z
		 M49.39,51.381l23.544-16.708v33.384L49.39,51.381z M8.472,30.643L40,12.161l31.528,18.482c0.257,0.15,0.549,0.23,0.847,0.23
		c0.035,0,0.064,0.014,0.097,0.02l-2.955,2.098c-0.321-1.833-1.916-3.235-3.84-3.235H14.323c-1.912,0-3.501,1.383-3.836,3.2
		c-1.228-0.861-2.234-1.567-2.947-2.066c0.028-0.004,0.055-0.018,0.084-0.018C7.923,30.873,8.215,30.793,8.472,30.643z"/>
	<rect x="23.254" y="34.222" fill="#6B6C6E" width="7.814" height="3.349"/>
</g>
</svg>
