<?xml version="1.0" encoding="utf-8"?>
<!-- Generator: Adobe Illustrator 16.0.0, SVG Export Plug-In . SVG Version: 6.00 Build 0)  -->
<!DOCTYPE svg PUBLIC "-//W3C//DTD SVG 1.1//EN" "http://www.w3.org/Graphics/SVG/1.1/DTD/svg11.dtd">
<svg version="1.1" id="图形" xmlns="http://www.w3.org/2000/svg" xmlns:xlink="http://www.w3.org/1999/xlink" x="0px" y="0px"
	 width="80px" height="81.839px" viewBox="0 0 80 81.839" enable-background="new 0 0 80 81.839" xml:space="preserve">
<rect x="22.818" display="none" fill="#F1F1F1" width="80" height="81.839"/>
<g>
	<path fill="#444444" d="M78.98,43.583c-8.186,13.484-23.186,22.563-38.982,22.563c-15.798,0-30.795-9.124-38.983-22.563
		c-0.533-0.935-0.89-1.957-0.89-3.072c0-1.111,0.355-2.136,0.89-3.07c8.188-13.439,23.185-22.563,38.983-22.563
		c15.796,0,30.796,9.123,38.982,22.563c0.534,0.934,0.891,1.959,0.891,3.07C79.871,41.626,79.515,42.649,78.98,43.583z
		 M57.222,24.804c1.782,3.026,2.717,6.498,2.717,10.013c0,10.991-8.945,19.936-19.937,19.936c-10.991,0-19.939-8.944-19.939-19.935
		c0-3.515,0.935-6.985,2.714-10.013c-6.941,3.561-12.728,9.167-16.955,15.708C13.433,52.26,25.714,60.45,39.999,60.45
		c14.285,0,26.567-8.189,34.176-19.937C69.946,33.972,64.162,28.365,57.222,24.804z M39.999,21.289
		c-7.432,0-13.528,6.097-13.528,13.528c0,1.158,0.979,2.136,2.137,2.136c1.158,0,2.137-0.979,2.137-2.136
		c0-5.072,4.184-9.256,9.256-9.256c1.157,0,2.137-0.98,2.137-2.137C42.137,22.267,41.154,21.289,39.999,21.289z"/>
</g>
</svg>
