<?xml version="1.0" encoding="utf-8"?>
<!-- Generator: Adobe Illustrator 16.0.0, SVG Export Plug-In . SVG Version: 6.00 Build 0)  -->
<!DOCTYPE svg PUBLIC "-//W3C//DTD SVG 1.1//EN" "http://www.w3.org/Graphics/SVG/1.1/DTD/svg11.dtd">
<svg version="1.1" id="图形" xmlns="http://www.w3.org/2000/svg" xmlns:xlink="http://www.w3.org/1999/xlink" x="0px" y="0px"
	 width="80px" height="81.839px" viewBox="0 0 80 81.839" enable-background="new 0 0 80 81.839" xml:space="preserve">
<rect x="22.818" display="none" fill="#F1F1F1" width="80" height="81.839"/>
<g enable-background="new    ">
	<path fill="#444444" d="M79.85,64.855c0,3.913-3.203,7.116-7.117,7.116H7.266c-3.915,0-7.115-3.203-7.115-7.116V16.468
		c0-3.913,3.202-7.116,7.115-7.116H72.73c3.916,0,7.115,3.203,7.115,7.116v48.387H79.85z M72.73,15.045H7.266
		c-0.757,0-1.423,0.668-1.423,1.424c0,5.069,2.535,9.473,6.538,12.63c5.96,4.669,11.918,9.385,17.834,14.099
		c2.357,1.911,6.626,6.002,9.739,6.002H40h0.045c3.111,0,7.381-4.091,9.74-6.002c5.914-4.714,11.873-9.43,17.832-14.099
		c2.893-2.268,6.537-7.206,6.537-10.985C74.154,17.001,74.422,15.045,72.73,15.045z M74.154,30.699
		c-0.934,1.068-1.955,2.046-3.068,2.936c-6.359,4.892-12.766,9.872-18.945,15.031c-3.336,2.802-7.471,6.227-12.097,6.227h-0.045
		h-0.045c-4.625,0-8.761-3.423-12.097-6.227c-6.181-5.159-12.585-10.14-18.947-15.031c-1.112-0.89-2.136-1.868-3.069-2.936v34.156
		c0,0.756,0.667,1.423,1.424,1.423H72.73c0.754,0,1.424-0.667,1.424-1.423V30.699L74.154,30.699z"/>
</g>
</svg>
