<?xml version="1.0" encoding="utf-8"?>
<!-- Generator: Adobe Illustrator 16.0.0, SVG Export Plug-In . SVG Version: 6.00 Build 0)  -->
<!DOCTYPE svg PUBLIC "-//W3C//DTD SVG 1.1//EN" "http://www.w3.org/Graphics/SVG/1.1/DTD/svg11.dtd">
<svg version="1.1" id="图形" xmlns="http://www.w3.org/2000/svg" xmlns:xlink="http://www.w3.org/1999/xlink" x="0px" y="0px"
	 width="80px" height="81.839px" viewBox="0 0 80 81.839" enable-background="new 0 0 80 81.839" xml:space="preserve">
<rect x="22.818" display="none" fill="#F1F1F1" width="80" height="81.839"/>
<g>
	<path fill="#444444" d="M19.217,27.494c-0.57-1.371-0.832-3.173-0.798-5.304l0.01-0.677l0.559-0.377
		c0.107-0.074,0.216-0.143,0.326-0.207c-1.245-9.036-0.203-13.215,3.729-16.434c6.111-5.008,17.719-5.046,23.912-0.507
		c4.201,3.078,5.709,8.548,4.595,16.752c0.212,0.119,0.432,0.25,0.643,0.396l0.561,0.381l0.01,0.676
		c0.03,2.092-0.215,3.862-0.763,5.219c-0.508,1.256-1.263,2.187-2.276,2.736c-1.615,5.318-7.213,11.007-12.893,11.573
		c-0.999,0.098-2.137,0.078-3.127-0.277c-6.193-2.211-10.138-4.776-12.129-11.232C20.526,29.682,19.745,28.756,19.217,27.494z
		 M48.467,74.148c0.398-1.252,2.445-2.875,2.445-2.875l-0.087-0.711c-3.015-0.114-4.578-0.854-5.119-2.049
		c-0.253-0.557-0.373-5.803,0.2-7.341c0,0,0.341-1.481,4.61-1.165l0.312-0.687c0,0-2.707-2.087-2.021-4.124
		c0.369-1.088,3.004-3.658,3.956-4.611c1.936-1.8,3.272-0.26,5.351,1.478l0.611-0.255c-0.098-5.066,2.264-4.641,3.681-4.748
		c-0.773-1.096-1.594-2.086-2.46-2.906c-2.411,0-4.652,0.005-6.767,0.017c-1.834,0.144-3.384-0.017-4.561-0.603l-7.824,17.965
		l-2.087-11.561l1.54-0.705l-0.05-1.723h-6.606l-0.048,1.723l1.541,0.705L32.9,62.049l-9.154-19.211
		c-1.16,1.381-2.856,1.889-4.991,1.689c-2.271,0.015-4.686,0.021-7.301,0.021c-7.924,6.915-9.39,20.507-9.553,28.467
		c1.503,1.47,4.588,2.63,8.644,3.509l1.38-4.595l3.024,5.378c10.12,1.478,26.928,1.525,35.482,0.407
		C50.164,77.74,48.268,75.599,48.467,74.148z"/>
	<g>
		<path fill="#444444" d="M80.099,67.542c0,0.316-0.249,0.688-0.583,0.752l-3.849,0.582c-0.229,0.667-0.482,1.292-0.813,1.895
			c0.708,1.021,1.46,1.938,2.229,2.871c0.125,0.149,0.205,0.335,0.205,0.522c0,0.188-0.061,0.333-0.188,0.481
			c-0.499,0.664-3.312,3.725-4.019,3.725c-0.188,0-0.373-0.082-0.541-0.188l-2.872-2.25c-0.604,0.316-1.253,0.586-1.897,0.796
			c-0.146,1.27-0.269,2.619-0.604,3.87c-0.082,0.333-0.373,0.582-0.746,0.582h-4.623c-0.374,0-0.708-0.268-0.751-0.623l-0.583-3.832
			c-0.644-0.206-1.267-0.458-1.87-0.772l-2.938,2.229c-0.146,0.124-0.334,0.188-0.521,0.188c-0.188,0-0.376-0.082-0.521-0.228
			c-1.099-1-2.559-2.29-3.434-3.497c-0.103-0.146-0.146-0.313-0.146-0.481c0-0.188,0.064-0.331,0.165-0.479
			c0.708-0.957,1.479-1.873,2.188-2.853c-0.353-0.664-0.645-1.35-0.853-2.058l-3.812-0.564c-0.352-0.061-0.604-0.395-0.604-0.748
			v-4.62c0-0.314,0.252-0.686,0.56-0.749l3.875-0.582c0.206-0.666,0.48-1.292,0.813-1.915c-0.711-1-1.46-1.937-2.231-2.873
			c-0.121-0.146-0.206-0.313-0.206-0.498c0-0.188,0.085-0.333,0.189-0.483c0.498-0.683,3.309-3.725,4.017-3.725
			c0.187,0,0.378,0.084,0.54,0.206l2.877,2.229c0.604-0.313,1.25-0.584,1.895-0.795c0.146-1.266,0.271-2.621,0.603-3.869
			c0.087-0.333,0.379-0.585,0.751-0.585h4.62c0.378,0,0.708,0.271,0.752,0.623l0.58,3.831c0.646,0.207,1.271,0.461,1.874,0.772
			l2.957-2.229c0.127-0.124,0.312-0.188,0.5-0.188c0.188,0,0.376,0.087,0.52,0.206c1.105,1.023,2.563,2.314,3.436,3.542
			c0.105,0.125,0.146,0.293,0.146,0.458c0,0.188-0.061,0.33-0.164,0.479c-0.707,0.958-1.48,1.874-2.187,2.852
			c0.35,0.667,0.643,1.354,0.853,2.041l3.811,0.581c0.354,0.063,0.605,0.396,0.605,0.751L80.099,67.542L80.099,67.542z
			 M64.107,59.862c-2.936,0-5.329,2.394-5.329,5.328s2.394,5.329,5.329,5.329s5.332-2.395,5.332-5.329S67.043,59.862,64.107,59.862z
			"/>
	</g>
</g>
</svg>
