<?xml version="1.0" encoding="utf-8"?>
<!-- Generator: Adobe Illustrator 16.0.0, SVG Export Plug-In . SVG Version: 6.00 Build 0)  -->
<!DOCTYPE svg PUBLIC "-//W3C//DTD SVG 1.1//EN" "http://www.w3.org/Graphics/SVG/1.1/DTD/svg11.dtd">
<svg version="1.1" id="图形" xmlns="http://www.w3.org/2000/svg" xmlns:xlink="http://www.w3.org/1999/xlink" x="0px" y="0px"
	 width="80px" height="81.839px" viewBox="0 0 80 81.839" enable-background="new 0 0 80 81.839" xml:space="preserve">
<rect x="22.818" display="none" fill="#F1F1F1" width="80" height="81.839"/>
<g>
	<path fill="#444444" d="M72.16,28.499c-6.921,4.792-13.885,9.582-20.76,14.417c-2.884,1.995-7.762,6.076-11.356,6.076H40h-0.043
		c-3.592,0-8.473-4.081-11.356-6.076c-6.876-4.835-13.838-9.624-20.714-14.417c-3.15-2.129-7.629-7.141-7.629-11.177
		c0-4.347,2.351-8.074,7.097-8.074h65.295c3.858,0,7.096,3.193,7.096,7.098C79.744,21.312,76.063,25.792,72.16,28.499z
		 M79.744,64.606c0,3.901-3.192,7.097-7.096,7.097H7.353c-3.904,0-7.097-3.191-7.097-7.097v-35.22
		c1.331,1.463,2.838,2.75,4.479,3.859c7.364,5.013,14.815,10.025,22.045,15.303c3.726,2.751,8.339,6.122,13.174,6.122h0.043h0.045
		c4.833,0,9.448-3.371,13.174-6.122c7.229-5.236,14.682-10.29,22.089-15.303c1.596-1.109,3.104-2.396,4.435-3.859v35.22H79.744z"/>
</g>
</svg>
