<?xml version="1.0" encoding="utf-8"?>
<!-- Generator: Adobe Illustrator 16.0.0, SVG Export Plug-In . SVG Version: 6.00 Build 0)  -->
<!DOCTYPE svg PUBLIC "-//W3C//DTD SVG 1.1//EN" "http://www.w3.org/Graphics/SVG/1.1/DTD/svg11.dtd">
<svg version="1.1" id="图形" xmlns="http://www.w3.org/2000/svg" xmlns:xlink="http://www.w3.org/1999/xlink" x="0px" y="0px"
	 width="80px" height="81.839px" viewBox="0 0 80 81.839" enable-background="new 0 0 80 81.839" xml:space="preserve">
<rect x="22.818" display="none" fill="#F1F1F1" width="80" height="81.839"/>
<path fill="#444444" d="M23.348,5.059h45.716c2.919,0,5.576,1.201,7.491,3.117c1.929,1.928,3.118,4.583,3.118,7.503v31.959
	c0,2.921-1.189,5.575-3.118,7.502c-1.917,1.918-4.572,3.116-7.491,3.116h-5.275v-5.625h5.275c1.363,0,2.615-0.559,3.523-1.468
	c0.904-0.908,1.473-2.159,1.473-3.527V15.68c0-1.372-0.563-2.621-1.473-3.529c-0.908-0.904-2.16-1.465-3.523-1.465H23.348
	c-1.371,0-2.621,0.562-3.525,1.465c-0.909,0.908-1.471,2.159-1.471,3.529v31.959c0,1.37,0.561,2.621,1.471,3.529
	c0.904,0.905,2.154,1.466,3.525,1.466h18.398h6.785h0.089h1.416l0.846,1.157l7.552,10.321l-0.246-3.453l5.601-0.393
	c0,0,0.881,11.929,0.93,13.148c0.18,3.514-2.986,4.512-5.061,1.859c-1.107-1.511-12.452-17.012-12.452-17.012h-5.461H23.346
	c-2.92,0-5.575-1.199-7.497-3.116c-1.922-1.931-3.112-4.585-3.112-7.504V15.68c0-2.92,1.19-5.576,3.112-7.503
	C17.772,6.26,20.427,5.059,23.348,5.059L23.348,5.059z M47.52,39.32v3.175h17.396V39.32H47.52L47.52,39.32z M29.155,39.32v3.175
	h15.6V39.32H29.155L29.155,39.32z M56.145,28.566v3.172h8.771v-3.172H56.145L56.145,28.566z M49.104,28.566v3.172h3.518v-3.172
	H49.104L49.104,28.566z M38.885,28.566v3.172h7.041v-3.172H38.885L38.885,28.566z M29.155,28.566v3.172h7.041v-3.172H29.155
	L29.155,28.566z M29.155,18.625v3.177h35.76v-3.177H29.155L29.155,18.625z M10.585,68.191h3.983c0,0,0.007,5.493,0,7.265
	c-0.006,1.775,1.597,1.559,3.162,0c0.716-0.715,7.271-7.265,7.271-7.265H49.9c-1.241-1.611-3.225-4.24-3.967-5.434H10.585
	c-1.324,0-2.527-0.547-3.403-1.418c-0.879-0.877-1.426-2.085-1.426-3.411V27.033c0-1.328,0.547-2.532,1.426-3.407
	c0.729-0.727,1.682-1.23,2.745-1.377v-3.821c0-0.555,0.049-1.105,0.131-1.647c-2.615,0.139-4.98,1.259-6.721,3
	c-1.857,1.858-3.009,4.425-3.009,7.252v30.893c0,2.832,1.151,5.394,3.009,7.247C5.197,67.037,7.762,68.191,10.585,68.191z"/>
</svg>
