<?xml version="1.0" encoding="utf-8"?>
<!-- Generator: Adobe Illustrator 16.0.0, SVG Export Plug-In . SVG Version: 6.00 Build 0)  -->
<!DOCTYPE svg PUBLIC "-//W3C//DTD SVG 1.1//EN" "http://www.w3.org/Graphics/SVG/1.1/DTD/svg11.dtd">
<svg version="1.1" id="图形" xmlns="http://www.w3.org/2000/svg" xmlns:xlink="http://www.w3.org/1999/xlink" x="0px" y="0px"
	 width="80px" height="81.839px" viewBox="0 0 80 81.839" enable-background="new 0 0 80 81.839" xml:space="preserve">
<rect x="22.818" display="none" fill="#F1F1F1" width="80" height="81.839"/>
<path fill="#444444" d="M2.795,22.709h56.488h2.563v2.563v32.086v2.559h-2.563H2.795H0.233v-2.559V25.271v-2.563H2.795L2.795,22.709
	z M53.179,69.332h26.665V10.925H53.179v7.943h7.643h4.867h10.714h1.213v1.216v7.218v1.214h-1.213H65.688v2.217h10.714h1.213v1.216
	v7.218v1.215h-1.213H65.688v23.378h-12.51V69.332L53.179,69.332z M72.34,43.933h4.932v2.785H72.34V43.933L72.34,43.933z
	 M72.34,48.539h4.932v2.792H72.34V48.539L72.34,48.539z M65.688,21.298h9.495v4.789h-9.495V21.298L65.688,21.298z M65.688,33.164
	h9.495v4.787h-9.495V33.164L65.688,33.164z M16.413,66.393h4.49v-4.742h19.771v4.742h3.983v2.938H16.413V66.393L16.413,66.393z
	 M55.017,29.05H7.301v24.531h47.712L55.017,29.05L55.017,29.05z"/>
</svg>
