<?xml version="1.0" encoding="utf-8"?>
<!-- Generator: Adobe Illustrator 16.0.0, SVG Export Plug-In . SVG Version: 6.00 Build 0)  -->
<!DOCTYPE svg PUBLIC "-//W3C//DTD SVG 1.1//EN" "http://www.w3.org/Graphics/SVG/1.1/DTD/svg11.dtd">
<svg version="1.1" id="图形" xmlns="http://www.w3.org/2000/svg" xmlns:xlink="http://www.w3.org/1999/xlink" x="0px" y="0px"
	 width="80px" height="81.839px" viewBox="0 0 80 81.839" enable-background="new 0 0 80 81.839" xml:space="preserve">
<rect x="22.818" display="none" fill="#F1F1F1" width="80" height="81.839"/>
<g id="SPEECH_4">
	<g>
		<path fill-rule="evenodd" clip-rule="evenodd" fill="#444444" d="M64.47,59.654l-7.995-7.994H22.971
			c-4.188,0-7.582-3.394-7.582-7.582V17.543H4.016c-2.094,0-3.791,1.697-3.791,3.792v42.962c0,2.094,1.694,3.789,3.786,3.791h5.06
			v7.581c0,0.262,0.027,0.519,0.076,0.766c0.036,0.173,0.098,0.332,0.154,0.496c0.026,0.072,0.038,0.145,0.068,0.215
			c0.06,0.146,0.144,0.276,0.221,0.412c0.045,0.076,0.078,0.161,0.128,0.231c0.123,0.183,0.268,0.354,0.421,0.511
			c0.014,0.016,0.026,0.035,0.042,0.05c0.675,0.677,1.605,1.094,2.633,1.105c0.016,0,0.031,0.005,0.047,0.005
			c1.046,0,1.994-0.424,2.681-1.11l10.262-10.262h40.131c2.093,0,3.789-1.695,3.789-3.791v-2.527c-2.039,0-3.881-0.813-5.244-2.125
			L64.47,59.654z M76.042,2.38H22.971c-2.094,0-3.791,1.698-3.791,3.791v37.907c0,2.096,1.697,3.791,3.791,3.791h35.075l8.999,8.999
			c0.685,0.687,1.633,1.111,2.679,1.111c0.016,0,0.031-0.005,0.047-0.005c1.028-0.014,1.959-0.43,2.634-1.106
			c0.016-0.015,0.026-0.034,0.041-0.05c0.153-0.16,0.298-0.328,0.422-0.511c0.049-0.071,0.082-0.155,0.127-0.232
			c0.078-0.135,0.161-0.266,0.223-0.411c0.029-0.07,0.041-0.144,0.067-0.215c0.058-0.163,0.119-0.323,0.154-0.496
			c0.051-0.247,0.076-0.503,0.076-0.766v-6.318h2.527c2.094,0,3.791-1.695,3.791-3.791V6.171C79.833,4.078,78.136,2.38,76.042,2.38z
			"/>
	</g>
</g>
</svg>
