<?xml version="1.0" encoding="utf-8"?>
<!-- Generator: Adobe Illustrator 16.0.0, SVG Export Plug-In . SVG Version: 6.00 Build 0)  -->
<!DOCTYPE svg PUBLIC "-//W3C//DTD SVG 1.1//EN" "http://www.w3.org/Graphics/SVG/1.1/DTD/svg11.dtd">
<svg version="1.1" id="图层_1" xmlns:sketch="http://www.bohemiancoding.com/sketch/ns"
	 xmlns="http://www.w3.org/2000/svg" xmlns:xlink="http://www.w3.org/1999/xlink" x="0px" y="0px" width="80px" height="81.84px"
	 viewBox="0 0 80 81.84" enable-background="new 0 0 80 81.84" xml:space="preserve">
<title>Paper-clip</title>
<desc>Created with Sketch.</desc>
<g id="Page-1" sketch:type="MSPage">
	<g id="Paper-clip">
		<path fill="#6B6C6E" d="M63.552,79.542c-3.839,0-7.834-1.573-11.005-4.669L8.877,31.326c-3.239-3.17-5.042-7.403-5.066-11.908
			c-0.023-4.312,1.601-8.323,4.573-11.295l1.227-1.227c6.294-6.296,16.757-6.075,23.325,0.488l29.182,29.061l-2.596,2.607
			L30.337,9.989c-5.134-5.132-13.265-5.352-18.125-0.492l-1.227,1.227c-2.271,2.271-3.513,5.352-3.495,8.675
			c0.019,3.515,1.429,6.821,3.972,9.311l43.668,43.544c4.382,4.28,11.042,4.774,14.83,1.087c1.627-1.583,2.533-3.789,2.55-6.213
			c0.021-3.022-1.317-6.104-3.671-8.458L29.849,19.922c-2.545-2.544-7.06-2.486-9.666,0.121c-1.227,1.227-1.836,2.763-1.762,4.442
			c0.074,1.67,0.831,3.306,2.13,4.606l29.674,29.55l-2.597,2.605L17.952,31.695c-1.955-1.955-3.093-4.458-3.207-7.048
			c-0.119-2.699,0.889-5.258,2.836-7.206c4.062-4.061,10.869-4.119,14.864-0.125l38.992,38.749
			c3.049,3.049,4.779,7.089,4.752,11.089c-0.024,3.417-1.324,6.551-3.663,8.825C70.072,78.366,66.87,79.542,63.552,79.542z"/>
	</g>
</g>
</svg>
