<?xml version="1.0" encoding="utf-8"?>
<!-- Generator: Adobe Illustrator 16.0.0, SVG Export Plug-In . SVG Version: 6.00 Build 0)  -->
<!DOCTYPE svg PUBLIC "-//W3C//DTD SVG 1.1//EN" "http://www.w3.org/Graphics/SVG/1.1/DTD/svg11.dtd">
<svg version="1.1" id="图形" xmlns="http://www.w3.org/2000/svg" xmlns:xlink="http://www.w3.org/1999/xlink" x="0px" y="0px"
	 width="80px" height="81.839px" viewBox="0 0 80 81.839" enable-background="new 0 0 80 81.839" xml:space="preserve">
<rect x="22.818" display="none" fill="#F1F1F1" width="80" height="81.839"/>
<g enable-background="new    ">
	<path fill="#444444" d="M74.894,29.327v47.979c0,2.41-1.953,4.363-4.363,4.363H9.467c-2.408,0-4.361-1.953-4.361-4.363V4.61
		c0-2.408,1.954-4.361,4.361-4.361h36.348v24.716c0,2.408,1.953,4.361,4.361,4.361H74.894z M57.446,36.597
		c0-0.817-0.635-1.454-1.452-1.454H24.006c-0.818,0-1.454,0.637-1.454,1.454v2.909c0,0.818,0.636,1.454,1.454,1.454h31.988
		c0.817,0,1.452-0.636,1.452-1.454V36.597z M57.446,48.229c0-0.818-0.635-1.455-1.452-1.455H24.006
		c-0.818,0-1.454,0.637-1.454,1.455v2.908c0,0.818,0.636,1.453,1.454,1.453h31.988c0.817,0,1.452-0.635,1.452-1.453V48.229z
		 M57.446,59.859c0-0.817-0.635-1.452-1.452-1.452H24.006c-0.818,0-1.454,0.635-1.454,1.452v2.91c0,0.816,0.636,1.453,1.454,1.453
		h31.988c0.817,0,1.452-0.637,1.452-1.453V59.859z M73.075,23.512H51.631V2.066c0.635,0.409,1.183,0.817,1.636,1.271l18.535,18.538
		C72.258,22.331,72.666,22.875,73.075,23.512z"/>
</g>
</svg>
