<?xml version="1.0" encoding="utf-8"?>
<!-- Generator: Adobe Illustrator 16.0.0, SVG Export Plug-In . SVG Version: 6.00 Build 0)  -->
<!DOCTYPE svg PUBLIC "-//W3C//DTD SVG 1.1//EN" "http://www.w3.org/Graphics/SVG/1.1/DTD/svg11.dtd">
<svg version="1.1" id="图形" xmlns="http://www.w3.org/2000/svg" xmlns:xlink="http://www.w3.org/1999/xlink" x="0px" y="0px"
	 width="80px" height="81.839px" viewBox="0 0 80 81.839" enable-background="new 0 0 80 81.839" xml:space="preserve">
<rect x="22.818" display="none" fill="#F1F1F1" width="80" height="81.839"/>
<g>
	<path fill="#444444" d="M74.883,24.961v52.324c0,2.407-1.952,4.36-4.36,4.36H9.478c-2.407,0-4.36-1.953-4.36-4.36V4.613
		c0-2.407,1.953-4.36,4.36-4.36h40.697c2.407,0,5.769,1.408,7.448,3.089l14.172,14.171C73.475,19.193,74.883,22.554,74.883,24.961z
		 M69.069,29.322H50.175c-2.408,0-4.36-1.954-4.36-4.36V6.066H10.931v69.766h58.138V29.322z M51.628,23.508h17.078
		c-0.272-0.772-0.682-1.544-1-1.862L53.489,7.429C53.172,7.111,52.4,6.702,51.628,6.43V23.508z"/>
</g>
</svg>
