<?xml version="1.0" encoding="utf-8"?>
<!-- Generator: Adobe Illustrator 16.0.0, SVG Export Plug-In . SVG Version: 6.00 Build 0)  -->
<!DOCTYPE svg PUBLIC "-//W3C//DTD SVG 1.1//EN" "http://www.w3.org/Graphics/SVG/1.1/DTD/svg11.dtd">
<svg version="1.1" id="图形" xmlns="http://www.w3.org/2000/svg" xmlns:xlink="http://www.w3.org/1999/xlink" x="0px" y="0px"
	 width="80px" height="81.839px" viewBox="0 0 80 81.839" enable-background="new 0 0 80 81.839" xml:space="preserve">
<rect x="22.818" display="none" fill="#F1F1F1" width="80" height="81.839"/>
<g>
	<path fill="#444444" d="M77.902,50.042L65.613,65.165c-2.375,2.917-6.916,5.083-10.665,5.083H9.623
		c-5.124,0-9.332-4.208-9.332-9.331V20.923c0-5.124,4.208-9.332,9.332-9.332h13.331c5.124,0,9.332,4.208,9.332,9.332v1.333h22.663
		c5.124,0,9.332,4.208,9.332,9.332v6.666h7.998c2.833,0,5.666,1.292,6.915,3.958c0.417,0.875,0.625,1.833,0.625,2.832
		C79.818,46.876,79.027,48.626,77.902,50.042z M58.948,38.253v-6.666c0-2.208-1.792-3.999-4-3.999H30.953c-2.208,0-4-1.792-4-3.999
		v-2.667c0-2.208-1.792-3.999-3.999-3.999H9.623c-2.208,0-3.999,1.792-3.999,3.999v35.536l10.665-13.123
		c2.416-2.958,6.874-5.083,10.665-5.083H58.948z M72.278,43.585H26.953c-2.208,0-5.124,1.375-6.54,3.083L8.165,61.791
		c-0.375,0.5-0.75,1.041-0.75,1.667c0,1.166,1.291,1.457,2.208,1.457h45.325c2.208,0,5.124-1.375,6.541-3.124l12.247-15.122
		c0.375-0.458,0.75-1,0.75-1.626C74.486,43.876,73.194,43.585,72.278,43.585z"/>
</g>
</svg>
