<?xml version="1.0" encoding="utf-8"?>
<!-- Generator: Adobe Illustrator 16.0.0, SVG Export Plug-In . SVG Version: 6.00 Build 0)  -->
<!DOCTYPE svg PUBLIC "-//W3C//DTD SVG 1.1//EN" "http://www.w3.org/Graphics/SVG/1.1/DTD/svg11.dtd">
<svg version="1.1" id="图形" xmlns="http://www.w3.org/2000/svg" xmlns:xlink="http://www.w3.org/1999/xlink" x="0px" y="0px"
	 width="80px" height="81.839px" viewBox="0 0 80 81.839" enable-background="new 0 0 80 81.839" xml:space="preserve">
<rect x="22.818" display="none" fill="#F1F1F1" width="80" height="81.839"/>
<g id="_x34__18_">
	<g>
		<path fill="#444444" d="M25.154,57.964c1.968,0.321,6.441,0.668,8.515,0.668c18.18,0,30.383-13.526,30.383-29.435
			c0-15.906-15.252-28.801-30.383-28.801c-18.203,0-32.915,12.895-32.915,28.801c0,9.215,3.513,17.04,10.127,22.674v14.355
			L25.154,57.964z M5.818,29.515c0-13.283,12.037-24.053,27.851-24.053c12.591,0,25.319,10.771,25.319,24.053
			c0,13.287-9.938,24.053-25.319,24.053c-2.26,0-6.977-0.259-9.084-0.697l-8.639,5.762v-8.972
			C9.77,44.646,5.818,37.957,5.818,29.515z M47.595,33.313c2.098,0,3.799-1.698,3.799-3.798c0-2.096-1.701-3.797-3.799-3.797
			c-2.096,0-3.797,1.701-3.797,3.797C43.798,31.614,45.499,33.313,47.595,33.313z M32.404,33.313c2.097,0,3.797-1.698,3.797-3.798
			c0-2.096-1.7-3.797-3.797-3.797s-3.798,1.701-3.798,3.797C28.605,31.614,30.307,33.313,32.404,33.313z M68.989,23.537
			c0.05,0.724,0.128,1.443,0.128,2.181c0,1.61-0.155,3.188-0.38,4.744c3.406,3.991,5.443,8.907,5.443,14.244
			c0,8.441-5.044,15.854-12.659,20.147v8.969l-8.639-5.76c-2.107,0.439-4.293,0.696-6.553,0.696c-6.559,0-10.044-1.968-14.802-5.24
			c-1.378,0.107-2.773,0.178-4.188,0.178c-1.009,0-1.996-0.07-2.987-0.13c6.028,5.896,12.228,9.625,21.978,9.625
			c2.075,0,4.094-0.188,6.062-0.51l14.194,8.738V67.063c7.694-5.277,12.659-13.456,12.659-22.675
			C79.245,36.177,75.294,28.783,68.989,23.537z M17.212,33.313c2.097,0,3.798-1.698,3.798-3.798c0-2.096-1.701-3.797-3.798-3.797
			c-2.097,0-3.798,1.701-3.798,3.797C13.414,31.614,15.115,33.313,17.212,33.313z"/>
	</g>
</g>
</svg>
