<?xml version="1.0" encoding="utf-8"?>
<!-- Generator: Adobe Illustrator 16.0.0, SVG Export Plug-In . SVG Version: 6.00 Build 0)  -->
<!DOCTYPE svg PUBLIC "-//W3C//DTD SVG 1.1//EN" "http://www.w3.org/Graphics/SVG/1.1/DTD/svg11.dtd">
<svg version="1.1" id="图形" xmlns="http://www.w3.org/2000/svg" xmlns:xlink="http://www.w3.org/1999/xlink" x="0px" y="0px"
	 width="80px" height="81.839px" viewBox="0 0 80 81.839" enable-background="new 0 0 80 81.839" xml:space="preserve">
<rect x="22.818" display="none" fill="#F1F1F1" width="80" height="81.839"/>
<g>
	<g>
		<path fill="#444444" d="M79.668,22.652v53.692c0,2.341-1.899,4.24-4.241,4.24H33.039c-2.34,0-4.238-1.899-4.238-4.24V63.627H4.778
			c-2.34,0-4.237-1.899-4.237-4.241V29.717c0-2.34,1.37-5.607,3.002-7.242L21.557,4.461c1.633-1.634,4.902-3.002,7.243-3.002h18.367
			c2.341,0,4.241,1.899,4.241,4.238V20.18c1.722-1.016,3.929-1.766,5.652-1.766h18.366C77.769,18.414,79.668,20.313,79.668,22.652z
			 M45.755,25.479V7.11H28.8v18.368c0,2.341-1.9,4.238-4.239,4.238H6.193v28.26h22.608V46.673c0-2.34,1.369-5.606,3.002-7.242
			L45.755,25.479z M9.945,24.065h13.203V10.862L9.945,24.065z M74.015,24.065H57.061v18.367c0,2.343-1.9,4.241-4.24,4.241H34.45
			v28.259h39.563L74.015,24.065L74.015,24.065z M38.205,41.02h13.203V27.818L38.205,41.02z"/>
	</g>
</g>
</svg>
