<?xml version="1.0" encoding="utf-8"?>
<!-- Generator: Adobe Illustrator 16.0.0, SVG Export Plug-In . SVG Version: 6.00 Build 0)  -->
<!DOCTYPE svg PUBLIC "-//W3C//DTD SVG 1.1//EN" "http://www.w3.org/Graphics/SVG/1.1/DTD/svg11.dtd">
<svg version="1.1" id="图形" xmlns="http://www.w3.org/2000/svg" xmlns:xlink="http://www.w3.org/1999/xlink" x="0px" y="0px"
	 width="80px" height="81.839px" viewBox="0 0 80 81.839" enable-background="new 0 0 80 81.839" xml:space="preserve">
<rect x="22.818" display="none" fill="#F1F1F1" width="80" height="81.839"/>
<g>
	<path fill="#444444" d="M79.644,63.804c0,5.864-4.813,10.681-10.679,10.681H10.987c-5.865,0-10.681-4.816-10.681-10.681v-45.77
		c0-5.865,4.816-10.681,10.681-10.681h15.257c5.864,0,10.681,4.816,10.681,10.681v1.526h32.04c5.865,0,10.679,4.816,10.679,10.68
		V63.804z M73.543,30.24c0-2.527-2.052-4.578-4.578-4.578H35.398c-2.527,0-4.578-2.049-4.578-4.577v-3.051
		c0-2.527-2.049-4.577-4.577-4.577H10.987c-2.527,0-4.578,2.049-4.578,4.577v45.77c0,2.528,2.051,4.577,4.578,4.577h57.978
		c2.526,0,4.578-2.049,4.578-4.577V30.24z"/>
</g>
</svg>
