<?xml version="1.0" encoding="utf-8"?>
<!-- Generator: Adobe Illustrator 16.0.0, SVG Export Plug-In . SVG Version: 6.00 Build 0)  -->
<!DOCTYPE svg PUBLIC "-//W3C//DTD SVG 1.1//EN" "http://www.w3.org/Graphics/SVG/1.1/DTD/svg11.dtd">
<svg version="1.1" id="图形" xmlns="http://www.w3.org/2000/svg" xmlns:xlink="http://www.w3.org/1999/xlink" x="0px" y="0px"
	 width="80px" height="81.839px" viewBox="0 0 80 81.839" enable-background="new 0 0 80 81.839" xml:space="preserve">
<rect x="22.818" display="none" fill="#F1F1F1" width="80" height="81.839"/>
<g>
	<path fill="#444444" d="M65.319,38.151H30.118c-5.288,0-11.846,3.002-15.272,7.065L0.586,61.969l-0.211,0.253
		c0-0.338-0.042-0.719-0.042-1.057V20.549c0-5.202,4.274-9.477,9.477-9.477h13.539c5.204,0,9.478,4.274,9.478,9.477v1.354h23.015
		c5.203,0,9.479,4.273,9.479,9.478V38.151z M78.519,48.726L64.303,65.48c-2.451,2.878-7.446,5.162-11.169,5.162H7.103
		c-1.523,0-3.681-0.465-3.681-2.368c0-1.017,0.634-2.031,1.311-2.794l14.216-16.754c2.454-2.877,7.446-5.161,11.169-5.161H76.15
		c1.522,0,3.68,0.466,3.68,2.368C79.83,46.949,79.194,47.965,78.519,48.726z"/>
</g>
</svg>
