<?xml version="1.0" encoding="utf-8"?>
<!-- Generator: Adobe Illustrator 16.0.0, SVG Export Plug-In . SVG Version: 6.00 Build 0)  -->
<!DOCTYPE svg PUBLIC "-//W3C//DTD SVG 1.1//EN" "http://www.w3.org/Graphics/SVG/1.1/DTD/svg11.dtd">
<svg version="1.1" id="图形" xmlns="http://www.w3.org/2000/svg" xmlns:xlink="http://www.w3.org/1999/xlink" x="0px" y="0px"
	 width="80px" height="81.839px" viewBox="0 0 80 81.839" enable-background="new 0 0 80 81.839" xml:space="preserve">
<rect x="22.818" display="none" fill="#F1F1F1" width="80" height="81.839"/>
<g>
	<g>
		<path fill="#444444" d="M51.045,5.493l0.007,40.967c0.906-0.798,1.104-1.016,2.097-1.615c0.514-0.312,3.538,1.949,3.538,1.949
			c0.512-0.247,0.604-0.302,1.136-0.496c0,0,0.212-3.768,0.987-3.987c2.293-0.645,5.835-0.65,8.06-0.329
			c1.017,0.147,1.515,4.872,1.515,4.872c0.425,0.14,0.681,0.273,0.681,0.273s3.026-3.047,4.09-2.378L73.146,5.494L51.045,5.493z
			 M70.277,12.117v5.152l-16.019,0.004l-0.006-5.152L70.277,12.117z M54.259,28.049v-5.142l16.024-0.004v5.14L54.259,28.049z"/>
		<path fill="#444444" d="M0.444,75.482H22.55V5.442H0.444V75.482z M11.322,65.695c-4.073,0-7.37-3.304-7.37-7.374
			c0-4.075,3.297-7.365,7.37-7.365c4.066,0,7.371,3.29,7.371,7.365C18.693,62.391,15.389,65.695,11.322,65.695z M3.651,12.173
			h16.025v5.147H3.651V12.173z M3.651,22.853h16.025v5.148H3.651V22.853z"/>
		<path fill="#444444" d="M47.874,49.678V5.441H25.773v70.038h25.416l-3.313-4.07c-0.809-1.001,1.559-4.096,1.503-4.437
			c-0.046-0.284-0.216-0.793-0.216-0.793s-3.99-0.125-4.339-1.718c-0.457-2.067-0.475-5.264-0.036-7.729
			c0.186-1.039,4.325-1.274,4.325-1.274c0.226-0.796,0.226-0.796,0.226-0.796S46.663,51.245,47.874,49.678z M28.976,12.173h16.03
			v5.147h-16.03V12.173z M28.976,22.853h16.03v5.148h-16.03V22.853z M36.647,65.695c-4.074,0-7.373-3.304-7.373-7.374
			c0-4.075,3.299-7.365,7.373-7.365c4.073,0,7.368,3.29,7.368,7.365C44.016,62.391,40.721,65.695,36.647,65.695z"/>
	</g>
	<g>
		<g>
			<path fill="#444444" d="M79.717,63.465c0,0.317-0.255,0.699-0.592,0.763l-3.922,0.595c-0.236,0.679-0.489,1.316-0.826,1.929
				c0.721,1.04,1.482,1.973,2.266,2.925c0.129,0.146,0.211,0.336,0.211,0.528c0,0.195-0.062,0.343-0.192,0.488
				c-0.506,0.676-3.369,3.791-4.09,3.791c-0.191,0-0.38-0.082-0.55-0.188L69.1,72.005c-0.616,0.319-1.273,0.593-1.929,0.805
				c-0.147,1.295-0.276,2.675-0.615,3.943c-0.087,0.336-0.382,0.594-0.765,0.594h-4.703c-0.382,0-0.721-0.279-0.764-0.639
				l-0.596-3.898c-0.653-0.212-1.293-0.467-1.906-0.78l-2.988,2.267c-0.146,0.127-0.337,0.188-0.527,0.188
				c-0.193,0-0.383-0.082-0.534-0.231c-1.122-1.016-2.605-2.329-3.495-3.56c-0.105-0.146-0.145-0.317-0.145-0.488
				c0-0.192,0.061-0.337,0.166-0.483c0.722-0.974,1.503-1.905,2.228-2.903c-0.358-0.679-0.656-1.379-0.869-2.102l-3.879-0.569
				c-0.361-0.064-0.614-0.401-0.614-0.766v-4.708c0-0.315,0.257-0.698,0.572-0.762l3.941-0.594c0.211-0.68,0.49-1.313,0.827-1.953
				c-0.721-1.016-1.484-1.97-2.267-2.921c-0.131-0.151-0.213-0.319-0.213-0.507c0-0.197,0.084-0.343,0.191-0.488
				c0.508-0.701,3.37-3.795,4.092-3.795c0.188,0,0.38,0.085,0.549,0.213l2.923,2.267c0.615-0.318,1.272-0.594,1.931-0.805
				c0.146-1.295,0.274-2.675,0.613-3.943c0.086-0.338,0.382-0.595,0.764-0.595h4.706c0.38,0,0.722,0.277,0.762,0.64l0.597,3.898
				c0.655,0.211,1.294,0.467,1.906,0.78l3.008-2.267c0.128-0.127,0.318-0.191,0.508-0.191c0.195,0,0.382,0.088,0.532,0.212
				c1.123,1.038,2.606,2.351,3.496,3.602c0.106,0.128,0.146,0.297,0.146,0.467c0,0.191-0.06,0.337-0.166,0.487
				c-0.722,0.974-1.505,1.907-2.229,2.904c0.361,0.679,0.655,1.377,0.87,2.075l3.881,0.591c0.357,0.067,0.611,0.403,0.611,0.767
				L79.717,63.465L79.717,63.465z M63.439,55.645c-2.986,0-5.424,2.437-5.424,5.425s2.438,5.425,5.424,5.425
				c2.988,0,5.425-2.437,5.425-5.425S66.428,55.645,63.439,55.645z"/>
		</g>
	</g>
</g>
</svg>
