<?xml version="1.0" encoding="utf-8"?>
<!-- Generator: Adobe Illustrator 16.0.0, SVG Export Plug-In . SVG Version: 6.00 Build 0)  -->
<!DOCTYPE svg PUBLIC "-//W3C//DTD SVG 1.1//EN" "http://www.w3.org/Graphics/SVG/1.1/DTD/svg11.dtd">
<svg version="1.1" id="图形" xmlns="http://www.w3.org/2000/svg" xmlns:xlink="http://www.w3.org/1999/xlink" x="0px" y="0px"
	 width="80px" height="81.839px" viewBox="0 0 80 81.839" enable-background="new 0 0 80 81.839" xml:space="preserve">
<rect x="22.818" display="none" fill="#F1F1F1" width="80" height="81.839"/>
<g>
	<path fill="#444444" d="M9.206,16.931v58.149c0,0.78-0.689,1.47-1.469,1.47H4.796c-0.78,0-1.469-0.689-1.469-1.47V16.931
		c-1.791-1.056-2.94-2.941-2.94-5.053C0.387,8.617,3.006,6,6.266,6s5.879,2.619,5.879,5.878
		C12.146,13.99,10.996,15.875,9.206,16.931z M79.756,49.863c0,1.702-1.055,2.342-2.387,3.03c-5.19,2.805-10.934,5.329-16.948,5.329
		c-8.453,0-12.493-6.431-22.508-6.431c-7.304,0-14.974,3.304-21.313,6.703c-0.505,0.275-0.965,0.418-1.516,0.418
		c-1.608,0-2.939-1.333-2.939-2.942V21.891c0-1.103,0.552-1.883,1.424-2.526c1.103-0.734,2.436-1.378,3.628-1.975
		c5.788-2.939,12.815-5.512,19.338-5.512c7.211,0,12.86,2.389,19.246,5.375c1.285,0.643,2.618,0.873,4.041,0.873
		c7.213,0,14.976-6.246,16.997-6.246c1.605,0,2.938,1.332,2.938,2.939V49.863z"/>
</g>
</svg>
