<?xml version="1.0" encoding="utf-8"?>
<!-- Generator: Adobe Illustrator 16.0.0, SVG Export Plug-In . SVG Version: 6.00 Build 0)  -->
<!DOCTYPE svg PUBLIC "-//W3C//DTD SVG 1.1//EN" "http://www.w3.org/Graphics/SVG/1.1/DTD/svg11.dtd">
<svg version="1.1" id="图形" xmlns="http://www.w3.org/2000/svg" xmlns:xlink="http://www.w3.org/1999/xlink" x="0px" y="0px"
	 width="80px" height="81.839px" viewBox="0 0 80 81.839" enable-background="new 0 0 80 81.839" xml:space="preserve">
<rect x="22.818" display="none" fill="#F1F1F1" width="80" height="81.839"/>
<path fill="#444444" d="M36.982,17.825c-5.455-1.299-10.877-2.542-15.818-3.134c-4.724-0.572-9.01-0.548-12.477,0.592v44.225
	c8.913-1.659,17.908,0.226,26.899,2.115l1.396,0.289V17.825L36.982,17.825z M61.258,48.007c-0.312-3.996-0.612-7.991-0.924-11.987
	c-0.97-0.087-2.436-0.087-3.407-0.174c-0.3,6.283-0.105,12.481-0.395,18.767c-0.916-1.99-2.07-3.86-5.227-4.78
	c-0.651,0.677-0.847,0.881-1.493,1.56c2.145,2.366,3.215,5.492,4.063,8.447l0.662,6.663c0.736,1.481,1.471,2.961,2.212,4.434
	c4.274-0.149,7.749-0.273,12.025-0.42c0.431-0.905,0.859-1.816,1.286-2.724c0.734-5.049,1.817-14.693,1.769-19.775
	c-1.269-0.267-1.901-0.536-3.171-0.795c-0.145,0.5-0.472,2.725-0.621,3.229c-0.06-1.741-0.116-3.48-0.176-5.228
	c-1.007-0.209-2.021-0.428-3.031-0.643c-0.089,0.492-0.179,0.981-0.265,1.468c-0.078-0.763-0.146-1.505-0.224-2.264
	c-0.93-0.116-1.857-0.232-2.79-0.355C61.452,44.961,61.354,46.486,61.258,48.007L61.258,48.007z M73.926,18.218l5.75,1.11v49.987
	c-2.188-0.33-4.345-0.698-6.674-0.998l0.015-0.09c0.481-3.302,0.869-6.648,1.189-9.971c0.33-3.358,0.64-6.896,0.611-10.266
	l-0.024-2.405l-2.353-0.494c-0.51-0.105-1.007-0.239-1.502-0.379V15.29c-3.473-1.14-7.758-1.164-12.484-0.593
	c-4.937,0.593-10.358,1.833-15.819,3.134v44.089l1.396-0.291c2.284-0.478,4.57-0.959,6.852-1.378l0.048,0.157l0.686,6.949
	l0.245,0.488l0.34,0.68c-2.34,0.302-4.87,0.703-7.64,1.214v1.607c-5.969,1.601-3.025,1.601-8.995,0v-1.607
	c-18.874-3.507-26.75-1.683-35.12-0.423V19.328l5.247-1.015v-4.059v-0.999l0.94-0.383c4.162-1.702,9.282-1.817,14.879-1.15
	c5.473,0.656,11.39,2.057,17.311,3.464l0.985,0.237l0.984-0.237c5.927-1.407,11.842-2.808,17.313-3.464
	c5.603-0.669,10.718-0.553,14.882,1.15l0.938,0.383v0.999V18.218L73.926,18.218z M34.092,22.378v1.838
	c-4.501-0.99-8.943-1.941-12.881-2.429c-3.761-0.471-7.079-0.539-9.583,0.145v-1.854c2.703-0.616,6.082-0.537,9.836-0.062
	C25.391,20.506,29.717,21.412,34.092,22.378L34.092,22.378z M34.092,53.119v1.844c-4.501-1.001-8.943-1.942-12.881-2.435
	c-3.761-0.475-7.079-0.538-9.583,0.142v-1.851c2.703-0.623,6.082-0.537,9.836-0.069C25.391,51.249,29.717,52.153,34.092,53.119
	L34.092,53.119z M34.092,48.483v1.833c-4.501-0.99-8.943-1.938-12.881-2.425c-3.761-0.478-7.079-0.545-9.583,0.14v-1.853
	c2.703-0.615,6.082-0.533,9.836-0.062C25.391,46.607,29.717,47.512,34.092,48.483L34.092,48.483z M34.092,32.557v1.838
	c-4.501-0.993-8.943-1.94-12.881-2.429c-3.761-0.476-7.079-0.542-9.583,0.146v-1.857c2.703-0.616,6.082-0.535,9.836-0.062
	C25.391,30.685,29.717,31.587,34.092,32.557L34.092,32.557z M34.092,27.495v1.837c-4.501-0.993-8.943-1.94-12.881-2.428
	c-3.761-0.476-7.079-0.544-9.583,0.144v-1.852c2.703-0.62,6.082-0.535,9.836-0.068C25.391,25.623,29.717,26.525,34.092,27.495
	L34.092,27.495z M46.321,32.539v1.837c2.647-0.625,5.267-1.226,7.763-1.711l0.007-0.078l0.289,0.02
	c1.358-0.253,2.674-0.476,3.932-0.64c3.555-0.476,6.692-0.542,9.046,0.161v-1.859c-2.539-0.63-5.73-0.553-9.276-0.076
	C54.42,30.681,50.395,31.578,46.321,32.539L46.321,32.539z M46.321,22.355v1.841c4.19-0.989,8.319-1.919,11.99-2.409
	c3.555-0.478,6.692-0.539,9.046,0.16v-1.852c-2.539-0.63-5.73-0.553-9.276-0.079C54.42,20.502,50.395,21.404,46.321,22.355
	L46.321,22.355z M46.321,27.474v1.837c4.19-0.989,8.319-1.925,11.99-2.409c3.555-0.477,6.692-0.543,9.046,0.165v-1.861
	c-2.539-0.63-5.73-0.554-9.276-0.078C54.42,25.617,50.395,26.514,46.321,27.474z"/>
</svg>
