<?xml version="1.0" encoding="utf-8"?>
<!-- Generator: Adobe Illustrator 16.0.0, SVG Export Plug-In . SVG Version: 6.00 Build 0)  -->
<!DOCTYPE svg PUBLIC "-//W3C//DTD SVG 1.1//EN" "http://www.w3.org/Graphics/SVG/1.1/DTD/svg11.dtd">
<svg version="1.1" id="图形" xmlns="http://www.w3.org/2000/svg" xmlns:xlink="http://www.w3.org/1999/xlink" x="0px" y="0px"
	 width="80px" height="81.839px" viewBox="0 0 80 81.839" enable-background="new 0 0 80 81.839" xml:space="preserve">
<rect x="22.818" display="none" fill="#F1F1F1" width="80" height="81.839"/>
<g>
	<path fill="#444444" d="M69.131,18.384H36.948c0,0-24.901,0.018-36.779,0.018v44.422c0,5.892,4.837,10.727,10.727,10.727H69.13
		c5.889,0,10.727-4.835,10.727-10.727V29.112C79.857,23.22,75.021,18.384,69.131,18.384z"/>
	<path fill="#444444" d="M36.948,15.46c0-5.891-4.836-10.728-10.727-10.728H10.897C5.007,4.732,0.17,9.569,0.17,15.46v0.739
		c11.876,0,24.9,0,36.779,0L36.948,15.46L36.948,15.46z"/>
</g>
</svg>
