<?xml version="1.0" encoding="utf-8"?>
<!-- Generator: Adobe Illustrator 16.0.0, SVG Export Plug-In . SVG Version: 6.00 Build 0)  -->
<!DOCTYPE svg PUBLIC "-//W3C//DTD SVG 1.1//EN" "http://www.w3.org/Graphics/SVG/1.1/DTD/svg11.dtd">
<svg version="1.1" id="图形" xmlns="http://www.w3.org/2000/svg" xmlns:xlink="http://www.w3.org/1999/xlink" x="0px" y="0px"
	 width="80px" height="81.839px" viewBox="0 0 80 81.839" enable-background="new 0 0 80 81.839" xml:space="preserve">
<rect x="22.818" display="none" fill="#F1F1F1" width="80" height="81.839"/>
<g>
	<path fill="#444444" d="M79.744,68.311c0,3.643-2.98,6.626-6.624,6.626H6.879c-3.643,0-6.624-2.98-6.624-6.626V12.667
		c0-3.642,2.981-6.624,6.624-6.624H73.12c3.641,0,6.624,2.981,6.624,6.624V68.311z M16.154,13.994c0-1.45-1.2-2.65-2.65-2.65H8.206
		c-1.45,0-2.651,1.201-2.651,2.65v5.299c0,1.449,1.201,2.65,2.651,2.65h5.299c1.45,0,2.65-1.201,2.65-2.65V13.994z M16.154,29.892
		c0-1.45-1.2-2.649-2.65-2.649H8.206c-1.45,0-2.651,1.199-2.651,2.649v5.3c0,1.449,1.201,2.649,2.651,2.649h5.299
		c1.45,0,2.65-1.201,2.65-2.649V29.892z M16.154,45.789c0-1.449-1.2-2.65-2.65-2.65H8.206c-1.45,0-2.651,1.201-2.651,2.65v5.299
		c0,1.449,1.201,2.651,2.651,2.651h5.299c1.45,0,2.65-1.202,2.65-2.651V45.789z M16.154,61.686c0-1.448-1.2-2.65-2.65-2.65H8.206
		c-1.45,0-2.651,1.202-2.651,2.65v5.3c0,1.449,1.201,2.651,2.651,2.651h5.299c1.45,0,2.65-1.202,2.65-2.651V61.686z M58.547,13.994
		c0-1.45-1.198-2.65-2.647-2.65H24.103c-1.45,0-2.651,1.201-2.651,2.65V35.19c0,1.449,1.201,2.65,2.651,2.65h31.796
		c1.449,0,2.647-1.201,2.647-2.65V13.994z M58.547,45.789c0-1.449-1.198-2.65-2.647-2.65H24.103c-1.45,0-2.651,1.201-2.651,2.65
		v21.194c0,1.452,1.201,2.651,2.651,2.651h31.796c1.449,0,2.647-1.199,2.647-2.651V45.789z M74.444,13.994
		c0-1.45-1.202-2.65-2.65-2.65h-5.3c-1.451,0-2.651,1.201-2.651,2.65v5.299c0,1.449,1.2,2.65,2.651,2.65h5.3
		c1.448,0,2.65-1.201,2.65-2.65V13.994z M74.444,29.892c0-1.45-1.202-2.649-2.65-2.649h-5.3c-1.451,0-2.651,1.199-2.651,2.649v5.3
		c0,1.449,1.2,2.649,2.651,2.649h5.3c1.448,0,2.65-1.201,2.65-2.649V29.892z M74.444,45.789c0-1.449-1.202-2.65-2.65-2.65h-5.3
		c-1.451,0-2.651,1.201-2.651,2.65v5.299c0,1.449,1.2,2.651,2.651,2.651h5.3c1.448,0,2.65-1.202,2.65-2.651V45.789z M74.444,61.686
		c0-1.448-1.202-2.65-2.65-2.65h-5.3c-1.451,0-2.651,1.202-2.651,2.65v5.3c0,1.449,1.2,2.651,2.651,2.651h5.3
		c1.448,0,2.65-1.202,2.65-2.651V61.686z"/>
</g>
</svg>
