<?xml version="1.0" encoding="utf-8"?>
<!-- Generator: Adobe Illustrator 16.0.0, SVG Export Plug-In . SVG Version: 6.00 Build 0)  -->
<!DOCTYPE svg PUBLIC "-//W3C//DTD SVG 1.1//EN" "http://www.w3.org/Graphics/SVG/1.1/DTD/svg11.dtd">
<svg version="1.1" id="图形" xmlns="http://www.w3.org/2000/svg" xmlns:xlink="http://www.w3.org/1999/xlink" x="0px" y="0px"
	 width="80px" height="81.839px" viewBox="0 0 80 81.839" enable-background="new 0 0 80 81.839" xml:space="preserve">
<rect x="22.818" display="none" fill="#F1F1F1" width="80" height="81.839"/>
<path fill="#444444" d="M37.474,5.545h33.128c2.445,0,4.664,0.997,6.274,2.605c1.609,1.608,2.603,3.83,2.603,6.272v20.414
	c0,2.442-0.997,4.665-2.603,6.274c-1.61,1.607-3.829,2.602-6.274,2.602h-5.394c0,0-7.353,6.6-8.615,7.669
	c-1.008,0.815-1.831-0.004-1.88-0.939c-0.048-0.938-0.345-6.735-0.345-6.735H41.012c0.58-0.691,1.05-1.479,1.395-2.34
	c0.32-0.804,0.54-1.653,0.681-2.519H57.42h3.053l-0.691,2.97l-0.294,1.257l2.666-3.313l0.731-0.914h1.154h6.558
	c1.105,0,2.106-0.449,2.834-1.179c0.73-0.729,1.186-1.733,1.186-2.836v-20.41c0-1.102-0.455-2.107-1.186-2.836
	c-0.728-0.728-1.733-1.181-2.834-1.181H37.474c-1.104,0-2.108,0.453-2.835,1.181c-0.73,0.73-1.184,1.734-1.184,2.836v2.584
	c-1.528-0.57-3.174-0.948-4.856-1.13v-1.454c0-2.443,0.996-4.665,2.605-6.272C32.809,6.542,35.031,5.545,37.474,5.545L37.474,5.545z
	 M43.065,76.292H10.477c-5.929,0-9.956-3.617-9.956-9.655c0-8.428,1.976-21.366,12.901-21.366c1.155,0,6.039,5.184,13.349,5.184
	c7.307,0,12.191-5.184,13.348-5.184c10.925,0,12.902,12.938,12.902,21.366C53.019,72.677,48.993,76.292,43.065,76.292z
	 M26.771,47.659c-7.906,0-14.318-6.415-14.318-14.32c0-7.904,6.412-14.318,14.318-14.318c7.903,0,14.317,6.414,14.317,14.318
	C41.088,41.244,34.674,47.659,26.771,47.659z"/>
</svg>
