<?xml version="1.0" encoding="utf-8"?>
<!-- Generator: Adobe Illustrator 16.0.0, SVG Export Plug-In . SVG Version: 6.00 Build 0)  -->
<!DOCTYPE svg PUBLIC "-//W3C//DTD SVG 1.1//EN" "http://www.w3.org/Graphics/SVG/1.1/DTD/svg11.dtd">
<svg version="1.1" id="图形" xmlns="http://www.w3.org/2000/svg" xmlns:xlink="http://www.w3.org/1999/xlink" x="0px" y="0px"
	 width="80px" height="81.839px" viewBox="0 0 80 81.839" enable-background="new 0 0 80 81.839" xml:space="preserve">
<rect x="22.818" display="none" fill="#F1F1F1" width="80" height="81.839"/>
<g>
	<path fill="#444444" d="M74.686,45.229L74.65,4.295L52.02,4.308l0.037,41.897C57.468,39.597,67.706,39.171,74.686,45.229z
		 M71.633,27.326l-16.41,0.011l-0.003-5.265l16.412-0.009L71.633,27.326z M71.625,11.119v5.275L55.22,16.407l-0.006-5.279
		L71.625,11.119z"/>
	<path fill="#444444" d="M52.075,68.539l0.007,7.493l18.979-0.022l-2.286-2.692C63.459,74.749,56.878,74.1,52.075,68.539z"/>
	<path fill="#444444" d="M26.343,76.014h22.632V4.295H26.343V76.014z M37.476,65.995c-4.168,0-7.545-3.384-7.545-7.553
		s3.377-7.541,7.545-7.541c4.171,0,7.55,3.372,7.55,7.541S41.647,65.995,37.476,65.995z M29.623,11.188h16.416v5.271H29.623V11.188z
		 M29.623,22.125h16.416v5.271H29.623V22.125z"/>
	<path fill="#444444" d="M0.407,76.014h22.635V4.295H0.407V76.014z M11.545,65.995c-4.17,0-7.548-3.384-7.548-7.553
		s3.378-7.541,7.548-7.541c4.164,0,7.547,3.372,7.547,7.541C19.094,62.611,15.709,65.995,11.545,65.995z M3.691,11.188h16.41v5.271
		H3.691V11.188z M3.691,22.125h16.41v5.271H3.691V22.125z"/>
	<g>
		<g>
			<path fill="#444444" d="M76.85,78.752c-0.658-0.105-1.259-0.478-1.631-1.019l-5.593-7.711c-2.527,1.211-5.38,1.606-8.137,1.166
				c-7.555-1.211-12.688-8.313-11.48-15.865c1.213-7.557,8.312-12.692,15.865-11.479c7.558,1.212,12.688,8.312,11.479,15.864
				c-0.443,2.758-1.711,5.345-3.65,7.361l5.596,7.731c0.372,0.519,0.539,1.202,0.438,1.864C79.517,78.025,78.209,78.97,76.85,78.752
				z M65.079,48.816c-4.798-0.768-9.324,2.507-10.096,7.306c-0.771,4.796,2.506,9.326,7.305,10.097
				c4.796,0.77,9.324-2.511,10.093-7.308C73.153,54.114,69.874,49.584,65.079,48.816z"/>
		</g>
	</g>
</g>
</svg>
