<?xml version="1.0" encoding="utf-8"?>
<!-- Generator: Adobe Illustrator 16.0.0, SVG Export Plug-In . SVG Version: 6.00 Build 0)  -->
<!DOCTYPE svg PUBLIC "-//W3C//DTD SVG 1.1//EN" "http://www.w3.org/Graphics/SVG/1.1/DTD/svg11.dtd">
<svg version="1.1" id="图形" xmlns="http://www.w3.org/2000/svg" xmlns:xlink="http://www.w3.org/1999/xlink" x="0px" y="0px"
	 width="80px" height="81.839px" viewBox="0 0 80 81.839" enable-background="new 0 0 80 81.839" xml:space="preserve">
<rect x="22.818" display="none" fill="#F1F1F1" width="80" height="81.839"/>
<path fill="#444444" d="M0.285,10.294h19.007v60.233H0.285V10.294L0.285,10.294z M42.255,14.984l17.993-6.145l19.468,57
	l-17.983,6.146L42.255,14.984L42.255,14.984z M63.761,48.997c-3.313,1.13-5.081,4.738-3.95,8.048
	c1.134,3.316,4.733,5.087,8.043,3.951c3.321-1.132,5.085-4.739,3.95-8.049C70.679,49.63,67.071,47.869,63.761,48.997L63.761,48.997z
	 M49.708,28.263l1.433,4.184l13.04-4.458l-1.427-4.183L49.708,28.263L49.708,28.263z M46.739,19.564l1.433,4.193l13.037-4.456
	l-1.427-4.19L46.739,19.564L46.739,19.564z M22.067,10.294h19.006v60.233H22.067V10.294L22.067,10.294z M31.417,49.436
	c-3.501,0-6.338,2.831-6.338,6.334s2.838,6.342,6.338,6.342c3.504,0,6.339-2.839,6.339-6.342
	C37.757,52.267,34.921,49.436,31.417,49.436L31.417,49.436z M24.82,25.266v4.427h13.787v-4.427H24.82L24.82,25.266z M24.82,16.083
	v4.423h13.787v-4.423H24.82L24.82,16.083z M9.638,49.436c-3.501,0-6.338,2.831-6.338,6.334s2.837,6.342,6.338,6.342
	c3.5,0,6.337-2.839,6.337-6.342S13.138,49.436,9.638,49.436L9.638,49.436z M3.042,25.266v4.427h13.785v-4.427H3.042L3.042,25.266z
	 M3.042,16.083v4.423h13.785v-4.423H3.042z"/>
</svg>
