<?xml version="1.0" encoding="utf-8"?>
<!-- Generator: Adobe Illustrator 16.0.0, SVG Export Plug-In . SVG Version: 6.00 Build 0)  -->
<!DOCTYPE svg PUBLIC "-//W3C//DTD SVG 1.1//EN" "http://www.w3.org/Graphics/SVG/1.1/DTD/svg11.dtd">
<svg version="1.1" id="图形" xmlns="http://www.w3.org/2000/svg" xmlns:xlink="http://www.w3.org/1999/xlink" x="0px" y="0px"
	 width="80px" height="81.839px" viewBox="0 0 80 81.839" enable-background="new 0 0 80 81.839" xml:space="preserve">
<rect x="22.818" display="none" fill="#F1F1F1" width="80" height="81.839"/>
<g>
	<path fill="#444444" d="M79.418,40.461c0,21.762-17.657,39.417-39.418,39.417c-21.762,0-39.418-17.657-39.418-39.417
		S18.238,1.043,40,1.043C61.761,1.043,79.418,18.699,79.418,40.461z M52.883,28.76c0.258-0.052,0.513-0.976,0.667-1.181
		c0.308-0.36,0.719-0.565,1.131-0.771c0.87-0.358,1.743-0.462,2.667-0.615c0.873-0.206,1.951-0.206,2.618,0.563
		c-0.154-0.153,1.079-1.231,1.231-1.284c0.462-0.257,1.232-0.153,1.54-0.616c0.103-0.153,0.103-1.128,0.103-1.128
		c-0.873,0.103-1.181-0.718-1.232-1.437c0,0.052-0.102,0.206-0.308,0.411c0.053-0.771-0.924-0.205-1.283-0.308
		c-1.182-0.308-1.025-1.128-1.385-2.001c-0.206-0.462-0.771-0.616-0.975-1.078c-0.205-0.308-0.31-0.976-0.77-1.026
		c-0.31-0.051-0.873,1.079-0.977,1.026c-0.459-0.257-0.668,0.102-1.024,0.308c-0.308,0.205-0.563,0.102-0.87,0.257
		c0.922-0.308-0.409-0.821-0.873-0.718c0.719-0.205,0.359-0.976-0.05-1.335c0.099,0,0.151,0,0.257,0
		c-0.103-0.462-1.541-0.873-2.003-1.179c-0.461-0.308-2.925-0.821-3.438-0.513c-0.616,0.359,0.152,1.386,0.152,1.899
		c0.053,0.616-0.616,0.77-0.616,1.284c0,0.873,1.642,0.718,1.231,1.899c-0.257,0.718-1.231,0.873-1.642,1.437
		c-0.412,0.513,0.051,1.437,0.461,1.796c0.41,0.309-0.719,0.821-0.873,0.924c-0.871,0.411-1.539-0.873-1.743-1.642
		c-0.153-0.564-0.206-1.231-0.821-1.54c-0.309-0.102-1.281-0.257-1.489,0.052c-0.312-0.77-1.386-1.078-2.105-1.335
		c-1.026-0.358-1.899-0.358-2.977-0.205c0.358-0.052-0.103-1.642-0.976-1.386c0.257-0.513,0.153-1.079,0.257-1.591
		c0.103-0.41,0.308-0.821,0.616-1.181c0.103-0.205,1.231-1.386,0.873-1.437c0.873,0.103,1.849,0.154,2.566-0.565
		c0.463-0.462,0.669-1.231,1.133-1.745c0.667-0.77,1.488,0.206,2.204,0.257c1.024,0.052,0.973-1.078,0.411-1.591
		c0.668,0.051,0.103-1.18-0.26-1.335c-0.46-0.153-2.204,0.308-1.28,0.668c-0.205-0.103-1.438,2.464-2.157,1.18
		c-0.205-0.257-0.308-1.333-0.769-1.386c-0.41,0-0.667,0.463-0.821,0.771c0.257-0.668-1.437-1.129-1.797-1.181
		c0.77-0.513,0.153-1.079-0.41-1.386c-0.411-0.257-1.694-0.463-2.052-0.052c-0.975,1.181,1.026,1.335,1.541,1.642
		c0.153,0.103,0.769,0.463,0.41,0.719c-0.308,0.153-1.231,0.41-1.334,0.616c-0.308,0.462,0.358,0.975-0.103,1.437
		c-0.462-0.463-0.462-1.231-0.821-1.745c0.462,0.563-1.848,0.257-1.797,0.257c-0.77,0-2.001,0.513-2.566-0.257
		c-0.103-0.206-0.103-1.386,0.205-1.128c-0.463-0.36-0.77-0.719-1.078-0.924c-1.694,0.563-3.285,1.283-4.826,2.104
		c0.205,0.051,0.359,0.051,0.615-0.052c0.411-0.155,0.771-0.411,1.181-0.616c0.513-0.206,1.592-0.821,2.157-0.358
		c0.051-0.103,0.205-0.205,0.256-0.257c0.359,0.41,0.718,0.821,1.026,1.283c-0.41-0.205-1.078-0.103-1.54-0.052
		c-0.359,0.103-0.975,0.205-1.129,0.615c0.154,0.258,0.359,0.668,0.256,0.924c-0.667-0.462-1.18-1.231-2.104-1.334
		c-0.41,0-0.821,0-1.129,0.052c-4.927,2.72-9.084,6.672-12.062,11.394c0.205,0.206,0.41,0.36,0.615,0.411
		c0.514,0.154,0,1.642,0.976,0.873c0.308,0.257,0.358,0.616,0.153,0.975c0.052-0.052,2.104,1.284,2.259,1.387
		c0.358,0.308,0.923,0.667,1.078,1.078c0.102,0.358-0.206,0.771-0.514,0.924c-0.052-0.103-0.821-0.873-0.923-0.668
		c-0.154,0.257,0,1.642,0.565,1.591c-0.821,0.052-0.463,3.233-0.668,3.851c0,0.052,0.103,0.052,0.103,0.052
		c-0.154,0.615,0.359,3.027,1.386,2.77c-0.668,0.154,1.18,2.515,1.437,2.669c0.667,0.461,1.437,0.771,1.899,1.437
		c0.513,0.719,0.513,1.796,1.231,2.362c-0.205,0.615,1.078,1.334,1.026,2.204c-0.103,0.053-0.153,0.053-0.257,0.104
		c0.257,0.72,1.231,0.72,1.592,1.384c0.205,0.41,0,1.384,0.667,1.182c0.103-1.131-0.667-2.258-1.231-3.185
		c-0.307-0.512-0.615-0.975-0.873-1.489c-0.256-0.461-0.307-1.025-0.513-1.541c0.206,0.052,1.334,0.462,1.231,0.616
		c-0.41,1.023,1.642,2.823,2.207,3.487c0.155,0.154,1.335,1.694,0.719,1.694c0.668,0,1.591,1.025,1.899,1.542
		c0.463,0.769,0.36,1.744,0.668,2.565c0.308,1.025,1.745,1.489,2.566,1.95c0.718,0.359,1.335,0.873,2.053,1.13
		c1.078,0.41,1.334,0.051,2.257-0.104c1.334-0.205,1.489,1.284,2.567,1.848c0.668,0.36,2.105,0.873,2.823,0.564
		c-0.308,0.102,1.08,2.206,1.182,2.362c0.46,0.615,1.333,0.923,1.846,1.54c0.152-0.103,0.308-0.258,0.36-0.462
		c-0.205,0.563,0.77,1.643,1.283,1.541c0.563-0.104,0.718-1.232,0.718-1.645c-1.025,0.514-1.95,0.104-2.514-0.922
		c-0.102-0.259-0.922-1.694-0.205-1.694c0.975,0,0.309-0.771,0.205-1.489s-0.82-1.181-1.182-1.797
		c-0.308,0.616-1.333,0.464-1.643-0.05c0,0.154-0.151,0.409-0.151,0.617c-0.26,0-0.516,0.051-0.77-0.053
		c0.103-0.615,0.153-1.382,0.308-2.051c0.258-0.924,1.951-2.724-0.257-2.617c-0.769,0.052-1.078,0.359-1.334,1.023
		c-0.257,0.615-0.153,1.181-0.873,1.491c-0.463,0.204-2.001,0.103-2.464-0.152c-0.974-0.564-1.642-2.362-1.642-3.388
		c-0.051-1.386,0.668-2.618,0-3.9c0.308-0.258,0.616-0.771,0.976-1.025c0.308-0.204,0.667,0.152,0.821-0.461
		c-0.154-0.101-0.36-0.311-0.411-0.311c0.771,0.361,2.208-0.511,2.875,0c0.411,0.311,0.873,0.413,1.129-0.1
		c0.052-0.151-0.358-0.771-0.153-1.181c0.153,0.871,0.718,1.023,1.489,0.46c0.307,0.31,1.128,0.204,1.693,0.512
		c0.563,0.359,0.667,0.925,1.334,0.153c0.41,0.615,0.461,0.615,0.615,1.233c0.153,0.563,0.461,2.001,0.975,2.257
		c1.079,0.668,0.82-1.129,0.719-1.744c-0.052-0.052-0.052-1.746-0.102-1.746c-1.645-0.357-1.025-1.642-0.102-2.514
		c0.151-0.103,1.332-0.513,1.845-0.923c0.464-0.41,1.027-1.129,0.771-1.796c0.259,0,0.462-0.206,0.563-0.461
		c-0.154-0.051-0.771-0.564-0.871-0.513c0.357-0.206,0.308-0.513,0.101-0.821c0.514-0.309,0.257-0.873,0.771-1.078
		c0.563,0.77,1.693-0.102,1.131-0.718c0.512-0.719,1.693-0.358,2.001-1.026c0.771,0.206,0.206-0.77,0.616-1.335
		c0.358-0.462,0.975-0.462,1.435-0.718c0,0.052,1.282-0.719,0.873-0.77c0.873,0.103,2.616-0.821,1.282-1.591
		c0.206-0.462-0.461-0.668-0.922-0.769c0.36-0.103,0.822,0.102,1.131-0.103c0.67-0.462,0.206-0.668-0.359-0.821
		c-0.723-0.206-1.644,0.257-2.208,0.615C53.652,28.093,53.396,28.657,52.883,28.76z M63.712,63.096
		c-0.309-0.308-0.872-0.206-1.282-0.411c-0.41-0.152-0.721-0.309-1.232-0.41c0.103-1.026-1.025-1.387-1.745-1.899
		c-0.667-0.513-1.079-1.081-2.054-0.873c-0.102,0.052-1.128,0.411-0.922,0.614c-0.669-0.563-0.975-0.87-1.847-1.129
		c-0.82-0.26-1.385-1.284-2.206-0.36c-0.411,0.409-0.206,1.025-0.411,1.435c-0.67-0.563,0.614-1.229,0.103-1.848
		c-0.616-0.716-1.694,0.464-2.207,0.773c-0.308,0.259-0.667,0.359-0.869,0.667c-0.26,0.36-0.362,0.822-0.565,1.182
		c-0.154-0.409-1.025-0.309-1.079-0.616c0.205,1.232,0.205,2.516,0.461,3.747c0.151,0.718,0,1.901-0.614,2.464
		c-0.616,0.563-1.384,1.181-1.489,2.053c-0.101,0.616,0.051,1.181,0.616,1.334c0.052,0.771-0.821,1.333-0.769,2.153
		c0,0.053,0.052,0.566,0.102,0.821C52.729,71.565,58.991,68.075,63.712,63.096z"/>
</g>
</svg>
