<?xml version="1.0" encoding="utf-8"?>
<!-- Generator: Adobe Illustrator 16.0.0, SVG Export Plug-In . SVG Version: 6.00 Build 0)  -->
<!DOCTYPE svg PUBLIC "-//W3C//DTD SVG 1.1//EN" "http://www.w3.org/Graphics/SVG/1.1/DTD/svg11.dtd">
<svg version="1.1" id="图形" xmlns="http://www.w3.org/2000/svg" xmlns:xlink="http://www.w3.org/1999/xlink" x="0px" y="0px"
	 width="80px" height="81.839px" viewBox="0 0 80 81.839" enable-background="new 0 0 80 81.839" xml:space="preserve">
<rect x="22.818" display="none" fill="#F1F1F1" width="80" height="81.839"/>
<g enable-background="new    ">
	<path fill="#444444" d="M79.851,40.919c0,21.956-17.812,39.769-39.768,39.769c-21.956,0-39.769-17.813-39.769-39.769
		c0-21.956,17.813-39.768,39.769-39.768C62.039,1.151,79.851,18.965,79.851,40.919z M53.08,29.113
		c0.263-0.051,0.518-0.984,0.673-1.191c0.311-0.363,0.726-0.57,1.138-0.776c0.881-0.364,1.762-0.466,2.693-0.622
		c0.881-0.207,1.968-0.207,2.643,0.569c-0.156-0.155,1.086-1.243,1.242-1.294c0.467-0.259,1.246-0.156,1.553-0.622
		c0.104-0.155,0.104-1.139,0.104-1.139c-0.88,0.104-1.191-0.725-1.244-1.45c0,0.052-0.102,0.207-0.313,0.415
		c0.052-0.776-0.927-0.204-1.294-0.311c-1.194-0.312-1.036-1.139-1.398-2.02c-0.203-0.465-0.779-0.622-0.984-1.087
		c-0.204-0.311-0.313-0.984-0.78-1.036c-0.311-0.052-0.88,1.087-0.979,1.036c-0.466-0.259-0.674,0.104-1.036,0.311
		c-0.313,0.207-0.57,0.103-0.881,0.26c0.933-0.312-0.414-0.829-0.88-0.725c0.726-0.207,0.363-0.985-0.052-1.346
		c0.1,0,0.152,0,0.264,0c-0.104-0.466-1.555-0.88-2.021-1.193c-0.467-0.312-2.95-0.828-3.469-0.518
		c-0.621,0.361,0.154,1.398,0.154,1.916c0.052,0.622-0.621,0.776-0.621,1.295c0,0.879,1.658,0.725,1.246,1.916
		c-0.261,0.726-1.246,0.879-1.658,1.451c-0.416,0.519,0.051,1.45,0.465,1.812c0.414,0.311-0.725,0.829-0.881,0.932
		c-0.88,0.415-1.553-0.879-1.762-1.657c-0.153-0.57-0.205-1.243-0.826-1.553c-0.315-0.104-1.3-0.259-1.503,0.051
		c-0.313-0.776-1.399-1.087-2.126-1.346c-1.035-0.363-1.915-0.363-3.002-0.207c0.362-0.052-0.104-1.657-0.985-1.398
		c0.26-0.518,0.155-1.087,0.26-1.604c0.103-0.415,0.311-0.828,0.621-1.191c0.104-0.207,1.243-1.398,0.879-1.45
		c0.88,0.104,1.863,0.155,2.589-0.569c0.466-0.466,0.673-1.243,1.141-1.762c0.668-0.776,1.499,0.207,2.225,0.259
		c1.037,0.052,0.985-1.086,0.415-1.604c0.673,0.052,0.104-1.191-0.26-1.347c-0.467-0.155-2.227,0.312-1.296,0.674
		c-0.205-0.104-1.448,2.485-2.177,1.191c-0.204-0.26-0.311-1.347-0.776-1.398c-0.415,0-0.673,0.467-0.83,0.776
		c0.261-0.673-1.452-1.138-1.811-1.191c0.776-0.518,0.155-1.088-0.413-1.397c-0.415-0.26-1.709-0.467-2.071-0.052
		c-0.985,1.193,1.036,1.346,1.552,1.659c0.156,0.103,0.777,0.465,0.416,0.725c-0.312,0.155-1.243,0.414-1.346,0.622
		c-0.31,0.465,0.363,0.984-0.104,1.45c-0.465-0.465-0.465-1.243-0.828-1.762c0.466,0.571-1.863,0.26-1.811,0.26
		c-0.776,0-2.02,0.518-2.589-0.26c-0.103-0.206-0.103-1.398,0.207-1.138c-0.466-0.363-0.777-0.725-1.088-0.932
		c-1.709,0.57-3.314,1.294-4.866,2.123c0.206,0.052,0.361,0.052,0.621-0.052c0.413-0.155,0.777-0.413,1.191-0.621
		c0.518-0.207,1.605-0.829,2.175-0.362c0.052-0.103,0.207-0.206,0.26-0.259c0.361,0.414,0.725,0.829,1.034,1.295
		c-0.413-0.207-1.086-0.104-1.552-0.052c-0.362,0.104-0.985,0.207-1.139,0.622c0.155,0.258,0.362,0.673,0.259,0.932
		c-0.674-0.467-1.191-1.243-2.123-1.346c-0.415,0-0.828,0-1.14,0.052c-4.971,2.744-9.166,6.73-12.168,11.495
		c0.207,0.207,0.414,0.363,0.622,0.415c0.518,0.156,0,1.658,0.984,0.88c0.312,0.258,0.363,0.622,0.156,0.983
		c0.052-0.051,2.122,1.295,2.277,1.398c0.363,0.311,0.932,0.673,1.087,1.087c0.104,0.363-0.207,0.776-0.518,0.932
		c-0.052-0.104-0.829-0.88-0.931-0.673c-0.155,0.259,0,1.658,0.569,1.605c-0.828,0.051-0.467,3.262-0.673,3.883
		c0,0.052,0.104,0.052,0.104,0.052c-0.155,0.621,0.363,3.056,1.398,2.795c-0.673,0.156,1.191,2.538,1.45,2.693
		c0.672,0.465,1.449,0.775,1.915,1.449c0.518,0.725,0.518,1.813,1.243,2.383c-0.207,0.618,1.088,1.35,1.037,2.228
		c-0.104,0.053-0.155,0.053-0.26,0.102c0.26,0.729,1.243,0.729,1.605,1.396c0.207,0.42,0,1.402,0.673,1.195
		c0.104-1.14-0.673-2.279-1.243-3.211c-0.311-0.519-0.622-0.984-0.88-1.502c-0.26-0.466-0.312-1.035-0.518-1.555
		c0.207,0.053,1.346,0.467,1.243,0.623c-0.413,1.035,1.658,2.847,2.228,3.52c0.154,0.156,1.346,1.71,0.724,1.71
		c0.674,0,1.605,1.035,1.916,1.553c0.467,0.776,0.363,1.761,0.673,2.589c0.311,1.036,1.76,1.502,2.589,1.968
		c0.726,0.364,1.347,0.882,2.072,1.14c1.087,0.414,1.346,0.051,2.277-0.104c1.346-0.206,1.501,1.295,2.589,1.863
		c0.673,0.363,2.124,0.881,2.848,0.568c-0.313,0.104,1.087,2.229,1.192,2.385c0.466,0.618,1.346,0.929,1.863,1.551
		c0.152-0.104,0.313-0.261,0.362-0.466c-0.205,0.567,0.78,1.659,1.296,1.551c0.569-0.1,0.727-1.245,0.727-1.659
		c-1.034,0.518-1.969,0.104-2.532-0.933c-0.104-0.26-0.933-1.71-0.207-1.71c0.981,0,0.31-0.778,0.207-1.501
		c-0.104-0.726-0.834-1.193-1.193-1.813c-0.313,0.619-1.347,0.465-1.657-0.051c0,0.154-0.155,0.412-0.155,0.619
		c-0.26,0-0.517,0.051-0.777-0.053c0.101-0.618,0.152-1.397,0.311-2.069c0.26-0.934,1.967-2.743-0.262-2.642
		c-0.777,0.051-1.082,0.364-1.346,1.037c-0.258,0.619-0.154,1.19-0.879,1.501c-0.465,0.205-2.019,0.104-2.486-0.155
		c-0.984-0.571-1.657-2.383-1.657-3.417c-0.052-1.397,0.673-2.644,0-3.938c0.312-0.259,0.621-0.774,0.984-1.03
		c0.312-0.205,0.673,0.152,0.828-0.467c-0.155-0.104-0.362-0.313-0.413-0.313c0.776,0.363,2.226-0.519,2.899,0
		c0.415,0.313,0.879,0.414,1.138-0.104c0.052-0.153-0.362-0.776-0.15-1.191c0.15,0.88,0.724,1.034,1.5,0.466
		c0.311,0.311,1.135,0.207,1.709,0.517c0.568,0.365,0.672,0.935,1.347,0.154c0.413,0.625,0.466,0.625,0.62,1.25
		c0.152,0.566,0.467,2.016,0.985,2.277c1.082,0.671,0.827-1.137,0.725-1.763c-0.053-0.052-0.053-1.761-0.104-1.761
		c-1.657-0.362-1.036-1.657-0.104-2.536c0.154-0.104,1.349-0.518,1.863-0.931c0.466-0.415,1.037-1.14,0.781-1.813
		c0.262,0,0.467-0.207,0.566-0.465c-0.152-0.052-0.777-0.569-0.882-0.518c0.363-0.207,0.315-0.518,0.104-0.828
		c0.518-0.31,0.259-0.879,0.777-1.086c0.57,0.776,1.711-0.104,1.139-0.725c0.518-0.727,1.708-0.363,2.02-1.037
		c0.776,0.207,0.205-0.776,0.619-1.346c0.363-0.465,0.985-0.465,1.451-0.725c0,0.052,1.296-0.725,0.881-0.777
		c0.879,0.104,2.641-0.828,1.294-1.604c0.206-0.465-0.466-0.673-0.932-0.777c0.362-0.103,0.828,0.104,1.138-0.103
		c0.671-0.465,0.205-0.673-0.364-0.829c-0.729-0.207-1.658,0.26-2.228,0.622C53.856,28.44,53.598,29.01,53.08,29.113z
		 M64.006,63.755c-0.311-0.311-0.881-0.207-1.295-0.414c-0.414-0.153-0.727-0.311-1.244-0.413c0.101-1.038-1.033-1.398-1.764-1.917
		c-0.669-0.519-1.084-1.085-2.068-0.881c-0.102,0.052-1.137,0.414-0.93,0.621c-0.674-0.569-0.985-0.88-1.865-1.139
		c-0.828-0.26-1.397-1.296-2.227-0.363c-0.418,0.416-0.206,1.036-0.418,1.451c-0.67-0.57,0.621-1.244,0.104-1.865
		c-0.619-0.728-1.714,0.467-2.231,0.777c-0.312,0.262-0.67,0.363-0.879,0.673c-0.261,0.362-0.363,0.829-0.567,1.192
		c-0.155-0.414-1.036-0.311-1.088-0.623c0.205,1.245,0.205,2.538,0.466,3.781c0.153,0.726,0,1.916-0.615,2.485
		c-0.623,0.569-1.399,1.19-1.503,2.07c-0.103,0.618,0.052,1.19,0.621,1.347c0.048,0.777-0.832,1.347-0.78,2.175
		c0,0.052,0.053,0.569,0.101,0.828C52.924,72.299,59.241,68.779,64.006,63.755z"/>
</g>
</svg>
