<?xml version="1.0" encoding="utf-8"?>
<!-- Generator: Adobe Illustrator 16.0.0, SVG Export Plug-In . SVG Version: 6.00 Build 0)  -->
<!DOCTYPE svg PUBLIC "-//W3C//DTD SVG 1.1//EN" "http://www.w3.org/Graphics/SVG/1.1/DTD/svg11.dtd">
<svg version="1.1" id="图形" xmlns="http://www.w3.org/2000/svg" xmlns:xlink="http://www.w3.org/1999/xlink" x="0px" y="0px"
	 width="80px" height="81.839px" viewBox="0 0 80 81.839" enable-background="new 0 0 80 81.839" xml:space="preserve">
<rect x="22.818" display="none" fill="#F1F1F1" width="80" height="81.839"/>
<g>
	<path fill="#444444" d="M40.223,79.953c-11.771,0-22.871-5.191-30.375-14.238c-0.514-0.668-0.462-1.645,0.103-2.21l7.042-7.093
		c0.359-0.312,0.821-0.462,1.284-0.462c0.463,0.051,0.926,0.257,1.182,0.613c5.037,6.528,12.592,10.229,20.764,10.229
		c14.494,0,26.315-11.819,26.315-26.314c0-14.494-11.821-26.314-26.315-26.314c-6.732,0-13.105,2.57-17.886,7.042l7.042,7.093
		c0.976,0.926,1.233,2.365,0.72,3.546c-0.514,1.234-1.696,2.057-3.033,2.057H4.039c-1.799,0-3.289-1.49-3.289-3.289V7.585
		c0-1.335,0.823-2.519,2.057-3.032c1.183-0.514,2.621-0.258,3.546,0.719l6.681,6.631C20.282,5.067,30.098,1.007,40.223,1.007
		c21.74,0,39.472,17.732,39.472,39.473C79.695,62.22,61.963,79.953,40.223,79.953z M46.802,48.702c0,0.925-0.721,1.646-1.646,1.646
		H28.71c-0.926,0-1.645-0.721-1.645-1.646v-3.288c0-0.926,0.72-1.646,1.645-1.646h11.513V25.677c0-0.926,0.72-1.645,1.645-1.645
		h3.288c0.927,0,1.646,0.72,1.646,1.645V48.702L46.802,48.702z"/>
</g>
</svg>
