<?xml version="1.0" encoding="utf-8"?>
<!-- Generator: Adobe Illustrator 16.0.0, SVG Export Plug-In . SVG Version: 6.00 Build 0)  -->
<!DOCTYPE svg PUBLIC "-//W3C//DTD SVG 1.1//EN" "http://www.w3.org/Graphics/SVG/1.1/DTD/svg11.dtd">
<svg version="1.1" id="图形" xmlns="http://www.w3.org/2000/svg" xmlns:xlink="http://www.w3.org/1999/xlink" x="0px" y="0px"
	 width="80px" height="81.839px" viewBox="0 0 80 81.839" enable-background="new 0 0 80 81.839" xml:space="preserve">
<rect x="22.818" display="none" fill="#F1F1F1" width="80" height="81.839"/>
<g>
	<path fill="#444444" d="M71.39,52.51c-0.992,2.749-2.662,7.216-2.662,10.055v12.99c0,3.203-2.568,5.771-5.772,5.771H34.094
		c-3.202,0-5.772-2.568-5.772-5.771v-12.99c0-2.162-3.879-5.229-5.367-6.537c-1.85-1.624-3.698-3.157-5.818-4.511
		c-4.194-2.616-11.905-4.555-11.905-10.598c0-7.171,3.922-12.989,11.545-12.989c1.983,0,3.922,0.315,5.772,0.993V12.057
		c0-6.223,5.276-11.545,11.5-11.545c6.313,0,11.589,5.23,11.589,11.545v7.623c1.896,0.135,3.698,0.721,5.367,1.668
		c0.632-0.089,1.309-0.135,1.938-0.135c2.886,0,5.771,0.948,8.028,2.707c8.523-0.089,13.529,5.727,13.529,14.07
		C74.501,43.04,73.104,47.819,71.39,52.51z M61.197,29.69c-0.854,0-1.714,0.09-2.524,0.227c-1.037-1.894-3.609-2.932-5.683-2.932
		c-1.086,0-2.165,0.27-3.112,0.812c-1.445-1.533-3.249-2.39-5.367-2.39c-1.444,0-3.564,0.631-4.645,1.578V12.057
		c0-3.112-2.66-5.772-5.772-5.772c-3.065,0-5.772,2.75-5.772,5.772v25.976c-2.841,0-5.772-4.331-11.545-4.331
		c-4.33,0-5.773,3.382-5.773,7.217c0,1.263,5.231,3.563,6.269,4.059c0.993,0.543,1.984,1.084,2.932,1.669
		c2.39,1.491,4.464,3.204,6.539,5.051c3.292,2.886,7.351,6.09,7.351,10.87v1.444h28.861v-1.444c0-7.895,5.772-15.603,5.772-24.352
		C68.728,33.118,66.656,29.69,61.197,29.69z M60.069,69.782c-1.578,0-2.887,1.31-2.887,2.887c0,1.579,1.309,2.887,2.887,2.887
		c1.579,0,2.886-1.308,2.886-2.887C62.955,71.091,61.648,69.782,60.069,69.782z"/>
</g>
</svg>
