<?xml version="1.0" encoding="utf-8"?>
<!-- Generator: Adobe Illustrator 16.0.0, SVG Export Plug-In . SVG Version: 6.00 Build 0)  -->
<!DOCTYPE svg PUBLIC "-//W3C//DTD SVG 1.1//EN" "http://www.w3.org/Graphics/SVG/1.1/DTD/svg11.dtd">
<svg version="1.1" id="图形" xmlns="http://www.w3.org/2000/svg" xmlns:xlink="http://www.w3.org/1999/xlink" x="0px" y="0px"
	 width="80px" height="81.839px" viewBox="0 0 80 81.839" enable-background="new 0 0 80 81.839" xml:space="preserve">
<rect x="22.818" display="none" fill="#F1F1F1" width="80" height="81.839"/>
<g>
	<path fill="#444444" d="M76.285,45.674c-0.246,0.296-0.641,0.492-1.034,0.542c-0.049,0-0.1,0-0.149,0
		c-0.392,0-0.738-0.098-1.036-0.345L39.987,17.455L5.906,45.872c-0.347,0.247-0.741,0.394-1.184,0.345
		c-0.393-0.05-0.788-0.246-1.033-0.542l-3.053-3.644c-0.542-0.641-0.445-1.675,0.197-2.216l35.41-29.501
		c2.07-1.723,5.418-1.723,7.488,0l12.015,10.046v-9.603c0-0.887,0.691-1.576,1.578-1.576h9.455c0.888,0,1.574,0.689,1.574,1.576
		V30.85l10.789,8.964c0.638,0.542,0.737,1.576,0.196,2.216L76.285,45.674z M68.354,69.069c0,1.724-1.425,3.153-3.15,3.153H46.29
		V53.31H33.682v18.912H14.77c-1.724,0-3.152-1.43-3.152-3.153V45.427c0-0.097,0.048-0.196,0.048-0.293l28.321-23.346l28.32,23.346
		c0.048,0.097,0.048,0.196,0.048,0.293V69.069z"/>
</g>
</svg>
