<?xml version="1.0" encoding="utf-8"?>
<!-- Generator: Adobe Illustrator 16.0.0, SVG Export Plug-In . SVG Version: 6.00 Build 0)  -->
<!DOCTYPE svg PUBLIC "-//W3C//DTD SVG 1.1//EN" "http://www.w3.org/Graphics/SVG/1.1/DTD/svg11.dtd">
<svg version="1.1" id="图形" xmlns="http://www.w3.org/2000/svg" xmlns:xlink="http://www.w3.org/1999/xlink" x="0px" y="0px"
	 width="80px" height="81.839px" viewBox="0 0 80 81.839" enable-background="new 0 0 80 81.839" xml:space="preserve">
<rect x="22.818" display="none" fill="#F1F1F1" width="80" height="81.839"/>
<g>
	<path fill="#444444" d="M19.322,43.537v2.794H41.16c1.192-1.002,2.362-1.035,3.364,0h5.681c1.176-0.97,2.446-1.396,3.402-1.527
		v-1.267H19.322z"/>
	<path fill="#444444" d="M68.264,0.295h-3.358H7.514H4.156v3.359v61.077v1.674l1.366,1.013l16.886,12.573l0.9,0.67h1.096h25.126
		c-2.798-1.129-5.356-3.984-6.241-6.717h-15.9l-4.412-15.453l-0.426-1.492l-1.455,0.537l-10.222,3.779V7.017h50.672v37.14
		c2.361,0.019,4.678,0.543,6.717,1.513V3.654V0.295L68.264,0.295z M20.637,60.778L24.101,72.9l-12.039-8.967L20.637,60.778z"/>
	<rect x="19.322" y="17.639" fill="#444444" width="34.284" height="2.794"/>
	<rect x="19.322" y="35.156" fill="#444444" width="34.284" height="2.794"/>
	<rect x="19.322" y="26.02" fill="#444444" width="34.284" height="2.794"/>
	<g>
		<g>
			<path fill="#444444" d="M59.327,81.506c-5.267,0-10.233-2.321-13.593-6.371c-0.23-0.298-0.206-0.734,0.044-0.987l3.153-3.177
				c0.16-0.141,0.367-0.205,0.573-0.205c0.205,0.023,0.415,0.115,0.529,0.274c2.255,2.924,5.636,4.575,9.292,4.575
				c6.486,0,11.776-5.288,11.776-11.775c0-6.485-5.29-11.775-11.776-11.775c-3.012,0-5.862,1.148-8.005,3.151l3.151,3.175
				c0.438,0.414,0.554,1.058,0.32,1.587c-0.232,0.553-0.759,0.919-1.358,0.919H43.133c-0.807,0-1.473-0.667-1.473-1.472V49.123
				c0-0.601,0.366-1.129,0.918-1.358c0.53-0.229,1.175-0.115,1.588,0.32l2.992,2.968c3.241-3.059,7.635-4.876,12.164-4.876
				c9.728,0,17.664,7.935,17.664,17.664C76.989,73.57,69.056,81.506,59.327,81.506z M62.27,67.525c0,0.413-0.321,0.733-0.734,0.733
				h-7.362c-0.412,0-0.733-0.32-0.733-0.733v-1.472c0-0.416,0.321-0.736,0.733-0.736h5.154v-8.096c0-0.415,0.322-0.735,0.735-0.735
				h1.473c0.413,0,0.734,0.32,0.734,0.735V67.525z"/>
		</g>
	</g>
</g>
</svg>
