<?xml version="1.0" encoding="utf-8"?>
<!-- Generator: Adobe Illustrator 16.0.0, SVG Export Plug-In . SVG Version: 6.00 Build 0)  -->
<!DOCTYPE svg PUBLIC "-//W3C//DTD SVG 1.1//EN" "http://www.w3.org/Graphics/SVG/1.1/DTD/svg11.dtd">
<svg version="1.1" id="图形" xmlns="http://www.w3.org/2000/svg" xmlns:xlink="http://www.w3.org/1999/xlink" x="0px" y="0px"
	 width="80px" height="81.839px" viewBox="0 0 80 81.839" enable-background="new 0 0 80 81.839" xml:space="preserve">
<rect x="22.818" display="none" fill="#F1F1F1" width="80" height="81.839"/>
<path fill="#444444" d="M17.54,0.358h35.126h1.537l1.131,1.085l15.896,15.221l1.193,1.143v1.63v48.047
	c0,2.745-1.123,5.241-2.93,7.048h-0.012c-1.809,1.808-4.306,2.93-7.039,2.93H39.119c3.543-3.8,3.604-7.708,3.604-7.708h19.72
	c0.627,0,1.193-0.254,1.6-0.66v-0.008c0.41-0.416,0.669-0.982,0.669-1.602V22.249l-13.723-1.153l-1.484-0.121l0.078-1.484
	l0.557-11.419H17.54c-0.62,0-1.186,0.26-1.598,0.673h-0.014c-0.403,0.4-0.655,0.968-0.655,1.59V49.33
	c-6.004,2.447-7.713,9.442-7.713,9.442V10.334c0-2.733,1.125-5.223,2.938-7.039l-0.01-0.01C12.296,1.481,14.789,0.358,17.54,0.358
	L17.54,0.358z M22.027,34.051v3.369h34.802v-3.369H22.027L22.027,34.051z M22.027,25.172v3.37h34.802v-3.37H22.027L22.027,25.172z
	 M22.027,16.092v3.368h22.044v-3.368H22.027L22.027,16.092z M62.513,18.967l-9.39-8.992l-0.401,8.172L62.513,18.967z M24.641,81.427
	c-8.752,0-15.849-7.101-15.849-15.849c0-8.747,7.097-15.852,15.849-15.852c8.75,0,15.85,7.1,15.85,15.848
	C40.49,74.324,33.391,81.427,24.641,81.427z M24.641,54.353c-6.192,0-11.226,5.032-11.226,11.226
	c0,6.191,5.034,11.225,11.226,11.225c6.191,0,11.226-5.033,11.226-11.225C35.867,59.385,30.832,54.353,24.641,54.353z M27.282,67.56
	c0,0.371-0.289,0.658-0.661,0.658h-6.603c-0.373,0-0.662-0.287-0.662-0.658v-1.321c0-0.372,0.289-0.66,0.662-0.66h4.623v-7.266
	c0-0.371,0.288-0.661,0.66-0.661h1.32c0.373,0,0.661,0.29,0.661,0.661V67.56z"/>
</svg>
