<?xml version="1.0" encoding="utf-8"?>
<!-- Generator: Adobe Illustrator 16.0.0, SVG Export Plug-In . SVG Version: 6.00 Build 0)  -->
<!DOCTYPE svg PUBLIC "-//W3C//DTD SVG 1.1//EN" "http://www.w3.org/Graphics/SVG/1.1/DTD/svg11.dtd">
<svg version="1.1" id="图形" xmlns="http://www.w3.org/2000/svg" xmlns:xlink="http://www.w3.org/1999/xlink" x="0px" y="0px"
	 width="80px" height="81.839px" viewBox="0 0 80 81.839" enable-background="new 0 0 80 81.839" xml:space="preserve">
<rect x="22.818" display="none" fill="#F1F1F1" width="80" height="81.839"/>
<g>
	<path fill="#444444" d="M40.047,80.384c-21.906,0-39.68-17.774-39.68-39.678c0-21.908,17.773-39.68,39.68-39.68
		c21.907,0,39.68,17.772,39.68,39.68C79.727,62.61,61.954,80.384,40.047,80.384z M53.273,57.236c0-0.929-0.722-1.65-1.654-1.65
		h-4.96V29.13c0-0.93-0.723-1.653-1.652-1.653H28.473c-0.929,0-1.652,0.723-1.652,1.653v8.266c0,0.93,0.724,1.653,1.652,1.653h4.96
		v16.533h-4.96c-0.929,0-1.652,0.723-1.652,1.653V65.5c0,0.932,0.724,1.653,1.652,1.653h23.145c0.934,0,1.654-0.723,1.654-1.653
		L53.273,57.236L53.273,57.236z M46.659,10.944c0-0.929-0.723-1.652-1.652-1.652h-9.919c-0.931,0-1.653,0.724-1.653,1.652v8.267
		c0,0.929,0.723,1.653,1.653,1.653h9.919c0.932,0,1.652-0.724,1.652-1.653V10.944z"/>
</g>
</svg>
