<?xml version="1.0" encoding="utf-8"?>
<!-- Generator: Adobe Illustrator 16.0.0, SVG Export Plug-In . SVG Version: 6.00 Build 0)  -->
<!DOCTYPE svg PUBLIC "-//W3C//DTD SVG 1.1//EN" "http://www.w3.org/Graphics/SVG/1.1/DTD/svg11.dtd">
<svg version="1.1" id="图形" xmlns="http://www.w3.org/2000/svg" xmlns:xlink="http://www.w3.org/1999/xlink" x="0px" y="0px"
	 width="80px" height="81.839px" viewBox="0 0 80 81.839" enable-background="new 0 0 80 81.839" xml:space="preserve">
<rect x="22.818" display="none" fill="#F1F1F1" width="80" height="81.839"/>
<g id="_x33__18_">
	<g>
		<path fill="#444444" d="M40.078,30.87c-2.736,0-4.955,2.219-4.955,4.955s2.219,4.953,4.955,4.953s4.955-2.217,4.955-4.953
			S42.814,30.87,40.078,30.87z M20.258,30.87c-2.736,0-4.956,2.219-4.956,4.955s2.219,4.953,4.956,4.953s4.955-2.217,4.955-4.953
			S22.994,30.87,20.258,30.87z M40.078,1.139c-21.893,0-39.641,15.53-39.641,34.686c0,10.949,5.81,20.693,14.865,27.053v17.542
			l17.367-10.536c2.402,0.398,4.873,0.626,7.409,0.626c21.891,0,39.641-15.529,39.641-34.685S61.969,1.139,40.078,1.139z
			 M40.078,65.554c-2.894,0-5.688-0.335-8.376-0.91L20.04,71.657l0.155-11.494C11.253,54.788,5.392,45.899,5.392,35.825
			c0-16.419,15.529-29.73,34.686-29.73c19.156,0,34.686,13.311,34.686,29.73C74.764,52.247,59.234,65.554,40.078,65.554z
			 M59.898,30.87c-2.736,0-4.955,2.219-4.955,4.955s2.219,4.953,4.955,4.953s4.955-2.217,4.955-4.953S62.635,30.87,59.898,30.87z"/>
	</g>
</g>
</svg>
