<?xml version="1.0" encoding="utf-8"?>
<!-- Generator: Adobe Illustrator 16.0.0, SVG Export Plug-In . SVG Version: 6.00 Build 0)  -->
<!DOCTYPE svg PUBLIC "-//W3C//DTD SVG 1.1//EN" "http://www.w3.org/Graphics/SVG/1.1/DTD/svg11.dtd">
<svg version="1.1" id="图形" xmlns="http://www.w3.org/2000/svg" xmlns:xlink="http://www.w3.org/1999/xlink" x="0px" y="0px"
	 width="80px" height="81.839px" viewBox="0 0 80 81.839" enable-background="new 0 0 80 81.839" xml:space="preserve">
<rect x="22.818" display="none" fill="#F1F1F1" width="80" height="81.839"/>
<g enable-background="new    ">
	<path fill="#444444" d="M79.584,70.143c0,1.807-1.494,3.303-3.299,3.303H3.717c-1.804,0-3.299-1.496-3.299-3.303v-24.84
		c0-1.854,0.566-4.586,1.288-6.339l12.268-28.451c0.721-1.701,2.783-3.041,4.586-3.041h42.882c1.803,0,3.864,1.34,4.588,3.041
		l12.265,28.451c0.722,1.751,1.29,4.483,1.29,6.339V70.143z M69.43,43.754c-0.102-0.259-0.156-0.564-0.258-0.824L58.243,17.366
		H21.755L10.83,42.93c-0.103,0.26-0.155,0.565-0.258,0.824h16.286l4.897,9.896h16.493l4.894-9.896H69.43z"/>
</g>
</svg>
