<?xml version="1.0" encoding="utf-8"?>
<!-- Generator: Adobe Illustrator 16.0.0, SVG Export Plug-In . SVG Version: 6.00 Build 0)  -->
<!DOCTYPE svg PUBLIC "-//W3C//DTD SVG 1.1//EN" "http://www.w3.org/Graphics/SVG/1.1/DTD/svg11.dtd">
<svg version="1.1" id="图形" xmlns="http://www.w3.org/2000/svg" xmlns:xlink="http://www.w3.org/1999/xlink" x="0px" y="0px"
	 width="80px" height="81.839px" viewBox="0 0 80 81.839" enable-background="new 0 0 80 81.839" xml:space="preserve">
<rect x="22.818" display="none" fill="#F1F1F1" width="80" height="81.839"/>
<path fill="#444444" d="M22.167,33.331h36.566V13.779l-2.468,3.346l-0.393,0.525l-0.611-0.232L33.174,8.847H22.168L22.167,33.331
	L22.167,33.331z M70.155,67.617v7.704v3.45h-3.448H14.931h-3.45v-3.45v-7.704H8.864c-4.757,0-8.643-3.889-8.643-8.636V36.572
	c0-4.757,3.886-8.643,8.643-8.643h8.134V6.265V3.678h2.581H33.95h0.072l0.24,0.026l27.369,3.45L63.9,7.443v2.264v18.222h7.281
	c4.747,0,8.633,3.886,8.633,8.643v22.409c0,4.747-3.886,8.636-8.633,8.636H70.155L70.155,67.617z M18.38,67.617v4.256h44.877v-4.256
	H18.38L18.38,67.617z M28.56,26.131h25.263v1.767H28.56V26.131L28.56,26.131z M28.56,20.372h23.946v1.771H28.56V20.372L28.56,20.372
	z M28.56,15.183h11.064v1.767H28.56V15.183L28.56,15.183z M57.992,11.889l-2.722,3.688L39.879,9.604L57.992,11.889z"/>
</svg>
