<?xml version="1.0" encoding="utf-8"?>
<!-- Generator: Adobe Illustrator 16.0.0, SVG Export Plug-In . SVG Version: 6.00 Build 0)  -->
<!DOCTYPE svg PUBLIC "-//W3C//DTD SVG 1.1//EN" "http://www.w3.org/Graphics/SVG/1.1/DTD/svg11.dtd">
<svg version="1.1" id="图形" xmlns="http://www.w3.org/2000/svg" xmlns:xlink="http://www.w3.org/1999/xlink" x="0px" y="0px"
	 width="80px" height="81.839px" viewBox="0 0 80 81.839" enable-background="new 0 0 80 81.839" xml:space="preserve">
<rect x="22.818" display="none" fill="#F1F1F1" width="80" height="81.839"/>
<g>
	<rect x="17.523" y="43.03" fill="#444444" width="33.839" height="2.757"/>
	<path fill="#444444" d="M65.828,0.351h-3.314H5.87H2.556v3.314v60.281V65.6l1.348,1L20.57,79.008l0.887,0.66h1.082h24.056
		c-2.679-1.223-4.543-3.932-5.417-6.629H25.485L21.13,57.789l-0.419-1.473l-1.436,0.529L9.187,60.577V6.985h50.013V43.64
		c2.33,0.019,4.616,0.536,6.629,1.495V3.666V0.351L65.828,0.351z M18.823,60.046l3.418,11.965l-11.883-8.851L18.823,60.046z"/>
	<rect x="17.523" y="17.468" fill="#444444" width="33.839" height="2.759"/>
	<rect x="17.523" y="34.758" fill="#444444" width="33.839" height="2.756"/>
	<rect x="17.523" y="25.74" fill="#444444" width="33.839" height="2.758"/>
	<g>
		<g>
			<path fill="#444444" d="M58.968,81.585c-9.822,0-17.79-7.968-17.79-17.79s7.968-17.788,17.79-17.788
				c9.821,0,17.788,7.968,17.788,17.79C76.756,73.619,68.788,81.585,58.968,81.585z M67.353,67.991l-4.193-4.192l4.193-4.193
				c0.276-0.277,0.438-0.648,0.438-1.041c0-0.396-0.162-0.788-0.438-1.065l-2.085-2.084c-0.277-0.277-0.671-0.439-1.065-0.439
				c-0.396,0-0.765,0.162-1.043,0.439l-4.191,4.19l-4.192-4.19c-0.277-0.277-0.649-0.439-1.042-0.439
				c-0.395,0-0.787,0.162-1.064,0.439l-2.087,2.084c-0.277,0.277-0.437,0.67-0.437,1.065c0,0.393,0.159,0.764,0.437,1.041
				l4.193,4.193l-4.193,4.192c-0.277,0.277-0.437,0.65-0.437,1.044c0,0.393,0.159,0.786,0.437,1.064l2.087,2.084
				c0.277,0.276,0.67,0.438,1.064,0.438c0.393,0,0.765-0.161,1.042-0.438l4.192-4.192l4.191,4.192
				c0.278,0.276,0.647,0.438,1.043,0.438c0.395,0,0.788-0.161,1.065-0.438l2.085-2.084c0.276-0.278,0.438-0.672,0.438-1.064
				C67.791,68.641,67.629,68.268,67.353,67.991z"/>
		</g>
	</g>
</g>
</svg>
