<?xml version="1.0" encoding="utf-8"?>
<!-- Generator: Adobe Illustrator 16.0.0, SVG Export Plug-In . SVG Version: 6.00 Build 0)  -->
<!DOCTYPE svg PUBLIC "-//W3C//DTD SVG 1.1//EN" "http://www.w3.org/Graphics/SVG/1.1/DTD/svg11.dtd">
<svg version="1.1" id="图形" xmlns="http://www.w3.org/2000/svg" xmlns:xlink="http://www.w3.org/1999/xlink" x="0px" y="0px"
	 width="80px" height="81.839px" viewBox="0 0 80 81.839" enable-background="new 0 0 80 81.839" xml:space="preserve">
<rect x="22.818" display="none" fill="#F1F1F1" width="80" height="81.839"/>
<g>
	<path fill="#444444" d="M74.308,60.133c-1.228,0-5.052-4.438-6.043-5.429l-4.532,4.532l10.386,10.386
		c0.85,0.85,1.322,2.03,1.322,3.21c0,2.645-3.021,5.666-5.666,5.666c-1.18,0-2.36-0.473-3.21-1.322L34.888,45.499
		c-4.957,3.683-11,6.185-17.232,6.185c-10.292,0-17.373-7.128-17.373-17.373c0-15.484,15.484-30.969,30.969-30.969
		c10.245,0,17.373,7.082,17.373,17.373c0,6.232-2.502,12.275-6.185,17.232l16.759,16.759l4.533-4.532
		c-0.991-0.991-5.43-4.815-5.43-6.043c0-1.086,4.344-5.429,5.43-5.429c0.377,0,0.803,0.189,1.085,0.473
		c1.747,1.747,14.919,14.162,14.919,15.531C79.736,55.791,75.393,60.133,74.308,60.133z M30.497,12.405
		c-5.004,0-9.064,4.06-9.064,9.064c0,1.369,0.331,2.691,0.897,3.918c-1.228-0.566-2.549-0.897-3.918-0.897
		c-5.004,0-9.064,4.061-9.064,9.064c0,5.004,4.06,9.064,9.064,9.064s9.064-4.06,9.064-9.064c0-1.369-0.33-2.691-0.897-3.918
		c1.228,0.566,2.55,0.897,3.919,0.897c5.004,0,9.064-4.06,9.064-9.064C39.561,16.465,35.501,12.405,30.497,12.405z"/>
</g>
</svg>
