<?xml version="1.0" encoding="utf-8"?>
<!-- Generator: Adobe Illustrator 16.0.0, SVG Export Plug-In . SVG Version: 6.00 Build 0)  -->
<!DOCTYPE svg PUBLIC "-//W3C//DTD SVG 1.1//EN" "http://www.w3.org/Graphics/SVG/1.1/DTD/svg11.dtd">
<svg version="1.1" id="图形" xmlns="http://www.w3.org/2000/svg" xmlns:xlink="http://www.w3.org/1999/xlink" x="0px" y="0px"
	 width="80px" height="81.839px" viewBox="0 0 80 81.839" enable-background="new 0 0 80 81.839" xml:space="preserve">
<rect x="22.818" display="none" fill="#F1F1F1" width="80" height="81.839"/>
<g>
	<path fill="#444444" d="M79.501,68.711H0.499V9.459h4.937v54.314h74.065V68.711z M74.564,32.412c0,1.08-1.313,1.658-2.122,0.849
		l-4.667-4.668l-24.42,24.419c-0.501,0.503-1.272,0.503-1.773,0l-8.989-8.989L16.546,60.07l-7.407-7.406l22.567-22.567
		c0.501-0.502,1.272-0.502,1.774,0l8.989,8.988l17.899-17.899L55.7,16.518c-0.81-0.81-0.231-2.122,0.848-2.122H73.33
		c0.693,0,1.234,0.54,1.234,1.234V32.412z"/>
</g>
</svg>
