<?xml version="1.0" encoding="utf-8"?>
<!-- Generator: Adobe Illustrator 16.0.0, SVG Export Plug-In . SVG Version: 6.00 Build 0)  -->
<!DOCTYPE svg PUBLIC "-//W3C//DTD SVG 1.1//EN" "http://www.w3.org/Graphics/SVG/1.1/DTD/svg11.dtd">
<svg version="1.1" id="图形" xmlns="http://www.w3.org/2000/svg" xmlns:xlink="http://www.w3.org/1999/xlink" x="0px" y="0px"
	 width="80px" height="81.839px" viewBox="0 0 80 81.839" enable-background="new 0 0 80 81.839" xml:space="preserve">
<rect x="22.818" display="none" fill="#F1F1F1" width="80" height="81.839"/>
<g id="NOTEPAD">
	<g>
		<path fill-rule="evenodd" clip-rule="evenodd" fill="#444444" d="M75.525,8.66h-6.832v3.705c0,4.092-3.671,7.41-8.198,7.41
			s-8.197-3.317-8.197-7.41V8.66h-4.101v3.705c0,4.092-3.669,7.41-8.198,7.41c-4.527,0-8.199-3.317-8.199-7.41V8.66h-4.099v3.705
			c0,4.092-3.669,7.41-8.199,7.41c-4.527,0-8.199-3.317-8.199-7.41V8.66H4.473c-2.264,0-4.099,1.658-4.099,3.705v64.218
			c0,2.048,1.835,3.705,4.099,3.705h71.053c2.264,0,4.1-1.657,4.1-3.705V12.365C79.625,10.318,77.789,8.66,75.525,8.66z
			 M65.278,67.938H14.721c-1.887,0-3.417-1.383-3.417-3.087c0-1.706,1.529-3.088,3.417-3.088h50.558
			c1.886,0,3.415,1.382,3.415,3.088C68.693,66.555,67.164,67.938,65.278,67.938z M64.595,53.119H15.404
			c-2.263,0-4.1-1.658-4.1-3.705c0-2.046,1.836-3.705,4.1-3.705h49.191c2.263,0,4.099,1.659,4.099,3.705
			C68.693,51.46,66.857,53.119,64.595,53.119z M64.595,37.064H15.404c-2.263,0-4.1-1.658-4.1-3.705c0-2.046,1.836-3.705,4.1-3.705
			h49.191c2.263,0,4.099,1.659,4.099,3.705C68.693,35.406,66.857,37.064,64.595,37.064z M60.495,16.069c2.264,0,4.1-1.658,4.1-3.705
			v-7.41c0-2.045-1.836-3.705-4.1-3.705c-2.263,0-4.098,1.66-4.098,3.705v7.41C56.397,14.412,58.232,16.069,60.495,16.069z
			 M40,16.069c2.262,0,4.099-1.658,4.099-3.705v-7.41c0-2.045-1.837-3.705-4.099-3.705c-2.264,0-4.099,1.66-4.099,3.705v7.41
			C35.9,14.412,37.735,16.069,40,16.069z M19.503,16.069c2.264,0,4.1-1.658,4.1-3.705v-7.41c0-2.045-1.836-3.705-4.1-3.705
			c-2.263,0-4.099,1.66-4.099,3.705v7.41C15.404,14.412,17.24,16.069,19.503,16.069z"/>
	</g>
</g>
</svg>
