<?xml version="1.0" encoding="utf-8"?>
<!-- Generator: Adobe Illustrator 16.0.0, SVG Export Plug-In . SVG Version: 6.00 Build 0)  -->
<!DOCTYPE svg PUBLIC "-//W3C//DTD SVG 1.1//EN" "http://www.w3.org/Graphics/SVG/1.1/DTD/svg11.dtd">
<svg version="1.1" id="图形" xmlns="http://www.w3.org/2000/svg" xmlns:xlink="http://www.w3.org/1999/xlink" x="0px" y="0px"
	 width="80px" height="81.839px" viewBox="0 0 80 81.839" enable-background="new 0 0 80 81.839" xml:space="preserve">
<rect x="22.818" display="none" fill="#F1F1F1" width="80" height="81.839"/>
<g enable-background="new    ">
	<path fill="#444444" d="M61.687,38.196c-3.655,4.029-8.479,9.702-8.905,15.374c1.537,0.905,2.492,2.598,2.492,4.351
		c0,1.272-0.479,2.49-1.326,3.392c0.848,0.902,1.326,2.121,1.326,3.394c0,1.752-0.902,3.343-2.387,4.296
		c0.425,0.744,0.688,1.642,0.688,2.491c0,3.445-2.705,5.089-5.779,5.089c-1.378,3.076-4.453,5.091-7.794,5.091
		c-3.342,0-6.417-2.015-7.795-5.091c-3.075,0-5.778-1.644-5.778-5.089c0-0.85,0.265-1.749,0.689-2.491
		c-1.485-0.953-2.386-2.544-2.386-4.296c0-1.272,0.477-2.491,1.325-3.394c-0.848-0.901-1.325-2.119-1.325-3.392
		c0-1.753,0.954-3.445,2.493-4.351c-0.425-5.672-5.249-11.345-8.907-15.374c-3.658-4.029-5.462-8.748-5.462-14.21
		c0-14.422,13.733-23.753,27.146-23.753c13.411,0,27.144,9.331,27.144,23.753C67.148,29.448,65.347,34.167,61.687,38.196z
		 M40.004,7.021c-9.596,0-20.36,6.362-20.36,16.967c0,3.393,1.379,6.946,3.606,9.542c1.007,1.167,2.173,2.281,3.233,3.5
		c3.765,4.506,6.947,9.809,7.476,15.8h12.09c0.529-5.991,3.712-11.294,7.474-15.8c1.063-1.22,2.228-2.333,3.235-3.5
		c2.229-2.596,3.605-6.151,3.605-9.542C60.363,13.382,49.6,7.021,40.004,7.021z M50.183,25.683c-0.898,0-1.692-0.794-1.692-1.696
		c0-3.658-5.678-5.089-8.48-5.089c-0.902,0-1.699-0.794-1.699-1.696c0-0.901,0.797-1.696,1.699-1.696
		c4.929,0,11.873,2.598,11.873,8.483C51.88,24.889,51.085,25.683,50.183,25.683z"/>
</g>
</svg>
