<?xml version="1.0" encoding="utf-8"?>
<!-- Generator: Adobe Illustrator 16.0.0, SVG Export Plug-In . SVG Version: 6.00 Build 0)  -->
<!DOCTYPE svg PUBLIC "-//W3C//DTD SVG 1.1//EN" "http://www.w3.org/Graphics/SVG/1.1/DTD/svg11.dtd">
<svg version="1.1" id="图形" xmlns="http://www.w3.org/2000/svg" xmlns:xlink="http://www.w3.org/1999/xlink" x="0px" y="0px"
	 width="80px" height="81.839px" viewBox="0 0 80 81.839" enable-background="new 0 0 80 81.839" xml:space="preserve">
<rect x="22.818" display="none" fill="#F1F1F1" width="80" height="81.839"/>
<g enable-background="new    ">
	<path fill="#444444" d="M75.708,68.755l-7.149,7.104c-2.628,2.627-6.178,4.038-9.875,4.038c-3.744,0-7.297-1.459-9.925-4.139
		L38.737,65.693c-2.626-2.629-4.037-6.178-4.037-9.875c0-3.844,1.557-7.494,4.281-10.17L34.7,41.369
		c-2.676,2.725-6.276,4.279-10.119,4.279c-3.697,0-7.298-1.455-9.924-4.084L4.54,31.445c-2.676-2.676-4.087-6.178-4.087-9.924
		c0-3.698,1.507-7.297,4.134-9.875l7.151-7.104c2.626-2.627,6.177-4.038,9.876-4.038c3.745,0,7.297,1.459,9.924,4.135L41.56,14.709
		c2.628,2.626,4.034,6.177,4.034,9.875c0,3.843-1.556,7.492-4.277,10.168l4.277,4.281c2.676-2.725,6.278-4.281,10.122-4.281
		c3.697,0,7.298,1.46,9.923,4.086l10.119,10.117c2.675,2.676,4.086,6.181,4.086,9.927C79.845,62.579,78.338,66.176,75.708,68.755z
		 M34.944,21.277l-10.022-10.07c-0.876-0.875-2.092-1.362-3.308-1.362c-1.217,0-2.432,0.487-3.309,1.313l-7.15,7.104
		c-0.876,0.875-1.361,2.042-1.361,3.259c0,1.264,0.486,2.433,1.361,3.308l10.119,10.119c0.876,0.876,2.09,1.313,3.308,1.313
		c1.412,0,2.529-0.485,3.502-1.507c-1.605-1.605-3.502-2.968-3.502-5.449c0-2.578,2.091-4.67,4.669-4.67
		c2.482,0,3.843,1.897,5.45,3.503c1.021-0.972,1.605-2.092,1.605-3.552C36.306,23.369,35.819,22.153,34.944,21.277z M69.143,55.572
		L59.023,45.454c-0.876-0.873-2.092-1.361-3.308-1.361c-1.41,0-2.53,0.536-3.502,1.556c1.605,1.608,3.502,2.971,3.502,5.45
		c0,2.578-2.092,4.67-4.672,4.67c-2.481,0-3.844-1.896-5.45-3.5c-1.018,0.97-1.603,2.089-1.603,3.554
		c0,1.215,0.488,2.432,1.361,3.31L55.376,69.2c0.875,0.875,2.091,1.314,3.308,1.314s2.433-0.439,3.31-1.264l7.149-7.103
		c0.877-0.875,1.363-2.042,1.363-3.263C70.506,57.616,70.02,56.449,69.143,55.572z"/>
</g>
</svg>
