<?xml version="1.0" encoding="utf-8"?>
<!-- Generator: Adobe Illustrator 16.0.0, SVG Export Plug-In . SVG Version: 6.00 Build 0)  -->
<!DOCTYPE svg PUBLIC "-//W3C//DTD SVG 1.1//EN" "http://www.w3.org/Graphics/SVG/1.1/DTD/svg11.dtd">
<svg version="1.1" id="图形" xmlns="http://www.w3.org/2000/svg" xmlns:xlink="http://www.w3.org/1999/xlink" x="0px" y="0px"
	 width="80px" height="81.839px" viewBox="0 0 80 81.839" enable-background="new 0 0 80 81.839" xml:space="preserve">
<rect x="22.818" display="none" fill="#F1F1F1" width="80" height="81.839"/>
<path fill="#444444" d="M6.606,29.456c0.014-0.019,0.025-0.028,0.044-0.039c0,0,0,0.008,0,0.01c1.881-1.642,4.045-3.063,6.538-4.167
	c17.397-7.771,30.357,0.067,33.64,10.802c0.092,0.318,0.23,0.609,0.348,0.914c-0.418-10.904-14.534-23.055-34.223-16.462
	c-2.534,0.842-4.745,1.978-6.717,3.314c-0.36,0.237-0.718,0.478-1.051,0.726c-0.214,0.174-0.431,0.354-0.647,0.555
	c-2.08,1.949-3.297,4.503-2.733,5.702C2.38,32.009,4.523,31.402,6.606,29.456z M14.229,16.834c0.029-0.003,0.043-0.014,0.059-0.014
	l-0.001,0.008c2.386-0.736,4.945-1.147,7.658-1.14c19.044,0.008,27.709,12.465,26.358,23.607c-0.045,0.327-0.039,0.648-0.049,0.977
	c4.033-10.129-3.943-26.991-24.601-29.02c-2.656-0.255-5.145-0.118-7.474,0.29c-0.421,0.074-0.849,0.145-1.264,0.236
	c-0.264,0.07-0.53,0.142-0.811,0.24c-2.688,0.932-4.833,2.763-4.803,4.094C9.336,17.438,11.548,17.76,14.229,16.834z M26.312,8.417
	c0.029,0.008,0.038,0,0.06,0.008l-0.007,0.008c2.48,0.305,4.974,0.974,7.463,2.09c17.387,7.786,20.253,22.708,14.511,32.331
	c-0.175,0.287-0.306,0.581-0.44,0.875C55.689,36.12,55.23,17.455,37.17,7.172c-2.316-1.327-4.636-2.214-6.938-2.794
	c-0.413-0.109-0.831-0.215-1.249-0.297C28.72,4.034,28.437,4,28.145,3.969c-2.838-0.25-5.535,0.545-6.049,1.777
	C21.595,6.974,23.484,8.166,26.312,8.417z M37.436,49.326c-0.266-0.196-0.539-0.36-0.821-0.529
	c6.72,8.572,25.25,10.073,37.324-6.881c1.552-2.188,2.677-4.414,3.491-6.646c0.146-0.408,0.297-0.813,0.427-1.219
	c0.07-0.264,0.139-0.537,0.197-0.82c0.546-2.81,0.04-5.595-1.123-6.228c-1.163-0.637-2.551,1.124-3.099,3.926
	c-0.004,0.021-0.004,0.044-0.006,0.062c0-0.004-0.003-0.01-0.003-0.01c-0.565,2.44-1.492,4.878-2.852,7.236
	C61.445,54.768,46.368,56.071,37.436,49.326z M40.756,5.663c0.02,0.017,0.037,0.022,0.055,0.032c-0.006,0-0.012,0.004-0.012,0.004
	c2.131,1.289,4.154,2.927,5.963,4.958c12.743,14.216,9.319,29.017,0.17,35.462c-0.268,0.187-0.511,0.4-0.763,0.616
	c10.2-3.762,17.344-20.999,5.017-37.772c-1.576-2.165-3.348-3.926-5.217-5.386c-0.334-0.27-0.671-0.544-1.016-0.782
	c-0.228-0.155-0.464-0.302-0.72-0.445C42.674,1.48,40.99,1.005,39.718,1c-0.758-0.003-1.374,0.16-1.731,0.502
	C37.034,2.416,38.276,4.283,40.756,5.663z M66.785,18.044c-0.006-0.003-0.013-0.007-0.013-0.007
	c0.476,2.459,0.608,5.066,0.325,7.771c-2,19.022-15.238,26.368-26.137,23.859c-0.316-0.079-0.64-0.11-0.963-0.156
	c9.611,5.089,27.141-1.115,31.309-21.534c0.541-2.625,0.661-5.119,0.499-7.495c-0.027-0.429-0.054-0.863-0.104-1.282
	c-0.04-0.271-0.084-0.55-0.152-0.837c-0.637-2.785-2.232-5.124-3.552-5.227c-1.317-0.105-1.869,2.067-1.231,4.851
	C66.772,18.01,66.779,18.022,66.785,18.044z M55.102,9.1c0,0-0.015-0.004-0.015-0.008c1.439,2.057,2.608,4.378,3.447,6.972
	c5.882,18.188-3.242,30.313-14.21,32.466c-0.327,0.06-0.629,0.165-0.948,0.248c10.842,0.725,24.346-12.103,19.88-32.457
	c-0.569-2.619-1.471-4.945-2.583-7.05c-0.192-0.379-0.395-0.765-0.608-1.128c-0.143-0.238-0.304-0.472-0.478-0.702
	c-1.711-2.285-4.115-3.768-5.363-3.326c-1.248,0.443-0.865,2.656,0.845,4.937C55.078,9.07,55.089,9.08,55.102,9.1z M18.557,69.373
	h0.012c-0.969-2.303-1.644-4.822-1.928-7.529c-1.983-19.025,9.452-28.976,20.626-28.796c0.326,0.01,0.649-0.023,0.976-0.049
	c-10.456-2.968-26.315,6.754-26.17,27.604c0.022,2.683,0.417,5.142,1.067,7.434c0.12,0.417,0.231,0.831,0.369,1.231
	c0.09,0.263,0.195,0.523,0.325,0.787c1.205,2.587,3.237,4.546,4.552,4.375c1.304-0.175,1.403-2.417,0.197-5.005
	C18.579,69.399,18.569,69.389,18.557,69.373z M70.209,59.582c-0.019,0.01-0.03,0.026-0.055,0.031c0,0,0.007-0.013,0.011-0.015
	c-2.182,1.215-4.607,2.152-7.268,2.715c-18.623,3.972-29.678-6.409-30.661-17.59c-0.028-0.327-0.097-0.638-0.153-0.967
	c-1.848,10.756,9.44,25.585,30.068,23.249c2.643-0.302,5.051-0.948,7.252-1.841c0.399-0.161,0.805-0.315,1.184-0.491
	c0.242-0.123,0.491-0.258,0.738-0.404c2.445-1.477,4.164-3.724,3.86-5.009C74.871,57.967,72.646,58.114,70.209,59.582z
	 M60.14,70.335c-0.024,0-0.042,0.006-0.058,0.008c0-0.002,0.004-0.008,0.004-0.013c-2.483,0.222-5.078,0.085-7.731-0.483
	C33.73,65.864,27.836,51.868,31.465,41.249c0.108-0.31,0.165-0.622,0.248-0.95c-6.04,9.07-1.736,27.232,18.061,33.521
	c2.541,0.819,4.997,1.203,7.364,1.291c0.429,0.018,0.861,0.039,1.281,0.033c0.274-0.016,0.561-0.033,0.848-0.071
	c2.818-0.35,5.306-1.69,5.546-3.002C65.055,70.767,62.963,69.984,60.14,70.335z M4.776,44.052c0,0,0.001,0.006,0.001,0.011
	c1.057-2.275,2.467-4.464,4.287-6.483c12.75-14.21,27.761-12.343,35.105-3.872c0.206,0.245,0.453,0.459,0.687,0.695
	c-4.795-9.791-22.609-15.132-37.931-1.063c-1.976,1.806-3.533,3.749-4.789,5.766c-0.232,0.366-0.463,0.734-0.667,1.1
	c-0.133,0.244-0.25,0.496-0.367,0.768c-0.587,1.391-0.888,2.834-0.893,4.015c-0.006,1.06,0.227,1.905,0.706,2.311
	c1.008,0.86,2.724-0.57,3.833-3.194C4.762,44.085,4.762,44.063,4.776,44.052z M79.471,43.315c-0.808-1.052-2.784-0.01-4.418,2.329
	c-0.019,0.016-0.022,0.032-0.03,0.047c0-0.002-0.005-0.013-0.005-0.015c-1.502,2.003-3.332,3.852-5.531,5.445
	c-15.405,11.235-29.712,6.271-35.142-3.545c-0.16-0.283-0.343-0.543-0.524-0.82c2.66,10.583,18.985,19.515,36.875,8.96
	c2.308-1.359,4.23-2.929,5.882-4.642c0.305-0.313,0.603-0.617,0.878-0.938c0.18-0.213,0.354-0.434,0.519-0.678
	c1.16-1.66,1.831-3.524,1.838-4.847C79.815,44.072,79.706,43.621,79.471,43.315z M40.787,32.639
	c0.294,0.145,0.604,0.239,0.916,0.354c-8.354-6.987-26.789-4.582-35.087,14.528c-1.069,2.454-1.706,4.867-2.045,7.228
	c-0.049,0.427-0.122,0.854-0.161,1.27c-0.017,0.279-0.022,0.558-0.022,0.857c0.048,2.858,1.127,5.472,2.394,5.855
	c1.27,0.373,2.257-1.637,2.213-4.486c0-0.029-0.012-0.046-0.006-0.067c0,0.005,0.008,0.01,0.008,0.014
	c0.051-2.505,0.454-5.077,1.294-7.673C16.178,32.329,30.649,27.909,40.787,32.639z M31.878,75.728
	c-0.011-0.023-0.029-0.029-0.039-0.044h0.01c-1.826-1.71-3.458-3.729-4.813-6.099c-9.516-16.564-3.104-30.331,7.18-34.725
	c0.307-0.126,0.582-0.291,0.873-0.447c-10.759,1.56-21.313,16.928-12.725,35.905c1.099,2.443,2.461,4.539,3.984,6.355
	c0.27,0.333,0.543,0.676,0.831,0.982c0.189,0.195,0.391,0.394,0.616,0.582c1.684,1.472,3.681,2.379,5.007,2.363
	c0.366-0.003,0.679-0.076,0.922-0.229C34.846,79.672,34.028,77.597,31.878,75.728z M46.576,76.046
	c-0.017-0.01-0.038-0.01-0.052-0.021h0.008c-2.353-0.819-4.668-1.999-6.865-3.604c-15.405-11.252-15.121-26.443-7.5-34.663
	c0.217-0.235,0.409-0.493,0.61-0.759c-9.194,5.81-12.613,24.163,2.919,37.997c1.999,1.778,4.078,3.14,6.208,4.185
	c0.384,0.191,0.781,0.391,1.161,0.547c0.254,0.104,0.514,0.202,0.798,0.289c2.721,0.836,5.529,0.622,6.281-0.476
	C50.891,78.444,49.297,76.881,46.576,76.046z"/>
</svg>
