<?xml version="1.0" encoding="utf-8"?>
<!-- Generator: Adobe Illustrator 16.0.0, SVG Export Plug-In . SVG Version: 6.00 Build 0)  -->
<!DOCTYPE svg PUBLIC "-//W3C//DTD SVG 1.1//EN" "http://www.w3.org/Graphics/SVG/1.1/DTD/svg11.dtd">
<svg version="1.1" id="图形" xmlns="http://www.w3.org/2000/svg" xmlns:xlink="http://www.w3.org/1999/xlink" x="0px" y="0px"
	 width="80px" height="81.839px" viewBox="0 0 80 81.839" enable-background="new 0 0 80 81.839" xml:space="preserve">
<rect x="22.818" display="none" fill="#F1F1F1" width="80" height="81.839"/>
<g>
	<path fill="#444444" d="M79.893,65.073c0,3.906-3.196,7.104-7.104,7.104H7.433c-3.906,0-7.103-3.197-7.103-7.104V16.767
		c0-3.906,3.197-7.104,7.103-7.104h65.356c3.904,0,7.104,3.198,7.104,7.104V65.073L79.893,65.073z M74.21,28.132
		c0-0.755-0.665-1.42-1.421-1.42H7.433c-0.755,0-1.42,0.665-1.42,1.42v36.939c0,0.755,0.665,1.42,1.42,1.42h65.356
		c0.754,0,1.418-0.666,1.418-1.42L74.21,28.132L74.21,28.132z M17.378,36.657c0,0.755-0.665,1.42-1.42,1.42h-2.842
		c-0.755,0-1.42-0.665-1.42-1.42v-2.842c0-0.755,0.665-1.42,1.42-1.42h2.842c0.755,0,1.42,0.665,1.42,1.42V36.657z M17.378,48.023
		c0,0.757-0.665,1.421-1.42,1.421h-2.842c-0.755,0-1.42-0.664-1.42-1.421v-2.841c0-0.756,0.665-1.421,1.42-1.421h2.842
		c0.755,0,1.42,0.665,1.42,1.421V48.023z M17.378,59.389c0,0.755-0.665,1.421-1.42,1.421h-2.842c-0.755,0-1.42-0.666-1.42-1.421
		v-2.842c0-0.756,0.665-1.42,1.42-1.42h2.842c0.755,0,1.42,0.664,1.42,1.42V59.389z M68.526,36.657c0,0.755-0.664,1.42-1.421,1.42
		H24.484c-0.755,0-1.42-0.665-1.42-1.42v-2.842c0-0.755,0.665-1.42,1.42-1.42h42.622c0.757,0,1.421,0.665,1.421,1.42V36.657z
		 M68.526,48.023c0,0.757-0.664,1.421-1.421,1.421H24.484c-0.755,0-1.42-0.664-1.42-1.421v-2.841c0-0.756,0.665-1.421,1.42-1.421
		h42.622c0.757,0,1.421,0.665,1.421,1.421V48.023z M68.526,59.389c0,0.755-0.664,1.421-1.421,1.421H24.484
		c-0.755,0-1.42-0.666-1.42-1.421v-2.842c0-0.756,0.665-1.42,1.42-1.42h42.622c0.757,0,1.421,0.664,1.421,1.42V59.389z"/>
</g>
</svg>
