<?xml version="1.0" encoding="utf-8"?>
<!-- Generator: Adobe Illustrator 16.0.0, SVG Export Plug-In . SVG Version: 6.00 Build 0)  -->
<!DOCTYPE svg PUBLIC "-//W3C//DTD SVG 1.1//EN" "http://www.w3.org/Graphics/SVG/1.1/DTD/svg11.dtd">
<svg version="1.1" id="图形" xmlns="http://www.w3.org/2000/svg" xmlns:xlink="http://www.w3.org/1999/xlink" x="0px" y="0px"
	 width="80px" height="81.839px" viewBox="0 0 80 81.839" enable-background="new 0 0 80 81.839" xml:space="preserve">
<rect x="22.818" display="none" fill="#F1F1F1" width="80" height="81.839"/>
<g>
	<path fill="#444444" d="M79.898,58.89v3.982c0,2.199-2.987,3.981-6.641,3.981H6.878c-3.65,0-6.638-1.785-6.638-3.981V58.89h6.638
		h66.38H79.898z M10.862,49.594V20.388c0-3.65,2.987-6.639,6.638-6.639h45.137c3.653,0,6.639,2.987,6.639,6.639v29.206
		c0,3.652-2.985,6.64-6.639,6.64H17.5C13.849,56.234,10.862,53.247,10.862,49.594z M16.173,49.594c0,0.707,0.622,1.33,1.328,1.33
		h45.137c0.706,0,1.329-0.623,1.329-1.33V20.388c0-0.706-0.623-1.328-1.329-1.328H17.5c-0.706,0-1.328,0.622-1.328,1.328V49.594z
		 M44.053,62.208c0-0.375-0.291-0.663-0.667-0.663H36.75c-0.374,0-0.664,0.288-0.664,0.663c0,0.374,0.29,0.665,0.664,0.665h6.636
		C43.762,62.873,44.053,62.582,44.053,62.208z"/>
</g>
</svg>
