<?xml version="1.0" encoding="utf-8"?>
<!-- Generator: Adobe Illustrator 21.0.0, SVG Export Plug-In . SVG Version: 6.00 Build 0)  -->
<svg version="1.1" id="图层_1" xmlns="http://www.w3.org/2000/svg" xmlns:xlink="http://www.w3.org/1999/xlink" x="0px" y="0px"
	 viewBox="0 0 1000 1000" style="enable-background:new 0 0 1000 1000;" xml:space="preserve">
<style type="text/css">
	.st0{fill-rule:evenodd;clip-rule:evenodd;}
</style>
<g>
	<g>
		<path d="M163.9,680.4c28.1-7.5,51-17.1,68-28.4c17.6-11.7,29.6-25.7,35.6-41.7c23-50.3,0.8-109.6-32.9-199.4
			c-15.5-40.3-17.6-82.8-6.2-126.4c7.8-29.7,21.9-60,42-90.2c27.7-39.8,65.4-75.6,106.3-100.9c40.4-25,82.4-38.7,118.4-38.7
			c81.1,0,185.4,75.5,242.6,175.7l0.1,0.1c41.9,69.8,50.1,141,21.9,190.3c-14,24.5-31.4,56.9-41.4,90.3
			c-11.5,38.3-11.3,71.7,0.7,99.1c15.6,38.8,53.8,69.3,110.5,88.3l7.1,2.4l15.1-50.5l-6.7-2.2c-41.2-13.7-69.6-34.4-79.8-58.1
			c-12.7-31.8-2.1-74.5,36.3-147.5c37.9-68.2,30.2-151.7-22.1-241.3c-32.3-55.7-79.2-106.7-132-143.7C594.4,20.4,539,0,491.4,0
			c-46.6,0-96.6,15.2-144.6,44c-48.5,29.1-90.4,69.4-121.2,116.5c-29.6,42.5-48.4,87-56,132.3c-7.6,45-3.8,88.9,11.3,130.4l3.2,8.3
			c27,70.8,46.5,121.9,33.6,151l-0.4,0.9l-0.1,1c-2.8,19.9-22,33.6-68.3,49.1l-6.9,2.3l15.4,46.3L163.9,680.4z"/>
		<path d="M350,269.5l-52.5-15.8v12.7l-7.2,39.6c-3.8,19-3.8,33.8-3.8,52.6c0,74.1,22.6,143.8,63.8,196.2
			c41.5,52.8,96.8,81.9,155.8,81.9c59,0,114.3-29.1,155.8-81.9c41.1-52.4,63.8-122,63.8-196.2c0-41.3-4.6-73.6-15-104.8l-2.2-6.7
			l-51.6,15.5l3.8,7.7c1.7,3.3,2.4,6.8,3.4,11.3c0.7,3.2,1.5,6.7,2.7,10.8c-7.1,17-13.1,23.7-23.3,26.2l-0.6,0.1l-0.5,0.2
			c-47.9,20.5-136.5-14.4-165.3-32.4l-0.4-0.2l-76-35.4l40.2,70.4c1.5,4.5,3.5,8.7,5.4,12.8c0.3,0.6,0.6,1.2,0.8,1.8
			c-20.9-7.5-61.2-22.9-86.7-38.1c-3.6-3.3-8.9-6.3-14.8-9.3c0.7-3.4,1.8-8.3,2.8-12.4L350,269.5z M333.9,362.7l2-15.9
			c13,9,22.4,14.8,33.1,19.9c12,5.7,25.3,10.4,49.5,18.9c4.8,1.7,10,3.5,15.6,5.5l0.1,0c23.2,7.7,41.2,4.8,55-9.1
			c6.7-6.7,8.6-15.2,9.2-23.8c18.6,7.1,43.9,15.1,71.6,19c34.8,4.9,64.7,2.1,89-8.3l0.4-0.2c1.3-0.6,2.8-1.3,4.3-2
			c2.3-1,4.7-2.2,7.2-3.4c-0.2,59.9-18.2,116.6-50.7,159.8c-15.7,20.8-33.7,37.1-53.7,48.6c-20.5,11.7-42,17.6-64,17.6
			c-45.1,0-87.4-23.5-119.1-66.2C351.5,480.3,334,423.4,333.9,362.7z"/>
	</g>
	<path class="st0" d="M838.3,762.3l-0.1-0.2c-12.7-22.2-44.2-50.4-93.7-83.8c-36.4-24.6-69.7-43.2-70.1-43.3l-6.7-3.7l-3.3,6.9
		c-0.2,0.3-16.5,33.7-44.5,66.9c-45.9,54.5-87.3,67.1-113.9,68.1c-1.1,0-2.3,0-3.4,0c-1.1,0-2.3,0-3.4,0
		c-26.7-1-68.1-13.6-113.9-68.1c-28-33.2-44.4-66.6-44.5-66.9l-3.3-6.9l-6.7,3.7c-0.3,0.2-33.6,18.7-70.1,43.3
		c-49.5,33.4-81,61.6-93.7,83.8l-0.1,0.2c-30,56.3-17.2,110.9-16.8,114.3c77.8,74.6,206.7,123.4,352.6,123.4S777.3,951.2,855,876.6
		C855.5,873.2,868.3,818.6,838.3,762.3z"/>
</g>
</svg>
