<?xml version="1.0" encoding="utf-8"?>
<!-- Generator: Adobe Illustrator 16.0.0, SVG Export Plug-In . SVG Version: 6.00 Build 0)  -->
<!DOCTYPE svg PUBLIC "-//W3C//DTD SVG 1.1//EN" "http://www.w3.org/Graphics/SVG/1.1/DTD/svg11.dtd">
<svg version="1.1" id="图形" xmlns="http://www.w3.org/2000/svg" xmlns:xlink="http://www.w3.org/1999/xlink" x="0px" y="0px"
	 width="80px" height="81.839px" viewBox="0 0 80 81.839" enable-background="new 0 0 80 81.839" xml:space="preserve">
<rect x="22.818" display="none" fill="#F1F1F1" width="80" height="81.839"/>
<g>
	<g enable-background="new    ">
		<path fill="#444444" d="M36.333,39.882c10.815,0,19.589-8.774,19.589-19.589S47.148,0.707,36.333,0.707
			c-10.814,0-19.587,8.776-19.587,19.591C16.746,31.112,25.52,39.882,36.333,39.882z"/>
		<path fill="#444444" d="M44.591,54.473c4.196-8.511,14.774-13.121,24.171-10.992c-3.429-5.497-10.727-6.864-14.166-6.864
			c-1.583,0-8.264,7.091-18.261,7.091c-9.998,0-16.681-7.091-18.261-7.091c-14.946,0-17.65,17.699-17.65,29.229
			c0,8.264,5.509,13.21,13.62,13.21H51.39C42.995,74.746,40.689,61.978,44.591,54.473z"/>
	</g>
	<path fill="#444444" d="M63.65,79.058c-8.799,0-15.928-7.13-15.928-15.929c0-8.796,7.129-15.929,15.928-15.929
		c8.795,0,15.926,7.133,15.926,15.929C79.58,71.928,72.448,79.058,63.65,79.058z M72.295,68.462l-4.404-3.615
		c-0.5-0.46-1.185-0.604-1.797-0.441c1.9-2.819,1.507-6.691-1.078-9.063c-2.842-2.608-7.273-2.413-9.884,0.427
		c-1.266,1.379-1.916,3.162-1.83,5.036c0.081,1.867,0.883,3.59,2.257,4.854c1.379,1.261,3.162,1.912,5.035,1.831
		c1.52-0.066,2.946-0.609,4.104-1.551c-0.108,0.62,0.092,1.284,0.595,1.741l4.401,3.615c0.785,0.722,2.001,0.668,2.721-0.115
		C73.131,70.396,73.079,69.179,72.295,68.462z M57.459,63.583c-1.699-1.557-1.814-4.211-0.258-5.911
		c1.563-1.701,4.218-1.813,5.914-0.255c0.823,0.753,1.303,1.784,1.353,2.906c0.045,1.114-0.341,2.185-1.094,3.008
		C61.813,65.034,59.157,65.144,57.459,63.583z"/>
</g>
</svg>
