<?xml version="1.0" encoding="utf-8"?>
<!-- Generator: Adobe Illustrator 16.0.0, SVG Export Plug-In . SVG Version: 6.00 Build 0)  -->
<!DOCTYPE svg PUBLIC "-//W3C//DTD SVG 1.1//EN" "http://www.w3.org/Graphics/SVG/1.1/DTD/svg11.dtd">
<svg version="1.1" id="图形" xmlns="http://www.w3.org/2000/svg" xmlns:xlink="http://www.w3.org/1999/xlink" x="0px" y="0px"
	 width="80px" height="81.839px" viewBox="0 0 80 81.839" enable-background="new 0 0 80 81.839" xml:space="preserve">
<rect x="22.818" display="none" fill="#F1F1F1" width="80" height="81.839"/>
<g>
	<path fill="#444444" d="M78.977,34.575C76.136,48.388,67.251,57.36,54.902,63.492C48.907,66.513,42.2,68.29,35.447,68.29
		c-4.263,0-8.66-0.711-12.703-2.089c-2.131-0.712-6.396-3.509-8.173-3.509c-2.221,0-4.887,9.061-8.749,9.061
		c-2.8,0-3.645-1.375-4.842-3.418c-0.399-0.756-0.711-1.021-0.711-1.955c0-4.618,8.795-8.217,8.795-10.794
		c0-0.4-1.154-2.753-1.333-3.643c-0.266-1.51-0.4-3.064-0.4-4.62c0-14.125,11.236-24.207,23.853-28.382
		c9.106-3.021,28.474,0.49,34.647-5.375c2.441-2.265,3.641-4.353,7.372-4.353c5.019,0,6.663,13.014,6.663,16.79
		C79.867,28.845,79.555,31.733,78.977,34.575z M54.28,31.956c-15.72,0-25.849,6.574-36.111,17.899
		c-0.533,0.578-0.843,1.199-0.843,1.997c0,1.557,1.288,2.842,2.842,2.842c0.799,0,1.421-0.313,1.999-0.843
		c2.177-1.952,4.131-4.086,6.262-6.083c8.041-7.24,14.925-10.13,25.851-10.13c1.553,0,2.846-1.288,2.846-2.843
		C57.126,33.24,55.836,31.956,54.28,31.956z"/>
</g>
</svg>
