<?xml version="1.0" encoding="utf-8"?>
<!-- Generator: Adobe Illustrator 16.0.0, SVG Export Plug-In . SVG Version: 6.00 Build 0)  -->
<!DOCTYPE svg PUBLIC "-//W3C//DTD SVG 1.1//EN" "http://www.w3.org/Graphics/SVG/1.1/DTD/svg11.dtd">
<svg version="1.1" id="图形" xmlns="http://www.w3.org/2000/svg" xmlns:xlink="http://www.w3.org/1999/xlink" x="0px" y="0px"
	 width="80px" height="81.839px" viewBox="0 0 80 81.839" enable-background="new 0 0 80 81.839" xml:space="preserve">
<rect x="22.818" display="none" fill="#F1F1F1" width="80" height="81.839"/>
<g>
	<path fill="#444444" d="M74.41,76.152c0,3.071-2.492,5.563-5.564,5.563H13.223c-3.071,0-5.563-2.491-5.563-5.563V42.777
		c0-3.07,2.492-5.563,5.563-5.563h1.854V26.089c0-14.253,11.705-25.958,25.958-25.958c14.254,0,25.959,11.705,25.959,25.958v11.125
		h1.853c3.072,0,5.564,2.492,5.564,5.563V76.152z M55.868,37.214V26.089c0-8.169-6.663-14.833-14.834-14.833
		c-8.17,0-14.833,6.663-14.833,14.833v11.125H55.868z"/>
</g>
</svg>
