<?xml version="1.0" encoding="utf-8"?>
<!-- Generator: Adobe Illustrator 16.0.0, SVG Export Plug-In . SVG Version: 6.00 Build 0)  -->
<!DOCTYPE svg PUBLIC "-//W3C//DTD SVG 1.1//EN" "http://www.w3.org/Graphics/SVG/1.1/DTD/svg11.dtd">
<svg version="1.1" id="图形" xmlns="http://www.w3.org/2000/svg" xmlns:xlink="http://www.w3.org/1999/xlink" x="0px" y="0px"
	 width="80px" height="81.839px" viewBox="0 0 80 81.839" enable-background="new 0 0 80 81.839" xml:space="preserve">
<rect x="22.818" display="none" fill="#F1F1F1" width="80" height="81.839"/>
<g>
	<path fill="#444444" d="M68.105,10.347H11.559c-3.9,0-7.068,3.168-7.068,7.068v3.541V52.05c0,4.29,3.168,7.776,7.068,7.776h56.547
		c3.896,0,7.068-3.486,7.068-7.776V20.957v-3.541C75.174,13.516,72.002,10.347,68.105,10.347z M62.552,39.045l-5.436-5.433
		L41.047,49.679l-9.442-9.443L17.705,54.148l-6.185-6.188l20.084-20.097l9.442,9.471l9.896-9.902l-5.844-5.84l23.044-5.563
		L62.552,39.045z"/>
	<path fill="#444444" d="M31.88,8.67h15.902c1.302,0,2.357-1.056,2.357-2.357c0-1.301-1.056-2.357-2.357-2.357h-5.653
		c0.014-0.1,0.063-0.19,0.063-0.294V2.485c0-1.194-1.058-2.161-2.364-2.161c-1.303,0-2.361,0.966-2.361,2.161v1.176
		c0,0.104,0.05,0.194,0.063,0.294H31.88c-1.301,0-2.357,1.056-2.357,2.357C29.523,7.614,30.579,8.67,31.88,8.67z"/>
	<path fill="#444444" d="M72.752,61.601H6.912c-1.337,0-2.422,1.353-2.422,3.021c0,1.666,1.084,3.019,2.422,3.019h17.234
		L10.095,81.694h9.996L34.144,67.64h2.154v14.054h7.068V67.64h2.153l14.054,14.054h9.995L55.518,67.64h17.234
		c1.338,0,2.422-1.353,2.422-3.019C75.174,62.954,74.09,61.601,72.752,61.601z"/>
</g>
</svg>
