<?xml version="1.0" encoding="utf-8"?>
<!-- Generator: Adobe Illustrator 16.0.0, SVG Export Plug-In . SVG Version: 6.00 Build 0)  -->
<!DOCTYPE svg PUBLIC "-//W3C//DTD SVG 1.1//EN" "http://www.w3.org/Graphics/SVG/1.1/DTD/svg11.dtd">
<svg version="1.1" id="图形" xmlns="http://www.w3.org/2000/svg" xmlns:xlink="http://www.w3.org/1999/xlink" x="0px" y="0px"
	 width="80px" height="81.839px" viewBox="0 0 80 81.839" enable-background="new 0 0 80 81.839" xml:space="preserve">
<rect x="22.818" display="none" fill="#F1F1F1" width="80" height="81.839"/>
<path fill="#444444" d="M39.938,5.458H71.37c2.337,0,4.46,0.957,5.995,2.493c1.537,1.536,2.493,3.656,2.493,5.994V31.58
	c0,2.338-0.956,4.458-2.493,6c-1.535,1.536-3.658,2.49-5.995,2.49H53.646l-8.813,7.728l-0.78-0.478
	c-0.709-0.597-1.452-1.154-2.234-1.679l1.42-5.573h-0.83c0.637-1.191,1.144-2.459,1.49-3.792h1.776h2.441l-0.608,2.359l-0.578,2.291
	l4.765-4.178l0.544-0.473h0.702h18.428c1.286,0,2.464-0.532,3.315-1.384c0.853-0.852,1.383-2.027,1.383-3.315v-17.63
	c0-1.284-0.53-2.461-1.383-3.315c-0.85-0.853-2.029-1.378-3.315-1.378H39.938c-1.292,0-2.466,0.526-3.318,1.378
	c-0.85,0.853-1.382,2.03-1.382,3.315v2.496c-1.188-0.635-2.458-1.139-3.792-1.486v-1.01c0-2.337,0.955-4.458,2.493-5.994
	C35.476,6.414,37.6,5.458,39.938,5.458L39.938,5.458z M70.11,19.644c-1.953,0-3.535,1.581-3.535,3.537
	c0,1.951,1.582,3.537,3.535,3.537c1.95,0,3.534-1.586,3.534-3.537C73.645,21.223,72.061,19.644,70.11,19.644L70.11,19.644z
	 M58.904,19.644c-1.948,0-3.535,1.581-3.535,3.537c0,1.951,1.587,3.537,3.535,3.537c1.953,0,3.537-1.586,3.537-3.537
	C62.441,21.223,60.861,19.644,58.904,19.644L58.904,19.644z M47.948,19.644c-1.954,0-3.537,1.581-3.537,3.537
	c0,1.951,1.583,3.537,3.537,3.537c1.953,0,3.536-1.586,3.536-3.537C51.484,21.223,49.901,19.644,47.948,19.644L47.948,19.644z
	 M25.47,19.466c-7.966,0-14.425,6.458-14.425,14.428c0,7.963,6.459,14.421,14.425,14.421c7.969,0,14.428-6.455,14.428-14.421
	C39.898,25.926,33.439,19.466,25.47,19.466L25.47,19.466z M40.447,77.093H9.69c-5.596,0-9.397-3.416-9.397-9.113
	c0-7.958,1.865-20.17,12.178-20.17c1.091,0,5.699,4.893,12.597,4.893c6.9,0,11.508-4.893,12.599-4.893
	c10.313,0,12.179,12.214,12.179,20.17C49.846,73.677,46.045,77.093,40.447,77.093z"/>
</svg>
