<?xml version="1.0" encoding="utf-8"?>
<!-- Generator: Adobe Illustrator 16.0.0, SVG Export Plug-In . SVG Version: 6.00 Build 0)  -->
<!DOCTYPE svg PUBLIC "-//W3C//DTD SVG 1.1//EN" "http://www.w3.org/Graphics/SVG/1.1/DTD/svg11.dtd">
<svg version="1.1" id="图形" xmlns="http://www.w3.org/2000/svg" xmlns:xlink="http://www.w3.org/1999/xlink" x="0px" y="0px"
	 width="80px" height="81.839px" viewBox="0 0 80 81.839" enable-background="new 0 0 80 81.839" xml:space="preserve">
<rect x="22.818" display="none" fill="#F1F1F1" width="80" height="81.839"/>
<g>
	<path fill="#444444" d="M9.125,74.286L9.053,6.613c0-0.969,0.79-1.757,1.758-1.757H46.5v18.405c0,0.971,1.076,2.159,2.049,2.159
		h17.576v20.688h5.271V23.261c0-0.465-0.186-0.913-0.515-1.243L69.5,20.637v-0.218h-0.218L49.791,0.929
		c-0.33-0.33-0.775-0.515-1.242-0.515H9.883c-2.907,0-5.272,2.365-5.272,5.272v70.298c0,2.907,2.365,5.273,5.272,5.273h35.15v-5.213
		h-34.15C9.915,76.044,9.125,75.256,9.125,74.286z M51.5,20.419V9.164l11.104,11.256H51.5z"/>
	<path fill="#444444" d="M16.913,31.419h21.089c0.973,0,1.758-0.664,1.758-2c0-1.335-0.785-2-1.758-2H16.913
		c-0.971,0-1.758,0.665-1.758,2C15.155,30.755,15.942,31.419,16.913,31.419z"/>
	<path fill="#444444" d="M60.85,39.419c0-1.489-0.786-2-1.757-2h-42.18c-0.971,0-1.758,0.511-1.758,2c0,1.491,0.787,2,1.758,2h42.18
		C60.063,41.419,60.85,40.91,60.85,39.419z"/>
	<path fill="#444444" d="M41.519,48.419H16.913c-0.971,0-1.758,0.979-1.758,2c0,1.022,0.787,2,1.758,2h24.605
		c0.971,0,1.757-0.978,1.757-2C43.275,49.398,42.489,48.419,41.519,48.419z"/>
	<path fill="#444444" d="M41.519,59.419H16.913c-0.971,0-1.758,1.031-1.758,2c0,0.971,0.787,2,1.758,2h24.605
		c0.971,0,1.757-1.029,1.757-2C43.275,60.451,42.489,59.419,41.519,59.419z"/>
	<path fill="#444444" d="M77.909,61.797l-9.15-9.147c-0.686-0.686-1.799-0.686-2.485,0.001L51.98,66.944
		c-0.22,0.22-0.377,0.494-0.457,0.796l-2.553,9.701c-0.268,0.885-0.115,2.482,0.181,3.034c0.255,0.476,0.771,1.085,1.519,1.171
		c0.147,0,1.549,0.193,2.445-0.056l9.7-2.554c0.302-0.08,0.577-0.238,0.797-0.458l14.297-14.296
		C78.596,63.596,78.596,62.485,77.909,61.797z M54.058,73.92l2.673,2.558l-3.595,0.945L54.058,73.92z M61.245,73.977l-4.765-4.562
		l11.036-11.037l4.665,4.661L61.245,73.977z"/>
</g>
</svg>
