<?xml version="1.0" encoding="utf-8"?>
<!-- Generator: Adobe Illustrator 16.0.0, SVG Export Plug-In . SVG Version: 6.00 Build 0)  -->
<!DOCTYPE svg PUBLIC "-//W3C//DTD SVG 1.1//EN" "http://www.w3.org/Graphics/SVG/1.1/DTD/svg11.dtd">
<svg version="1.1" id="图形" xmlns="http://www.w3.org/2000/svg" xmlns:xlink="http://www.w3.org/1999/xlink" x="0px" y="0px"
	 width="174.169px" height="81.839px" viewBox="-46.419 0 174.169 81.839" enable-background="new -46.419 0 174.169 81.839"
	 xml:space="preserve">
<rect x="22.818" display="none" fill="#F1F1F1" width="80" height="81.839"/>
<g>
	<path fill="#444444" d="M127.324,70.908c0,5.829-6.188,10.555-13.818,10.555H-32.175c-7.632,0-13.818-4.726-13.818-10.555V10.93
		c0-5.829,6.186-10.554,13.818-10.554h145.681c7.631,0,13.818,4.725,13.818,10.554V70.908z M118.946,16.568
		c0-4.685-5.589-8.482-12.482-8.482H-25.134c-6.894,0-12.482,3.797-12.482,8.482v48.203c0,4.685,5.588,8.482,12.482,8.482h131.598
		c6.894,0,12.482-3.798,12.482-8.482V16.568z"/>
	<g>
		<path fill="#444444" d="M-28.008,61.125v-43.1h13.026l7.818,29.397l7.732-29.397h13.055v43.102H5.536v-33.93l-8.554,33.928h-8.379
			l-8.526-33.928v33.928H-28.008z"/>
		<path fill="#444444" d="M20.297,45.072c0-2.745,0.675-5.399,2.026-7.967c1.353-2.569,3.27-4.527,5.747-5.881
			c2.481-1.354,5.248-2.029,8.307-2.029c4.725,0,8.593,1.533,11.61,4.604c3.02,3.066,4.528,6.943,4.528,11.629
			c0,4.721-1.523,8.638-4.571,11.743c-3.048,3.106-6.883,4.66-11.509,4.66c-2.862,0-5.59-0.651-8.188-1.94
			c-2.598-1.295-4.572-3.192-5.925-5.688C20.969,51.703,20.297,48.659,20.297,45.072z M28.762,45.511
			c0,3.102,0.734,5.469,2.203,7.116c1.472,1.646,3.285,2.472,5.44,2.472c2.153,0,3.962-0.827,5.425-2.472
			c1.46-1.647,2.19-4.034,2.19-7.174c0-3.058-0.73-5.409-2.19-7.058c-1.463-1.646-3.271-2.469-5.425-2.469
			c-2.155,0-3.969,0.822-5.44,2.469C29.496,40.044,28.762,42.415,28.762,45.511z"/>
		<path fill="#444444" d="M66.89,61.125h-8.261V29.902h7.673v4.438c1.314-2.096,2.495-3.476,3.544-4.145
			c1.05-0.665,2.235-1.002,3.572-1.002c1.877,0,3.693,0.52,5.435,1.561l-2.551,7.199c-1.396-0.9-2.69-1.35-3.883-1.35
			c-1.16,0-2.136,0.32-2.938,0.956c-0.805,0.635-1.437,1.787-1.897,3.455c-0.459,1.665-0.693,5.156-0.693,10.467V61.125
			L66.89,61.125z"/>
		<path fill="#444444" d="M100.491,51.191l8.237,1.377c-1.063,3.021-2.735,5.317-5.013,6.894c-2.288,1.578-5.143,2.369-8.571,2.369
			c-5.431,0-9.452-1.773-12.057-5.321c-2.057-2.84-3.087-6.427-3.087-10.76c0-5.176,1.355-9.227,4.057-12.158
			c2.707-2.93,6.126-4.396,10.26-4.396c4.646,0,8.309,1.533,10.995,4.604c2.69,3.066,3.971,7.766,3.854,14.1H88.472
			c0.058,2.449,0.729,4.354,1.996,5.717c1.275,1.364,2.861,2.043,4.764,2.043c1.292,0,2.38-0.35,3.266-1.061
			C99.379,53.893,100.044,52.756,100.491,51.191z M100.967,42.835c-0.063-2.39-0.676-4.207-1.853-5.453
			c-1.176-1.244-2.607-1.867-4.291-1.867c-1.804,0-3.296,0.656-4.473,1.971c-1.175,1.313-1.754,3.098-1.734,5.35H100.967z"/>
	</g>
</g>
</svg>
