<?xml version="1.0" encoding="utf-8"?>
<!-- Generator: Adobe Illustrator 16.0.0, SVG Export Plug-In . SVG Version: 6.00 Build 0)  -->
<!DOCTYPE svg PUBLIC "-//W3C//DTD SVG 1.1//EN" "http://www.w3.org/Graphics/SVG/1.1/DTD/svg11.dtd">
<svg version="1.1" id="图形" xmlns="http://www.w3.org/2000/svg" xmlns:xlink="http://www.w3.org/1999/xlink" x="0px" y="0px"
	 width="80px" height="81.839px" viewBox="0 0 80 81.839" enable-background="new 0 0 80 81.839" xml:space="preserve">
<rect x="22.818" display="none" fill="#F1F1F1" width="80" height="81.839"/>
<g>
	<path fill="#444444" d="M79.688,64.369c0,8.963-7.271,16.232-16.233,16.232H16.558c-8.962,0-16.233-7.27-16.233-16.232V17.473
		c0-8.962,7.271-16.234,16.233-16.234h46.896c8.962,0,16.233,7.271,16.233,16.234V64.369z M72.473,17.473
		c0-4.96-4.058-9.018-9.019-9.018H16.558c-4.96,0-9.018,4.058-9.018,9.018v46.896c0,4.959,4.058,9.018,9.018,9.018h46.896
		c4.961,0,9.019-4.059,9.019-9.018V17.473z M65.256,42.724c0,1.014-0.787,1.803-1.802,1.803H16.558
		c-1.014,0-1.804-0.789-1.804-1.803v-3.609c0-1.014,0.79-1.803,1.804-1.803h46.896c1.015,0,1.802,0.789,1.802,1.803V42.724z"/>
</g>
</svg>
