<?xml version="1.0" encoding="utf-8"?>
<!-- Generator: Adobe Illustrator 16.0.0, SVG Export Plug-In . SVG Version: 6.00 Build 0)  -->
<!DOCTYPE svg PUBLIC "-//W3C//DTD SVG 1.1//EN" "http://www.w3.org/Graphics/SVG/1.1/DTD/svg11.dtd">
<svg version="1.1" id="图形" xmlns="http://www.w3.org/2000/svg" xmlns:xlink="http://www.w3.org/1999/xlink" x="0px" y="0px"
	 width="80px" height="81.839px" viewBox="0 0 80 81.839" enable-background="new 0 0 80 81.839" xml:space="preserve">
<rect x="22.818" display="none" fill="#F1F1F1" width="80" height="81.839"/>
<path fill="#444444" d="M15.988,6.856h48.026c8.619,0,15.661,7.047,15.661,15.659v21.923c0,8.616-7.046,15.662-15.661,15.662h-2.367
	c0,0-0.87,4.475,1.578,12.891c0.138,0.462,0.23,0.879-0.714,0.862C58.533,73.612,50.588,60.1,50.588,60.1h-34.6
	c-8.615,0-15.664-7.052-15.664-15.662V22.515C0.324,13.903,7.375,6.856,15.988,6.856L15.988,6.856z M19.344,27.276
	c-3.06,0-5.54,2.475-5.54,5.536c0,3.061,2.479,5.537,5.54,5.537c3.057,0,5.537-2.475,5.537-5.537S22.4,27.276,19.344,27.276
	L19.344,27.276z M60.305,27.276c-3.059,0-5.542,2.475-5.542,5.536c0,3.061,2.479,5.537,5.542,5.537c3.058,0,5.537-2.475,5.537-5.537
	S63.365,27.276,60.305,27.276L60.305,27.276z M39.298,27.276c-3.057,0-5.541,2.475-5.541,5.536c0,3.061,2.484,5.537,5.541,5.537
	c3.057,0,5.539-2.475,5.539-5.537S42.355,27.276,39.298,27.276z"/>
</svg>
