<?xml version="1.0" encoding="utf-8"?>
<!-- Generator: Adobe Illustrator 16.0.0, SVG Export Plug-In . SVG Version: 6.00 Build 0)  -->
<!DOCTYPE svg PUBLIC "-//W3C//DTD SVG 1.1//EN" "http://www.w3.org/Graphics/SVG/1.1/DTD/svg11.dtd">
<svg version="1.1" id="图形" xmlns="http://www.w3.org/2000/svg" xmlns:xlink="http://www.w3.org/1999/xlink" x="0px" y="0px"
	 width="80px" height="81.839px" viewBox="0 0 80 81.839" enable-background="new 0 0 80 81.839" xml:space="preserve">
<rect x="22.818" display="none" fill="#F1F1F1" width="80" height="81.839"/>
<g enable-background="new    ">
	<path fill="#444444" d="M66.934,36.848l-19.24,40.919c-1.11,2.324-3.544,3.754-6.081,3.754c-2.539,0-4.971-1.43-6.028-3.754
		L16.287,36.848c-1.374-2.908-1.744-6.237-1.744-9.463c0-14.96,12.107-27.067,27.069-27.067c14.96,0,27.067,12.107,27.067,27.067
		C68.68,30.61,68.309,33.941,66.934,36.848z M41.612,13.852c-7.455,0-13.535,6.079-13.535,13.534c0,7.455,6.08,13.535,13.535,13.535
		c7.453,0,13.534-6.08,13.534-13.535C55.146,19.931,49.065,13.852,41.612,13.852z"/>
</g>
</svg>
