<?xml version="1.0" encoding="utf-8"?>
<!-- Generator: Adobe Illustrator 21.0.0, SVG Export Plug-In . SVG Version: 6.00 Build 0)  -->
<svg version="1.1" id="图层_1" xmlns="http://www.w3.org/2000/svg" xmlns:xlink="http://www.w3.org/1999/xlink" x="0px" y="0px"
	 viewBox="0 0 1000 1000" style="enable-background:new 0 0 1000 1000;" xml:space="preserve">
<g>
	<path d="M274.9,468.6c3.8,0,7.6-0.3,11.3-0.9c12.2,36.9,30,67.2,53.1,90.6c39.1,39.5,93.5,59.5,161.7,59.5
		c68.2,0,122.6-20,161.7-59.5c23-23.2,40.7-53.4,52.9-90c2.3,0.2,4.6,0.3,7,0.3c21,0,40.6-9.1,55-25.7c13.7-15.6,21.2-36.2,21.2-58
		c0-21.8-7.5-42.4-21.2-58c-3.9-4.5-8.2-8.4-12.8-11.8c6.9-34.9,12.2-82.9,3.5-128.8c-10.1-53.2-37.4-91.6-79.1-111.3
		c-8.3-9.1-29.4-29.7-63.5-47c-25.6-13-53.5-21.5-83-25.5c-36.4-4.9-75.2-2.7-115.2,6.5c-81.2,18.7-134.8,53.2-163.7,105.6
		c-26.4,47.8-27.4,102.8-24.9,150.2c0.8,15.9,2.2,30.7,4,44.2c-8.3,4.3-16,10.3-22.6,17.8c-13.7,15.6-21.2,36.2-21.2,58
		c0,21.9,7.5,42.6,21.1,58.2C234.6,459.5,254,468.6,274.9,468.6z M683.9,409.1c-0.9,4.9-1.8,9.7-2.8,14.4c-2,9.1-4.3,17.8-6.9,26.1
		c-10,32-24.6,57.7-43.5,76.8c-14.3,14.4-31.5,25.6-51.3,33.1c-22.4,8.6-48.7,13-78.3,13c-29.6,0-56-4.4-78.3-13
		c-19.7-7.6-37-18.7-51.3-33.1c-19.6-19.8-34.5-46.7-44.6-80.2c-2.7-8.9-5-18.3-7-28.1c-0.6-3-1.2-5.9-1.7-9
		c-0.1-0.5-0.2-1.1-0.3-1.6c0.9-8.8,3.2-30.1,5.3-49c1.5-13.8,2.9-26.2,3.6-31.3c0.1-0.7,0.3-1.8,0.5-3.1
		c1.2-6.3,4.8-18.3,14.8-28.8c15.5-16.3,41.2-22.9,76.2-19.4c12.7,1.2,25.1,1.8,37.1,1.8c63.4,0,116.4-15.2,141.8-24
		c13.4,15.2,35.9,38.2,55.1,45.2c5.2,2,12,9.6,18.1,25.1c2.8,7.2,5.5,16,7.9,26.7c0,0,0,0,0,0.1c5.3,24.2,6.5,47.4,6.7,52.1
		C684.6,405,684.2,407,683.9,409.1z M728.8,414.9c6.2-7.3,10.8-17.3,14.8-26.9c2.5-5.9,4.9-12.4,7.2-19.3c1.8,4.9,2.9,10.4,2.9,16.2
		c0,19.2-11.4,35.2-26.3,38c0.4-2,0.7-4,1.1-6C728.6,416.2,728.7,415.6,728.8,414.9z M287.2,183.5c3-16.4,8.1-32.4,16.1-47
		c22.4-40.4,66.3-67.7,134.3-83.4c61.8-14.2,117.6-9.5,165.7,14.2c35.2,17.3,53.4,39.1,54.4,40.2c2.4,3,5.3,5.3,8.8,6.8
		c28.5,12.2,46.7,35.5,55.5,71.4c1.6,6.6,2.9,13.7,3.8,21.1c3.4,27.6,2,60.2-4.3,94.4c-0.6,3-1.2,6.1-1.8,9.2
		c-0.8,3.8-1.6,7.4-2.4,11c-1.1-3.5-2.2-6.9-3.4-10.1c-1.1-3.1-2.3-6.1-3.6-9c-5.4-12.4-11.8-22.5-19.2-30.2
		c-6.9-7.2-14.6-12.4-23.2-15.6c0,0-0.1,0-0.1,0c-9.4-3.4-31.4-25.3-45.9-43.6c-4.4-5.5-11-8.6-17.7-8.6c-3,0-6.1,0.6-9,1.9
		c-0.8,0.3-79.6,33.9-172.5,24.8c-26.1-2.6-49.4-0.6-69.2,5.9c-16.5,5.4-30.7,13.9-42.2,25.3c-0.7,0.7-1.3,1.3-2,2
		c-10.4,10.9-16.9,22.7-21,33c-0.3,0.9-0.7,1.7-1,2.6c-1.5-11.4-2.6-23.8-3.3-37.2c0,0,0-0.1,0-0.1
		C282.7,237.3,282.4,209.7,287.2,183.5z M252.6,358.9c8.1,31.5,17.3,51.1,21.2,58.5c0.4,2,0.7,4,1.1,6c-16.8,0-30.5-17.3-30.5-38.4
		C244.4,374.9,247.5,365.7,252.6,358.9z"/>
	<path d="M853.6,876.6L853.6,876.6c-6.5-56.7-28.5-137.7-35.4-153.8c-9.2-21.5-199.4-85.9-199.4-85.9
		c34.5,105.7-73.7,239.7-73.7,239.7l-24.5-166.1l12.3-9.2l-12.3-21.5h-19.5h-0.3h-19.5l-12.3,21.5l12.3,9.2l-24.5,166.1
		c0,0-108.1-134-73.7-239.7c0,0-190.2,64.4-199.4,85.9c-6.9,16-30.8,86.6-37.4,143.1c-0.4,3.3,2,10.7,2,10.7l0,0
		C225.4,950.3,352.2,998.9,496,1000c1,0,2,0,3,0c0.3,0,0.5,0,0.8,0c0.4,0,0.8,0,1.2,0C646.9,1000,775.8,951.2,853.6,876.6z"/>
</g>
</svg>
