<?xml version="1.0" encoding="utf-8"?>
<!-- Generator: Adobe Illustrator 21.0.0, SVG Export Plug-In . SVG Version: 6.00 Build 0)  -->
<svg version="1.1" id="图层_1" xmlns="http://www.w3.org/2000/svg" xmlns:xlink="http://www.w3.org/1999/xlink" x="0px" y="0px"
	 viewBox="0 0 1000 1000" style="enable-background:new 0 0 1000 1000;" xml:space="preserve">
<style type="text/css">
	.st0{fill-rule:evenodd;clip-rule:evenodd;}
</style>
<g>
	<path class="st0" d="M945.5,579.4H809.1c0-30.1-24.4-54.5-54.5-54.5H536.5c-30.1,0-54.5,24.4-54.5,54.5v54.5v81.8v218.1
		c0,30.1,24.4,54.5,54.5,54.5h409c30.1,0,54.5-24.4,54.5-54.5V633.9C1000,603.8,975.6,579.4,945.5,579.4L945.5,579.4z"/>
	<path class="st0" d="M264.2,988.1c0.1,0.1,0.2,0.2,0.3,0.2C264.2,986.6,264.2,987.3,264.2,988.1L264.2,988.1z"/>
	<path class="st0" d="M264.3,988.4c0.1-0.2,0.1-0.3,0.2-0.6c-0.1,0.1-0.2,0.1-0.3,0.1C264.2,988.1,264.3,988.2,264.3,988.4
		L264.3,988.4z"/>
	<path d="M779.4,225.9c-17.7-41.8-43-79.3-75.2-111.5C672,82.2,634.5,56.9,592.7,39.2c-43.3-18.3-89.2-27.6-136.6-27.6
		s-93.3,9.3-136.6,27.6c-41.8,17.7-79.3,43-111.5,75.2c-32.2,32.2-57.5,69.7-75.2,111.5c-18.3,43.3-27.6,89.2-27.6,136.5
		c0,61.7,16.2,119.8,48.1,172.6c25.6,42.3,61.6,81.7,107.1,117.3C207,679.2,160,711.4,120.6,748.4C73.9,792.1,37.4,843,11.9,899.5
		c-0.8,1.4-1.6,3.3-2.7,6c-0.9,2.2-2.1,5-3.2,7.4l-3.6,7.5l0.3,0.2C0.9,926,0,931.4,0,937c0,28.3,23.1,51.4,51.4,51.4
		c23.5,0,43.8-15.8,49.7-38.6C144,847.6,228.9,768.9,334.2,733.8c18.2-3,34.8-12.4,46.9-26.3c12.4-14.3,19.3-32.7,19.3-51.8
		c0-39.3-29.1-72.5-68-78.2c-37.1-21.3-68.2-51.8-90.1-88.2c-22.9-38.2-35.1-82-35.1-126.9c0-66.5,25.9-129,72.9-176
		c47-47,109.5-72.9,176-72.9s129,25.9,176,72.9c47,47,72.9,109.5,72.9,176c0,2.7-0.2,5.4-0.4,8.3c-0.1,1.6-0.2,3.3-0.3,4.9l-0.1,2
		l0.7,1.9c7.1,19.6,28.6,33.8,51,33.8c22,0,42.3-13.9,49.5-33.9l0.5-1.4l0.1-1.5c0.1-1.6,0.2-3.3,0.4-5.1c0.3-2.9,0.5-5.9,0.5-9.1
		C807,315.1,797.7,269.2,779.4,225.9z"/>
</g>
</svg>
