<?xml version="1.0" encoding="utf-8"?>
<!-- Generator: Adobe Illustrator 16.0.0, SVG Export Plug-In . SVG Version: 6.00 Build 0)  -->
<!DOCTYPE svg PUBLIC "-//W3C//DTD SVG 1.1//EN" "http://www.w3.org/Graphics/SVG/1.1/DTD/svg11.dtd">
<svg version="1.1" id="图形" xmlns="http://www.w3.org/2000/svg" xmlns:xlink="http://www.w3.org/1999/xlink" x="0px" y="0px"
	 width="80px" height="81.839px" viewBox="0 0 80 81.839" enable-background="new 0 0 80 81.839" xml:space="preserve">
<rect x="22.818" display="none" fill="#F1F1F1" width="80" height="81.839"/>
<path fill="#444444" d="M18.771,0.259h35.294h1.538l1.14,1.089l15.969,15.291l1.196,1.148v1.639v48.273
	c0,2.762-1.131,5.268-2.94,7.084H70.96c-1.826,1.812-4.328,2.939-7.077,2.939H43.184v-7.746h20.703c0.625,0,1.193-0.257,1.601-0.665
	v-0.008c0.414-0.417,0.669-0.987,0.669-1.606V22.249L52.37,21.091l-1.488-0.121l0.077-1.492l0.559-11.47H18.771
	c-0.621,0-1.192,0.256-1.606,0.67H17.15c-0.405,0.405-0.657,0.974-0.657,1.602v39.179l-7.75,9.488V10.284
	c0-2.746,1.131-5.251,2.953-7.074l-0.01-0.007C13.5,1.387,16.006,0.259,18.771,0.259L18.771,0.259z M23.279,34.11v3.383h34.965
	V34.11H23.279L23.279,34.11z M23.279,25.189v3.384h34.965v-3.384H23.279L23.279,25.189z M23.279,16.066v3.384h22.146v-3.384H23.279
	L23.279,16.066z M36.984,81.646v-18.99h7.755L29.229,43.676L13.716,62.656h7.758v18.99H36.984L36.984,81.646z M63.957,18.956
	L54.521,9.92l-0.401,8.21L63.957,18.956z"/>
</svg>
