<?xml version="1.0" encoding="utf-8"?>
<!-- Generator: Adobe Illustrator 16.0.0, SVG Export Plug-In . SVG Version: 6.00 Build 0)  -->
<!DOCTYPE svg PUBLIC "-//W3C//DTD SVG 1.1//EN" "http://www.w3.org/Graphics/SVG/1.1/DTD/svg11.dtd">
<svg version="1.1" id="图形" xmlns="http://www.w3.org/2000/svg" xmlns:xlink="http://www.w3.org/1999/xlink" x="0px" y="0px"
	 width="80px" height="81.839px" viewBox="0 0 80 81.839" enable-background="new 0 0 80 81.839" xml:space="preserve">
<rect x="22.818" display="none" fill="#F1F1F1" width="80" height="81.839"/>
<g>
	<g>
		<path fill="#444444" d="M74.75,17.51c0-3.645-3.021-6.628-6.627-6.628H7.142c-4.434,0-6.628,3.48-6.628,7.541
			c0,3.769,4.184,8.451,7.125,10.441c6.422,4.474,12.925,8.948,19.345,13.465c2.229,1.542,6.369,4.411,9.415,5.359
			c0.221-17.194,18.319-25.418,32.331-19.62C72.057,25.506,74.75,21.8,74.75,17.51z"/>
		<path fill="#444444" d="M36.621,53.25c-4.446-0.088-7.903-3.131-11.334-5.664c-6.753-4.929-13.713-9.61-20.589-14.292
			c-1.533-1.036-2.943-2.237-4.184-3.604v32.894c0,3.646,2.983,6.628,6.628,6.628h41.402C42.642,66.294,37.363,60.49,36.621,53.25z"
			/>
		<path fill="#444444" d="M73.811,65.92c-1.616,1.353-3.53,2.425-5.507,3.274C70.649,69.126,72.684,67.826,73.811,65.92z"/>
		<path fill="#444444" d="M72.793,31.598c0.751,0.327,1.4,0.718,1.957,1.166V29.69C74.137,30.366,73.477,31.001,72.793,31.598z"/>
	</g>
	<g>
		<path fill="#444444" d="M79.485,48.832c0,11.249-9.13,20.38-20.38,20.38s-20.381-9.131-20.381-20.38
			c0-11.251,9.131-20.38,20.381-20.38S79.485,37.58,79.485,48.832z M65.766,42.78c0.131-0.023,0.263-0.503,0.347-0.608
			c0.156-0.185,0.372-0.289,0.584-0.399c0.452-0.185,0.901-0.238,1.377-0.315c0.452-0.107,1.013-0.107,1.354,0.29
			c-0.081-0.079,0.557-0.636,0.638-0.664c0.238-0.132,0.637-0.078,0.793-0.317c0.057-0.079,0.057-0.584,0.057-0.584
			c-0.452,0.054-0.611-0.372-0.643-0.742c0,0.027-0.048,0.106-0.153,0.212c0.023-0.399-0.481-0.106-0.662-0.159
			c-0.611-0.16-0.532-0.584-0.719-1.034c-0.104-0.24-0.4-0.32-0.504-0.559c-0.104-0.16-0.158-0.504-0.399-0.53
			c-0.157-0.028-0.447,0.556-0.501,0.53c-0.24-0.132-0.344,0.052-0.533,0.16c-0.158,0.106-0.292,0.052-0.449,0.132
			c0.479-0.159-0.213-0.424-0.452-0.37c0.374-0.107,0.188-0.505-0.029-0.691c0.054,0,0.086,0,0.138,0
			c-0.052-0.238-0.794-0.452-1.033-0.61c-0.243-0.16-1.518-0.424-1.779-0.266c-0.318,0.187,0.081,0.716,0.081,0.982
			c0.026,0.318-0.317,0.398-0.317,0.663c0,0.45,0.848,0.372,0.635,0.981c-0.132,0.371-0.635,0.451-0.848,0.743
			c-0.213,0.265,0.024,0.744,0.239,0.929c0.212,0.159-0.371,0.424-0.452,0.479c-0.448,0.212-0.796-0.452-0.9-0.851
			c-0.082-0.292-0.106-0.636-0.423-0.796c-0.161-0.052-0.665-0.132-0.772,0.027c-0.159-0.398-0.719-0.556-1.09-0.688
			c-0.527-0.188-0.979-0.188-1.536-0.108c0.183-0.027-0.055-0.848-0.507-0.716c0.133-0.265,0.082-0.558,0.133-0.822
			c0.054-0.212,0.161-0.426,0.319-0.611c0.055-0.105,0.636-0.714,0.453-0.741c0.452,0.053,0.955,0.08,1.327-0.293
			c0.238-0.238,0.344-0.635,0.582-0.901c0.343-0.399,0.771,0.106,1.141,0.132c0.531,0.027,0.505-0.557,0.214-0.823
			c0.345,0.026,0.051-0.61-0.132-0.69c-0.24-0.08-1.144,0.159-0.665,0.345c-0.107-0.054-0.746,1.273-1.113,0.609
			c-0.108-0.133-0.159-0.688-0.398-0.716c-0.213,0-0.345,0.239-0.429,0.398c0.136-0.345-0.745-0.584-0.928-0.609
			c0.399-0.265,0.081-0.557-0.21-0.717c-0.212-0.133-0.877-0.238-1.063-0.027c-0.502,0.61,0.531,0.69,0.799,0.85
			c0.076,0.054,0.396,0.238,0.211,0.372c-0.158,0.078-0.64,0.211-0.689,0.317c-0.161,0.239,0.188,0.504-0.053,0.742
			c-0.241-0.238-0.241-0.635-0.428-0.901c0.239,0.291-0.952,0.133-0.929,0.133c-0.398,0-1.033,0.266-1.329-0.133
			c-0.051-0.107-0.051-0.717,0.104-0.584c-0.239-0.186-0.395-0.372-0.554-0.479c-0.877,0.293-1.701,0.665-2.497,1.089
			c0.107,0.026,0.186,0.026,0.317-0.026c0.213-0.082,0.401-0.211,0.613-0.319c0.261-0.107,0.82-0.425,1.114-0.186
			c0.026-0.053,0.105-0.106,0.132-0.133c0.183,0.211,0.374,0.426,0.529,0.664c-0.209-0.108-0.554-0.054-0.796-0.026
			c-0.186,0.053-0.504,0.105-0.584,0.317c0.08,0.133,0.186,0.345,0.139,0.478c-0.35-0.24-0.612-0.637-1.091-0.689
			c-0.212,0-0.428,0-0.587,0.027c-2.548,1.406-4.696,3.449-6.231,5.891c0.105,0.106,0.212,0.187,0.314,0.212
			c0.268,0.08,0,0.849,0.504,0.452c0.161,0.132,0.188,0.318,0.083,0.504c0.024-0.028,1.085,0.663,1.168,0.716
			c0.188,0.159,0.481,0.344,0.557,0.556c0.054,0.186-0.108,0.398-0.267,0.481c-0.029-0.056-0.422-0.452-0.479-0.347
			c-0.078,0.132,0,0.848,0.295,0.822c-0.43,0.027-0.238,1.672-0.347,1.986c0,0.029,0.052,0.029,0.052,0.029
			c-0.078,0.316,0.188,1.567,0.719,1.43c-0.345,0.083,0.609,1.303,0.743,1.381c0.344,0.242,0.74,0.399,0.981,0.746
			c0.265,0.37,0.265,0.93,0.638,1.22c-0.107,0.316,0.556,0.691,0.531,1.142c-0.052,0.027-0.082,0.027-0.134,0.053
			c0.134,0.372,0.636,0.372,0.825,0.717c0.104,0.209,0,0.716,0.345,0.61c0.052-0.585-0.345-1.17-0.64-1.646
			c-0.157-0.264-0.316-0.501-0.448-0.768c-0.138-0.242-0.161-0.534-0.268-0.796c0.106,0.026,0.692,0.236,0.641,0.314
			c-0.213,0.532,0.847,1.461,1.142,1.808c0.079,0.079,0.688,0.875,0.368,0.875c0.348,0,0.825,0.533,0.983,0.797
			c0.238,0.396,0.188,0.9,0.347,1.326c0.155,0.531,0.901,0.77,1.326,1.006c0.374,0.189,0.689,0.451,1.063,0.585
			c0.552,0.211,0.687,0.028,1.166-0.052c0.691-0.107,0.774,0.662,1.326,0.953c0.348,0.188,1.088,0.45,1.46,0.295
			c-0.156,0.051,0.558,1.138,0.61,1.22c0.238,0.316,0.69,0.479,0.954,0.797c0.08-0.055,0.161-0.134,0.188-0.241
			c-0.108,0.293,0.396,0.85,0.661,0.796c0.293-0.053,0.372-0.637,0.372-0.851c-0.531,0.267-1.007,0.055-1.295-0.477
			c-0.058-0.135-0.48-0.877-0.107-0.877c0.502,0,0.156-0.399,0.107-0.77c-0.058-0.374-0.43-0.612-0.612-0.931
			c-0.159,0.318-0.69,0.242-0.849-0.028c0,0.083-0.081,0.214-0.081,0.319c-0.133,0-0.263,0.027-0.396-0.028
			c0.053-0.317,0.078-0.717,0.157-1.062c0.134-0.476,1.007-1.406-0.135-1.352c-0.396,0.027-0.555,0.186-0.688,0.532
			c-0.137,0.317-0.082,0.608-0.452,0.771c-0.239,0.107-1.034,0.051-1.272-0.081c-0.506-0.29-0.851-1.222-0.851-1.749
			c-0.028-0.719,0.345-1.355,0-2.02c0.158-0.135,0.318-0.398,0.503-0.533c0.157-0.105,0.348,0.082,0.427-0.24
			c-0.079-0.051-0.188-0.156-0.213-0.156c0.398,0.188,1.142-0.265,1.486,0c0.211,0.156,0.452,0.21,0.586-0.055
			c0.025-0.08-0.189-0.397-0.081-0.607c0.081,0.447,0.371,0.53,0.77,0.239c0.159,0.158,0.586,0.105,0.876,0.265
			c0.294,0.185,0.347,0.479,0.688,0.079c0.212,0.316,0.24,0.316,0.319,0.639c0.082,0.291,0.24,1.034,0.503,1.166
			c0.556,0.347,0.425-0.582,0.372-0.9c-0.024-0.027-0.024-0.901-0.051-0.901c-0.851-0.186-0.534-0.848-0.053-1.298
			c0.082-0.055,0.688-0.265,0.953-0.48c0.237-0.209,0.534-0.583,0.4-0.931c0.134,0,0.237-0.105,0.289-0.237
			c-0.079-0.026-0.396-0.29-0.452-0.266c0.189-0.104,0.163-0.262,0.057-0.425c0.262-0.159,0.133-0.45,0.396-0.557
			c0.293,0.397,0.879-0.053,0.584-0.373c0.266-0.37,0.878-0.185,1.036-0.53c0.396,0.104,0.104-0.397,0.317-0.689
			c0.185-0.241,0.504-0.241,0.745-0.372c0,0.027,0.663-0.375,0.446-0.398c0.454,0.054,1.354-0.428,0.665-0.824
			c0.104-0.239-0.24-0.345-0.48-0.398c0.188-0.051,0.426,0.054,0.585-0.051c0.348-0.24,0.105-0.349-0.183-0.427
			c-0.374-0.106-0.851,0.134-1.145,0.318C66.164,42.436,66.031,42.728,65.766,42.78z M71.365,60.535
			c-0.158-0.162-0.45-0.108-0.663-0.214c-0.21-0.08-0.37-0.158-0.637-0.211c0.054-0.531-0.531-0.717-0.901-0.98
			c-0.345-0.268-0.554-0.557-1.064-0.452c-0.05,0.027-0.58,0.211-0.478,0.316c-0.342-0.289-0.504-0.451-0.952-0.583
			c-0.426-0.133-0.716-0.663-1.144-0.186c-0.211,0.209-0.105,0.529-0.211,0.74c-0.341-0.291,0.318-0.636,0.052-0.954
			c-0.315-0.373-0.875,0.241-1.138,0.399c-0.159,0.132-0.345,0.188-0.449,0.344c-0.136,0.188-0.191,0.427-0.294,0.61
			c-0.081-0.212-0.533-0.158-0.557-0.318c0.107,0.637,0.107,1.301,0.241,1.938c0.079,0.372,0,0.98-0.32,1.273
			c-0.317,0.294-0.715,0.607-0.766,1.063c-0.054,0.319,0.023,0.61,0.313,0.689c0.03,0.398-0.422,0.69-0.396,1.118
			c0,0.026,0.028,0.29,0.055,0.426C65.688,64.912,68.925,63.109,71.365,60.535z"/>
	</g>
</g>
</svg>
