<?xml version="1.0" encoding="utf-8"?>
<!-- Generator: Adobe Illustrator 16.0.0, SVG Export Plug-In . SVG Version: 6.00 Build 0)  -->
<!DOCTYPE svg PUBLIC "-//W3C//DTD SVG 1.1//EN" "http://www.w3.org/Graphics/SVG/1.1/DTD/svg11.dtd">
<svg version="1.1" id="图形" xmlns="http://www.w3.org/2000/svg" xmlns:xlink="http://www.w3.org/1999/xlink" x="0px" y="0px"
	 width="80px" height="81.839px" viewBox="0 0 80 81.839" enable-background="new 0 0 80 81.839" xml:space="preserve">
<rect x="22.818" display="none" fill="#F1F1F1" width="80" height="81.839"/>
<g>
	<g>
		<path fill="#444444" d="M45.047,80.867H10.889c-6.215,0-10.436-3.793-10.436-10.124c0-8.832,2.071-22.393,13.523-22.393
			c1.211,0,6.332,5.433,13.991,5.433c7.66,0,12.783-5.433,13.992-5.433c11.451,0,13.52,13.561,13.52,22.393
			C55.479,77.074,51.258,80.867,45.047,80.867z M27.967,50.848c-8.286,0-15.008-6.721-15.008-15.006s6.723-15.009,15.008-15.009
			c8.285,0,15.007,6.724,15.007,15.009S36.252,50.848,27.967,50.848z"/>
	</g>
	<g>
		<path fill="#444444" d="M61.278,27.068c-1.002,0-1.998-0.062-2.956-0.165c-2.672,2.366-5.85,4.037-9.376,4.935
			c-0.738,0.204-1.535,0.346-2.327,0.447c-0.447,0.042-0.875-0.285-0.978-0.774c0-0.02,0-0.02,0-0.02
			c-0.102-0.509,0.244-0.816,0.549-1.184c1.285-1.446,2.756-2.67,3.717-6.073c-4.201-2.385-6.893-6.076-6.893-10.216
			c0-7.196,8.173-13.046,18.268-13.046c10.096,0,18.265,5.831,18.265,13.046C79.543,21.239,71.37,27.068,61.278,27.068z"/>
	</g>
</g>
</svg>
