<?xml version="1.0" encoding="utf-8"?>
<!-- Generator: Adobe Illustrator 16.0.0, SVG Export Plug-In . SVG Version: 6.00 Build 0)  -->
<!DOCTYPE svg PUBLIC "-//W3C//DTD SVG 1.1//EN" "http://www.w3.org/Graphics/SVG/1.1/DTD/svg11.dtd">
<svg version="1.1" id="图形" xmlns="http://www.w3.org/2000/svg" xmlns:xlink="http://www.w3.org/1999/xlink" x="0px" y="0px"
	 width="80px" height="81.839px" viewBox="0 0 80 81.839" enable-background="new 0 0 80 81.839" xml:space="preserve">
<rect x="22.818" display="none" fill="#F1F1F1" width="80" height="81.839"/>
<path fill="#444444" d="M9.905,0.771c0,0,62.585,0,64.682,0c2.098,0,5.101,0.6,5.101,4.326c0,3.178,0,56.241,0,71.759
	c0,4.193-3.353,4.23-4.75,4.23c-1.399,0-65.033,0-65.033,0v-5.894H7.112c-1.858,0-3.548-0.77-4.762-1.977
	c-1.218-1.222-1.978-2.914-1.978-4.771c0-1.846,0.76-3.534,1.978-4.756h0.005c1.223-1.224,2.898-1.978,4.756-1.978h2.792v-4.73
	H7.111c-1.858,0-3.548-0.757-4.763-1.98c-1.216-1.209-1.978-2.899-1.978-4.755c0-1.845,0.762-3.524,1.978-4.748l0.006-0.012l0,0
	c1.227-1.221,2.911-1.976,4.755-1.976h2.792v-5.489H7.109c-1.858,0-3.548-0.755-4.762-1.978c-1.218-1.223-1.979-2.901-1.979-4.756
	c0-1.845,0.76-3.524,1.979-4.747l0.005-0.012l0,0c1.228-1.224,2.911-1.977,4.756-1.977h2.792v-4.517H7.108
	c-1.858,0-3.549-0.756-4.762-1.979c-1.218-1.209-1.979-2.899-1.979-4.757c0-1.856,0.76-3.534,1.979-4.755h0.005
	c1.222-1.221,2.898-1.978,4.756-1.978h2.792V0.77L9.905,0.771L9.905,0.771z M19.155,29.025H7.112c-0.628,0-1.191,0.251-1.596,0.658
	l-0.011,0.011c-0.409,0.409-0.659,0.969-0.659,1.594c0,0.622,0.25,1.185,0.669,1.592c0.409,0.409,0.973,0.672,1.596,0.672h12.042
	c0.617,0,1.186-0.263,1.593-0.672c0.408-0.407,0.666-0.97,0.666-1.592c0-0.625-0.251-1.188-0.666-1.605v0.011
	C20.34,29.288,19.771,29.025,19.155,29.025L19.155,29.025z M19.155,11.038H7.112c-0.623,0-1.191,0.263-1.604,0.67H5.52
	C5.1,12.116,4.85,12.678,4.85,13.302c0,0.623,0.25,1.188,0.669,1.595c0.408,0.419,0.971,0.67,1.594,0.67h12.042
	c0.617,0,1.186-0.251,1.594-0.67c0.408-0.407,0.665-0.971,0.665-1.595c0-0.624-0.257-1.186-0.665-1.593
	C20.34,11.303,19.771,11.038,19.155,11.038L19.155,11.038z M19.155,66.193H7.112c-0.623,0-1.191,0.253-1.604,0.662H5.52
	C5.1,67.262,4.85,67.833,4.85,68.448c0,0.625,0.25,1.188,0.669,1.604c0.408,0.406,0.971,0.661,1.594,0.661h12.042
	c0.617,0,1.186-0.255,1.594-0.661c0.408-0.417,0.665-0.979,0.665-1.604c0-0.614-0.257-1.186-0.665-1.593
	C20.34,66.441,19.771,66.193,19.155,66.193L19.155,66.193z M19.155,47.992H7.112c-0.628,0-1.191,0.251-1.596,0.646L5.506,48.65
	c-0.409,0.407-0.659,0.972-0.659,1.597c0,0.62,0.25,1.188,0.669,1.595c0.409,0.423,0.973,0.668,1.596,0.668h12.042
	c0.617,0,1.186-0.253,1.593-0.668c0.408-0.407,0.666-0.97,0.666-1.595c0-0.623-0.251-1.189-0.666-1.597l0,0
	C20.34,48.243,19.771,47.992,19.155,47.992L19.155,47.992z M26.932,34.295c0.808,1.678,1.616,3.367,2.417,5.057
	c0.38,0.719,1.092,0.91,2.026,0.731c2.348-0.637,4.698-1.258,7.034-1.881c1.023-0.373,1.451-0.936,1.451-1.644
	c-0.021-1.292-0.038-2.6-0.049-3.906c6.276-2.983,15.024-2.983,21.303,0c-0.013,1.306-0.035,2.613-0.047,3.906
	c0,0.708,0.426,1.271,1.443,1.644c2.35,0.621,4.688,1.245,7.038,1.881c0.938,0.179,1.647-0.014,2.027-0.731
	c0.801-1.69,1.607-3.38,2.419-5.057c0.731-1.473,0.388-2.023-0.65-2.647c-15.299-8.724-30.471-8.724-45.771,0
	C26.547,32.272,26.195,32.822,26.932,34.295L26.932,34.295z M43.178,34.344c0,1.318,0,2.635,0,3.942
	c-0.119,1.473-0.92,2.192-2.169,2.407c-2.038,0.408-4.07,0.815-6.106,1.211c-1.282,0.275-2.066,0.961-1.994,2.313
	c0,3.761,0,7.524,0,11.285h17.77h17.773c0-3.761,0-7.524,0-11.285c0.074-1.354-0.712-2.038-1.995-2.313
	c-2.033-0.396-4.073-0.803-6.108-1.211c-1.247-0.215-2.045-0.934-2.17-2.407c0-1.307,0-2.624,0-3.942
	c-2.444-0.779-4.942-1.187-7.5-1.187C48.122,33.159,45.625,33.565,43.178,34.344L43.178,34.344z M50.771,38.73
	c-2.008,0-3.824,0.813-5.139,2.119c-1.314,1.319-2.127,3.142-2.127,5.143c0,2.009,0.813,3.833,2.127,5.14
	c1.314,1.316,3.131,2.132,5.139,2.132c1.853,0,3.541-0.682,4.824-1.835l-2.286-2.251c-0.693,0.563-1.575,0.888-2.538,0.888
	c-1.121,0-2.14-0.456-2.88-1.189c-0.733-0.741-1.189-1.761-1.189-2.884c0-1.113,0.453-2.134,1.189-2.877
	c0.738-0.73,1.759-1.188,2.88-1.188c1.126,0,2.146,0.455,2.879,1.188c0.731,0.74,1.197,1.764,1.197,2.877
	c0,0.72-0.187,1.376-0.499,1.961l2.878,1.392c0.528-1.007,0.815-2.143,0.815-3.353c0-2.001-0.815-3.823-2.124-5.143
	C54.598,39.544,52.778,38.73,50.771,38.73L50.771,38.73z M66.15,56.284c-1.439,0-2.877,0-4.317,0c0,1.041,0,2.086,0,3.127
	c1.016,0,2.028,0,3.047,0C65.295,58.37,65.723,57.325,66.15,56.284L66.15,56.284z M35.212,56.284
	c0.432,1.041,0.851,2.086,1.27,3.127c1.018,0,2.037,0,3.048,0c0-1.041,0-2.086,0-3.127C38.086,56.284,36.657,56.284,35.212,56.284z"
	/>
</svg>
