<?xml version="1.0" encoding="utf-8"?>
<!-- Generator: Adobe Illustrator 21.0.0, SVG Export Plug-In . SVG Version: 6.00 Build 0)  -->
<svg version="1.1" id="图层_1" xmlns="http://www.w3.org/2000/svg" xmlns:xlink="http://www.w3.org/1999/xlink" x="0px" y="0px"
	 viewBox="0 0 1000 1000" style="enable-background:new 0 0 1000 1000;" xml:space="preserve">
<style type="text/css">
	.st0{fill-rule:evenodd;clip-rule:evenodd;}
</style>
<g>
	<path class="st0" d="M999.1,877.6c-1.5-27.1-9.2-48.7-20.4-66.4l-26.9-30.5c-26.8-22.7-60.9-36.2-91.2-48.2
		c-35.6-14.1-66.5-26.3-75.8-47.7c-1.5-17.3-1.4-30.6-1.2-46.1l0.1-7.3c13.7-14,27.7-43.7,32.9-70.1c10.7-5.6,24-19.2,28-52.6
		c2-16.6-2.8-29.4-9.5-37.8c8.8-30.1,27.1-108.5-4.1-158.8c-1.1-1.8-2.6-3.2-3.8-4.9l-22.3-21.5c-9.5-6.1-20.5-10.6-32.9-13
		c-12.5-15.9-35.6-25-65.7-27.1c-1.7,43.3-11.4,83.8-17.9,105.6c9.2,11.5,15.8,29,13,51.7c-5.5,45.7-23.7,64.4-38.4,72
		c-7,36.2-26.3,76.8-45,95.9l-0.1,10c-0.2,21.1-0.3,39.4,1.7,63c12.8,29.3,55,46,103.8,65.3c41.5,16.4,88.1,34.9,124.8,65.9
		l36.9,41.7c13.3,20.8,21.7,46.6,25.6,76.8h89.4L999.1,877.6L999.1,877.6z"/>
	<path class="st0" d="M270,709.3c49-19.3,91.4-36,104.2-65.3c2-23.7,1.8-42.1,1.7-63.3l-0.1-9.7c-19.3-19.1-38.9-59.9-46-96
		c-14.6-7.6-32.9-26.2-38.4-72c-2.8-23.1,4.2-40.9,13.6-52.3c-9.3-38.8-12.7-73-13.2-104.9c-49.5,3.3-86.9,19.6-109.8,49.7
		c-29.4,38.8-34.9,97.6-16.3,174.9c-6.9,8.4-11.9,21.4-9.9,38.3c4,33.4,17.3,47,28.1,52.5c5.2,26.4,19.6,56.2,33.6,70.2v7.1
		c0.1,15.5,0.3,28.9-1.2,46.2c-9.3,21.4-40.3,33.6-76.1,47.7C80.6,756,6.5,785.1,1,877.5l-1,16.1h81.8
		C96.2,778.9,191.9,740.1,270,709.3L270,709.3z"/>
	<path class="st0" d="M850.1,819.9L819.2,785c-30.7-25.9-69.7-41.4-104.4-55.1c-40.7-16.1-104.7-58.7-115.4-83.2
		c-1.7-19.8-1.5-63.6-1.4-81.3l0-8.4c15.6-16,31.7-65.1,37.6-95.4c12.2-6.3,27.5-22,32.1-60.2c2.3-19-3.2-33.6-10.9-43.2
		c10.2-34.5,31-137.5-4.7-195.1c-1.2-2-2.9-3.6-4.3-5.6l-25.4-24.6c-10.9-7-23.4-12.1-37.7-14.9c-16.4-20.8-48-32.1-90.3-32.1
		c-64.1,1.2-111.1,20.8-139.6,58.3c-33.7,44.4-39.9,125.1-18.6,213.6c-7.9,9.6-13.7,24.4-11.3,43.7c4.6,38.3,19.9,53.9,32.1,60.2
		c6,30.2,22.4,79.5,38.5,95.5l0,8.1c0.1,17.7,0.3,61.7-1.4,81.5c-10.7,24.5-74.8,67-115.7,83.2c-68.1,26.8-152.9,60.1-159.2,165.8
		l-1.1,18.5h756.5l-1.1-18.4C871.7,864.7,863,840.1,850.1,819.9L850.1,819.9z"/>
</g>
</svg>
