<?xml version="1.0" encoding="utf-8"?>
<!-- Generator: Adobe Illustrator 16.0.0, SVG Export Plug-In . SVG Version: 6.00 Build 0)  -->
<!DOCTYPE svg PUBLIC "-//W3C//DTD SVG 1.1//EN" "http://www.w3.org/Graphics/SVG/1.1/DTD/svg11.dtd">
<svg version="1.1" id="图形" xmlns="http://www.w3.org/2000/svg" xmlns:xlink="http://www.w3.org/1999/xlink" x="0px" y="0px"
	 width="80px" height="81.839px" viewBox="0 0 80 81.839" enable-background="new 0 0 80 81.839" xml:space="preserve">
<rect x="22.818" display="none" fill="#F1F1F1" width="80" height="81.839"/>
<g>
	<path fill="#444444" d="M76.415,24.193c0,0-68.281,0-72.479,0s-3.667,3.396-3.667,3.396S0.224,48.691,0.224,51.831
		c0,3.139,3.49,3.491,3.49,3.491s1.547,0,3.204,0c1.658,0,3.537,3.977-3.093,6.938c11.491,0.639,13.811-6.938,13.811-6.938
		s55.463,0,58.778,0c3.313,0,3.444-3.646,3.444-3.646s0-20.329,0-24.086C79.859,23.833,76.415,24.193,76.415,24.193z M24.788,50.723
		h-4.597l-9.148-14.797v14.797H6.786V28.032h4.458l9.287,15.153V28.032h4.256V50.723z M36.063,46.768
		c0.67,0.717,1.507,1.076,2.507,1.076c0.681,0,1.255-0.185,1.719-0.557c0.464-0.373,0.814-0.97,1.052-1.796l4.334,0.727
		c-0.558,1.59-1.438,2.801-2.64,3.631s-2.706,1.246-4.511,1.246c-2.858,0-4.975-0.934-6.346-2.803
		c-1.083-1.495-1.626-3.385-1.626-5.665c0-2.724,0.712-4.857,2.136-6.4c1.424-1.542,3.225-2.314,5.403-2.314
		c2.446,0,4.374,0.808,5.789,2.422c1.412,1.616,2.091,4.09,2.027,7.423H35.01C35.041,45.048,35.392,46.052,36.063,46.768z
		 M68.76,50.723h-4.18l-2.832-10.572l-2.786,10.572h-4.227l-5.2-16.438h4.226l3.079,10.773l2.832-10.773h4.195l2.741,10.773
		l3.141-10.773h4.289L68.76,50.723z"/>
	<path fill="#444444" d="M38.354,37.241c-0.95,0-1.734,0.347-2.353,1.037c-0.62,0.692-0.923,1.631-0.913,2.818h6.501
		c-0.032-1.259-0.356-2.216-0.976-2.872C39.995,37.569,39.241,37.241,38.354,37.241z"/>
</g>
</svg>
