<?xml version="1.0" encoding="utf-8"?>
<!-- Generator: Adobe Illustrator 16.0.0, SVG Export Plug-In . SVG Version: 6.00 Build 0)  -->
<!DOCTYPE svg PUBLIC "-//W3C//DTD SVG 1.1//EN" "http://www.w3.org/Graphics/SVG/1.1/DTD/svg11.dtd">
<svg version="1.1" id="图形" xmlns="http://www.w3.org/2000/svg" xmlns:xlink="http://www.w3.org/1999/xlink" x="0px" y="0px"
	 width="80px" height="81.839px" viewBox="0 0 80 81.839" enable-background="new 0 0 80 81.839" xml:space="preserve">
<rect x="22.818" display="none" fill="#F1F1F1" width="80" height="81.839"/>
<g>
	<path fill="#444444" d="M79.874,60.027c0,4.125-3.346,7.467-7.467,7.467H7.699c-4.122,0-7.466-3.345-7.466-7.467v-42.31h9.955
		v-4.978h69.686V60.027L79.874,60.027z M10.187,22.694H5.209v37.333c0,1.361,1.128,2.489,2.488,2.489c1.36,0,2.488-1.13,2.488-2.489
		L10.187,22.694L10.187,22.694z M74.896,17.717H15.164v42.31c0,0.854-0.156,1.71-0.428,2.489h57.67c1.362,0,2.487-1.13,2.487-2.489
		v-42.31H74.896z M45.03,47.583H20.142V22.694H45.03V47.583L45.03,47.583z M45.03,57.539H20.142v-4.978H45.03V57.539L45.03,57.539z
		 M25.12,27.672v14.934h14.934V27.672H25.12z M69.919,27.672H50.008v-4.978h19.911V27.672z M69.919,37.628H50.008V32.65h19.911
		V37.628z M69.919,47.583H50.008v-4.978h19.911V47.583z M69.919,57.539H50.008v-4.978h19.911V57.539z"/>
</g>
</svg>
