<?xml version="1.0" encoding="utf-8"?>
<!-- Generator: Adobe Illustrator 16.0.0, SVG Export Plug-In . SVG Version: 6.00 Build 0)  -->
<!DOCTYPE svg PUBLIC "-//W3C//DTD SVG 1.1//EN" "http://www.w3.org/Graphics/SVG/1.1/DTD/svg11.dtd">
<svg version="1.1" id="图形" xmlns="http://www.w3.org/2000/svg" xmlns:xlink="http://www.w3.org/1999/xlink" x="0px" y="0px"
	 width="80px" height="81.839px" viewBox="0 0 80 81.839" enable-background="new 0 0 80 81.839" xml:space="preserve">
<rect x="22.818" display="none" fill="#F1F1F1" width="80" height="81.839"/>
<path fill="#444444" d="M12.342,11.85h54.886c3.238,0,5.898,2.655,5.898,5.899v33.054c0,2.806-1.986,5.169-4.614,5.76l11.384,8.291
	v5.137H0.111v-5.137l10.62-8.378l0,0c-2.464-0.709-4.287-2.987-4.287-5.67V17.747C6.445,14.504,9.1,11.85,12.342,11.85L12.342,11.85
	z M35.51,60.67l-2.499,4.917h13.955l-2.952-4.917H35.51L35.51,60.67z M12.279,18.245v33.625H67.73V18.245H12.279z M49.714,46.247
	c-0.46,0-0.906-0.189-1.217-0.513l-4.646-4.631c-1.584,1.097-3.481,1.68-5.402,1.68c-5.268,0-9.534-4.264-9.534-9.533
	c0-5.27,4.264-9.534,9.534-9.534c5.267,0,9.533,4.265,9.533,9.534c0,1.922-0.585,3.818-1.681,5.402l4.645,4.645
	c0.313,0.313,0.5,0.758,0.5,1.221C51.446,45.461,50.662,46.247,49.714,46.247z M38.449,27.185c-3.343,0-6.065,2.72-6.065,6.065
	c0,3.343,2.723,6.065,6.065,6.065c3.344,0,6.066-2.724,6.066-6.065C44.516,29.905,41.793,27.185,38.449,27.185z"/>
</svg>
