<?xml version="1.0" encoding="utf-8"?>
<!-- Generator: Adobe Illustrator 16.0.0, SVG Export Plug-In . SVG Version: 6.00 Build 0)  -->
<!DOCTYPE svg PUBLIC "-//W3C//DTD SVG 1.1//EN" "http://www.w3.org/Graphics/SVG/1.1/DTD/svg11.dtd">
<svg version="1.1" id="图形" xmlns="http://www.w3.org/2000/svg" xmlns:xlink="http://www.w3.org/1999/xlink" x="0px" y="0px"
	 width="80px" height="81.839px" viewBox="0 0 80 81.839" enable-background="new 0 0 80 81.839" xml:space="preserve">
<rect x="22.818" display="none" fill="#F1F1F1" width="80" height="81.839"/>
<g>
	<path fill="#444444" d="M62.301,81.738c-4.693,0-9.229-2.026-12.535-5.335L8.322,35.013c-3.787-3.841-6.027-9.068-6.027-14.455
		c0-11.308,8.908-20.322,20.214-20.322c5.441,0,10.668,2.187,14.563,6.027L69.34,38.587c0.322,0.319,0.535,0.747,0.535,1.173
		c0,1.119-2.987,4.107-4.108,4.107c-0.479,0-0.906-0.212-1.227-0.534L32.217,10.958c-2.56-2.507-6.027-4.108-9.654-4.108
		c-7.574,0-13.441,6.134-13.441,13.655c0,3.627,1.494,7.094,4.053,9.654l41.39,41.444c2.028,2.026,4.854,3.36,7.735,3.36
		c4.533,0,7.894-3.36,7.894-7.895c0-2.933-1.333-5.707-3.36-7.735l-30.99-30.988c-0.853-0.8-2.026-1.28-3.2-1.28
		c-2.026,0-3.574,1.494-3.574,3.574c0,1.173,0.534,2.293,1.334,3.146l21.869,21.87c0.319,0.317,0.532,0.747,0.532,1.172
		c0,1.121-3.04,4.161-4.161,4.161c-0.426,0-0.853-0.213-1.172-0.533L25.604,38.587c-2.133-2.082-3.36-5.015-3.36-7.948
		c0-5.868,4.587-10.455,10.455-10.455c2.987,0,5.867,1.227,7.947,3.361l30.989,30.989c3.361,3.309,5.335,7.842,5.335,12.534
		C76.969,75.389,70.621,81.738,62.301,81.738z"/>
</g>
</svg>
