<?xml version="1.0" encoding="utf-8"?>
<!-- Generator: Adobe Illustrator 16.0.0, SVG Export Plug-In . SVG Version: 6.00 Build 0)  -->
<!DOCTYPE svg PUBLIC "-//W3C//DTD SVG 1.1//EN" "http://www.w3.org/Graphics/SVG/1.1/DTD/svg11.dtd">
<svg version="1.1" id="图形" xmlns="http://www.w3.org/2000/svg" xmlns:xlink="http://www.w3.org/1999/xlink" x="0px" y="0px"
	 width="80px" height="81.839px" viewBox="0 0 80 81.839" enable-background="new 0 0 80 81.839" xml:space="preserve">
<rect x="22.818" display="none" fill="#F1F1F1" width="80" height="81.839"/>
<g>
	<path fill="#444444" d="M79.7,65.719c0,8.216-6.665,14.881-14.88,14.881H15.22c-8.215,0-14.88-6.665-14.88-14.881v-49.6
		c0-8.215,6.665-14.88,14.88-14.88H64.82c8.215,0,14.88,6.665,14.88,14.88V65.719z M66.371,55.438
		c-0.311-0.93-7.854-4.753-9.301-5.58c-0.98-0.568-2.17-1.703-3.358-1.703c-2.272,0-5.631,6.766-7.646,6.766
		c-1.034,0-2.325-0.93-3.256-1.445C35.99,49.651,31.288,44.95,27.465,38.13c-0.517-0.93-1.447-2.222-1.447-3.255
		c0-2.015,6.769-5.373,6.769-7.646c0-1.188-1.137-2.377-1.706-3.358c-0.827-1.447-4.649-8.99-5.58-9.3
		c-0.259-0.103-0.569-0.103-0.827-0.103c-1.344,0-3.979,0.62-5.219,1.136c-3.41,1.55-5.89,8.061-5.89,11.625
		c0,3.461,1.395,6.614,2.583,9.817C20.283,48.36,32.58,60.657,43.896,64.79c3.202,1.189,6.354,2.584,9.815,2.584
		c3.564,0,10.074-2.48,11.626-5.89c0.516-1.24,1.136-3.876,1.136-5.219C66.474,56.006,66.474,55.697,66.371,55.438z"/>
</g>
</svg>
