<?xml version="1.0" encoding="utf-8"?>
<!-- Generator: Adobe Illustrator 21.0.0, SVG Export Plug-In . SVG Version: 6.00 Build 0)  -->
<svg version="1.1" id="图层_1" xmlns="http://www.w3.org/2000/svg" xmlns:xlink="http://www.w3.org/1999/xlink" x="0px" y="0px"
	 viewBox="0 0 1000 1000" style="enable-background:new 0 0 1000 1000;" xml:space="preserve">
<style type="text/css">
	.st0{fill-rule:evenodd;clip-rule:evenodd;}
</style>
<g>
	<path class="st0" d="M662.8,181.2c-1.3-2.1-3-3.8-4.5-5.8l-26.6-25.7c-11.4-7.3-24.5-12.6-39.4-15.6
		c-17.2-21.7-50.1-33.6-94.4-33.6c-67,1.2-116.1,21.7-145.8,60.9c-35.2,46.4-41.7,130.7-19.5,223.1c-8.2,10-14.3,25.5-11.9,45.7
		c4.8,40,20.8,56.3,33.6,62.9c6.2,31.6,23.4,83,40.2,99.8l-1.5,65.3c0,7-1.4,13.9-3.9,20.3L500,793l110.9-114.7
		c-2.3-6.3-3.7-12.9-3.7-19.9l-1-65.7c16.3-16.7,33.2-68.1,39.3-99.7c12.8-6.6,28.7-23,33.5-62.9c2.4-19.8-3.4-35.1-11.4-45.2
		C678.3,349,700.1,241.3,662.8,181.2z"/>
	<path class="st0" d="M408.4,8.2C211.3,43.1,54.1,193.7,11.9,389.4c-42,195.1,30.5,376.8,162.7,490.1c1,0.8,1.8,1.6,2.7,2.3
		c2.7,2.3,5.3,4.5,8,6.6c1,0.8,2.1,1.8,3.1,2.5c2.7,2.1,5.7,4.3,8.4,6.4c0.8,0.6,1.8,1.4,2.5,2c7.4,5.7,15,10.9,22.7,16.2
		c1,0.6,2,1.4,2.9,2c2.9,2,5.9,3.7,8.8,5.7c1.2,0.8,2.3,1.6,3.5,2.1l8.8,5.3c1,0.6,2.1,1.4,3.1,2c3.9,2.3,8,4.5,12.1,6.8
		c70.9,38.7,152.3,60.5,238.7,60.5s167.8-21.9,238.7-60.5c4.1-2.1,8-4.5,12.1-6.8c1-0.6,2.1-1.2,3.1-1.8l8.8-5.3
		c1.2-0.8,2.3-1.6,3.5-2.1c2.9-1.8,5.9-3.7,8.8-5.7c1-0.6,2-1.4,2.9-2c7.8-5.1,15.2-10.5,22.7-16.2c0.8-0.6,1.8-1.4,2.5-2
		c2.7-2.1,5.7-4.3,8.4-6.4c1-0.8,2.1-1.8,3.1-2.5c2.7-2.1,5.5-4.5,8-6.6c1-0.8,1.8-1.6,2.7-2.3C932.2,787.9,1000,651.9,1000,500.2
		C1000,193.7,724.8-48.1,408.4,8.2L408.4,8.2z M808,810.5c-9.6-11.5-21.5-21.3-35-28.5l-128.5-70.1l4.1,4.3l-74.2,192.2l-74.2-115.2
		L426,908.4l-74.6-192.2l4.1-4.1L227.3,782c-13.5,7.4-25.4,17.2-35,28.5C111.9,731.2,62.5,621.3,62.5,500
		c0-241,195.1-436.7,435.9-437.5c238.5-0.8,435,191.4,438.9,430.1C939.5,616.8,889.6,729.7,808,810.5L808,810.5z"/>
</g>
</svg>
