<?xml version="1.0" encoding="utf-8"?>
<!-- Generator: Adobe Illustrator 16.0.0, SVG Export Plug-In . SVG Version: 6.00 Build 0)  -->
<!DOCTYPE svg PUBLIC "-//W3C//DTD SVG 1.1//EN" "http://www.w3.org/Graphics/SVG/1.1/DTD/svg11.dtd">
<svg version="1.1" id="图形" xmlns="http://www.w3.org/2000/svg" xmlns:xlink="http://www.w3.org/1999/xlink" x="0px" y="0px"
	 width="80px" height="81.839px" viewBox="0 0 80 81.839" enable-background="new 0 0 80 81.839" xml:space="preserve">
<rect x="22.818" display="none" fill="#F1F1F1" width="80" height="81.839"/>
<g>
	<path fill="#444444" d="M79.657,4.545L68.315,72.597c-0.133,0.842-0.665,1.551-1.419,1.994c-0.396,0.222-0.885,0.354-1.372,0.354
		c-0.354,0-0.709-0.089-1.063-0.222l-20.07-8.196L33.669,79.597c-0.531,0.665-1.329,1.02-2.171,1.02
		c-0.31,0-0.665-0.045-0.975-0.177c-1.107-0.399-1.861-1.463-1.861-2.659V62.318L66.942,15.4L19.58,56.382l-17.5-7.178
		c-1.02-0.398-1.684-1.329-1.772-2.438c-0.044-1.063,0.487-2.082,1.417-2.613L75.449,1.621c0.443-0.266,0.93-0.398,1.417-0.398
		c0.575,0,1.152,0.177,1.596,0.488C79.391,2.374,79.834,3.438,79.657,4.545z"/>
</g>
</svg>
