<?xml version="1.0" encoding="utf-8"?>
<!-- Generator: Adobe Illustrator 16.0.0, SVG Export Plug-In . SVG Version: 6.00 Build 0)  -->
<!DOCTYPE svg PUBLIC "-//W3C//DTD SVG 1.1//EN" "http://www.w3.org/Graphics/SVG/1.1/DTD/svg11.dtd">
<svg version="1.1" id="图形" xmlns="http://www.w3.org/2000/svg" xmlns:xlink="http://www.w3.org/1999/xlink" x="0px" y="0px"
	 width="80px" height="81.839px" viewBox="0 0 80 81.839" enable-background="new 0 0 80 81.839" xml:space="preserve">
<rect x="22.818" display="none" fill="#F1F1F1" width="80" height="81.839"/>
<g>
	<path fill="#444444" d="M40.031,80.625c-21.875,0-39.622-17.748-39.622-39.622c0-21.874,17.747-39.621,39.622-39.621
		S79.651,19.13,79.651,41.003C79.651,62.877,61.905,80.625,40.031,80.625z M63.142,37.702c0-1.806-1.496-3.302-3.301-3.302H46.634
		V21.193c0-1.806-1.496-3.302-3.303-3.302h-6.603c-1.805,0-3.301,1.496-3.301,3.302V34.4H20.22c-1.806,0-3.302,1.496-3.302,3.302
		v6.603c0,1.807,1.496,3.303,3.302,3.303h13.208v13.207c0,1.805,1.496,3.301,3.301,3.301h6.603c1.807,0,3.303-1.496,3.303-3.301
		V47.608h13.207c1.805,0,3.301-1.496,3.301-3.303V37.702z"/>
</g>
</svg>
