<?xml version="1.0" encoding="utf-8"?>
<!-- Generator: Adobe Illustrator 16.0.0, SVG Export Plug-In . SVG Version: 6.00 Build 0)  -->
<!DOCTYPE svg PUBLIC "-//W3C//DTD SVG 1.1//EN" "http://www.w3.org/Graphics/SVG/1.1/DTD/svg11.dtd">
<svg version="1.1" id="图形" xmlns="http://www.w3.org/2000/svg" xmlns:xlink="http://www.w3.org/1999/xlink" x="0px" y="0px"
	 width="80px" height="81.839px" viewBox="0 0 80 81.839" enable-background="new 0 0 80 81.839" xml:space="preserve">
<rect x="22.818" display="none" fill="#F1F1F1" width="80" height="81.839"/>
<g>
	<g>
		<path fill="#444444" d="M53.066,81.393H14.908c-6.941,0-11.657-4.234-11.657-11.308c0-9.866,2.313-25.015,15.105-25.015
			c1.353,0,7.072,6.07,15.629,6.07c8.558,0,14.275-6.07,15.63-6.07c12.791,0,15.105,15.148,15.105,25.015
			C64.721,77.159,60.006,81.393,53.066,81.393z M33.987,47.864c-9.255,0-16.764-7.509-16.764-16.763s7.51-16.764,16.764-16.764
			c9.255,0,16.765,7.51,16.765,16.764S43.242,47.864,33.987,47.864z"/>
	</g>
	<g>
		<path fill="#444444" d="M68.572,19.605c-1.633,0.301-3.04,1.584-3.275,2.25c-0.182,0.504-0.786,0.963-1.312,0.775l-5.508-1.954
			c-0.505-0.179-0.551-1.074-0.372-1.578l0.366-1.032c0.985-2.778,4.588-4.188,6.935-4.39c2.053-0.176,3.055-0.673,3.576-2.143
			c0.455-1.285-0.814-3.028-2.669-3.687c-1.033-0.366-2.089-0.379-2.717-0.214c-0.686,0.194-1.432,0.55-3.393,1.768
			c-0.264,0.165-0.59,0.204-0.842,0.116c-0.206-0.074-0.368-0.207-0.511-0.387l-2.746-4.206c-0.284-0.438-0.196-0.974,0.205-1.297
			c3.934-3.23,8.132-3.989,12.817-2.327c4.913,1.742,9.028,7.622,7.163,12.877C74.741,18.539,71.185,19.163,68.572,19.605z
			 M62.195,30.886c-0.18,0.504-0.74,0.771-1.245,0.592l-5.507-1.954c-0.508-0.178-0.775-0.739-0.595-1.244l1.955-5.509
			c0.179-0.504,0.736-0.771,1.244-0.591l5.509,1.953c0.502,0.179,0.771,0.739,0.594,1.245L62.195,30.886z"/>
	</g>
</g>
</svg>
