<?xml version="1.0" encoding="utf-8"?>
<!-- Generator: Adobe Illustrator 16.0.0, SVG Export Plug-In . SVG Version: 6.00 Build 0)  -->
<!DOCTYPE svg PUBLIC "-//W3C//DTD SVG 1.1//EN" "http://www.w3.org/Graphics/SVG/1.1/DTD/svg11.dtd">
<svg version="1.1" id="图层_1" xmlns="http://www.w3.org/2000/svg" xmlns:xlink="http://www.w3.org/1999/xlink" x="0px" y="0px"
	 width="1001px" height="1024px" viewBox="0 0 1001 1024" enable-background="new 0 0 1001 1024" xml:space="preserve">
<g id="icomoon-ignore">
</g>
<path fill="#444444" d="M1000.017,549.766c0,37.398-30.387,32.803-67.802,32.803H580.017V949.5
	c0,37.399-15.404,58.366-52.802,58.366h-42.198c-37.398,0-49.818-5.299-49.818-67.769V582.568H72.669
	c-37.399,0-67.802,4.596-67.802-32.803v-76.08c0-37.399,30.405-35.794,67.802-35.794h362.513V57.5
	c0-37.399,12.421-44.767,49.818-44.767h42.197c37.399,0,52.803,7.37,52.803,44.767v380.391h352.198
	c37.414,0,67.803-2.613,67.803,34.785L1000.017,549.766z"/>
</svg>
