<?xml version="1.0" encoding="utf-8"?>
<!-- Generator: Adobe Illustrator 16.0.0, SVG Export Plug-In . SVG Version: 6.00 Build 0)  -->
<!DOCTYPE svg PUBLIC "-//W3C//DTD SVG 1.1//EN" "http://www.w3.org/Graphics/SVG/1.1/DTD/svg11.dtd">
<svg version="1.1" id="图形" xmlns="http://www.w3.org/2000/svg" xmlns:xlink="http://www.w3.org/1999/xlink" x="0px" y="0px"
	 width="80px" height="81.839px" viewBox="0 0 80 81.839" enable-background="new 0 0 80 81.839" xml:space="preserve">
<rect x="22.818" display="none" fill="#F1F1F1" width="80" height="81.839"/>
<g id="Window">
	<g>
		<path fill-rule="evenodd" clip-rule="evenodd" fill="#444444" d="M60.727,10.394H9.056c-3.885,0-7.046,3.416-7.046,7.617v55.862
			c0,4.2,3.161,7.617,7.046,7.617h51.671c3.885,0,7.046-3.417,7.046-7.617V18.01C67.772,13.81,64.611,10.394,60.727,10.394z
			 M63.075,73.873c0,1.403-1.053,2.538-2.349,2.538H9.056c-1.294,0-2.349-1.135-2.349-2.538V35.784h56.368V73.873z M63.075,30.706
			H6.707V18.01c0-1.4,1.055-2.539,2.349-2.539h51.671c1.296,0,2.349,1.139,2.349,2.539V30.706z M51.331,25.628h4.698v-5.079h-4.698
			V25.628z M44.285,20.549H13.753c-1.296,0-2.349,1.141-2.349,2.54c0,1.403,1.052,2.54,2.349,2.54h30.532
			c1.296,0,2.35-1.137,2.35-2.54C46.635,21.689,45.581,20.549,44.285,20.549z M70.121,0.236h-51.67
			c-3.886,0-7.046,3.418-7.046,7.618h4.697c0-1.4,1.055-2.539,2.349-2.539h51.67c1.295,0,2.349,1.139,2.349,2.539v55.861
			c0,1.403-1.054,2.539-2.349,2.539v5.078c3.885,0,7.046-3.417,7.046-7.617V7.854C77.167,3.654,74.006,0.236,70.121,0.236z"/>
	</g>
</g>
</svg>
