<?xml version="1.0" encoding="utf-8"?>
<!-- Generator: Adobe Illustrator 16.0.0, SVG Export Plug-In . SVG Version: 6.00 Build 0)  -->
<!DOCTYPE svg PUBLIC "-//W3C//DTD SVG 1.1//EN" "http://www.w3.org/Graphics/SVG/1.1/DTD/svg11.dtd">
<svg version="1.1" id="图形" xmlns="http://www.w3.org/2000/svg" xmlns:xlink="http://www.w3.org/1999/xlink" x="0px" y="0px"
	 width="80px" height="81.839px" viewBox="0 0 80 81.839" enable-background="new 0 0 80 81.839" xml:space="preserve">
<rect x="22.818" display="none" fill="#F1F1F1" width="80" height="81.839"/>
<path fill="#444444" d="M28.374,36.771c1.332,0.221,2.625,0.573,3.854,1.044l2.37-3.226c2.056,0.546,3.749,1.525,5.074,2.929
	l-1.713,3.632c0.499,0.408,0.975,0.842,1.432,1.303c0.484,0.482,0.942,0.989,1.378,1.525l3.666-1.607
	c1.514,1.497,2.484,3.188,2.932,5.073l-3.302,2.284c0.46,1.228,0.807,2.523,1.025,3.852l3.973,0.447
	c0.567,2.055,0.567,4.011,0,5.861l-3.991,0.325c-0.221,1.339-0.572,2.621-1.04,3.853l3.223,2.377
	c-0.544,2.049-1.523,3.738-2.937,5.072l-3.625-1.719c-0.412,0.498-0.846,0.979-1.305,1.432c-0.484,0.49-0.995,0.943-1.525,1.377
	l1.607,3.67c-1.496,1.514-3.188,2.484-5.074,2.929l-2.284-3.298c-1.228,0.459-2.522,0.809-3.853,1.023l-0.443,3.976
	c-2.052,0.563-4.011,0.563-5.86,0l-0.327-3.995c-1.332-0.22-2.62-0.571-3.849-1.042l-2.376,3.226
	c-2.055-0.546-3.751-1.523-5.075-2.932l1.721-3.63c-0.5-0.408-0.98-0.841-1.432-1.304c-0.49-0.48-0.949-0.989-1.377-1.525
	l-3.672,1.605c-1.511-1.497-2.49-3.188-2.929-5.073l3.295-2.284c-0.458-1.226-0.804-2.524-1.016-3.851l-3.978-0.446
	c-0.561-2.052-0.561-4.013,0-5.86l3.997-0.326c0.222-1.331,0.573-2.623,1.044-3.854l-3.225-2.371
	c0.544-2.055,1.519-3.754,2.928-5.077l3.627,1.718c0.414-0.5,0.847-0.979,1.31-1.432c0.479-0.488,0.986-0.941,1.518-1.374
	l-1.606-3.67c1.502-1.516,3.193-2.485,5.075-2.929l2.282,3.29c1.236-0.454,2.524-0.803,3.859-1.017l0.442-3.974
	c2.052-0.563,4.007-0.563,5.86,0L28.374,36.771L28.374,36.771z M66.603,19.471l0.07-2.778c-1.231-0.521-2.58-0.669-4.037-0.43
	l-0.602,2.708c-0.932,0.048-1.85,0.186-2.736,0.417l-1.33-2.44c-1.328,0.166-2.565,0.711-3.718,1.644l0.843,2.644
	c-0.399,0.259-0.788,0.546-1.159,0.84c-0.351,0.278-0.685,0.574-1.001,0.887l-2.377-1.45c-1.066,0.814-1.868,1.905-2.395,3.281
	l2.05,1.876c-0.415,0.813-0.755,1.674-1.005,2.577l-2.783-0.074c-0.522,1.239-0.665,2.588-0.436,4.048l2.712,0.6
	c0.049,0.934,0.191,1.849,0.42,2.736l-2.445,1.32c0.164,1.331,0.721,2.569,1.646,3.715l2.648-0.832
	c0.26,0.396,0.537,0.774,0.836,1.145c0.28,0.35,0.576,0.692,0.892,1.008l-1.451,2.375c0.808,1.07,1.903,1.865,3.278,2.394
	l1.878-2.042c0.813,0.416,1.671,0.747,2.578,1.007l-0.075,2.782c1.24,0.517,2.589,0.664,4.043,0.435l0.597-2.718
	c0.938-0.048,1.854-0.193,2.737-0.416l1.33,2.438c1.33-0.165,2.57-0.711,3.719-1.644l-0.833-2.644
	c0.396-0.259,0.775-0.546,1.146-0.843c0.35-0.276,0.683-0.579,1.008-0.896l2.374,1.461c1.072-0.814,1.866-1.904,2.393-3.281
	l-2.044-1.875c0.41-0.813,0.749-1.682,1.003-2.579l2.776,0.064c0.527-1.228,0.67-2.579,0.435-4.039l-2.707-0.601
	c-0.05-0.935-0.194-1.849-0.415-2.736l2.439-1.321c-0.165-1.33-0.712-2.569-1.644-3.715l-2.65,0.833
	c-0.262-0.398-0.536-0.785-0.832-1.155c-0.282-0.343-0.582-0.685-0.897-0.999l1.458-2.375c-0.811-1.071-1.904-1.867-3.288-2.398
	l-1.868,2.047C68.365,20.063,67.503,19.729,66.603,19.471L66.603,19.471z M63.441,27.012c1.667,0.184,3.111,1.016,4.086,2.234
	c0.976,1.211,1.491,2.793,1.311,4.466c-0.181,1.665-1.021,3.105-2.233,4.084c-1.209,0.972-2.797,1.489-4.463,1.312
	c-1.673-0.185-3.107-1.025-4.082-2.236c-0.982-1.209-1.493-2.792-1.313-4.465c0.178-1.663,1.018-3.104,2.23-4.083
	C60.187,27.344,61.773,26.835,63.441,27.012L63.441,27.012z M64.967,31.309c0.446,0.554,0.684,1.285,0.604,2.052
	c-0.082,0.768-0.471,1.423-1.026,1.877c-0.562,0.444-1.283,0.683-2.052,0.6c-0.767-0.082-1.428-0.471-1.876-1.026
	c-0.447-0.555-0.685-1.285-0.6-2.052c0.082-0.768,0.461-1.423,1.021-1.876c0.56-0.444,1.286-0.684,2.053-0.6
	C63.858,30.366,64.517,30.754,64.967,31.309L64.967,31.309z M70.048,27.207c1.499,1.858,2.29,4.288,2.011,6.848
	c-0.271,2.561-1.563,4.769-3.42,6.266c-1.855,1.496-4.284,2.283-6.843,2.006c-2.559-0.271-4.763-1.555-6.261-3.421
	c-1.498-1.848-2.291-4.278-2.015-6.839s1.563-4.768,3.42-6.266c1.857-1.497,4.286-2.281,6.847-2.014
	C66.348,24.063,68.551,25.347,70.048,27.207L70.048,27.207z M37.107,3.667l0.068-2.782c-1.232-0.518-2.583-0.665-4.041-0.435
	l-0.603,2.717c-0.933,0.044-1.847,0.188-2.735,0.415l-1.326-2.443c-1.326,0.166-2.568,0.718-3.715,1.645l0.836,2.647
	c-0.396,0.258-0.78,0.542-1.156,0.841c-0.347,0.278-0.684,0.575-1.003,0.888l-2.374-1.45c-1.069,0.813-1.869,1.904-2.396,3.28
	l2.048,1.876c-0.416,0.813-0.753,1.676-1.008,2.577l-2.782-0.068c-0.517,1.234-0.664,2.584-0.429,4.039l2.711,0.6
	c0.046,0.938,0.185,1.853,0.417,2.731l-2.445,1.329c0.167,1.332,0.717,2.57,1.645,3.717l2.647-0.832
	c0.258,0.397,0.542,0.775,0.84,1.146c0.277,0.35,0.579,0.693,0.888,1.007l-1.451,2.375c0.813,1.072,1.905,1.866,3.28,2.394
	l1.877-2.042c0.813,0.417,1.672,0.748,2.577,1.008l-0.07,2.771c1.235,0.527,2.583,0.667,4.04,0.435l0.6-2.708
	c0.938-0.047,1.854-0.194,2.735-0.416l1.326,2.441c1.33-0.167,2.569-0.712,3.72-1.645l-0.837-2.652
	c0.398-0.258,0.781-0.535,1.152-0.833c0.346-0.277,0.684-0.581,0.999-0.896l2.378,1.461c1.07-0.813,1.874-1.904,2.396-3.291
	l-2.044-1.866c0.414-0.813,0.746-1.682,1.005-2.579l2.776,0.064c0.524-1.228,0.666-2.578,0.435-4.038l-2.713-0.602
	c-0.042-0.934-0.192-1.847-0.414-2.737l2.44-1.326c-0.165-1.332-0.712-2.569-1.644-3.715l-2.647,0.836
	c-0.261-0.398-0.542-0.787-0.84-1.157c-0.279-0.347-0.577-0.684-0.893-1.002l1.459-2.372c-0.811-1.072-1.904-1.875-3.289-2.401
	l-1.868,2.052C38.872,4.259,38.003,3.922,37.107,3.667L37.107,3.667z M33.947,11.209c1.664,0.18,3.104,1.016,4.085,2.232
	c0.976,1.215,1.487,2.795,1.307,4.468c-0.181,1.665-1.017,3.105-2.232,4.086c-1.212,0.97-2.793,1.487-4.466,1.302
	c-1.667-0.175-3.104-1.016-4.083-2.227c-0.981-1.21-1.489-2.791-1.313-4.464c0.179-1.667,1.02-3.105,2.231-4.085
	C30.688,11.54,32.273,11.033,33.947,11.209L33.947,11.209z M35.472,15.506c0.444,0.553,0.684,1.284,0.6,2.052
	c-0.083,0.761-0.472,1.422-1.026,1.867c-0.555,0.453-1.283,0.693-2.051,0.61c-0.768-0.083-1.424-0.472-1.877-1.026
	c-0.447-0.554-0.684-1.285-0.6-2.051c0.082-0.768,0.467-1.428,1.026-1.877c0.555-0.446,1.284-0.683,2.052-0.6
	C34.362,14.564,35.018,14.947,35.472,15.506L35.472,15.506z M40.555,11.403c1.497,1.856,2.28,4.287,2.004,6.848
	c-0.272,2.559-1.557,4.768-3.416,6.265c-1.858,1.499-4.285,2.284-6.844,2.007c-2.561-0.277-4.768-1.562-6.266-3.42
	c-1.496-1.858-2.283-4.28-2.008-6.839c0.271-2.56,1.562-4.768,3.418-6.265c1.854-1.499,4.285-2.284,6.845-2.011
	C36.849,8.259,39.056,9.546,40.555,11.403L40.555,11.403z M25,48.076c-2.42,0-4.611,0.979-6.196,2.566
	c-1.584,1.581-2.569,3.781-2.569,6.203c0,2.41,0.985,4.613,2.569,6.191c1.585,1.589,3.776,2.567,6.196,2.567
	c2.422,0,4.617-0.979,6.202-2.567c1.589-1.578,2.57-3.781,2.57-6.191c0-2.42-0.981-4.622-2.57-6.203
	C29.617,49.054,27.422,48.076,25,48.076L25,48.076z M27.851,53.989c-0.73-0.722-1.731-1.174-2.852-1.174
	c-1.109,0-2.116,0.452-2.846,1.174c-0.73,0.732-1.177,1.737-1.177,2.856c0,1.107,0.447,2.113,1.177,2.846
	c0.73,0.721,1.737,1.173,2.846,1.173c1.119,0,2.122-0.452,2.852-1.173c0.726-0.732,1.18-1.738,1.18-2.846
	C29.031,55.726,28.577,54.721,27.851,53.989L27.851,53.989z M34.511,47.336c-2.431-2.43-5.794-3.938-9.511-3.938
	c-3.707,0-7.069,1.509-9.5,3.938c-2.435,2.429-3.935,5.793-3.935,9.509c0,3.706,1.501,7.067,3.935,9.499
	c2.431,2.428,5.794,3.938,9.5,3.938c3.717,0,7.08-1.51,9.511-3.938c2.43-2.432,3.937-5.796,3.937-9.499
	C38.446,53.129,36.941,49.765,34.511,47.336z"/>
</svg>
