<?xml version="1.0" encoding="utf-8"?>
<!-- Generator: Adobe Illustrator 16.0.0, SVG Export Plug-In . SVG Version: 6.00 Build 0)  -->
<!DOCTYPE svg PUBLIC "-//W3C//DTD SVG 1.1//EN" "http://www.w3.org/Graphics/SVG/1.1/DTD/svg11.dtd">
<svg version="1.1" id="图形" xmlns="http://www.w3.org/2000/svg" xmlns:xlink="http://www.w3.org/1999/xlink" x="0px" y="0px"
	 width="80px" height="81.839px" viewBox="0 0 80 81.839" enable-background="new 0 0 80 81.839" xml:space="preserve">
<rect x="22.818" display="none" fill="#F1F1F1" width="80" height="81.839"/>
<g>
	<path fill="#444444" d="M65.821,36.843L22.08,80.583H0.209v-21.87l43.74-43.741L65.821,36.843z M24.078,69.07L11.723,56.715
		L6.938,61.5v5.626h6.729v6.728h5.626L24.078,69.07z M45.632,23.91c-0.314,0-0.63,0.105-0.893,0.368L16.244,52.774
		c-0.263,0.261-0.368,0.576-0.368,0.894c0,0.683,0.473,1.156,1.156,1.156c0.316,0,0.631-0.105,0.895-0.368L46.422,25.96
		c0.262-0.263,0.367-0.579,0.367-0.893C46.789,24.384,46.316,23.91,45.632,23.91z M77.911,24.75l-8.726,8.727l-21.872-21.87
		l8.729-8.674c1.209-1.261,2.943-1.998,4.732-1.998c1.785,0,3.521,0.737,4.783,1.998l12.354,12.302
		c1.211,1.262,1.946,2.996,1.946,4.784C79.857,21.807,79.122,23.542,77.911,24.75z"/>
</g>
</svg>
