<?xml version="1.0" encoding="utf-8"?>
<!-- Generator: Adobe Illustrator 16.0.0, SVG Export Plug-In . SVG Version: 6.00 Build 0)  -->
<!DOCTYPE svg PUBLIC "-//W3C//DTD SVG 1.1//EN" "http://www.w3.org/Graphics/SVG/1.1/DTD/svg11.dtd">
<svg version="1.1" id="图形" xmlns="http://www.w3.org/2000/svg" xmlns:xlink="http://www.w3.org/1999/xlink" x="0px" y="0px"
	 width="80px" height="81.839px" viewBox="0 0 80 81.839" enable-background="new 0 0 80 81.839" xml:space="preserve">
<rect x="22.818" display="none" fill="#F1F1F1" width="80" height="81.839"/>
<g>
	<path fill="#444444" d="M79.68,64.404c0,8.946-7.26,16.206-16.205,16.206H16.653c-8.947,0-16.208-7.26-16.208-16.206V17.583
		c0-8.947,7.26-16.208,16.208-16.208h46.822c8.945,0,16.205,7.26,16.205,16.208V64.404z M72.479,17.583
		c0-4.953-4.051-9.004-9.004-9.004H16.653c-4.953,0-9.004,4.052-9.004,9.004v46.821c0,4.95,4.052,9.002,9.004,9.002h46.822
		c4.953,0,9.004-4.052,9.004-9.002V17.583z M65.275,42.793c0,1.013-0.789,1.801-1.801,1.801H43.664v19.81
		c0,1.013-0.787,1.8-1.799,1.8h-3.603c-1.013,0-1.801-0.787-1.801-1.8v-19.81H16.653c-1.013,0-1.801-0.788-1.801-1.801v-3.602
		c0-1.013,0.789-1.801,1.801-1.801h19.809V17.583c0-1.013,0.788-1.801,1.801-1.801h3.603c1.012,0,1.799,0.789,1.799,1.801V37.39
		h19.811c1.012,0,1.801,0.789,1.801,1.801V42.793z"/>
</g>
</svg>
