<?xml version="1.0" encoding="utf-8"?>
<!-- Generator: Adobe Illustrator 16.0.0, SVG Export Plug-In . SVG Version: 6.00 Build 0)  -->
<!DOCTYPE svg PUBLIC "-//W3C//DTD SVG 1.1//EN" "http://www.w3.org/Graphics/SVG/1.1/DTD/svg11.dtd">
<svg version="1.1" id="图形" xmlns="http://www.w3.org/2000/svg" xmlns:xlink="http://www.w3.org/1999/xlink" x="0px" y="0px"
	 width="80px" height="81.839px" viewBox="0 0 80 81.839" enable-background="new 0 0 80 81.839" xml:space="preserve">
<rect x="22.818" display="none" fill="#F1F1F1" width="80" height="81.839"/>
<path fill="#444444" d="M71.274,60.526c5.286,2.077,8.442,4.703,8.442,7.548c0,6.769-17.807,12.262-39.765,12.262
	c-21.954,0-39.755-5.493-39.755-12.262c0-2.845,3.151-5.471,8.432-7.548C7.37,61.404,6.67,62.355,6.67,63.341
	c0,4.602,14.901,8.324,33.279,8.324c18.385,0,33.289-3.726,33.289-8.324C73.238,62.355,72.548,61.404,71.274,60.526L71.274,60.526z
	 M20.43,4.809c3.995,0,7.23,3.235,7.23,7.229c0,3.989-3.235,7.225-7.23,7.225c-3.989,0-7.223-3.235-7.223-7.225
	C13.208,8.044,16.443,4.809,20.43,4.809L20.43,4.809z M59.362,4.809c-3.987,0-7.226,3.235-7.226,7.229
	c0,3.989,3.232,7.225,7.226,7.225c3.992,0,7.229-3.235,7.229-7.225C66.592,8.044,63.354,4.809,59.362,4.809L59.362,4.809z
	 M52.223,46.376v19.048h5.096l2.033-13.354l2.038,13.354h5.547V44.324c2.197-1.146,3.707-3.444,3.707-6.09V27.441
	c0-3.777-3.082-6.861-6.861-6.861h-8.438c-0.544,0-1.079,0.067-1.588,0.185c1.133,1.731,1.791,3.788,1.791,6v11.75
	C55.547,41.522,54.312,44.338,52.223,46.376L52.223,46.376z M40.078,2.138c4.338,0,7.863,3.52,7.863,7.864
	c0,4.34-3.525,7.864-7.863,7.864c-4.348,0-7.866-3.524-7.866-7.864C32.211,5.657,35.729,2.138,40.078,2.138L40.078,2.138z
	 M47.849,45.159c2.405-1.24,4.07-3.762,4.07-6.645V26.765c0-4.103-3.36-7.466-7.463-7.466h-9.191c-4.109,0-7.466,3.363-7.466,7.466
	v11.749c0,2.873,1.648,5.381,4.04,6.625v22.962h6.034l2.222-14.531l2.212,14.531h5.546L47.849,45.159L47.849,45.159z M27.572,46.376
	c-2.083-2.038-3.317-4.856-3.317-7.863v-11.75c0-2.211,0.658-4.268,1.788-6c-0.506-0.118-1.044-0.185-1.585-0.185h-8.442
	c-3.778,0-6.863,3.084-6.863,6.861v10.793c0,2.647,1.515,4.943,3.715,6.09v21.101h5.54l2.041-13.354l2.035,13.354h5.09V46.376z"/>
</svg>
