<?xml version="1.0" encoding="utf-8"?>
<!-- Generator: Adobe Illustrator 16.0.0, SVG Export Plug-In . SVG Version: 6.00 Build 0)  -->
<!DOCTYPE svg PUBLIC "-//W3C//DTD SVG 1.1//EN" "http://www.w3.org/Graphics/SVG/1.1/DTD/svg11.dtd">
<svg version="1.1" id="图形" xmlns="http://www.w3.org/2000/svg" xmlns:xlink="http://www.w3.org/1999/xlink" x="0px" y="0px"
	 width="80px" height="81.839px" viewBox="0 0 80 81.839" enable-background="new 0 0 80 81.839" xml:space="preserve">
<rect x="22.818" display="none" fill="#F1F1F1" width="80" height="81.839"/>
<g>
	<path fill="#444444" d="M40.001,81.646c-20.654,0-37.494-16.839-37.494-37.494c0-11.867,5.465-22.8,14.987-29.932
		c2.784-2.099,6.693-1.559,8.743,1.224c2.098,2.733,1.508,6.683-1.226,8.74c-6.35,4.783-10.008,12.057-10.008,19.968
		c0,13.764,11.231,24.99,24.998,24.99c13.765,0,24.996-11.227,24.996-24.99c0-7.912-3.658-15.185-10.009-19.968
		c-2.734-2.058-3.325-6.007-1.226-8.74c2.052-2.783,6.009-3.324,8.74-1.224c9.524,7.134,14.99,18.065,14.99,29.932
		C77.494,64.807,60.655,81.646,40.001,81.646z M46.248,37.902c0,3.417-2.831,6.252-6.247,6.252c-3.416,0-6.249-2.835-6.249-6.252
		V6.658c0-3.416,2.833-6.249,6.249-6.249c3.416,0,6.247,2.833,6.247,6.249V37.902z"/>
</g>
</svg>
