<?xml version="1.0" encoding="utf-8"?>
<!-- Generator: Adobe Illustrator 16.0.0, SVG Export Plug-In . SVG Version: 6.00 Build 0)  -->
<!DOCTYPE svg PUBLIC "-//W3C//DTD SVG 1.1//EN" "http://www.w3.org/Graphics/SVG/1.1/DTD/svg11.dtd">
<svg version="1.1" id="图形" xmlns="http://www.w3.org/2000/svg" xmlns:xlink="http://www.w3.org/1999/xlink" x="0px" y="0px"
	 width="80px" height="81.839px" viewBox="0 0 80 81.839" enable-background="new 0 0 80 81.839" xml:space="preserve">
<rect x="22.818" display="none" fill="#F1F1F1" width="80" height="81.839"/>
<g>
	<path fill="#444444" d="M63.009,58.6c0,7.076-5.741,12.816-12.818,12.816H13.168c-7.075,0-12.816-5.74-12.816-12.816V21.575
		c0-7.075,5.741-12.816,12.816-12.816h37.023c1.783,0,3.561,0.357,5.208,1.113c0.399,0.178,0.709,0.577,0.8,1.023
		c0.087,0.49-0.044,0.934-0.4,1.291l-2.181,2.181c-0.403,0.399-0.937,0.533-1.425,0.355c-0.669-0.177-1.335-0.266-2.005-0.266
		H13.167c-3.917,0-7.122,3.204-7.122,7.119V58.6c0,3.915,3.205,7.118,7.122,7.118H50.19c3.916,0,7.12-3.203,7.12-7.118v-5.607
		c0-0.355,0.137-0.711,0.403-0.978l2.847-2.851c0.442-0.443,1.021-0.533,1.559-0.313c0.536,0.224,0.89,0.713,0.89,1.29V58.6
		L63.009,58.6z M71.554,30.119L41.65,60.024H28.832V47.207l29.905-29.903L71.554,30.119z M45.032,50.589l-6.764-6.763l-5.163,5.161
		v2.49h4.273v4.273h2.492L45.032,50.589z M57.98,23.756L42.405,39.33c-0.4,0.401-0.445,1.069-0.045,1.47
		c0.402,0.399,1.069,0.356,1.47-0.044l15.575-15.575c0.399-0.4,0.444-1.068,0.043-1.47C59.049,23.312,58.382,23.356,57.98,23.756z
		 M74.401,27.271L61.584,14.456l4.096-4.094c1.646-1.646,4.405-1.646,6.051,0l6.765,6.765c1.646,1.646,1.646,4.406,0,6.053
		L74.401,27.271z"/>
</g>
</svg>
