<?xml version="1.0" encoding="utf-8"?>
<!-- Generator: Adobe Illustrator 16.0.0, SVG Export Plug-In . SVG Version: 6.00 Build 0)  -->
<!DOCTYPE svg PUBLIC "-//W3C//DTD SVG 1.1//EN" "http://www.w3.org/Graphics/SVG/1.1/DTD/svg11.dtd">
<svg version="1.1" id="图形" xmlns="http://www.w3.org/2000/svg" xmlns:xlink="http://www.w3.org/1999/xlink" x="0px" y="0px"
	 width="80px" height="81.839px" viewBox="0 0 80 81.839" enable-background="new 0 0 80 81.839" xml:space="preserve">
<rect x="22.818" display="none" fill="#F1F1F1" width="80" height="81.839"/>
<path fill="#444444" d="M11.75,6.712h55.258h2.802l0.58,2.746l9.412,43.883l-3.383,9.729H47.147v6.436h9.535v5.622H23.175v-5.622
	h9.786v-6.436H3.684l-3.397-9.638l8.067-43.88l0.521-2.842L11.75,6.712L11.75,6.712z M48.179,17.651
	c0.132,1.716,0.261,3.482,0.398,5.285c0.143,1.866,0.285,3.782,0.437,5.759c2.198,0,4.402,0,6.595,0
	c2.21-0.005,4.41-0.005,6.616-0.005c-0.338-1.972-0.672-3.895-0.996-5.754c-0.316-1.803-0.628-3.569-0.923-5.285
	c-2.03,0-4.051,0-6.071,0C52.225,17.651,50.203,17.651,48.179,17.651L48.179,17.651z M49.26,31.964
	c0.16,2.146,0.325,4.357,0.5,6.628c0.174,2.352,0.358,4.784,0.549,7.287c2.491,0,4.968,0,7.452,0
	c2.489-0.006,4.977-0.006,7.47-0.006c-0.436-2.508-0.864-4.935-1.272-7.291c-0.396-2.274-0.78-4.481-1.156-6.618
	c-2.265,0-4.523,0-6.773,0C53.771,31.964,51.514,31.964,49.26,31.964L49.26,31.964z M33.103,31.974
	c-0.089,2.137-0.182,4.348-0.282,6.624c-0.099,2.352-0.203,4.791-0.311,7.292c2.484,0,4.97,0,7.456,0
	c2.492,0,4.973-0.006,7.464-0.006c-0.14-2.508-0.278-4.94-0.409-7.292c-0.123-2.271-0.256-4.482-0.376-6.624
	c-2.262,0.005-4.52,0.005-6.775,0.005C37.62,31.974,35.358,31.974,33.103,31.974L33.103,31.974z M16.932,31.974
	c-0.345,2.148-0.699,4.357-1.064,6.633c-0.376,2.351-0.767,4.785-1.168,7.291c2.476,0,4.972,0,7.454,0
	c2.489-0.005,4.982-0.005,7.473-0.005c0.156-2.508,0.303-4.94,0.447-7.293c0.139-2.28,0.275-4.49,0.408-6.628
	c-2.258,0-4.515,0-6.776,0C21.448,31.974,19.187,31.974,16.932,31.974L16.932,31.974z M33.712,17.651
	c-0.072,1.716-0.151,3.478-0.229,5.285c-0.077,1.866-0.157,3.782-0.244,5.765c2.203,0,4.402,0,6.608,0
	c2.202,0,4.403-0.005,6.611-0.005c-0.106-1.977-0.218-3.894-0.32-5.759c-0.104-1.808-0.198-3.569-0.297-5.285
	c-2.029,0-4.05,0-6.068,0C37.752,17.651,35.735,17.651,33.712,17.651L33.712,17.651z M19.234,17.651
	c-0.27,1.716-0.556,3.482-0.848,5.285c-0.299,1.866-0.611,3.791-0.924,5.765c2.199,0,4.403,0,6.607,0c2.2,0,4.409,0,6.62,0
	c0.12-1.982,0.24-3.899,0.354-5.765c0.115-1.808,0.22-3.569,0.322-5.285c-2.027,0-4.048,0-6.064,0
	C23.278,17.651,21.258,17.651,19.234,17.651L19.234,17.651z M64.212,13.649H14.628l-6.791,36.94h64.299L64.212,13.649z"/>
</svg>
