<?xml version="1.0" encoding="utf-8"?>
<!-- Generator: Adobe Illustrator 16.0.0, SVG Export Plug-In . SVG Version: 6.00 Build 0)  -->
<!DOCTYPE svg PUBLIC "-//W3C//DTD SVG 1.1//EN" "http://www.w3.org/Graphics/SVG/1.1/DTD/svg11.dtd">
<svg version="1.1" id="图形" xmlns="http://www.w3.org/2000/svg" xmlns:xlink="http://www.w3.org/1999/xlink" x="0px" y="0px"
	 width="80px" height="81.839px" viewBox="0 0 80 81.839" enable-background="new 0 0 80 81.839" xml:space="preserve">
<rect x="22.818" display="none" fill="#F1F1F1" width="80" height="81.839"/>
<g>
	<path fill="#444444" d="M40.018,80.653c-21.84,0-39.558-17.72-39.558-39.558c0-21.839,17.718-39.557,39.558-39.557
		c21.838,0,39.556,17.718,39.556,39.557C79.573,62.933,61.855,80.653,40.018,80.653z M41.047,14.723
		c-8.396,0-14.679,3.606-19.109,10.971c-0.463,0.721-0.256,1.648,0.413,2.163l6.799,5.151c0.258,0.207,0.618,0.309,0.979,0.309
		c0.463,0,0.979-0.206,1.287-0.617c2.421-3.091,3.452-4.019,4.43-4.738c0.875-0.619,2.576-1.237,4.429-1.237
		c3.297,0,6.336,2.112,6.336,4.378c0,2.678-1.392,4.018-4.533,5.46c-3.657,1.648-8.653,5.923-8.653,10.92v1.854
		c0,0.926,0.721,1.647,1.648,1.647h9.89c0.928,0,1.648-0.722,1.648-1.647c0-1.188,1.493-3.709,3.914-5.101
		c3.914-2.214,9.271-5.203,9.271-13.031C59.795,21.78,49.905,14.723,41.047,14.723z M46.61,55.93c0-0.927-0.721-1.649-1.648-1.649
		h-9.89c-0.927,0-1.648,0.723-1.648,1.649v9.887c0,0.93,0.721,1.649,1.648,1.649h9.89c0.928,0,1.648-0.72,1.648-1.649V55.93z"/>
</g>
</svg>
