<?xml version="1.0" encoding="utf-8"?>
<!-- Generator: Adobe Illustrator 16.0.0, SVG Export Plug-In . SVG Version: 6.00 Build 0)  -->
<!DOCTYPE svg PUBLIC "-//W3C//DTD SVG 1.1//EN" "http://www.w3.org/Graphics/SVG/1.1/DTD/svg11.dtd">
<svg version="1.1" id="Layer_1" xmlns="http://www.w3.org/2000/svg" xmlns:xlink="http://www.w3.org/1999/xlink" x="0px" y="0px"
	 width="80px" height="80px" viewBox="73.385 73.385 80 80" enable-background="new 73.385 73.385 80 80" xml:space="preserve">
<g>
	<path fill="#333333" d="M96.719,80.052v16.666H80.052V80.052H96.719 M103.385,73.385H73.385v30h29.999V73.385L103.385,73.385z"/>
</g>
<g>
	<rect x="83.386" y="83.385" fill="#333333" width="9.999" height="10"/>
</g>
<g>
	<rect x="110.052" y="73.385" fill="#333333" width="6.667" height="6.667"/>
</g>
<g>
	<rect x="110.052" y="86.718" fill="#333333" width="6.667" height="6.667"/>
</g>
<g>
	<rect x="110.052" y="93.385" fill="#333333" width="6.667" height="6.667"/>
</g>
<g>
	<rect x="73.385" y="106.718" fill="#333333" width="6.667" height="6.667"/>
</g>
<g>
	<rect x="80.052" y="113.385" fill="#333333" width="6.666" height="6.665"/>
</g>
<g>
	<rect x="86.719" y="106.718" fill="#333333" width="6.667" height="6.667"/>
</g>
<g>
	<rect x="100.052" y="106.718" fill="#333333" width="6.666" height="6.667"/>
</g>
<g>
	<rect x="106.719" y="106.718" fill="#333333" width="6.667" height="6.667"/>
</g>
<g>
	<rect x="116.719" y="106.718" fill="#333333" width="6.665" height="6.667"/>
</g>
<g>
	<rect x="86.719" y="113.385" fill="#333333" width="6.667" height="6.665"/>
</g>
<g>
	<rect x="140.052" y="113.385" fill="#333333" width="6.666" height="6.665"/>
</g>
<g>
	<rect x="93.385" y="106.718" fill="#333333" width="6.667" height="6.667"/>
</g>
<g>
	<rect x="96.719" y="106.718" fill="#333333" width="6.666" height="6.667"/>
</g>
<g>
	<rect x="100.052" y="113.385" fill="#333333" width="6.666" height="6.665"/>
</g>
<g>
	<rect x="106.719" y="113.385" fill="#333333" width="6.667" height="6.665"/>
</g>
<g>
	<g>
		<rect x="110.052" y="140.052" fill="#333333" width="6.667" height="6.666"/>
	</g>
</g>
<g>
	<g>
		<rect x="110.052" y="133.384" fill="#333333" width="6.667" height="6.666"/>
	</g>
</g>
<g>
	<g>
		<rect x="146.719" y="113.385" fill="#333333" width="6.667" height="6.665"/>
	</g>
</g>
<g>
	<g>
		<rect x="140.052" y="106.718" fill="#333333" width="6.666" height="6.667"/>
	</g>
</g>
<g>
	<g>
		<rect x="133.385" y="113.385" fill="#333333" width="6.667" height="6.665"/>
	</g>
</g>
<g>
	<g>
		<rect x="120.052" y="113.385" fill="#333333" width="6.666" height="6.665"/>
	</g>
</g>
<g>
	<g>
		<rect x="116.719" y="113.385" fill="#333333" width="6.665" height="6.665"/>
	</g>
</g>
<g>
	<g>
		<rect x="123.386" y="140.052" fill="#333333" width="6.665" height="6.666"/>
	</g>
</g>
<g>
	<g>
		<rect x="116.719" y="133.384" fill="#333333" width="6.665" height="6.666"/>
	</g>
</g>
<g>
	<g>
		<rect x="123.386" y="126.718" fill="#333333" width="6.665" height="6.666"/>
	</g>
</g>
<g>
	<g>
		<rect x="116.719" y="126.718" fill="#333333" width="6.665" height="6.666"/>
	</g>
</g>
<g>
	<g>
		<rect x="116.719" y="113.385" fill="#333333" width="6.665" height="6.665"/>
	</g>
</g>
<g>
	<g>
		<rect x="136.719" y="146.718" fill="#333333" width="6.665" height="6.668"/>
	</g>
</g>
<g>
	<g>
		<rect x="123.386" y="146.718" fill="#333333" width="6.665" height="6.668"/>
	</g>
</g>
<g>
	<g>
		<rect x="140.052" y="126.718" fill="#333333" width="6.666" height="6.666"/>
	</g>
</g>
<g>
	<g>
		<rect x="130.052" y="140.052" fill="#333333" width="6.668" height="6.666"/>
	</g>
</g>
<g>
	<g>
		<rect x="136.719" y="133.384" fill="#333333" width="6.665" height="6.666"/>
	</g>
</g>
<g>
	<g>
		<rect x="130.052" y="133.384" fill="#333333" width="6.668" height="6.666"/>
	</g>
</g>
<g>
	<g>
		<rect x="136.719" y="126.718" fill="#333333" width="6.665" height="6.666"/>
	</g>
</g>
<g>
	<g>
		<rect x="146.719" y="146.718" fill="#333333" width="6.667" height="6.668"/>
	</g>
</g>
<g>
	<g>
		<rect x="140.052" y="140.052" fill="#333333" width="6.666" height="6.666"/>
	</g>
</g>
<g>
	<g>
		<rect x="146.719" y="133.384" fill="#333333" width="6.667" height="6.666"/>
	</g>
</g>
<g>
	<g>
		<rect x="140.052" y="133.384" fill="#333333" width="6.666" height="6.666"/>
	</g>
</g>
<g>
	<g>
		<rect x="146.719" y="126.718" fill="#333333" width="6.667" height="6.666"/>
	</g>
</g>
<g>
	<g>
		<rect x="110.052" y="113.385" fill="#333333" width="6.667" height="6.665"/>
	</g>
</g>
<g>
	<g>
		<rect x="126.719" y="106.718" fill="#333333" width="6.667" height="6.667"/>
	</g>
</g>
<g>
	<g>
		<rect x="120.052" y="106.718" fill="#333333" width="6.666" height="6.667"/>
	</g>
</g>
<g>
	<g>
		<rect x="116.719" y="106.718" fill="#333333" width="6.665" height="6.667"/>
	</g>
</g>
<g>
	<path fill="#333333" d="M96.719,130.052v16.666H80.052v-16.666H96.719 M103.385,123.385H73.385v30h29.999V123.385L103.385,123.385z
		"/>
</g>
<g>
	<rect x="83.386" y="133.384" fill="#333333" width="9.999" height="10"/>
</g>
<g>
	<path fill="#333333" d="M146.719,80.052v16.666h-16.667V80.052H146.719 M153.385,73.385h-29.999v30h29.999V73.385L153.385,73.385z"
		/>
</g>
<g>
	<rect x="133.385" y="83.385" fill="#333333" width="10.001" height="10"/>
</g>
</svg>
