<?xml version="1.0" encoding="utf-8"?>
<!-- Generator: Adobe Illustrator 16.0.0, SVG Export Plug-In . SVG Version: 6.00 Build 0)  -->
<!DOCTYPE svg PUBLIC "-//W3C//DTD SVG 1.1//EN" "http://www.w3.org/Graphics/SVG/1.1/DTD/svg11.dtd">
<svg version="1.1" id="图形" xmlns="http://www.w3.org/2000/svg" xmlns:xlink="http://www.w3.org/1999/xlink" x="0px" y="0px"
	 width="80px" height="81.839px" viewBox="0 0 80 81.839" enable-background="new 0 0 80 81.839" xml:space="preserve">
<rect x="22.818" display="none" fill="#F1F1F1" width="80" height="81.839"/>
<polygon fill="#444444" points="39.665,54.359 39.665,52.596 29.322,52.596 29.322,54.359 "/>
<path fill="#444444" d="M41.464,46.171l0.084-0.088l0.007-0.006c0.795-0.793,1.791-1.377,2.901-1.668H29.322v1.762H41.464
	L41.464,46.171z"/>
<polygon fill="#444444" points="22.227,50.339 21.457,50.339 21.457,51.112 21.457,55.937 21.457,56.705 22.227,56.705 
	27.05,56.705 27.821,56.705 27.821,55.937 27.821,51.112 27.821,50.339 27.05,50.339 "/>
<polygon fill="#444444" points="22.227,42.153 21.457,42.153 21.457,42.919 21.457,47.746 21.457,48.517 22.227,48.517 
	27.05,48.517 27.821,48.517 27.821,47.746 27.821,42.919 27.821,42.153 27.05,42.153 "/>
<polygon fill="#444444" points="29.322,35.941 29.322,37.703 46.611,37.703 46.611,35.941 "/>
<polygon fill="#444444" points="22.227,33.684 21.457,33.684 21.457,34.456 21.457,39.275 21.457,40.046 22.227,40.046 
	27.05,40.046 27.821,40.046 27.821,39.275 27.821,34.456 27.821,33.684 27.05,33.684 "/>
<polygon fill="#444444" points="29.322,27.954 29.322,29.719 46.611,29.719 46.611,27.954 "/>
<polygon fill="#444444" points="22.227,25.7 21.457,25.7 21.457,26.469 21.457,31.291 21.457,32.063 22.227,32.063 27.05,32.063 
	27.821,32.063 27.821,31.291 27.821,26.469 27.821,25.7 27.05,25.7 "/>
<g>
	<path fill="#444444" d="M12.262,0.298h40.902v5.385c2.537,0.302,4.82,1.469,6.539,3.191c2.025,2.018,3.278,4.811,3.278,7.88V48.95
		h-4.716V16.753c0-1.768-0.729-3.377-1.894-4.544c-0.865-0.862-1.974-1.483-3.208-1.748v5.478H12.262v-5.557
		c-1.416,0.197-2.682,0.863-3.651,1.827c-1.166,1.168-1.887,2.776-1.887,4.544v52.149c0,1.772,0.721,3.382,1.887,4.545
		c1.169,1.163,2.776,1.888,4.541,1.888h26.291v4.722H13.151c-3.068,0-5.856-1.255-7.876-3.279c-2.02-2.013-3.273-4.807-3.273-7.877
		V16.752c0-3.072,1.252-5.863,3.273-7.88c1.822-1.82,4.271-3.024,6.986-3.236V0.298L12.262,0.298z"/>
	<g>
		<path fill="#444444" d="M72.681,75.548c0,3.357-2.724,6.08-6.081,6.08H49.044c-3.356,0-6.081-2.721-6.081-6.08v-17.56
			c0-3.354,2.724-6.078,6.081-6.078h17.56c0.845,0,1.688,0.168,2.469,0.525c0.192,0.088,0.339,0.278,0.38,0.485
			c0.041,0.237-0.021,0.445-0.188,0.611l-1.036,1.036c-0.127,0.126-0.318,0.212-0.486,0.212c-0.063,0-0.126-0.021-0.188-0.041
			c-0.316-0.084-0.634-0.129-0.95-0.129h-17.56c-1.857,0-3.38,1.521-3.38,3.378v17.56c0,1.857,1.522,3.38,3.38,3.38h17.56
			c1.857,0,3.374-1.522,3.374-3.38v-5.36c0-0.167,0.067-0.339,0.192-0.464l1.353-1.352c0.147-0.149,0.316-0.209,0.483-0.209
			c0.084,0,0.166,0.021,0.255,0.06c0.251,0.107,0.42,0.341,0.42,0.613V75.548z M60.375,75.7c-0.674,0.671-1.729,0.671-2.406,0
			l-9.077-9.079c-0.674-0.676-0.674-1.729,0-2.404l2.326-2.325c0.676-0.675,1.728-0.675,2.403,0l5.552,5.551l13.655-13.655
			c0.679-0.674,1.731-0.674,2.406,0l2.324,2.323c0.673,0.677,0.673,1.73,0,2.406L60.375,75.7z"/>
	</g>
</g>
</svg>
