<?xml version="1.0" encoding="utf-8"?>
<!-- Generator: Adobe Illustrator 16.0.0, SVG Export Plug-In . SVG Version: 6.00 Build 0)  -->
<!DOCTYPE svg PUBLIC "-//W3C//DTD SVG 1.1//EN" "http://www.w3.org/Graphics/SVG/1.1/DTD/svg11.dtd">
<svg version="1.1" id="图形" xmlns="http://www.w3.org/2000/svg" xmlns:xlink="http://www.w3.org/1999/xlink" x="0px" y="0px"
	 width="80px" height="81.839px" viewBox="0 0 80 81.839" enable-background="new 0 0 80 81.839" xml:space="preserve">
<rect x="22.818" display="none" fill="#F1F1F1" width="80" height="81.839"/>
<g>
	<path fill="#444444" d="M78.794,21.903L64.799,35.896c-0.261,0.263-0.656,0.394-1.005,0.394c-0.745,0-1.398-0.612-1.398-1.399
		v-8.398H51.196c-5.818,0-8.572,3.98-11.022,8.704c-1.269,2.45-2.361,4.988-3.411,7.479c-4.855,11.284-10.541,23.007-24.755,23.007
		H2.211c-0.786,0-1.4-0.612-1.4-1.4v-8.397c0-0.787,0.612-1.4,1.4-1.4h9.797c5.817,0,8.572-3.979,11.023-8.702
		c1.269-2.446,2.361-4.987,3.41-7.477c4.855-11.284,10.541-23.007,24.755-23.007h11.199V6.899c0-0.786,0.61-1.398,1.398-1.398
		c0.394,0,0.744,0.173,1.049,0.436l13.951,13.952c0.262,0.263,0.395,0.656,0.395,1.004C79.188,21.243,79.056,21.64,78.794,21.903z
		 M23.95,37.078c-2.538-5.291-5.337-10.583-11.942-10.583H2.211c-0.786,0-1.4-0.612-1.4-1.399v-8.399c0-0.786,0.612-1.398,1.4-1.398
		h9.797c7.785,0,13.515,3.63,17.932,9.84C27.491,28.901,25.698,32.966,23.95,37.078z M78.794,61.088L64.799,75.085
		c-0.261,0.26-0.656,0.393-1.005,0.393c-0.745,0-1.398-0.654-1.398-1.398v-8.397c-12.991,0-20.996,1.53-29.088-9.843
		c2.407-3.759,4.198-7.83,5.948-11.938c2.537,5.29,5.337,10.581,11.94,10.581h11.199v-8.396c0-0.787,0.61-1.4,1.398-1.4
		c0.394,0,0.744,0.175,1.049,0.435l13.951,13.957c0.262,0.259,0.395,0.651,0.395,1.004S79.056,60.829,78.794,61.088z"/>
</g>
</svg>
