<?xml version="1.0" encoding="utf-8"?>
<!-- Generator: Adobe Illustrator 16.0.0, SVG Export Plug-In . SVG Version: 6.00 Build 0)  -->
<!DOCTYPE svg PUBLIC "-//W3C//DTD SVG 1.1//EN" "http://www.w3.org/Graphics/SVG/1.1/DTD/svg11.dtd">
<svg version="1.1" id="图形" xmlns="http://www.w3.org/2000/svg" xmlns:xlink="http://www.w3.org/1999/xlink" x="0px" y="0px"
	 width="80px" height="81.839px" viewBox="0 0 80 81.839" enable-background="new 0 0 80 81.839" xml:space="preserve">
<rect x="22.818" display="none" fill="#F1F1F1" width="80" height="81.839"/>
<g>
	<path fill="#444444" d="M28.694,53.925c0,1.153-0.709,2.172-1.727,2.614c-0.355,0.133-0.754,0.222-1.108,0.222
		c-0.753,0-1.462-0.266-1.994-0.842L1.181,33.236c-1.107-1.108-1.107-2.88,0-3.987L23.865,6.564c0.797-0.841,2.038-1.063,3.102-0.62
		c1.018,0.443,1.727,1.462,1.727,2.614v3.058L11.105,29.249c-1.107,1.107-1.107,2.879,0,3.987l17.589,17.588V53.925z M72.467,75.857
		c-0.221,0.486-0.709,0.753-1.24,0.753c-0.133,0-0.266,0-0.398-0.044c-0.664-0.223-1.064-0.842-1.02-1.507
		c1.285-12.095-0.223-20.07-4.697-25.032c-3.764-4.209-9.879-6.468-19.404-7.222v11.12c0,1.153-0.709,2.172-1.727,2.614
		c-0.355,0.133-0.754,0.222-1.109,0.222c-0.752,0-1.461-0.266-1.992-0.842L18.194,33.236c-1.108-1.108-1.108-2.88,0-3.987
		L40.879,6.564c0.797-0.841,2.037-1.063,3.102-0.62c1.018,0.443,1.727,1.462,1.727,2.614v11.608
		c12.229,0.842,20.957,4.076,26.539,9.791c6.689,6.867,7.486,16.171,7.486,22.55C79.732,61.723,72.777,75.28,72.467,75.857z"/>
</g>
</svg>
