<?xml version="1.0" encoding="utf-8"?>
<!-- Generator: Adobe Illustrator 16.0.0, SVG Export Plug-In . SVG Version: 6.00 Build 0)  -->
<!DOCTYPE svg PUBLIC "-//W3C//DTD SVG 1.1//EN" "http://www.w3.org/Graphics/SVG/1.1/DTD/svg11.dtd">
<svg version="1.1" id="图形" xmlns="http://www.w3.org/2000/svg" xmlns:xlink="http://www.w3.org/1999/xlink" x="0px" y="0px"
	 width="80px" height="81.839px" viewBox="0 0 80 81.839" enable-background="new 0 0 80 81.839" xml:space="preserve">
<rect x="22.818" display="none" fill="#F1F1F1" width="80" height="81.839"/>
<g>
	<path fill="#444444" d="M78.439,49.618c-4.39,18.281-19.47,31.036-38.525,31.036c-10.07,0-19.831-3.978-27.164-10.947l-6.662,6.662
		c-0.62,0.619-1.446,0.979-2.324,0.979c-1.808,0-3.305-1.498-3.305-3.305V50.909c0-1.809,1.498-3.306,3.305-3.306H26.9
		c1.807,0,3.305,1.497,3.305,3.306c0,0.877-0.361,1.703-0.981,2.323l-7.075,7.075c4.855,4.544,11.31,7.126,17.972,7.126
		c9.192,0,17.713-4.751,22.516-12.6c1.24-2.015,1.859-3.977,2.738-6.043c0.257-0.723,0.773-1.188,1.548-1.188h9.915
		c0.931,0,1.652,0.773,1.652,1.652C78.49,49.358,78.49,49.514,78.439,49.618z M79.781,31.077c0,1.807-1.496,3.305-3.304,3.305
		H53.341c-1.807,0-3.305-1.498-3.305-3.305c0-0.877,0.361-1.704,0.981-2.324l7.127-7.127c-4.907-4.544-11.361-7.075-18.023-7.075
		c-9.193,0-17.713,4.751-22.517,12.601c-1.239,2.014-1.859,3.977-2.737,6.042c-0.258,0.723-0.775,1.188-1.549,1.188H3.042
		c-0.93,0-1.652-0.775-1.652-1.653c0-0.103,0-0.258,0-0.362C5.83,14.035,21.065,1.331,40.121,1.331
		c10.122,0,19.986,4.028,27.318,10.948l6.714-6.662c0.619-0.62,1.445-0.981,2.324-0.981c1.808,0,3.304,1.498,3.304,3.305V31.077z"/>
</g>
</svg>
