<?xml version="1.0" encoding="utf-8"?>
<!-- Generator: Adobe Illustrator 16.0.0, SVG Export Plug-In . SVG Version: 6.00 Build 0)  -->
<!DOCTYPE svg PUBLIC "-//W3C//DTD SVG 1.1//EN" "http://www.w3.org/Graphics/SVG/1.1/DTD/svg11.dtd">
<svg version="1.1" id="图形" xmlns="http://www.w3.org/2000/svg" xmlns:xlink="http://www.w3.org/1999/xlink" x="0px" y="0px"
	 width="80px" height="81.839px" viewBox="0 0 80 81.839" enable-background="new 0 0 80 81.839" xml:space="preserve">
<rect x="22.818" display="none" fill="#F1F1F1" width="80" height="81.839"/>
<path fill="#444444" d="M22.579,7.044h5.028V0.287h25.13v6.757h5.469v5.137h10.672h3.268v3.262v62.803v3.256h-3.268H11.419H8.15
	v-3.256V15.442V12.18h3.269h5.306v6.532h-2.044v56.263h50.926V18.712h-7.401v2.782H22.579V7.044L22.579,7.044z M30.426,47.594
	v-2.811h-9.042v2.811H30.426L30.426,47.594z M47.5,47.594v-2.811h-9.425v2.811H47.5L47.5,47.594z M59.727,47.594v-2.811h-8.346
	v2.811H59.727L59.727,47.594z M35.206,54.989v-2.8H21.384v2.8H35.206L35.206,54.989z M41.002,54.989v-2.8h-2.927v2.8H41.002
	L41.002,54.989z M59.727,54.989v-2.8H43.041v2.8H59.727L59.727,54.989z M50.683,36.916v2.8h9.044v-2.8H50.683L50.683,36.916z
	 M33.611,36.916v2.8h9.43v-2.8H33.611L33.611,36.916z M21.384,36.916v2.8h8.345v-2.8H21.384L21.384,36.916z M45.905,29.51v2.8
	h13.821v-2.8H45.905L45.905,29.51z M40.106,29.51v2.8h2.935v-2.8H40.106L40.106,29.51z M21.384,29.51v2.8h16.69v-2.8H21.384z"/>
</svg>
