<?xml version="1.0" encoding="utf-8"?>
<!-- Generator: Adobe Illustrator 21.0.0, SVG Export Plug-In . SVG Version: 6.00 Build 0)  -->
<svg version="1.1" id="图层_1" xmlns="http://www.w3.org/2000/svg" xmlns:xlink="http://www.w3.org/1999/xlink" x="0px" y="0px"
	 viewBox="0 0 1000 1000" style="enable-background:new 0 0 1000 1000;" xml:space="preserve">
<style type="text/css">
	.st0{fill-rule:evenodd;clip-rule:evenodd;}
</style>
<g>
	<path class="st0" d="M405.2,717.3c0-88.4,37.7-168,97.9-223.7H199.7h-78.4c-11.2,0-19.7-8.3-19.7-19.5v-37.4v-3.3
		c0-11.2,9.8-21.2,21-21.2H589c9.9,0,18.7,7.8,20.6,17.4c31.4-10.9,65-16.9,100.1-16.9c0.6,0,1.3,0,1.9,0V189.5v-122
		c0-33.7-28-61.8-61.7-61.8H529.3h-347H61.7C28,5.6,0,33.8,0,67.5v122v230.1v420.6c0,33.7,26.6,60.2,60.3,60.2h174.6h231.5
		C428,849.4,405.2,786,405.2,717.3z M101.7,231.3c0-11.2,9.1-20.3,20.3-20.3h467.7c11.2,0,20.3,9.1,20.3,20.3V272
		c0,11.2-9.1,20.3-20.3,20.3H122c-11.2,0-20.3-9.1-20.3-20.3V231.3z M385.6,695.5h-75.7H195.6h-75.7c-11.2,0-19.7-8.3-19.7-19.5
		v-40.7c0-11.2,8.4-21.2,19.7-21.2h58.4h148.9h58.4c11.2,0,19.7,9.9,19.7,21.2v40.7C405.2,687.2,396.8,695.5,385.6,695.5z"/>
	<path class="st0" d="M746.8,488.1c-139.8,0-253.2,113.3-253.2,253.2S607,994.4,746.8,994.4S1000,881,1000,741.2
		S886.7,488.1,746.8,488.1z M715.1,781.2v124.3L550.9,741.2l164.3-164.3v124.3h227.7v80H715.1z"/>
</g>
</svg>
