<?xml version="1.0" encoding="utf-8"?>
<!-- Generator: Adobe Illustrator 16.0.0, SVG Export Plug-In . SVG Version: 6.00 Build 0)  -->
<!DOCTYPE svg PUBLIC "-//W3C//DTD SVG 1.1//EN" "http://www.w3.org/Graphics/SVG/1.1/DTD/svg11.dtd">
<svg version="1.1" id="图形" xmlns="http://www.w3.org/2000/svg" xmlns:xlink="http://www.w3.org/1999/xlink" x="0px" y="0px"
	 width="80px" height="81.839px" viewBox="0 0 80 81.839" enable-background="new 0 0 80 81.839" xml:space="preserve">
<rect x="22.818" display="none" fill="#F1F1F1" width="80" height="81.839"/>
<g>
	<g>
		<path fill="#444444" d="M60.333,0.174H4.108H0.817v3.289v59.835v1.643l1.342,0.993l16.545,12.318l0.88,0.654h1.071h19.933
			c-1.161-2.141-1.076-4.187-0.635-6.578H23.578l-4.318-15.14l-0.417-1.461l-1.426,0.524L7.402,59.954V6.764h49.644v32.57
			c2.383-0.687,4.537-0.628,6.575-0.063V3.462V0.174H60.333z M16.968,59.427l3.392,11.872L8.563,62.517L16.968,59.427z"/>
		<rect x="15.677" y="34.325" fill="#444444" width="33.584" height="2.739"/>
		<rect x="15.677" y="42.538" fill="#444444" width="33.584" height="2.736"/>
		<rect x="15.677" y="25.374" fill="#444444" width="33.584" height="2.739"/>
		<rect x="15.677" y="17.167" fill="#444444" width="33.584" height="2.735"/>
	</g>
	<g>
		<path fill="#444444" d="M72.171,81.708H49.215c-4.174,0-7.011-2.546-7.011-6.801c0-5.935,1.393-15.053,9.089-15.053
			c0.812,0,4.253,3.653,9.401,3.653c5.147,0,8.587-3.653,9.4-3.653c7.695,0,9.088,9.118,9.088,15.053
			C79.185,79.163,76.346,81.708,72.171,81.708z M60.694,61.539c-5.571,0-10.086-4.521-10.086-10.085
			c0-5.569,4.518-10.084,10.086-10.084c5.566,0,10.085,4.521,10.085,10.084C70.779,57.018,66.261,61.539,60.694,61.539z"/>
	</g>
</g>
</svg>
