<?xml version="1.0" encoding="utf-8"?>
<!-- Generator: Adobe Illustrator 16.0.0, SVG Export Plug-In . SVG Version: 6.00 Build 0)  -->
<!DOCTYPE svg PUBLIC "-//W3C//DTD SVG 1.1//EN" "http://www.w3.org/Graphics/SVG/1.1/DTD/svg11.dtd">
<svg version="1.1" id="图形" xmlns="http://www.w3.org/2000/svg" xmlns:xlink="http://www.w3.org/1999/xlink" x="0px" y="0px"
	 width="80px" height="81.839px" viewBox="0 0 80 81.839" enable-background="new 0 0 80 81.839" xml:space="preserve">
<rect x="22.818" display="none" fill="#F1F1F1" width="80" height="81.839"/>
<g enable-background="new    ">
	<path fill="#444444" d="M51.874,64.671H12.286c-1.525,0-1.319-1.608-1.319-2.639v-6.599V38.281H3.049
		c-1.443,0-2.639-1.195-2.639-2.639c0-0.62,0.206-1.238,0.619-1.691l13.196-15.834c0.495-0.577,1.236-0.907,2.021-0.907
		c0.784,0,1.525,0.33,2.021,0.907L31.46,33.951c0.413,0.453,0.619,1.072,0.619,1.691c0,1.443-1.195,2.639-2.64,2.639h-7.918v15.834
		h23.752c0.372,0,0.786,0.165,1.029,0.454l6.6,7.919c0.162,0.247,0.288,0.575,0.288,0.866
		C53.193,64.055,52.575,64.671,51.874,64.671z M78.968,47.889L65.772,63.724c-0.497,0.574-1.239,0.947-2.019,0.947
		s-1.525-0.373-2.02-0.947L48.538,47.889c-0.413-0.454-0.618-1.074-0.618-1.691c0-1.442,1.197-2.639,2.64-2.639h7.922V27.724H34.725
		c-0.372,0-0.785-0.166-1.031-0.495l-6.598-7.918c-0.164-0.206-0.289-0.536-0.289-0.824c0-0.702,0.619-1.319,1.319-1.319h39.583
		c1.53,0,1.322,1.607,1.322,2.639v6.597v17.156h7.919c1.439,0,2.64,1.196,2.64,2.639C79.585,46.818,79.379,47.435,78.968,47.889z"/>
</g>
</svg>
