<?xml version="1.0" encoding="utf-8"?>
<!-- Generator: Adobe Illustrator 16.0.0, SVG Export Plug-In . SVG Version: 6.00 Build 0)  -->
<!DOCTYPE svg PUBLIC "-//W3C//DTD SVG 1.1//EN" "http://www.w3.org/Graphics/SVG/1.1/DTD/svg11.dtd">
<svg version="1.1" id="图形" xmlns="http://www.w3.org/2000/svg" xmlns:xlink="http://www.w3.org/1999/xlink" x="0px" y="0px"
	 width="80px" height="81.839px" viewBox="0 0 80 81.839" enable-background="new 0 0 80 81.839" xml:space="preserve">
<rect x="22.818" display="none" fill="#F1F1F1" width="80" height="81.839"/>
<g enable-background="new    ">
	<path fill="#444444" d="M31.086,73.328H14.882c-8.052,0-14.583-6.531-14.583-14.583V23.096c0-8.052,6.531-14.583,14.583-14.583
		h16.204c0.86,0,1.621,0.76,1.621,1.621c0,1.417,0.658,4.861-1.621,4.861H14.882c-4.455,0-8.101,3.646-8.101,8.101v35.649
		c0,4.457,3.646,8.103,8.101,8.103h14.583c1.265,0,3.242-0.253,3.242,1.618C32.708,69.885,33.365,73.328,31.086,73.328z
		 M78.736,43.202L51.189,70.745c-0.607,0.608-1.417,0.964-2.278,0.964c-1.771,0-3.241-1.469-3.241-3.243V53.884H22.985
		c-1.773,0-3.242-1.469-3.242-3.243V31.199c0-1.773,1.469-3.241,3.242-3.241H45.67V13.374c0-1.772,1.471-3.24,3.241-3.24
		c0.861,0,1.671,0.354,2.278,0.962l27.55,27.546c0.608,0.608,0.962,1.418,0.962,2.279C79.698,41.783,79.345,42.591,78.736,43.202z"
		/>
</g>
</svg>
