<?xml version="1.0" encoding="utf-8"?>
<!-- Generator: Adobe Illustrator 16.0.0, SVG Export Plug-In . SVG Version: 6.00 Build 0)  -->
<!DOCTYPE svg PUBLIC "-//W3C//DTD SVG 1.1//EN" "http://www.w3.org/Graphics/SVG/1.1/DTD/svg11.dtd">
<svg version="1.1" id="图形" xmlns="http://www.w3.org/2000/svg" xmlns:xlink="http://www.w3.org/1999/xlink" x="0px" y="0px"
	 width="80px" height="81.839px" viewBox="0 0 80 81.839" enable-background="new 0 0 80 81.839" xml:space="preserve">
<rect x="22.818" display="none" fill="#F1F1F1" width="80" height="81.839"/>
<path fill="#444444" d="M42.098,0.296c5.367,0,9.717,4.348,9.717,9.711c0,5.364-4.35,9.713-9.717,9.713
	c-5.362,0-9.71-4.349-9.71-9.713C32.387,4.643,36.735,0.296,42.098,0.296L42.098,0.296z M45.183,53.737h8.205v-1.744h-8.205
	c-2.107,0-3.832,1.723-3.832,3.824v12.974l-1.976,12.957h-7.453v-28.35c-2.955-1.54-4.989-4.637-4.989-8.188V30.708
	c0-5.071,4.153-9.221,9.219-9.221H47.5c5.076,0,9.221,4.152,9.221,9.221V45.21c0,0.424-0.029,0.835-0.084,1.243v7.287h8.083
	c1.145,0,2.081,0.936,2.081,2.076V69c0,1.146-0.937,2.085-2.081,2.085H45.183c-1.146,0-2.081-0.939-2.081-2.085V55.817
	C43.104,54.672,44.038,53.737,45.183,53.737L45.183,53.737z M58.483,59.822c0.021-0.245,0.028-0.431,0.028-0.551
	c0-0.86-0.225-1.54-0.671-2.026c-0.448-0.492-1.12-0.784-2.022-0.899v-0.938h-1.348v0.938c-0.985,0.116-1.723,0.419-2.22,0.917
	c-0.493,0.493-0.737,1.176-0.737,2.047c0,0.602,0.117,1.142,0.35,1.615c0.23,0.479,0.511,0.846,0.829,1.113
	c0.319,0.261,0.925,0.667,1.813,1.229c0.539,0.329,0.848,0.643,0.941,0.923c0.089,0.276,0.137,0.749,0.137,1.405
	c0,0.256-0.045,0.455-0.145,0.586c-0.092,0.133-0.242,0.2-0.439,0.2c-0.23,0-0.377-0.098-0.435-0.284
	c-0.064-0.189-0.089-0.678-0.089-1.46v-0.713h-2.919v0.566c0,1.301,0.294,2.216,0.877,2.734c0.579,0.523,1.259,0.822,2.042,0.901
	v1.122h1.344v-1.095c1.003-0.139,1.756-0.506,2.257-1.098c0.497-0.591,0.75-1.405,0.75-2.443c0-0.652-0.096-1.19-0.277-1.63
	c-0.185-0.437-0.415-0.773-0.682-1.009c-0.268-0.24-0.776-0.583-1.515-1.028c-0.872-0.532-1.397-0.892-1.574-1.074
	c-0.181-0.179-0.275-0.501-0.275-0.96c0-0.274,0.048-0.48,0.137-0.617c0.087-0.137,0.218-0.202,0.401-0.202
	c0.217,0,0.362,0.079,0.427,0.237c0.072,0.155,0.104,0.494,0.104,1.008v0.485H58.483L58.483,59.822z M51.692,72.832h-6.51
	c-0.635,0-1.233-0.154-1.759-0.43l1.425,9.346h6.844V72.832z"/>
</svg>
