<?xml version="1.0" encoding="utf-8"?>
<!-- Generator: Adobe Illustrator 16.0.0, SVG Export Plug-In . SVG Version: 6.00 Build 0)  -->
<!DOCTYPE svg PUBLIC "-//W3C//DTD SVG 1.1//EN" "http://www.w3.org/Graphics/SVG/1.1/DTD/svg11.dtd">
<svg version="1.1" id="图形" xmlns="http://www.w3.org/2000/svg" xmlns:xlink="http://www.w3.org/1999/xlink" x="0px" y="0px"
	 width="80px" height="81.839px" viewBox="0 0 80 81.839" enable-background="new 0 0 80 81.839" xml:space="preserve">
<rect x="22.818" display="none" fill="#F1F1F1" width="80" height="81.839"/>
<g>
	<path fill="#444444" d="M60.104,65.437c0,1.571-1.28,2.85-2.851,2.85H11.668c-1.571,0-2.85-1.278-2.85-2.85V19.798
		c0-1.572,1.278-2.85,2.85-2.85H51.17l8.327-8.328c-0.726-0.146-1.475-0.223-2.243-0.223H11.668c-6.296,0-11.402,5.104-11.402,11.4
		v45.639c0,6.298,5.105,11.402,11.402,11.402h45.585c6.299,0,11.404-5.104,11.404-11.402V40.126l-8.554,8.551V65.437z"/>
	<path fill="#444444" d="M34.847,41.407l-0.001,0.003l-0.001,0.005h0.001l-5.873,18.072l18.075-5.872l0,0l0.007-0.005h-0.001
		l32.748-32.746L67.598,8.662L34.852,41.407H34.847z M45.542,51.159l-12.204,3.964l3.964-12.203L45.542,51.159z"/>
</g>
</svg>
