<?xml version="1.0" encoding="utf-8"?>
<!-- Generator: Adobe Illustrator 16.0.0, SVG Export Plug-In . SVG Version: 6.00 Build 0)  -->
<!DOCTYPE svg PUBLIC "-//W3C//DTD SVG 1.1//EN" "http://www.w3.org/Graphics/SVG/1.1/DTD/svg11.dtd">
<svg version="1.1" id="图形" xmlns="http://www.w3.org/2000/svg" xmlns:xlink="http://www.w3.org/1999/xlink" x="0px" y="0px"
	 width="80px" height="81.839px" viewBox="0 0 80 81.839" enable-background="new 0 0 80 81.839" xml:space="preserve">
<rect x="22.818" display="none" fill="#F1F1F1" width="80" height="81.839"/>
<g id="_x37__13_">
	<g>
		<path fill="#444444" d="M67.966,0.4H12.034C6.418,0.4,1.865,4.954,1.865,10.57v61.016c0,5.616,4.554,10.169,10.169,10.169h55.932
			c5.616,0,10.17-4.553,10.17-10.169V10.57C78.136,4.954,73.582,0.4,67.966,0.4z M73.052,71.585c0,2.811-2.277,5.084-5.086,5.084
			H12.034c-2.808,0-5.084-2.273-5.084-5.084V20.739h66.102V71.585z M73.052,15.654H6.95V10.57c0-2.809,2.276-5.085,5.084-5.085
			h55.932c2.809,0,5.086,2.276,5.086,5.085V15.654z M19.661,46.161c4.214,0,7.628-3.411,7.628-7.625
			c0-4.211-3.414-7.627-7.628-7.627c-4.212,0-7.627,3.416-7.627,7.627C12.034,42.75,15.448,46.161,19.661,46.161z M17.119,35.994
			h5.084v5.083h-5.084V35.994z M60.339,46.161c4.214,0,7.627-3.411,7.627-7.625c0-4.211-3.413-7.627-7.627-7.627
			c-4.213,0-7.627,3.416-7.627,7.627C52.712,42.75,56.126,46.161,60.339,46.161z M57.797,35.994h5.085v5.083h-5.085V35.994z
			 M60.339,66.501c4.214,0,7.627-3.413,7.627-7.628c0-4.212-3.413-7.628-7.627-7.628c-4.213,0-7.627,3.416-7.627,7.628
			C52.712,63.088,56.126,66.501,60.339,66.501z M57.797,56.331h5.085v5.086h-5.085V56.331z M19.661,66.501
			c4.214,0,7.628-3.413,7.628-7.628c0-4.212-3.414-7.628-7.628-7.628c-4.212,0-7.627,3.416-7.627,7.628
			C12.034,63.088,15.448,66.501,19.661,66.501z M17.119,56.331h5.084v5.086h-5.084V56.331z M40,66.501
			c4.212,0,7.628-3.413,7.628-7.628c0-4.212-3.416-7.628-7.628-7.628c-4.212,0-7.626,3.416-7.626,7.628
			C32.374,63.088,35.788,66.501,40,66.501z M37.458,56.331h5.086v5.086h-5.086V56.331z M40,46.161c4.212,0,7.628-3.411,7.628-7.625
			c0-4.211-3.416-7.627-7.628-7.627c-4.212,0-7.626,3.416-7.626,7.627C32.374,42.75,35.788,46.161,40,46.161z M37.458,35.994h5.086
			v5.083h-5.086V35.994z"/>
	</g>
</g>
</svg>
