<?xml version="1.0" encoding="utf-8"?>
<!-- Generator: Adobe Illustrator 16.0.0, SVG Export Plug-In . SVG Version: 6.00 Build 0)  -->
<!DOCTYPE svg PUBLIC "-//W3C//DTD SVG 1.1//EN" "http://www.w3.org/Graphics/SVG/1.1/DTD/svg11.dtd">
<svg version="1.1" id="图形" xmlns="http://www.w3.org/2000/svg" xmlns:xlink="http://www.w3.org/1999/xlink" x="0px" y="0px"
	 width="80px" height="81.839px" viewBox="0 0 80 81.839" enable-background="new 0 0 80 81.839" xml:space="preserve">
<rect x="22.818" display="none" fill="#F1F1F1" width="80" height="81.839"/>
<g>
	<path fill="#444444" d="M79.714,70.244c0,2.348-1.906,4.255-4.256,4.255H61.273c-2.348,0-4.253-1.907-4.253-4.255V56.058
		c0-2.35,1.905-4.253,4.253-4.253h4.255v-8.513H42.837v8.513h4.255c2.351,0,4.256,1.903,4.256,4.253v14.186
		c0,2.348-1.905,4.255-4.256,4.255H32.909c-2.35,0-4.254-1.907-4.254-4.255V56.058c0-2.35,1.906-4.253,4.254-4.253h4.254v-8.513
		H14.471v8.513h4.254c2.35,0,4.255,1.903,4.255,4.253v14.186c0,2.348-1.907,4.255-4.255,4.255H4.542
		c-2.35,0-4.255-1.907-4.255-4.255V56.058c0-2.35,1.906-4.253,4.255-4.253h4.254v-8.513c0-3.103,2.57-5.673,5.673-5.673h22.692
		v-8.511h-4.252c-2.35,0-4.254-1.906-4.254-4.254V10.671c0-2.349,1.906-4.254,4.254-4.254h14.183c2.351,0,4.256,1.906,4.256,4.254
		v14.184c0,2.35-1.905,4.254-4.256,4.254h-4.255v8.511h22.691c3.103,0,5.674,2.57,5.674,5.673v8.513h4.256
		c2.35,0,4.256,1.903,4.256,4.253V70.244z"/>
</g>
</svg>
