<?xml version="1.0" encoding="utf-8"?>
<!-- Generator: Adobe Illustrator 16.0.0, SVG Export Plug-In . SVG Version: 6.00 Build 0)  -->
<!DOCTYPE svg PUBLIC "-//W3C//DTD SVG 1.1//EN" "http://www.w3.org/Graphics/SVG/1.1/DTD/svg11.dtd">
<svg version="1.1" id="图形" xmlns="http://www.w3.org/2000/svg" xmlns:xlink="http://www.w3.org/1999/xlink" x="0px" y="0px"
	 width="80px" height="81.839px" viewBox="0 0 80 81.839" enable-background="new 0 0 80 81.839" xml:space="preserve">
<rect x="22.818" display="none" fill="#F1F1F1" width="80" height="81.839"/>
<g id="_x38__21_">
	<g>
		<path fill="#444444" d="M57.763,61.271H22.237c-1.402,0-2.537,1.139-2.537,2.537c0,1.402,1.135,2.537,2.537,2.537h35.525
			c1.402,0,2.537-1.135,2.537-2.537C60.3,62.41,59.165,61.271,57.763,61.271z M57.763,48.584H22.237
			c-1.402,0-2.537,1.137-2.537,2.537c0,1.402,1.135,2.537,2.537,2.537h35.525c1.402,0,2.537-1.135,2.537-2.537
			C60.3,49.721,59.165,48.584,57.763,48.584z M57.763,35.896H22.237c-1.402,0-2.537,1.137-2.537,2.537
			c0,1.403,1.135,2.538,2.537,2.538h35.525c1.402,0,2.537-1.135,2.537-2.538C60.3,37.033,59.165,35.896,57.763,35.896z
			 M65.375,10.521h-7.612V5.446h-6.834C48.73,2.425,44.684,0.371,40,0.371c-4.683,0-8.73,2.055-10.929,5.075h-6.834v5.075h-7.613
			c-5.605,0-10.15,4.545-10.15,10.15v50.749c0,5.606,4.544,10.151,10.15,10.151h50.75c5.605,0,10.15-4.545,10.15-10.151V20.67
			C75.525,15.066,70.98,10.521,65.375,10.521z M27.312,10.521h5.64c0-2.802,3.154-5.075,7.048-5.075
			c3.893,0,7.048,2.272,7.048,5.075h5.641v10.15H27.312V10.521z M70.451,71.419c0,2.805-2.273,5.075-5.076,5.075h-50.75
			c-2.802,0-5.075-2.271-5.075-5.075V20.67c0-2.802,2.272-5.074,5.075-5.074h7.613v10.15h35.525v-10.15h7.612
			c2.803,0,5.076,2.272,5.076,5.074V71.419z"/>
	</g>
</g>
</svg>
