<?xml version="1.0" encoding="utf-8"?>
<!-- Generator: Adobe Illustrator 16.0.0, SVG Export Plug-In . SVG Version: 6.00 Build 0)  -->
<!DOCTYPE svg PUBLIC "-//W3C//DTD SVG 1.1//EN" "http://www.w3.org/Graphics/SVG/1.1/DTD/svg11.dtd">
<svg version="1.1" id="图形" xmlns="http://www.w3.org/2000/svg" xmlns:xlink="http://www.w3.org/1999/xlink" x="0px" y="0px"
	 width="80px" height="81.839px" viewBox="0 0 80 81.839" enable-background="new 0 0 80 81.839" xml:space="preserve">
<rect x="22.818" display="none" fill="#F1F1F1" width="80" height="81.839"/>
<g>
	<path fill="#444444" d="M40.408,81.568c-15.649,0-32.497-3.691-32.497-11.816c0-6.276,9.371-9.233,17.218-10.57
		c1.615-0.278,3.14,0.784,3.417,2.399c0.278,1.615-0.784,3.139-2.4,3.416c-9.509,1.661-12.187,4.246-12.325,4.802
		c0.463,1.565,9.324,5.86,26.589,5.86s26.126-4.295,26.59-5.957c-0.139-0.46-2.816-3.045-12.325-4.708
		c-1.618-0.275-2.679-1.799-2.402-3.415c0.279-1.619,1.801-2.678,3.418-2.398c7.848,1.336,17.219,4.291,17.219,10.571
		C72.904,77.876,56.054,81.568,40.408,81.568z M55.179,46.118c0,1.615-1.34,2.953-2.955,2.953h-2.953v17.727
		c0,1.616-1.34,2.954-2.955,2.954H34.498c-1.617,0-2.955-1.338-2.955-2.954V49.071h-2.954c-1.617,0-2.955-1.338-2.955-2.953V28.392
		c0-3.278,2.631-5.91,5.909-5.91h17.728c3.276,0,5.909,2.63,5.909,5.91L55.179,46.118L55.179,46.118z M40.408,21.005
		c-5.724,0-10.34-4.617-10.34-10.339c0-5.723,4.618-10.339,10.34-10.339c5.722,0,10.34,4.617,10.34,10.339
		C50.748,16.388,46.132,21.005,40.408,21.005z"/>
</g>
</svg>
