<?xml version="1.0" encoding="utf-8"?>
<!-- Generator: Adobe Illustrator 16.0.0, SVG Export Plug-In . SVG Version: 6.00 Build 0)  -->
<!DOCTYPE svg PUBLIC "-//W3C//DTD SVG 1.1//EN" "http://www.w3.org/Graphics/SVG/1.1/DTD/svg11.dtd">
<svg version="1.1" id="图形" xmlns="http://www.w3.org/2000/svg" xmlns:xlink="http://www.w3.org/1999/xlink" x="0px" y="0px"
	 width="80px" height="81.839px" viewBox="0 0 80 81.839" enable-background="new 0 0 80 81.839" xml:space="preserve">
<rect x="22.818" display="none" fill="#F1F1F1" width="80" height="81.839"/>
<g>
	<path fill="#444444" d="M78.53,34.681L61.178,51.603l4.11,23.903c0.048,0.335,0.048,0.622,0.048,0.956
		c0,1.243-0.573,2.39-1.959,2.39c-0.669,0-1.34-0.239-1.912-0.573L40,66.998L18.536,78.279c-0.622,0.334-1.243,0.573-1.912,0.573
		c-1.386,0-2.007-1.146-2.007-2.39c0-0.334,0.048-0.621,0.096-0.956l4.111-23.903L1.422,34.681
		c-0.573-0.621-1.195-1.434-1.195-2.294c0-1.435,1.481-2.008,2.677-2.199l23.998-3.49l10.755-21.75
		C38.088,4.039,38.9,2.987,40,2.987c1.099,0,1.912,1.051,2.342,1.96l10.756,21.75l23.997,3.49c1.148,0.191,2.678,0.765,2.678,2.199
		C79.773,33.247,79.151,34.06,78.53,34.681z"/>
</g>
</svg>
