<?xml version="1.0" encoding="utf-8"?>
<!-- Generator: Adobe Illustrator 16.0.0, SVG Export Plug-In . SVG Version: 6.00 Build 0)  -->
<!DOCTYPE svg PUBLIC "-//W3C//DTD SVG 1.1//EN" "http://www.w3.org/Graphics/SVG/1.1/DTD/svg11.dtd">
<svg version="1.1" id="图形" xmlns="http://www.w3.org/2000/svg" xmlns:xlink="http://www.w3.org/1999/xlink" x="0px" y="0px"
	 width="80px" height="81.839px" viewBox="0 0 80 81.839" enable-background="new 0 0 80 81.839" xml:space="preserve">
<rect x="22.818" display="none" fill="#F1F1F1" width="80" height="81.839"/>
<g>
	<g>
		<path fill="#444444" d="M73.719,80.587c-1.622,0-3.201-0.667-4.299-1.816L53.03,62.43c-5.59,3.872-12.276,5.926-19.062,5.926
			c-18.587,0-33.636-15.051-33.636-33.633C0.332,16.133,15.38,1.085,33.967,1.085c18.583,0,33.634,15.048,33.634,33.635
			c0,6.783-2.054,13.473-5.925,19.063l16.389,16.39c1.098,1.097,1.768,2.675,1.768,4.299C79.833,77.816,77.063,80.587,73.719,80.587
			z M33.969,13.315c-11.802,0-21.405,9.604-21.405,21.406c0,11.801,9.604,21.405,21.405,21.405c11.8,0,21.403-9.604,21.403-21.405
			C55.372,22.919,45.766,13.315,33.969,13.315z"/>
	</g>
</g>
</svg>
