<?xml version="1.0" encoding="utf-8"?>
<!-- Generator: Adobe Illustrator 16.0.0, SVG Export Plug-In . SVG Version: 6.00 Build 0)  -->
<!DOCTYPE svg PUBLIC "-//W3C//DTD SVG 1.1//EN" "http://www.w3.org/Graphics/SVG/1.1/DTD/svg11.dtd">
<svg version="1.1" id="图形" xmlns="http://www.w3.org/2000/svg" xmlns:xlink="http://www.w3.org/1999/xlink" x="0px" y="0px"
	 width="80px" height="81.839px" viewBox="0 0 80 81.839" enable-background="new 0 0 80 81.839" xml:space="preserve">
<rect x="22.818" display="none" fill="#F1F1F1" width="80" height="81.839"/>
<g>
	<path fill="#444444" d="M78.28,34.491L61.033,51.305l4.086,23.761c0.047,0.33,0.047,0.616,0.047,0.947
		c0,1.291-0.57,2.378-1.949,2.378c-0.664,0-1.328-0.236-1.896-0.569L39.986,66.608L18.65,77.822
		c-0.616,0.333-1.232,0.569-1.898,0.569c-1.378,0-1.999-1.137-1.999-2.378c0-0.331,0.049-0.617,0.098-0.947l4.086-23.761
		L1.641,34.491c-0.571-0.62-1.187-1.427-1.187-2.283c0-1.426,1.471-1.995,2.66-2.185l23.853-3.466L37.658,4.934
		c0.426-0.9,1.233-1.946,2.328-1.946c1.093,0,1.901,1.046,2.327,1.946l10.69,21.623l23.854,3.466c1.141,0.19,2.66,0.759,2.66,2.185
		C79.517,33.064,78.9,33.871,78.28,34.491z M69.015,35.059l-20.048-2.944l-8.981-18.153l-8.981,18.153l-20.05,2.944l14.539,14.113
		l-3.47,20.005l17.962-9.455l17.914,9.455l-3.424-20.005L69.015,35.059z"/>
</g>
</svg>
