<?xml version="1.0" encoding="utf-8"?>
<!-- Generator: Adobe Illustrator 16.0.0, SVG Export Plug-In . SVG Version: 6.00 Build 0)  -->
<!DOCTYPE svg PUBLIC "-//W3C//DTD SVG 1.1//EN" "http://www.w3.org/Graphics/SVG/1.1/DTD/svg11.dtd">
<svg version="1.1" id="图形" xmlns="http://www.w3.org/2000/svg" xmlns:xlink="http://www.w3.org/1999/xlink" x="0px" y="0px"
	 width="80px" height="81.839px" viewBox="0 0 80 81.839" enable-background="new 0 0 80 81.839" xml:space="preserve">
<rect x="22.818" display="none" fill="#F1F1F1" width="80" height="81.839"/>
<path fill="#444444" d="M1.625,12.05c17.22-5.564,34.676-3.298,52.131-1.033c2.206,0.288,4.414,0.574,7.535,0.951l1.725,0.205v1.73
	v29.592v2.202l-2.179-0.265c-0.996-0.122-1.996-0.241-2.99-0.362c-18.297-2.232-36.599-4.464-55.143,0.307l-2.431,0.626v-2.508
	V13.903v-1.414L1.625,12.05L1.625,12.05z M72.479,26.805l2.651,27.861l-5.13-0.128c-0.757-0.022-1.509-0.042-2.264-0.062
	c-0.063,0.607-0.043,1.229,0.073,1.861c0.009,0.062,0.025,0.12,0.035,0.181c-13.821,0.883-27.601,2.222-41.074,6.919
	c-0.012-0.093-0.027-0.184-0.044-0.28c-0.595-3.277-3.529-5.554-6.802-5.457c-1.366,0.361-2.729,0.761-4.088,1.194l1.802,9.894
	l0.449,2.462l2.28-1.048c17.391-8.015,35.795-9.096,54.194-10.185c1.004-0.059,2.005-0.12,3.007-0.18l2.194-0.133l-0.396-2.162
	L74.066,28.43l-0.311-1.701L72.479,26.805L72.479,26.805z M65.616,18.535v10.42c0.174-0.003,0.357-0.008,0.537-0.022l1.079,11.38
	c-0.166,0-0.33,0.011-0.499,0.027c-0.381,0.04-0.754,0.105-1.112,0.2v8.089l-5.095-0.613c-0.709-0.085-1.413-0.17-2.119-0.254
	c-13.092-0.226-26.185,0.092-39.258,3.435c-0.006-0.094-0.014-0.192-0.021-0.285c-0.219-2.274-1.568-4.176-3.452-5.2
	c-2.315,0.242-4.628,0.569-6.943,0.998l0.86,9.035l0.236,2.493l2.363-0.854c18.008-6.508,36.436-6.02,54.865-5.528
	c1.002,0.028,2.009,0.055,3.015,0.084l2.188,0.056l-0.206-2.188l-2.803-29.463l-0.162-1.721l-1.735-0.042
	C66.742,18.564,66.166,18.547,65.616,18.535L65.616,18.535z M37.718,13.066c3.249,2.705,5.399,7.44,5.399,12.837
	c0,5.588-2.312,10.478-5.766,13.122c4.849,0.324,9.681,0.831,14.507,1.399c-0.003-0.065-0.003-0.126-0.003-0.187
	c0-3.682,3.024-6.666,6.754-6.666c0.167,0,0.336,0.005,0.501,0.017V22.16c-3.682-0.053-6.65-3.019-6.65-6.666
	c0-0.243,0.012-0.485,0.036-0.719C47.565,14.134,42.632,13.505,37.718,13.066L37.718,13.066z M25.064,38.663
	c-3.201-2.715-5.317-7.417-5.317-12.76c0-5.811,2.499-10.86,6.174-13.427c-5.497-0.013-10.957,0.404-16.36,1.51
	c0.034,0.282,0.055,0.567,0.055,0.858c0,3.238-2.344,5.939-5.446,6.539v11.573c3.399,0.349,6.049,3.185,6.049,6.629
	c0,0.093-0.002,0.19-0.005,0.285C15.195,39.09,20.142,38.735,25.064,38.663L25.064,38.663z M35.772,22.572
	c0.025-0.311,0.038-0.547,0.038-0.7c0-1.103-0.287-1.967-0.861-2.593c-0.572-0.625-1.436-1.008-2.586-1.159v-1.19H30.64v1.19
	c-1.266,0.15-2.211,0.54-2.842,1.174c-0.63,0.635-0.947,1.511-0.947,2.625c0,0.77,0.148,1.458,0.45,2.067
	c0.296,0.612,0.653,1.08,1.061,1.419c0.409,0.334,1.183,0.858,2.324,1.575c0.682,0.425,1.081,0.818,1.198,1.176
	c0.114,0.361,0.175,0.961,0.175,1.795c0,0.333-0.061,0.585-0.183,0.755c-0.123,0.167-0.313,0.255-0.565,0.255
	c-0.295,0-0.481-0.121-0.558-0.364c-0.08-0.243-0.114-0.866-0.114-1.869v-0.912h-3.731v0.728c0,1.665,0.371,2.833,1.116,3.499
	c0.744,0.67,1.614,1.053,2.614,1.151v1.442h1.723v-1.403c1.282-0.177,2.243-0.647,2.885-1.403c0.639-0.757,0.961-1.804,0.961-3.132
	c0-0.831-0.121-1.523-0.36-2.083c-0.235-0.559-0.526-0.988-0.872-1.295c-0.344-0.304-0.989-0.74-1.938-1.318
	c-1.115-0.677-1.786-1.13-2.013-1.364c-0.232-0.233-0.352-0.645-0.352-1.229c0-0.354,0.059-0.615,0.172-0.792
	c0.112-0.172,0.283-0.261,0.511-0.261c0.282,0,0.466,0.102,0.552,0.305c0.085,0.203,0.127,0.633,0.127,1.292v0.618L35.772,22.572
	L35.772,22.572z"/>
</svg>
