<?xml version="1.0" encoding="utf-8"?>
<!-- Generator: Adobe Illustrator 16.0.0, SVG Export Plug-In . SVG Version: 6.00 Build 0)  -->
<!DOCTYPE svg PUBLIC "-//W3C//DTD SVG 1.1//EN" "http://www.w3.org/Graphics/SVG/1.1/DTD/svg11.dtd">
<svg version="1.1" id="图形" xmlns="http://www.w3.org/2000/svg" xmlns:xlink="http://www.w3.org/1999/xlink" x="0px" y="0px"
	 width="80px" height="81.839px" viewBox="0 0 80 81.839" enable-background="new 0 0 80 81.839" xml:space="preserve">
<rect x="22.818" display="none" fill="#F1F1F1" width="80" height="81.839"/>
<g id="_x35__9_">
	<g>
		<path fill="#444444" d="M61.942,50.366c-5.548,0-10.393,2.898-13.178,7.246L31.979,48.02c1.084-2.13,1.751-4.506,1.751-7.058
			c0-1.577-0.304-3.067-0.738-4.503l17.464-9.979c2.862,3.104,6.931,5.078,11.485,5.078c8.655,0,15.672-7.016,15.672-15.672
			S70.598,0.212,61.942,0.212c-8.658,0-15.673,7.017-15.673,15.673c0,1.577,0.301,3.07,0.737,4.505l-17.464,9.977
			c-2.862-3.102-6.93-5.078-11.484-5.078c-8.657,0-15.673,7.016-15.673,15.673c0,8.656,7.016,15.671,15.673,15.671
			c3.572,0,6.829-1.243,9.464-3.252l-0.061,0.116l18.978,10.849c-0.061,0.563-0.17,1.107-0.17,1.69
			c0,8.656,7.015,15.673,15.673,15.673c8.655,0,15.672-7.017,15.672-15.673C77.614,57.379,70.598,50.366,61.942,50.366z
			 M61.942,6.482c5.193,0,9.402,4.209,9.402,9.403s-4.209,9.404-9.402,9.404c-5.196,0-9.406-4.209-9.406-9.404
			S56.746,6.482,61.942,6.482z M18.058,50.366c-5.195,0-9.405-4.21-9.405-9.404c0-5.192,4.21-9.404,9.405-9.404
			c5.194,0,9.404,4.212,9.404,9.404C27.462,46.156,23.252,50.366,18.058,50.366z M61.942,75.441c-5.196,0-9.406-4.207-9.406-9.404
			c0-5.191,4.21-9.403,9.406-9.403c5.193,0,9.402,4.212,9.402,9.403C71.345,71.234,67.136,75.441,61.942,75.441z"/>
	</g>
</g>
</svg>
