<?xml version="1.0" encoding="utf-8"?>
<!-- Generator: Adobe Illustrator 19.0.0, SVG Export Plug-In . SVG Version: 6.00 Build 0)  -->
<svg version="1.1" id="图层_1" xmlns="http://www.w3.org/2000/svg" xmlns:xlink="http://www.w3.org/1999/xlink" x="0px" y="0px"
	 viewBox="0 0 1000 1000" style="enable-background:new 0 0 1000 1000;" xml:space="preserve">
<style type="text/css">
	.st0{fill-rule:evenodd;clip-rule:evenodd;}
</style>
<g id="XMLID_1_">
	<path id="XMLID_8_" class="st0" d="M495.3,302.1c0-136.8-110.8-247.6-247.6-247.6C110.9,54.5-0.1,165.4-0.1,302.1
		C-0.1,427.2,92,530.6,213,547.4V637H41.7c-19,0-34.5,15.5-34.5,34.5c0,19,15.4,34.5,34.5,34.5H213v204.7c0,19,15.5,34.5,34.5,34.5
		s34.5-15.4,34.5-34.5V706h171.7c19,0,34.5-15.5,34.5-34.5c0-19-15.4-34.5-34.5-34.5H282v-89.6C402,530.6,495.3,427.2,495.3,302.1z"
		/>
	<path id="XMLID_9_" class="st0" d="M786,452.3V171.8l137.1,136.7c13.5,13.5,35.5,13.5,49,0c13.5-13.5,13.6-35.3,0.1-48.7
		L776.7,64.2c-12.9-12.9-35.8-12.9-48.7,0L532.5,259.7c-13.5,13.5-13.5,35.3,0,48.7c6.7,6.7,15.6,10.1,24.4,10.1
		c8.8,0,17.7-3.4,24.4-10.1L718,171.8v280.5C597,469,504.8,572.9,504.8,697.9c0,136.8,110.8,248.1,247.6,248.1h0
		c136.8,0,247.2-111.3,247.2-248.1C999.6,572.9,907,469,786,452.3z"/>
</g>
</svg>
