<?xml version="1.0" encoding="utf-8"?>
<!-- Generator: Adobe Illustrator 16.0.0, SVG Export Plug-In . SVG Version: 6.00 Build 0)  -->
<!DOCTYPE svg PUBLIC "-//W3C//DTD SVG 1.1//EN" "http://www.w3.org/Graphics/SVG/1.1/DTD/svg11.dtd">
<svg version="1.1" id="图形" xmlns="http://www.w3.org/2000/svg" xmlns:xlink="http://www.w3.org/1999/xlink" x="0px" y="0px"
	 width="80px" height="81.839px" viewBox="0 0 80 81.839" enable-background="new 0 0 80 81.839" xml:space="preserve">
<rect x="22.818" display="none" fill="#F1F1F1" width="80" height="81.839"/>
<g>
	<path fill="#444444" d="M73.651,80.685c-1.625,0-3.203-0.668-4.302-1.816L52.956,62.524c-5.593,3.872-12.284,5.928-19.072,5.928
		c-18.593,0-33.648-15.058-33.648-33.648c0-18.592,15.055-33.649,33.648-33.649c18.592,0,33.648,15.055,33.648,33.649
		c0,6.788-2.056,13.477-5.927,19.072l16.393,16.394c1.101,1.098,1.77,2.675,1.77,4.3C79.77,77.959,77.045,80.685,73.651,80.685z
		 M33.884,13.388c-11.807,0-21.413,9.607-21.413,21.412c0,11.806,9.607,21.413,21.413,21.413c11.807,0,21.415-9.607,21.415-21.413
		C55.299,22.996,45.69,13.388,33.884,13.388z M49.18,36.331c0,0.812-0.719,1.528-1.53,1.528H36.946v10.707
		c0,0.811-0.717,1.53-1.531,1.53h-3.058c-0.813,0-1.53-0.72-1.53-1.53V37.859H20.121c-0.812,0-1.529-0.717-1.529-1.528v-3.059
		c0-0.813,0.717-1.53,1.529-1.53h10.706V21.035c0-0.812,0.717-1.529,1.53-1.529h3.058c0.814,0,1.531,0.717,1.531,1.529v10.707
		h10.703c0.814,0,1.53,0.717,1.53,1.53V36.331z"/>
</g>
</svg>
