<?xml version="1.0" encoding="utf-8"?>
<!-- Generator: Adobe Illustrator 16.0.0, SVG Export Plug-In . SVG Version: 6.00 Build 0)  -->
<!DOCTYPE svg PUBLIC "-//W3C//DTD SVG 1.1//EN" "http://www.w3.org/Graphics/SVG/1.1/DTD/svg11.dtd">
<svg version="1.1" id="图形" xmlns="http://www.w3.org/2000/svg" xmlns:xlink="http://www.w3.org/1999/xlink" x="0px" y="0px"
	 width="80px" height="81.839px" viewBox="0 0 80 81.839" enable-background="new 0 0 80 81.839" xml:space="preserve">
<rect x="22.818" display="none" fill="#F1F1F1" width="80" height="81.839"/>
<g id="_x39__21_">
	<g>
		<path fill="#444444" d="M74.815,31.13v39.766c0,2.734-2.699,5.002-5.425,5.002H10.126c-2.725,0-4.938-2.209-4.938-4.941v-59.3
			c0-2.73,2.274-5.381,5.003-5.381H49.96V1.304H10.192c-5.454,0-9.942,4.894-9.942,10.352v59.3c0,5.459,4.422,9.883,9.876,9.883
			h59.264c5.453,0,10.396-4.48,10.396-9.943V31.13H74.815z M20.409,46.214L9.719,67.849c-0.896,2.436,1.053,4.621,3.488,3.488
			l21.622-10.693c0.932-0.184,1.836-0.543,2.559-1.266l38.414-38.439c1.927-1.928,1.927-5.06,0-6.989L67.07,5.215
			c-1.929-1.931-5.057-1.931-6.983,0L21.673,43.652C20.95,44.376,20.591,45.281,20.409,46.214z M61.832,10.458
			c0.964-0.966,2.527-0.966,3.493,0l5.238,5.24c0.964,0.967,0.964,2.529,0,3.496l-5.238,5.24l-8.607-8.862L61.832,10.458z
			 M53.041,19.254l8.791,8.674L33.894,55.884c-3.271-3.279-7.8-7.809-8.728-8.736L53.041,19.254z M29.544,58.519l-13.352,8.088
			c-1.216,0.568-2.308-0.607-1.743-1.742L22.532,51.5L29.544,58.519z"/>
	</g>
</g>
</svg>
