<?xml version="1.0" encoding="utf-8"?>
<!-- Generator: Adobe Illustrator 16.0.0, SVG Export Plug-In . SVG Version: 6.00 Build 0)  -->
<!DOCTYPE svg PUBLIC "-//W3C//DTD SVG 1.1//EN" "http://www.w3.org/Graphics/SVG/1.1/DTD/svg11.dtd">
<svg version="1.1" id="图形" xmlns="http://www.w3.org/2000/svg" xmlns:xlink="http://www.w3.org/1999/xlink" x="0px" y="0px"
	 width="80px" height="81.839px" viewBox="0 0 80 81.839" enable-background="new 0 0 80 81.839" xml:space="preserve">
<rect x="22.818" display="none" fill="#F1F1F1" width="80" height="81.839"/>
<path id="message_1_" fill="#444444" d="M71.831,62.817h-6.74l-9.946,14.471l-9.31-14.471H8.277c-4.388,0-7.945-3.557-7.945-7.943
	V10.387c0-4.388,3.557-7.945,7.945-7.945h63.554c4.387,0,7.942,3.557,7.942,7.945v44.486C79.773,59.26,76.219,62.817,71.831,62.817z
	 M17.49,26.274c-4.033,0-7.307,3.273-7.307,7.308c0,4.037,3.274,7.308,7.307,7.308c4.037,0,7.308-3.271,7.308-7.308
	C24.798,29.548,21.526,26.274,17.49,26.274z M39.733,26.274c-4.032,0-7.307,3.273-7.307,7.308c0,4.037,3.273,7.308,7.307,7.308
	c4.037,0,7.312-3.271,7.312-7.308C47.045,29.548,43.771,26.274,39.733,26.274z M61.978,26.274c-4.034,0-7.308,3.273-7.308,7.308
	c0,4.037,3.271,7.308,7.308,7.308c4.038,0,7.308-3.271,7.308-7.308C69.285,29.548,66.016,26.274,61.978,26.274z"/>
</svg>
