<?xml version="1.0" encoding="utf-8"?>
<!-- Generator: Adobe Illustrator 16.0.0, SVG Export Plug-In . SVG Version: 6.00 Build 0)  -->
<!DOCTYPE svg PUBLIC "-//W3C//DTD SVG 1.1//EN" "http://www.w3.org/Graphics/SVG/1.1/DTD/svg11.dtd">
<svg version="1.1" id="图形" xmlns="http://www.w3.org/2000/svg" xmlns:xlink="http://www.w3.org/1999/xlink" x="0px" y="0px"
	 width="80px" height="81.839px" viewBox="0 0 80 81.839" enable-background="new 0 0 80 81.839" xml:space="preserve">
<rect x="22.818" display="none" fill="#F1F1F1" width="80" height="81.839"/>
<g>
	<path fill="#444444" d="M40.062,80.642c-21.931,0-39.723-17.792-39.723-39.723c0-21.93,17.792-39.723,39.723-39.723
		s39.723,17.792,39.723,39.723C79.784,62.85,61.992,80.642,40.062,80.642z M40.062,7.817c-18.259,0-33.103,14.844-33.103,33.102
		c0,18.258,14.844,33.103,33.103,33.103c18.258,0,33.103-14.845,33.103-33.103C73.164,22.661,58.319,7.817,40.062,7.817z
		 M26.82,34.299c-3.672,0-6.621-2.948-6.621-6.62c0-3.672,2.948-6.621,6.621-6.621c3.672,0,6.62,2.948,6.62,6.621
		C33.44,31.351,30.492,34.299,26.82,34.299z M40.062,64.091c-8.741,0-16.345-5.586-18.931-13.914
		c-0.569-1.758,0.414-3.568,2.172-4.138c1.707-0.568,3.569,0.414,4.138,2.173c1.707,5.534,6.828,9.258,12.621,9.258
		s10.913-3.724,12.62-9.258c0.568-1.759,2.431-2.741,4.189-2.173c1.707,0.569,2.689,2.38,2.12,4.138
		C56.406,58.505,48.803,64.091,40.062,64.091z M53.303,34.299c-3.673,0-6.621-2.948-6.621-6.62c0-3.672,2.948-6.621,6.621-6.621
		c3.672,0,6.62,2.948,6.62,6.621C59.923,31.351,56.975,34.299,53.303,34.299z"/>
</g>
</svg>
