<?xml version="1.0" encoding="utf-8"?>
<!-- Generator: Adobe Illustrator 16.0.0, SVG Export Plug-In . SVG Version: 6.00 Build 0)  -->
<!DOCTYPE svg PUBLIC "-//W3C//DTD SVG 1.1//EN" "http://www.w3.org/Graphics/SVG/1.1/DTD/svg11.dtd">
<svg version="1.1" id="图形" xmlns="http://www.w3.org/2000/svg" xmlns:xlink="http://www.w3.org/1999/xlink" x="0px" y="0px"
	 width="80px" height="81.839px" viewBox="0 0 80 81.839" enable-background="new 0 0 80 81.839" xml:space="preserve">
<rect x="22.818" display="none" fill="#F1F1F1" width="80" height="81.839"/>
<g id="_x33__21_">
	<g>
		<path fill="#444444" d="M57.774,48.649H34.923c-1.403,0-2.54,1.136-2.54,2.534c0,1.403,1.137,2.539,2.54,2.539h22.852
			c1.404,0,2.539-1.136,2.539-2.539C60.313,49.785,59.179,48.649,57.774,48.649z M57.774,35.963H34.923
			c-1.403,0-2.54,1.136-2.54,2.54c0,1.398,1.137,2.534,2.54,2.534h22.852c1.404,0,2.539-1.136,2.539-2.534
			C60.313,37.099,59.179,35.963,57.774,35.963z M57.774,0.371c-0.313,0-30.469,0-30.469,0c-5.373,0-10.157,4.929-10.157,10.156
			l-2.933,0.069c-5.374,0-9.763,4.86-9.763,10.087v50.783c0,5.227,4.785,10.156,10.157,10.156h38.086
			c5.373,0,10.158-4.93,10.158-10.156h2.538c5.371,0,10.156-4.93,10.156-10.157V20.743L57.774,0.371z M52.695,76.544H14.609
			c-2.666,0-5.078-2.489-5.078-5.078V20.684c0-2.583,2.171-4.994,4.836-4.994l2.78-0.085v45.704c0,5.228,4.785,10.157,10.157,10.157
			h30.469C57.774,74.055,55.359,76.544,52.695,76.544z M70.471,61.309c0,2.589-2.413,5.078-5.079,5.078H27.305
			c-2.666,0-5.079-2.489-5.079-5.078V10.527c0-2.584,2.414-5.078,5.079-5.078h25.39c-0.039,5.852,0,10.221,0,10.221
			c0,5.276,4.747,10.092,10.158,10.092c0,0,2.696,0,7.617,0V61.309z M62.854,20.684c-2.707,0-5.079-4.91-5.079-7.548
			c0,0,0-2.673,0-7.607V5.523l12.696,15.161H62.854z"/>
	</g>
</g>
</svg>
