<?xml version="1.0" encoding="utf-8"?>
<!-- Generator: Adobe Illustrator 16.0.0, SVG Export Plug-In . SVG Version: 6.00 Build 0)  -->
<!DOCTYPE svg PUBLIC "-//W3C//DTD SVG 1.1//EN" "http://www.w3.org/Graphics/SVG/1.1/DTD/svg11.dtd">
<svg version="1.1" id="图形" xmlns="http://www.w3.org/2000/svg" xmlns:xlink="http://www.w3.org/1999/xlink" x="0px" y="0px"
	 width="80px" height="81.839px" viewBox="0 0 80 81.839" enable-background="new 0 0 80 81.839" xml:space="preserve">
<rect x="22.818" display="none" fill="#F1F1F1" width="80" height="81.839"/>
<g enable-background="new    ">
	<path fill="#444444" d="M67.641,61.568c0,7.596-6.165,13.758-13.755,13.758h-39.75c-7.596,0-13.757-6.167-13.757-13.758V21.822
		c0-7.596,6.163-13.757,13.757-13.757h12.181c0.812,0,1.529,0.668,1.529,1.528c0,0.765-0.525,1.386-1.242,1.529
		c-2.388,0.813-4.538,1.769-6.354,2.866c-0.24,0.096-0.478,0.191-0.765,0.191h-5.351c-4.203,0-7.643,3.439-7.643,7.644v39.744
		c0,4.204,3.439,7.645,7.643,7.645H53.88c4.204,0,7.644-3.438,7.644-7.645V51.346c0-0.576,0.332-1.101,0.857-1.386
		c0.958-0.43,1.817-1.051,2.582-1.769c0.43-0.429,1.097-0.62,1.671-0.379c0.574,0.238,1.004,0.764,1.004,1.38v12.372h0.003V61.568z
		 M60.615,43.844c-0.572,0.618-1.336,0.908-2.148,0.908c-0.381,0-0.813-0.097-1.194-0.239c-1.099-0.478-1.862-1.576-1.862-2.818
		v-9.172h-7.645c-10.509,0-17.197,2.005-20.923,6.258c-3.87,4.442-5.017,11.607-3.535,22.594c0.096,0.672-0.333,1.34-0.957,1.621
		c-0.191,0.049-0.381,0.096-0.572,0.096c-0.477,0-0.957-0.242-1.242-0.62c-0.335-0.477-7.93-11.229-7.93-20.781
		c0-12.803,4.014-27.516,35.161-27.516h7.646V5.003c0-1.242,0.765-2.341,1.858-2.818c0.382-0.144,0.813-0.239,1.199-0.239
		c0.812,0,1.576,0.333,2.146,0.907l18.344,18.345c1.194,1.196,1.194,3.106,0,4.301L60.615,43.844z"/>
</g>
</svg>
