<?xml version="1.0" encoding="utf-8"?>
<!-- Generator: Adobe Illustrator 16.0.0, SVG Export Plug-In . SVG Version: 6.00 Build 0)  -->
<!DOCTYPE svg PUBLIC "-//W3C//DTD SVG 1.1//EN" "http://www.w3.org/Graphics/SVG/1.1/DTD/svg11.dtd">
<svg version="1.1" id="图形" xmlns="http://www.w3.org/2000/svg" xmlns:xlink="http://www.w3.org/1999/xlink" x="0px" y="0px"
	 width="80px" height="81.839px" viewBox="0 0 80 81.839" enable-background="new 0 0 80 81.839" xml:space="preserve">
<rect x="22.818" display="none" fill="#F1F1F1" width="80" height="81.839"/>
<g>
	<path fill="#444444" d="M79.797,64.316c0,9.14-7.382,16.523-16.525,16.523c-9.138,0-16.521-7.384-16.521-16.523
		c0-0.566,0.051-1.189,0.103-1.757l-18.589-9.296C25.32,56,21.342,57.707,17.005,57.707c-9.14,0-16.524-7.386-16.524-16.525
		c0-9.14,7.384-16.524,16.524-16.524c4.337,0,8.313,1.704,11.258,4.44l18.589-9.295c-0.052-0.568-0.103-1.187-0.103-1.756
		c0-9.139,7.382-16.524,16.521-16.524c9.144,0,16.525,7.385,16.525,16.524c0,9.141-7.382,16.524-16.525,16.524
		c-4.335,0-8.311-1.705-11.254-4.44l-18.591,9.294c0.053,0.568,0.104,1.187,0.104,1.756c0,0.567-0.052,1.188-0.104,1.758
		l18.589,9.294c2.943-2.735,6.921-4.442,11.256-4.442C72.415,47.792,79.797,55.175,79.797,64.316z"/>
</g>
</svg>
