<?xml version="1.0" encoding="utf-8"?>
<!-- Generator: Adobe Illustrator 16.0.0, SVG Export Plug-In . SVG Version: 6.00 Build 0)  -->
<!DOCTYPE svg PUBLIC "-//W3C//DTD SVG 1.1//EN" "http://www.w3.org/Graphics/SVG/1.1/DTD/svg11.dtd">
<svg version="1.1" id="图形" xmlns="http://www.w3.org/2000/svg" xmlns:xlink="http://www.w3.org/1999/xlink" x="0px" y="0px"
	 width="80px" height="81.839px" viewBox="0 0 80 81.839" enable-background="new 0 0 80 81.839" xml:space="preserve">
<rect x="22.818" display="none" fill="#F1F1F1" width="80" height="81.839"/>
<g>
	<path fill="#444444" d="M79.61,65.546c0,8.16-6.617,14.776-14.775,14.776H15.582c-8.157,0-14.776-6.616-14.776-14.776V16.293
		c0-8.157,6.619-14.776,14.776-14.776h49.253c8.158,0,14.775,6.619,14.775,14.776V65.546z M55.549,45.282
		c-2.872,0-5.485,1.129-7.438,2.976L35.748,42.1c0.052-0.409,0.103-0.769,0.103-1.18s-0.051-0.769-0.103-1.179l12.362-6.158
		c1.953,1.849,4.566,2.976,7.438,2.976c6.007,0,10.931-4.926,10.931-10.979c0-6.002-4.924-10.928-10.931-10.928
		c-6.053,0-10.979,4.926-10.979,10.928c0,0.411,0.051,0.77,0.102,1.18l-12.363,6.157c-1.949-1.796-4.565-2.925-7.439-2.925
		c-6.002,0-10.928,4.874-10.928,10.929c0,6.056,4.926,10.93,10.928,10.93c2.874,0,5.489-1.131,7.439-2.927l12.363,6.158
		c-0.051,0.409-0.102,0.77-0.102,1.179c0,6.008,4.927,10.932,10.979,10.932c6.007,0,10.931-4.924,10.931-10.932
		C66.477,50.208,61.553,45.282,55.549,45.282z"/>
</g>
</svg>
