<?xml version="1.0" encoding="utf-8"?>
<!-- Generator: Adobe Illustrator 16.0.0, SVG Export Plug-In . SVG Version: 6.00 Build 0)  -->
<!DOCTYPE svg PUBLIC "-//W3C//DTD SVG 1.1//EN" "http://www.w3.org/Graphics/SVG/1.1/DTD/svg11.dtd">
<svg version="1.1" id="图形" xmlns="http://www.w3.org/2000/svg" xmlns:xlink="http://www.w3.org/1999/xlink" x="0px" y="0px"
	 width="80px" height="81.839px" viewBox="0 0 80 81.839" enable-background="new 0 0 80 81.839" xml:space="preserve">
<rect x="22.818" display="none" fill="#F1F1F1" width="80" height="81.839"/>
<g>
	<g>
		<path fill="#333333" d="M15.243,66.919c0,0,11.799,4.487,24.721,4.487c0,0,14.325-0.737,24.715-4.306l-5.396-32.588l8.874,2.735
			c0,0,1.52,1.331,2.766-0.093c0.704-0.844,6.143-9.896,8.48-13.772c1.103-1.867-0.083-2.005-0.083-2.005L66.72,15.129
			c0,0-2.406-2.955-9.047-2.955h-5.719c0,0,0.188,11.901-11.994,11.901c0,0-12.003-0.739-11.807-11.901H22.42
			c0,0-6.82,0.555-9.221,2.955L0.563,21.28c0,0-0.829,1.017,0.095,2.77l8.515,13.163c0,0,1.482,1.196,3.044-0.182l7.461-2.334
			L15.243,66.919z"/>
	</g>
</g>
</svg>
