<?xml version="1.0" encoding="utf-8"?>
<!-- Generator: Adobe Illustrator 16.0.0, SVG Export Plug-In . SVG Version: 6.00 Build 0)  -->
<!DOCTYPE svg PUBLIC "-//W3C//DTD SVG 1.1//EN" "http://www.w3.org/Graphics/SVG/1.1/DTD/svg11.dtd">
<svg version="1.1" id="图形" xmlns="http://www.w3.org/2000/svg" xmlns:xlink="http://www.w3.org/1999/xlink" x="0px" y="0px"
	 width="80px" height="81.839px" viewBox="0 0 80 81.839" enable-background="new 0 0 80 81.839" xml:space="preserve">
<rect x="22.818" display="none" fill="#F1F1F1" width="80" height="81.839"/>
<g>
	<path fill="#444444" d="M47.025,76.917H12.85c-7.393,0-12.414-4.511-12.414-12.043c0-10.511,2.465-26.647,16.087-26.647
		c1.442,0,7.532,6.463,16.646,6.463c9.115,0,15.205-6.463,16.647-6.463c5.021,0,7.953,1.763,10.187,4.535
		c-6.531,1.595-12.412,4.724-16.57,10.226C38.838,60.484,41.134,70.145,47.025,76.917z M58.188,76.208
		c3.733-1.343,7.715-4.824,7.715-11.335c0-1.878-0.008-2.964-0.214-5.078C60.284,61.048,51.025,65.77,58.188,76.208z"/>
	<circle fill="#444444" cx="33.169" cy="23.349" r="17.855"/>
	<g>
		<path fill="#444444" d="M79.508,45.512l-6.449,14.898c-0.151,0.349-0.426,0.625-0.78,0.768c-0.729,0.289-1.573-0.077-1.861-0.808
			l-2.112-5.336l-4.663,1.848c-8.986,3.555-14.203,7.621-10.269,17.563c0.34,0.856,0.725,1.692,1.118,2.524
			c0.157,0.325,0.389,0.664,0.52,0.999c0.158,0.398,0.037,0.831-0.376,0.996c-0.292,0.114-0.496,0.027-0.724-0.124
			c-0.486-0.314-0.978-0.89-1.397-1.279c-2.243-2.199-5.214-5.438-6.366-8.355c-0.924-2.333-1.647-4.819-1.646-7.376
			c0.052-8.339,8.076-12.91,14.915-15.617l4.669-1.85l-2.112-5.336c-0.286-0.729,0.077-1.574,0.806-1.864
			c0.357-0.14,0.745-0.123,1.097,0.026l14.896,6.449c0.348,0.151,0.626,0.43,0.769,0.778C79.671,44.774,79.656,45.166,79.508,45.512
			z"/>
	</g>
</g>
</svg>
