<?xml version="1.0" encoding="utf-8"?>
<!-- Generator: Adobe Illustrator 16.0.0, SVG Export Plug-In . SVG Version: 6.00 Build 0)  -->
<!DOCTYPE svg PUBLIC "-//W3C//DTD SVG 1.1//EN" "http://www.w3.org/Graphics/SVG/1.1/DTD/svg11.dtd">
<svg version="1.1" id="图形" xmlns="http://www.w3.org/2000/svg" xmlns:xlink="http://www.w3.org/1999/xlink" x="0px" y="0px"
	 width="80px" height="81.839px" viewBox="0 0 80 81.839" enable-background="new 0 0 80 81.839" xml:space="preserve">
<rect x="22.818" display="none" fill="#F1F1F1" width="80" height="81.839"/>
<path fill="#444444" d="M4.587,52.659c1.156,0,2.227-0.003,3.234-0.008c0.944,0.086,1.694-0.142,2.209-0.756
	c0.413-0.589,0.695-1.409,0.893-2.396c-0.821-0.868-1.475-1.96-1.855-3.195c-0.463-0.236-0.809-0.648-1.045-1.202
	c-0.253-0.607-0.367-1.403-0.355-2.347l0.006-0.306l0.25-0.164c0.049-0.031,0.094-0.062,0.141-0.092
	c-0.547-4.002-0.088-5.853,1.652-7.28c2.707-2.218,7.851-2.234,10.594-0.226c1.861,1.363,2.527,3.787,2.034,7.422
	c0.097,0.055,0.189,0.106,0.286,0.176l0.247,0.169l0.006,0.301c0.013,0.925-0.097,1.709-0.34,2.308
	c-0.224,0.559-0.558,0.973-1.007,1.215c-0.353,1.157-0.942,2.189-1.686,3.029c0.237,1.271,0.604,2.295,1.196,2.913
	c0.521,0.257,1.208,0.331,2.017,0.267c0.941-0.004,1.931-0.01,2.998-0.01c2.762,2.615,4.531,8.77,4.097,12.785
	c-4.534,3.159-26.38,3.345-29.808,0C0.425,61.742,1.075,55.719,4.587,52.659L4.587,52.659z M38.38,57.549
	c0.618,0,1.187,0,1.722-0.003c0.507,0.046,0.906-0.073,1.18-0.401c0.22-0.311,0.372-0.75,0.478-1.271
	c-0.437-0.467-0.784-1.047-0.988-1.708c-0.246-0.125-0.428-0.345-0.556-0.643c-0.137-0.324-0.196-0.748-0.187-1.257v-0.157
	l0.134-0.086c0.029-0.018,0.053-0.034,0.079-0.05c-0.293-2.132-0.048-3.123,0.877-3.879c1.443-1.185,4.185-1.192,5.646-0.123
	c0.99,0.731,1.35,2.021,1.085,3.959c0.051,0.026,0.101,0.059,0.151,0.093l0.138,0.086v0.157c0.008,0.496-0.051,0.914-0.185,1.237
	c-0.118,0.298-0.294,0.514-0.536,0.647c-0.186,0.615-0.503,1.167-0.897,1.611c0.127,0.681,0.323,1.224,0.638,1.555
	c0.277,0.138,0.646,0.176,1.077,0.14c0.5,0,1.034-0.002,1.603-0.002c0.439,0.424,0.833,1.012,1.164,1.687
	c1.104-0.183,2.47-0.255,2.777-0.263c0.177-0.558,0.326-1.082,0.437-1.66c-0.815-0.562-1.375-1.32-1.723-2.174
	c-0.392-0.042-1.315-0.01-1.694-0.055c-0.461-2.939,0.199-7.257,1.403-8.243c1.775-1.454,6.1-1.519,7.897-0.197
	c1.303,0.954,2.163,5.648,1.708,8.315c-0.207,0.136-1.482,0.058-1.724,0.185c-0.389,0.838-0.995,1.603-1.85,2.18
	c0.237,0.848,0.378,1.163,0.595,1.653c0.197,0.004,0.849,0.036,1.586,0.111c0.409-0.854,0.942-1.63,1.636-2.237
	c0.808,0,1.551,0,2.252-0.004c0.653,0.063,1.178-0.096,1.537-0.521c0.287-0.41,0.485-0.985,0.62-1.666
	c-0.569-0.603-1.024-1.36-1.289-2.225c-0.323-0.163-0.566-0.451-0.727-0.839c-0.175-0.424-0.257-0.979-0.246-1.637v-0.204
	l0.176-0.119c0.031-0.021,0.067-0.043,0.101-0.061c-0.384-2.786-0.064-4.072,1.15-5.066c1.881-1.541,5.458-1.554,7.368-0.153
	c1.293,0.947,1.756,2.632,1.417,5.161c0.066,0.038,0.129,0.08,0.198,0.122l0.174,0.116l0.004,0.207
	c0.008,0.646-0.068,1.188-0.237,1.61c-0.156,0.39-0.389,0.675-0.7,0.842c-0.248,0.81-0.657,1.525-1.174,2.112
	c0.164,0.883,0.423,1.601,0.832,2.027c0.364,0.181,0.838,0.229,1.402,0.185c0.653-0.004,1.346-0.004,2.088-0.004
	c1.917,1.82,3.153,6.097,2.85,8.894c-2.177,2.327-15.465,3.215-19.866,0.673c-3.631,0.46-8.056,0.202-10.795-0.773
	c-4.157,0.89-11.271,0.781-13.057-1.157C36.166,62.394,36.51,59.186,38.38,57.549L38.38,57.549z M38.125,12.271
	c-11.038,0-19.987,6.075-19.987,13.568c0,5.36,4.579,9.993,11.226,12.195l-2.023,3.095l4.413,1.226l-6.813,4.134l11-2.456
	l-2.178-3.128l3.578-1.509c0.263,0.005,0.524,0.008,0.784,0.008c11.044,0,19.99-6.073,19.99-13.564
	C58.115,18.346,49.166,12.271,38.125,12.271L38.125,12.271z M14.849,52.756l-0.81,1.66l0.875,0.691l-2.142,8.18l2.862,2.121v0.136
	l0.091-0.069l0.094,0.069v-0.136l2.862-2.121l-2.143-8.18l0.882-0.691l-0.81-1.66l-0.886,0.014L14.849,52.756z"/>
</svg>
