<?xml version="1.0" encoding="utf-8"?>
<!-- Generator: Adobe Illustrator 16.0.0, SVG Export Plug-In . SVG Version: 6.00 Build 0)  -->
<!DOCTYPE svg PUBLIC "-//W3C//DTD SVG 1.1//EN" "http://www.w3.org/Graphics/SVG/1.1/DTD/svg11.dtd">
<svg version="1.1" id="图形" xmlns="http://www.w3.org/2000/svg" xmlns:xlink="http://www.w3.org/1999/xlink" x="0px" y="0px"
	 width="80px" height="81.839px" viewBox="0 0 80 81.839" enable-background="new 0 0 80 81.839" xml:space="preserve">
<rect x="22.818" display="none" fill="#F1F1F1" width="80" height="81.839"/>
<g>
	<path fill="#444444" d="M40,80.839c-21.983,0-39.819-17.836-39.819-39.818C0.181,19.037,18.016,1.202,40,1.202
		c21.983,0,39.819,17.835,39.819,39.819C79.818,63.003,61.982,80.839,40,80.839z M40,12.815c-15.554,0-28.205,12.651-28.205,28.206
		c0,15.554,12.651,28.203,28.205,28.203s28.205-12.649,28.205-28.203C68.204,25.466,55.554,12.815,40,12.815z M49.487,58.078
		c-0.674,0.674-1.711,0.674-2.385,0L40,50.975l-7.103,7.103c-0.674,0.674-1.711,0.674-2.386,0l-7.569-7.569
		c-0.674-0.674-0.674-1.711,0-2.385l7.103-7.103l-7.103-7.104c-0.674-0.674-0.674-1.711,0-2.386l7.569-7.569
		c0.674-0.674,1.712-0.674,2.386,0L40,31.066l7.103-7.103c0.674-0.674,1.711-0.674,2.385,0l7.569,7.569
		c0.674,0.674,0.674,1.712,0,2.386l-7.103,7.104l7.103,7.103c0.674,0.674,0.674,1.711,0,2.385L49.487,58.078z"/>
</g>
</svg>
