<?xml version="1.0" encoding="utf-8"?>
<!-- Generator: Adobe Illustrator 16.0.0, SVG Export Plug-In . SVG Version: 6.00 Build 0)  -->
<!DOCTYPE svg PUBLIC "-//W3C//DTD SVG 1.1//EN" "http://www.w3.org/Graphics/SVG/1.1/DTD/svg11.dtd">
<svg version="1.1" id="图形" xmlns="http://www.w3.org/2000/svg" xmlns:xlink="http://www.w3.org/1999/xlink" x="0px" y="0px"
	 width="80px" height="81.839px" viewBox="0 0 80 81.839" enable-background="new 0 0 80 81.839" xml:space="preserve">
<rect x="22.818" display="none" fill="#F1F1F1" width="80" height="81.839"/>
<g>
	<path fill="#444444" d="M40.057,80.745c-21.957,0-39.77-17.816-39.77-39.772c0-21.958,17.813-39.771,39.77-39.771
		c21.956,0,39.771,17.813,39.771,39.771C79.827,62.928,62.013,80.745,40.057,80.745z M58.804,50.346l-9.373-9.374l9.373-9.373
		c0.62-0.622,0.983-1.449,0.983-2.33s-0.363-1.761-0.983-2.382l-4.66-4.66c-0.622-0.622-1.503-0.984-2.384-0.984
		c-0.88,0-1.707,0.362-2.329,0.984L40.057,31.6l-9.374-9.372c-0.621-0.622-1.449-0.984-2.329-0.984c-0.88,0-1.76,0.362-2.382,0.984
		l-4.661,4.66c-0.621,0.622-0.983,1.501-0.983,2.382s0.362,1.708,0.983,2.33l9.372,9.373l-9.372,9.374
		c-0.621,0.622-0.983,1.449-0.983,2.329c0,0.881,0.362,1.763,0.983,2.384l4.661,4.658c0.622,0.623,1.501,0.985,2.382,0.985
		c0.88,0,1.708-0.362,2.329-0.985l9.374-9.371l9.374,9.371c0.622,0.623,1.449,0.985,2.329,0.985c0.881,0,1.762-0.362,2.384-0.985
		l4.66-4.658c0.62-0.621,0.983-1.503,0.983-2.384C59.787,51.795,59.424,50.968,58.804,50.346z"/>
</g>
</svg>
