<?xml version="1.0" encoding="utf-8"?>
<!-- Generator: Adobe Illustrator 16.0.0, SVG Export Plug-In . SVG Version: 6.00 Build 0)  -->
<!DOCTYPE svg PUBLIC "-//W3C//DTD SVG 1.1//EN" "http://www.w3.org/Graphics/SVG/1.1/DTD/svg11.dtd">
<svg version="1.1" id="图形" xmlns="http://www.w3.org/2000/svg" xmlns:xlink="http://www.w3.org/1999/xlink" x="0px" y="0px"
	 width="80px" height="81.839px" viewBox="0 0 80 81.839" enable-background="new 0 0 80 81.839" xml:space="preserve">
<rect x="22.818" display="none" fill="#F1F1F1" width="80" height="81.839"/>
<g>
	<path fill="#444444" d="M22.966,21.966c0,2.351-1.908,4.258-4.259,4.258H4.512c-2.351,0-4.258-1.907-4.258-4.258V13.45
		c0-2.352,1.907-4.259,4.258-4.259h14.195c2.352,0,4.259,1.907,4.259,4.259V21.966z M22.966,44.678c0,2.351-1.908,4.259-4.259,4.259
		H4.512c-2.351,0-4.258-1.908-4.258-4.259v-8.516c0-2.351,1.907-4.258,4.258-4.258h14.195c2.352,0,4.259,1.907,4.259,4.258V44.678z
		 M22.966,67.39c0,2.351-1.908,4.258-4.259,4.258H4.512c-2.351,0-4.258-1.907-4.258-4.258v-8.516c0-2.353,1.907-4.258,4.258-4.258
		h14.195c2.352,0,4.259,1.908,4.259,4.258V67.39z M79.747,21.966c0,2.351-1.906,4.258-4.259,4.258H32.902
		c-2.352,0-4.259-1.907-4.259-4.258V13.45c0-2.352,1.907-4.259,4.259-4.259h42.584c2.351,0,4.257,1.907,4.257,4.259v8.516H79.747z
		 M79.747,44.678c0,2.351-1.906,4.259-4.259,4.259H32.902c-2.352,0-4.259-1.908-4.259-4.259v-8.516c0-2.351,1.907-4.258,4.259-4.258
		h42.584c2.351,0,4.257,1.907,4.257,4.258v8.516H79.747z M79.747,67.39c0,2.351-1.906,4.258-4.259,4.258H32.902
		c-2.352,0-4.259-1.907-4.259-4.258v-8.516c0-2.353,1.907-4.258,4.259-4.258h42.584c2.351,0,4.257,1.908,4.257,4.258v8.516H79.747z"
		/>
</g>
</svg>
