<?xml version="1.0" encoding="utf-8"?>
<!-- Generator: Adobe Illustrator 16.0.0, SVG Export Plug-In . SVG Version: 6.00 Build 0)  -->
<!DOCTYPE svg PUBLIC "-//W3C//DTD SVG 1.1//EN" "http://www.w3.org/Graphics/SVG/1.1/DTD/svg11.dtd">
<svg version="1.1" id="图形" xmlns="http://www.w3.org/2000/svg" xmlns:xlink="http://www.w3.org/1999/xlink" x="0px" y="0px"
	 width="80px" height="81.839px" viewBox="0 0 80 81.839" enable-background="new 0 0 80 81.839" xml:space="preserve">
<rect x="22.818" display="none" fill="#F1F1F1" width="80" height="81.839"/>
<g>
	<path fill="#444444" d="M75.121,45.755c0.292,1.075,0.438,2.247,0.438,3.37c0,2.442-0.635,4.885-1.855,7.034
		c0.098,0.685,0.146,1.416,0.146,2.101c0,3.126-1.024,6.253-2.932,8.693c0.098,9.233-6.202,14.655-15.24,14.655h-1.758h-4.543
		c-6.935,0-13.383-2.052-19.831-4.299c-1.417-0.488-5.374-1.954-6.74-1.954H8.738c-3.468,0-6.252-2.783-6.252-6.252V37.842
		c0-3.468,2.784-6.252,6.252-6.252h13.384c1.905-1.271,5.226-5.667,6.692-7.571c1.66-2.149,3.37-4.25,5.226-6.253
		c2.931-3.125,1.368-10.844,6.252-15.631c1.172-1.124,2.736-1.807,4.396-1.807c5.08,0,9.966,1.807,12.358,6.545
		c1.514,2.979,1.71,5.813,1.71,9.085c0,3.419-0.881,6.351-2.345,9.379h8.597c6.741,0,12.505,5.715,12.505,12.456
		C77.515,40.626,76.684,43.411,75.121,45.755z M11.864,62.851c-1.709,0-3.126,1.418-3.126,3.127c0,1.71,1.417,3.126,3.126,3.126
		c1.71,0,3.126-1.416,3.126-3.126C14.99,64.269,13.574,62.851,11.864,62.851z M65.01,31.59H47.816c0-5.715,4.689-9.867,4.689-15.631
		c0-5.715-1.124-9.378-7.816-9.378c-3.125,3.175-1.515,10.648-6.253,15.631c-1.367,1.417-2.539,2.931-3.761,4.445
		c-2.198,2.833-8.011,11.186-11.869,11.186h-1.564v31.262h1.564c2.735,0,7.229,1.758,9.866,2.687
		c5.373,1.856,10.941,3.565,16.705,3.565h5.911c5.52,0,9.379-2.198,9.379-8.157c0-0.928-0.098-1.855-0.244-2.734
		c2.051-1.124,3.174-3.908,3.174-6.155c0-1.173-0.292-2.345-0.878-3.371c1.661-1.563,2.587-3.517,2.587-5.813
		c0-1.563-0.683-3.859-1.709-5.03c2.296-0.049,3.664-4.446,3.664-6.253C71.262,34.521,68.283,31.59,65.01,31.59z"/>
</g>
</svg>
