<?xml version="1.0" encoding="utf-8"?>
<!-- Generator: Adobe Illustrator 16.0.0, SVG Export Plug-In . SVG Version: 6.00 Build 0)  -->
<!DOCTYPE svg PUBLIC "-//W3C//DTD SVG 1.1//EN" "http://www.w3.org/Graphics/SVG/1.1/DTD/svg11.dtd">
<svg version="1.1" id="图形" xmlns="http://www.w3.org/2000/svg" xmlns:xlink="http://www.w3.org/1999/xlink" x="0px" y="0px"
	 width="80px" height="81.839px" viewBox="0 0 80 81.839" enable-background="new 0 0 80 81.839" xml:space="preserve">
<rect x="22.818" display="none" fill="#F1F1F1" width="80" height="81.839"/>
<g>
	<path fill="#444444" d="M22.955,21.485c0,2.349-1.907,4.254-4.257,4.254H4.518c-2.348,0-4.255-1.905-4.255-4.254v-8.509
		c0-2.349,1.906-4.255,4.255-4.255h14.181c2.35,0,4.257,1.906,4.257,4.255V21.485z M22.955,44.174c0,2.349-1.907,4.257-4.257,4.257
		H4.518c-2.348,0-4.255-1.908-4.255-4.257v-8.509c0-2.348,1.906-4.254,4.255-4.254h14.181c2.35,0,4.257,1.906,4.257,4.254V44.174z
		 M22.955,66.864c0,2.348-1.907,4.255-4.257,4.255H4.518c-2.348,0-4.255-1.907-4.255-4.255v-8.508c0-2.349,1.906-4.257,4.255-4.257
		h14.181c2.35,0,4.257,1.908,4.257,4.257V66.864z M51.316,21.485c0,2.349-1.907,4.254-4.254,4.254H32.88
		c-2.348,0-4.255-1.905-4.255-4.254v-8.509c0-2.349,1.906-4.255,4.255-4.255h14.183c2.347,0,4.254,1.906,4.254,4.255V21.485
		L51.316,21.485z M51.316,44.174c0,2.349-1.907,4.257-4.254,4.257H32.88c-2.348,0-4.255-1.908-4.255-4.257v-8.509
		c0-2.348,1.906-4.254,4.255-4.254h14.183c2.347,0,4.254,1.906,4.254,4.254V44.174L51.316,44.174z M51.316,66.864
		c0,2.348-1.907,4.255-4.254,4.255H32.88c-2.348,0-4.255-1.907-4.255-4.255v-8.508c0-2.349,1.906-4.257,4.255-4.257h14.183
		c2.347,0,4.254,1.908,4.254,4.257V66.864L51.316,66.864z M79.682,21.485c0,2.349-1.907,4.254-4.257,4.254H61.244
		c-2.349,0-4.254-1.905-4.254-4.254v-8.509c0-2.349,1.905-4.255,4.254-4.255h14.181c2.35,0,4.257,1.906,4.257,4.255V21.485z
		 M79.682,44.174c0,2.349-1.907,4.257-4.257,4.257H61.244c-2.349,0-4.254-1.908-4.254-4.257v-8.509c0-2.348,1.905-4.254,4.254-4.254
		h14.181c2.35,0,4.257,1.906,4.257,4.254V44.174z M79.682,66.864c0,2.348-1.907,4.255-4.257,4.255H61.244
		c-2.349,0-4.254-1.907-4.254-4.255v-8.508c0-2.349,1.905-4.257,4.254-4.257h14.181c2.35,0,4.257,1.908,4.257,4.257V66.864z"/>
</g>
</svg>
