<?xml version="1.0" encoding="utf-8"?>
<!-- Generator: Adobe Illustrator 16.0.0, SVG Export Plug-In . SVG Version: 6.00 Build 0)  -->
<!DOCTYPE svg PUBLIC "-//W3C//DTD SVG 1.1//EN" "http://www.w3.org/Graphics/SVG/1.1/DTD/svg11.dtd">
<svg version="1.1" id="图形" xmlns="http://www.w3.org/2000/svg" xmlns:xlink="http://www.w3.org/1999/xlink" x="0px" y="0px"
	 width="80px" height="81.839px" viewBox="0 0 80 81.839" enable-background="new 0 0 80 81.839" xml:space="preserve">
<rect x="22.818" display="none" fill="#F1F1F1" width="80" height="81.839"/>
<g>
	<path fill="#444444" d="M78.232,19.043c0,0.946-0.736,1.683-1.685,1.683h-5.049V70.58c0,5.785-3.786,10.73-8.413,10.73H19.332
		c-4.629,0-8.414-4.734-8.414-10.518V20.725H5.87c-0.947,0-1.684-0.737-1.684-1.683v-3.365c0-0.947,0.737-1.684,1.684-1.684h16.249
		l3.682-8.782c1.052-2.577,4.208-4.682,6.995-4.682h16.827c2.789,0,5.943,2.104,6.995,4.682l3.68,8.782h16.248
		c0.945,0,1.683,0.736,1.683,1.684L78.232,19.043L78.232,19.043z M64.771,20.725H17.648V70.58c0,2.524,1.42,3.997,1.684,3.997
		h43.754c0.263,0,1.682-1.473,1.682-3.997V20.725H64.771z M31.112,62.795c0,0.948-0.736,1.683-1.683,1.683h-3.366
		c-0.947,0-1.683-0.734-1.683-1.683V32.505c0-0.947,0.736-1.684,1.683-1.684h3.366c0.947,0,1.683,0.737,1.683,1.684V62.795z
		 M52.989,13.993l-2.524-6.152c-0.156-0.21-0.632-0.526-0.895-0.578H32.899c-0.314,0.052-0.736,0.368-0.893,0.578l-2.576,6.152
		H52.989z M44.573,62.795c0,0.948-0.735,1.683-1.681,1.683h-3.367c-0.947,0-1.683-0.734-1.683-1.683V32.505
		c0-0.947,0.736-1.684,1.683-1.684h3.367c0.945,0,1.681,0.737,1.681,1.684V62.795z M58.037,62.795c0,0.948-0.736,1.683-1.683,1.683
		h-3.365c-0.944,0-1.68-0.734-1.68-1.683V32.505c0-0.947,0.735-1.684,1.68-1.684h3.365c0.946,0,1.683,0.737,1.683,1.684V62.795z"/>
</g>
</svg>
