<?xml version="1.0" encoding="utf-8"?>
<!-- Generator: Adobe Illustrator 16.0.0, SVG Export Plug-In . SVG Version: 6.00 Build 0)  -->
<!DOCTYPE svg PUBLIC "-//W3C//DTD SVG 1.1//EN" "http://www.w3.org/Graphics/SVG/1.1/DTD/svg11.dtd">
<svg version="1.1" id="图形" xmlns="http://www.w3.org/2000/svg" xmlns:xlink="http://www.w3.org/1999/xlink" x="0px" y="0px"
	 width="80px" height="81.839px" viewBox="0 0 80 81.839" enable-background="new 0 0 80 81.839" xml:space="preserve">
<rect x="22.818" display="none" fill="#F1F1F1" width="80" height="81.839"/>
<path fill="#444444" d="M3.196,13.574c4.634,0.646,10.285-0.09,15.639-0.788c6.982-0.913,13.519-1.763,17.95,0.358
	c4.433-2.121,10.969-1.271,17.954-0.358c5.353,0.698,11,1.435,15.637,0.788l2.895,2.512v21.882
	c-1.499-1.452-3.219-2.638-5.089-3.514v-15.59c-4.534,0.199-9.422-0.437-14.103-1.048c-6.013-0.784-11.643-1.519-14.748-0.252
	v42.222c1.167-0.226,2.447-0.33,3.813-0.348c0.604,1.283,1.348,2.508,2.231,3.638c0.438,0.553,0.903,1.084,1.391,1.584l-0.93-0.088
	c-3.455-0.211-6.18-0.066-7.516,0.944l-1.534-0.764l-1.529,0.764c-2.199-1.666-8.148-0.988-14.877-0.22
	c-5.778,0.648-12.079,1.359-17.811,0.715l-2.267-2.522V16.083L3.196,13.574L3.196,13.574z M65.273,30.153
	c-5.207,0.007-18.674-2.363-22.287-2.16c0,0.671,0,1.345,0,2.019c4.456-0.103,18.067,2.362,22.287,2.164
	C65.273,31.502,65.273,30.828,65.273,30.153L65.273,30.153z M65.273,23.989c-5.207,0.004-18.674-2.367-22.287-2.163
	c0,0.672,0,1.345,0,2.018c4.456-0.098,18.067,2.367,22.287,2.166C65.273,25.334,65.273,24.663,65.273,23.989L65.273,23.989z
	 M9.419,54.771c0,0.673,0,1.346,0,2.021c4.221,0.201,17.832-2.266,22.29-2.168c0-0.669,0-1.348,0-2.014
	C28.094,52.406,14.63,54.776,9.419,54.771L9.419,54.771z M9.419,48.073c0,0.674,0,1.349,0,2.02
	c4.221,0.199,17.832-2.266,22.29-2.162c0-0.675,0-1.348,0-2.019C28.094,45.71,14.63,48.082,9.419,48.073L9.419,48.073z
	 M9.419,41.911c0,0.673,0,1.341,0,2.017c4.221,0.203,17.832-2.262,22.29-2.166c0-0.667,0-1.345,0-2.018
	C28.094,39.542,14.63,41.914,9.419,41.911L9.419,41.911z M20.866,33.751c0,0.675,0,1.347,0,2.021
	c2.234-0.033,6.384-1.118,10.842-1.02c0-0.672,0-1.345,0-2.019C28.094,32.531,24.257,33.152,20.866,33.751L20.866,33.751z
	 M20.866,28.139c0,0.675,0,1.345,0,2.021c2.234-0.035,6.384-1.12,10.842-1.017c0-0.676,0-1.347,0-2.022
	C28.094,26.921,24.257,27.539,20.866,28.139L20.866,28.139z M20.866,23.358c0,0.673,0,1.345,0,2.02
	c2.234-0.032,6.384-1.116,10.842-1.019c0-0.672,0-1.347,0-2.016C28.094,22.139,24.257,22.758,20.866,23.358L20.866,23.358z
	 M9.015,23.53v15.219l9.022-0.959V22.568L9.015,23.53L9.015,23.53z M19.488,17.816c-4.678,0.611-9.566,1.247-14.095,1.048v42.28
	c4.617,0.212,9.703-0.369,14.429-0.896c5.517-0.628,10.581-1.197,14.421-0.462V17.563C31.134,16.297,25.506,17.032,19.488,17.816z
	 M76.746,72.274c-0.736-0.032-1.438-0.367-1.913-0.912l-7.106-7.729c-2.609,1.644-5.684,2.439-8.758,2.305
	c-8.421-0.369-14.943-7.486-14.573-15.913c0.366-8.421,7.484-14.945,15.909-14.576c8.425,0.368,14.946,7.489,14.578,15.913
	c-0.134,3.076-1.198,6.063-3.064,8.523l7.102,7.753c0.479,0.52,0.75,1.246,0.718,1.983C79.573,71.138,78.263,72.339,76.746,72.274z
	 M60.066,40.993c-5.349-0.235-9.895,3.929-10.128,9.275c-0.234,5.35,3.929,9.896,9.277,10.125c5.347,0.238,9.893-3.927,10.125-9.275
	C69.577,45.773,65.414,41.227,60.066,40.993z"/>
</svg>
