<?xml version="1.0" encoding="utf-8"?>
<!-- Generator: Adobe Illustrator 16.0.0, SVG Export Plug-In . SVG Version: 6.00 Build 0)  -->
<!DOCTYPE svg PUBLIC "-//W3C//DTD SVG 1.1//EN" "http://www.w3.org/Graphics/SVG/1.1/DTD/svg11.dtd">
<svg version="1.1" id="图形" xmlns="http://www.w3.org/2000/svg" xmlns:xlink="http://www.w3.org/1999/xlink" x="0px" y="0px"
	 width="80px" height="81.839px" viewBox="0 0 80 81.839" enable-background="new 0 0 80 81.839" xml:space="preserve">
<rect x="22.818" display="none" fill="#F1F1F1" width="80" height="81.839"/>
<g>
	<path fill="#444444" d="M37.01,31.743c0,3.346-2.773,6.118-6.118,6.118H6.421c-3.346,0-6.118-2.772-6.118-6.118V13.39
		c0-3.346,2.772-6.118,6.118-6.118h24.471c3.345,0,6.118,2.772,6.118,6.118V31.743z M37.01,68.449c0,3.346-2.773,6.117-6.118,6.117
		H6.421c-3.346,0-6.118-2.771-6.118-6.117V50.095c0-3.345,2.772-6.117,6.118-6.117h24.471c3.345,0,6.118,2.772,6.118,6.117V68.449z
		 M79.834,31.743c0,3.346-2.772,6.118-6.117,6.118H49.246c-3.347,0-6.118-2.772-6.118-6.118V13.39c0-3.346,2.771-6.118,6.118-6.118
		h24.471c3.345,0,6.117,2.772,6.117,6.118V31.743z M79.834,68.449c0,3.346-2.772,6.117-6.117,6.117H49.246
		c-3.347,0-6.118-2.771-6.118-6.117V50.095c0-3.345,2.771-6.117,6.118-6.117h24.471c3.345,0,6.117,2.772,6.117,6.117V68.449z"/>
</g>
</svg>
