<?xml version="1.0" encoding="utf-8"?>
<!-- Generator: Adobe Illustrator 16.0.0, SVG Export Plug-In . SVG Version: 6.00 Build 0)  -->
<!DOCTYPE svg PUBLIC "-//W3C//DTD SVG 1.1//EN" "http://www.w3.org/Graphics/SVG/1.1/DTD/svg11.dtd">
<svg version="1.1" id="图形" xmlns="http://www.w3.org/2000/svg" xmlns:xlink="http://www.w3.org/1999/xlink" x="0px" y="0px"
	 width="80px" height="81.839px" viewBox="0 0 80 81.839" enable-background="new 0 0 80 81.839" xml:space="preserve">
<rect x="22.818" display="none" fill="#F1F1F1" width="80" height="81.839"/>
<g>
	<path fill="#444444" d="M77.583,52.47L51.972,78.136c-1.25,1.199-2.973,1.932-4.746,1.932s-3.494-0.728-4.695-1.932L5.233,40.788
		c-2.661-2.609-4.746-7.668-4.746-11.372v-21.7c0-3.651,3.025-6.677,6.677-6.677h21.7c3.703,0,8.762,2.085,11.424,4.746
		l37.295,37.244c1.199,1.253,1.93,2.973,1.93,4.747C79.513,49.548,78.782,51.273,77.583,52.47z M17.179,11.055
		c-3.703,0-6.677,2.974-6.677,6.677c0,3.703,2.974,6.676,6.677,6.676s6.676-2.974,6.676-6.676
		C23.855,14.029,20.881,11.055,17.179,11.055z"/>
</g>
</svg>
