<?xml version="1.0" encoding="utf-8"?>
<!-- Generator: Adobe Illustrator 16.0.0, SVG Export Plug-In . SVG Version: 6.00 Build 0)  -->
<!DOCTYPE svg PUBLIC "-//W3C//DTD SVG 1.1//EN" "http://www.w3.org/Graphics/SVG/1.1/DTD/svg11.dtd">
<svg version="1.1" id="图形" xmlns="http://www.w3.org/2000/svg" xmlns:xlink="http://www.w3.org/1999/xlink" x="0px" y="0px"
	 width="80px" height="81.839px" viewBox="0 0 80 81.839" enable-background="new 0 0 80 81.839" xml:space="preserve">
<rect x="22.818" display="none" fill="#F1F1F1" width="80" height="81.839"/>
<g>
	<path fill="#444444" d="M62.049,50.037L41.564,70.563c-1.001,0.959-2.377,1.541-3.795,1.541s-2.794-0.582-3.754-1.541L4.187,40.692
		c-2.128-2.086-3.796-6.133-3.796-9.094V14.244c0-2.92,2.419-5.34,5.339-5.34h17.354c2.962,0,7.008,1.668,9.136,3.796l29.829,29.787
		c0.959,0.999,1.543,2.378,1.543,3.795C63.592,47.699,63.008,49.078,62.049,50.037z M13.74,16.913c-2.962,0-5.339,2.379-5.339,5.34
		c0,2.96,2.379,5.339,5.339,5.339c2.961,0,5.34-2.378,5.34-5.339C19.08,19.292,16.701,16.913,13.74,16.913z M78.068,50.037
		L57.584,70.563c-1.001,0.959-2.377,1.541-3.795,1.541c-2.169,0-3.254-0.999-4.67-2.459l19.605-19.607
		c0.961-0.96,1.544-2.335,1.544-3.754s-0.583-2.794-1.544-3.796L38.896,12.699c-2.127-2.128-6.174-3.796-9.136-3.796h9.345
		c2.963,0,7.009,1.668,9.135,3.796l29.829,29.786c0.959,1.002,1.542,2.38,1.542,3.796S79.027,49.078,78.068,50.037z"/>
</g>
</svg>
