<?xml version="1.0" encoding="utf-8"?>
<!-- Generator: Adobe Illustrator 16.0.0, SVG Export Plug-In . SVG Version: 6.00 Build 0)  -->
<!DOCTYPE svg PUBLIC "-//W3C//DTD SVG 1.1//EN" "http://www.w3.org/Graphics/SVG/1.1/DTD/svg11.dtd">
<svg version="1.1" id="图形" xmlns="http://www.w3.org/2000/svg" xmlns:xlink="http://www.w3.org/1999/xlink" x="0px" y="0px"
	 width="80px" height="81.839px" viewBox="0 0 80 81.839" enable-background="new 0 0 80 81.839" xml:space="preserve">
<rect x="22.818" display="none" fill="#F1F1F1" width="80" height="81.839"/>
<g>
	<path fill="#444444" d="M73.149,72.23c0,5.063-4.142,9.206-9.206,9.206H16.059c-5.064,0-9.208-4.143-9.208-9.206V9.612
		c0-5.063,4.144-9.208,9.208-9.208h47.884c5.064,0,9.206,4.145,9.206,9.208V72.23z M65.783,9.612c0-0.978-0.863-1.842-1.843-1.842
		H16.059c-0.979,0-1.841,0.864-1.841,1.842v55.251c0,0.979,0.863,1.841,1.841,1.841h47.884c0.977,0,1.841-0.864,1.841-1.841
		L65.783,9.612L65.783,9.612z M40.001,70.388c-2.014,0-3.683,1.667-3.683,3.684c0,2.016,1.669,3.684,3.683,3.684
		c2.016,0,3.684-1.668,3.684-3.684C43.685,72.055,42.017,70.388,40.001,70.388z"/>
</g>
</svg>
