<?xml version="1.0" encoding="utf-8"?>
<!-- Generator: Adobe Illustrator 16.0.0, SVG Export Plug-In . SVG Version: 6.00 Build 0)  -->
<!DOCTYPE svg PUBLIC "-//W3C//DTD SVG 1.1//EN" "http://www.w3.org/Graphics/SVG/1.1/DTD/svg11.dtd">
<svg version="1.1" id="图形" xmlns="http://www.w3.org/2000/svg" xmlns:xlink="http://www.w3.org/1999/xlink" x="0px" y="0px"
	 width="80px" height="81.839px" viewBox="0 0 80 81.839" enable-background="new 0 0 80 81.839" xml:space="preserve">
<rect x="22.818" display="none" fill="#F1F1F1" width="80" height="81.839"/>
<g>
	<path fill="#444444" d="M77.339,75.255l-3.297,3.071c-1.258,1.065-2.597,1.914-3.884,1.612c-1.576-0.369-2.69-1.66-3.987-2.951
		L40.24,51.054L14.017,77.279c-1.293,1.29-3.309,2.869-4.784,2.869c-1.207,0-2.748,0.046-4.156-1.407l-2.77-2.594
		c-1.293-1.296-1.72-1.981-1.72-3.776c0-1.797,1.702-3.434,2.994-4.73l26.623-26.621L3.828,14.645
		c-1.293-1.294-3.19-3.287-3.333-5.079c-0.11-1.378,0.917-2.331,2.114-3.491l3.365-3.35c1.292-1.294,1.919-1.509,3.126-1.412
		c1.79,0.144,3.346,2.128,4.64,3.421l26.376,26.376L66.577,4.647c1.295-1.294,3.074-2.901,4.871-2.901s2.338,0.334,3.632,1.627
		l2.68,2.683c1.292,1.294,1.753,1.802,1.753,3.598c0,1.796-1.608,3.734-2.9,5.029L50.15,41.146l25.404,25.402
		c1.291,1.296,4.179,3.448,3.843,5.493C79.297,73.416,78.631,73.958,77.339,75.255z"/>
</g>
</svg>
