<?xml version="1.0" encoding="utf-8"?>
<!-- Generator: Adobe Illustrator 19.0.0, SVG Export Plug-In . SVG Version: 6.00 Build 0)  -->
<svg version="1.1" id="图层_1" xmlns="http://www.w3.org/2000/svg" xmlns:xlink="http://www.w3.org/1999/xlink" x="0px" y="0px"
	 viewBox="0 0 1000 1000" style="enable-background:new 0 0 1000 1000;" xml:space="preserve">
<g id="XMLID_2_">
	<path id="XMLID_1_" d="M955,202.6H45c-24.9,0-45-20.1-45-45v0c0-24.9,20.1-45,45-45h910c24.9,0,45,20.1,45,45v0
		C1000,182.5,979.9,202.6,955,202.6z"/>
	<path id="XMLID_3_" d="M655,545H45c-24.9,0-45-20.1-45-45v0c0-24.9,20.1-45,45-45h610c24.9,0,45,20.1,45,45v0
		C700,524.9,679.9,545,655,545z"/>
	<path id="XMLID_4_" d="M355,887.4H45c-24.9,0-45-20.1-45-45v0c0-24.9,20.1-45,45-45h310c24.9,0,45,20.1,45,45v0
		C400,867.2,379.9,887.4,355,887.4z"/>
</g>
</svg>
