<?xml version="1.0" encoding="utf-8"?>
<!-- Generator: Adobe Illustrator 16.0.0, SVG Export Plug-In . SVG Version: 6.00 Build 0)  -->
<!DOCTYPE svg PUBLIC "-//W3C//DTD SVG 1.1//EN" "http://www.w3.org/Graphics/SVG/1.1/DTD/svg11.dtd">
<svg version="1.1" id="图形" xmlns="http://www.w3.org/2000/svg" xmlns:xlink="http://www.w3.org/1999/xlink" x="0px" y="0px"
	 width="80px" height="81.839px" viewBox="0 0 80 81.839" enable-background="new 0 0 80 81.839" xml:space="preserve">
<rect x="22.818" display="none" fill="#F1F1F1" width="80" height="81.839"/>
<g>
	<path fill="#444444" d="M41.237,58.583h9.899v9.204c-1.895,1.391-4.291,1.935-6.611,1.935H10.722
		c-6.188,0-10.326-3.713-10.326-10.02c0-8.74,2.049-22.161,13.381-22.161c0.62,0,1.045,0.271,1.508,0.659
		c3.791,2.9,7.466,4.719,12.338,4.719c4.873,0,8.548-1.818,12.338-4.719c0.461-0.388,0.891-0.659,1.508-0.659
		c3.286,0,6.188,1.239,8.392,3.714h-8.624c-2.709,0-4.953,2.245-4.953,4.951v7.427C36.287,56.339,38.529,58.583,41.237,58.583z
		 M12.772,25.167c0-8.198,6.653-14.852,14.853-14.852c8.199,0,14.852,6.653,14.852,14.852c0,8.199-6.652,14.853-14.852,14.853
		C19.425,40.019,12.772,33.367,12.772,25.167z M78.367,44.968c0.658,0,1.238,0.583,1.238,1.24v7.425c0,0.657-0.58,1.237-1.238,1.237
		H64.753v13.614c0,0.66-0.582,1.237-1.237,1.237h-7.425c-0.658,0-1.24-0.577-1.24-1.237V54.871H41.237
		c-0.657,0-1.238-0.58-1.238-1.237v-7.425c0-0.657,0.579-1.24,1.238-1.24h13.616V31.356c0-0.657,0.581-1.238,1.237-1.238h7.427
		c0.653,0,1.235,0.581,1.235,1.238v13.612H78.367z"/>
</g>
</svg>
