<?xml version="1.0" encoding="utf-8"?>
<!-- Generator: Adobe Illustrator 16.0.0, SVG Export Plug-In . SVG Version: 6.00 Build 0)  -->
<!DOCTYPE svg PUBLIC "-//W3C//DTD SVG 1.1//EN" "http://www.w3.org/Graphics/SVG/1.1/DTD/svg11.dtd">
<svg version="1.1" id="图形" xmlns="http://www.w3.org/2000/svg" xmlns:xlink="http://www.w3.org/1999/xlink" x="0px" y="0px"
	 width="80px" height="81.839px" viewBox="0 0 80 81.839" enable-background="new 0 0 80 81.839" xml:space="preserve">
<rect x="22.818" display="none" fill="#F1F1F1" width="80" height="81.839"/>
<path fill="#444444" d="M40.056,44.792c-7.989,0-14.474-6.483-14.474-14.475c0-7.991,6.484-14.476,14.474-14.476
	c7.994,0,14.477,6.485,14.477,14.476S48.048,44.792,40.056,44.792z"/>
<path fill="#444444" d="M40.058,2.26c-21.664,0-39.29,17.626-39.29,39.289c0,21.666,17.625,39.29,39.29,39.29
	c21.663,0,39.29-17.624,39.29-39.29C79.348,19.886,61.721,2.26,40.058,2.26z M66.587,63.288
	c-0.106-8.514-2.286-20.908-13.036-20.908c-1.279,0-5.956,5.238-13.494,5.238c-7.538,0-12.213-5.238-13.494-5.238
	c-10.752,0-12.93,12.395-13.037,20.908C8.664,57.365,5.74,49.792,5.74,41.549c0-18.921,15.395-34.315,34.316-34.315
	c18.921,0,34.315,15.395,34.315,34.315C74.374,49.792,71.45,57.366,66.587,63.288z"/>
</svg>
