<?xml version="1.0" encoding="utf-8"?>
<!-- Generator: Adobe Illustrator 16.0.0, SVG Export Plug-In . SVG Version: 6.00 Build 0)  -->
<!DOCTYPE svg PUBLIC "-//W3C//DTD SVG 1.1//EN" "http://www.w3.org/Graphics/SVG/1.1/DTD/svg11.dtd">
<svg version="1.1" id="图形" xmlns="http://www.w3.org/2000/svg" xmlns:xlink="http://www.w3.org/1999/xlink" x="0px" y="0px"
	 width="80px" height="81.839px" viewBox="0 0 80 81.839" enable-background="new 0 0 80 81.839" xml:space="preserve">
<rect x="22.818" display="none" fill="#F1F1F1" width="80" height="81.839"/>
<g enable-background="new    ">
	<path fill="#444444" d="M63.195,81.632H16.958c-8.412,0-14.125-5.133-14.125-13.702c0-11.953,2.804-30.311,18.304-30.311
		c1.64,0,8.571,7.355,18.939,7.355c10.367,0,17.298-7.355,18.935-7.355c15.5,0,18.308,18.358,18.308,30.311
		C77.319,76.502,71.605,81.632,63.195,81.632z M40.077,41.003c-11.218,0-20.316-9.099-20.316-20.314
		c0-11.216,9.1-20.315,20.316-20.315c11.215,0,20.314,9.099,20.314,20.315C60.391,31.905,51.292,41.003,40.077,41.003z"/>
</g>
</svg>
