<?xml version="1.0" encoding="utf-8"?>
<!-- Generator: Adobe Illustrator 16.0.0, SVG Export Plug-In . SVG Version: 6.00 Build 0)  -->
<!DOCTYPE svg PUBLIC "-//W3C//DTD SVG 1.1//EN" "http://www.w3.org/Graphics/SVG/1.1/DTD/svg11.dtd">
<svg version="1.1" id="图形" xmlns="http://www.w3.org/2000/svg" xmlns:xlink="http://www.w3.org/1999/xlink" x="0px" y="0px"
	 width="80px" height="81.839px" viewBox="0 0 80 81.839" enable-background="new 0 0 80 81.839" xml:space="preserve">
<rect x="22.818" display="none" fill="#F1F1F1" width="80" height="81.839"/>
<g>
	<path fill="#444444" d="M14.012,46.831H8.47c-4.135,0-8.023-1.984-8.023-6.576c0-3.35-0.123-14.6,5.128-14.6
		c0.87,0,5.17,3.515,10.754,3.515c1.902,0,3.723-0.332,5.502-0.952c-0.125,0.91-0.207,1.819-0.207,2.73
		c0,3.764,1.2,7.485,3.35,10.589C20.672,41.659,16.784,43.521,14.012,46.831z M16.329,25.654c-5.833,0-10.588-4.757-10.588-10.588
		c0-5.832,4.756-10.589,10.588-10.589c5.832,0,10.589,4.757,10.589,10.589C26.917,20.897,22.161,25.654,16.329,25.654z
		 M58.226,78.594H22.077c-6.618,0-11.042-4.011-11.042-10.715c0-9.345,2.192-23.695,14.31-23.695c1.406,0,6.535,5.748,14.805,5.748
		c8.271,0,13.402-5.748,14.806-5.748c12.116,0,14.31,14.351,14.31,23.695C69.269,74.583,64.844,78.594,58.226,78.594z M40.15,46.831
		c-8.765,0-15.88-7.113-15.88-15.882c0-8.768,7.114-15.882,15.88-15.882c8.771,0,15.884,7.114,15.884,15.882
		C56.034,39.717,48.919,46.831,40.15,46.831z M63.974,25.654c-5.831,0-10.588-4.757-10.588-10.588
		c0-5.832,4.757-10.589,10.588-10.589c5.834,0,10.591,4.757,10.591,10.589C74.563,20.897,69.808,25.654,63.974,25.654z
		 M71.832,46.831h-5.541c-2.772-3.31-6.66-5.17-10.959-5.293c2.149-3.102,3.351-6.825,3.351-10.589c0-0.911-0.086-1.819-0.206-2.73
		c1.78,0.621,3.598,0.952,5.502,0.952c5.582,0,9.887-3.515,10.752-3.515c5.254,0,5.131,11.25,5.131,14.6
		C79.855,44.846,75.968,46.831,71.832,46.831z"/>
</g>
</svg>
