<?xml version="1.0" encoding="utf-8"?>
<!-- Generator: Adobe Illustrator 16.0.0, SVG Export Plug-In . SVG Version: 6.00 Build 0)  -->
<!DOCTYPE svg PUBLIC "-//W3C//DTD SVG 1.1//EN" "http://www.w3.org/Graphics/SVG/1.1/DTD/svg11.dtd">
<svg version="1.1" id="图形" xmlns="http://www.w3.org/2000/svg" xmlns:xlink="http://www.w3.org/1999/xlink" x="0px" y="0px"
	 width="80px" height="81.839px" viewBox="0 0 80 81.839" enable-background="new 0 0 80 81.839" xml:space="preserve">
<rect x="22.818" display="none" fill="#F1F1F1" width="80" height="81.839"/>
<g id="_x31__21_">
	<g>
		<path fill="#444444" d="M55.165,56.197h-30.45c-1.403,0-2.537,1.134-2.537,2.537c0,1.402,1.134,2.538,2.537,2.538h30.45
			c1.404,0,2.539-1.136,2.539-2.538C57.704,57.331,56.569,56.197,55.165,56.197z M52.631,0.37v0.071
			c-0.328,0-1.683-0.124-5.079-0.071H17.103c-5.605,0-10.151,4.545-10.151,10.151v60.9c0,5.606,4.546,10.152,10.151,10.152h45.675
			c5.607,0,10.151-4.546,10.151-10.152V20.67L52.631,0.37z M67.855,71.42c0,2.808-2.271,5.076-5.077,5.076H17.103
			c-2.803,0-5.076-2.269-5.076-5.076v-60.9c0-2.803,2.272-5.076,5.076-5.076h30.378c-0.047,6.076,0.07,10.15,0.07,10.15
			c0,5.606,4.547,10.151,10.152,10.151c0,0,4.244,0,10.151,0V71.42z M57.704,20.67c-2.804,0-5.073-2.271-5.073-5.075
			c0,0,0-4.108,0-10.15L67.855,20.67H57.704z M55.165,40.97h-30.45c-1.403,0-2.537,1.14-2.537,2.538
			c0,1.401,1.134,2.536,2.537,2.536h30.45c1.404,0,2.539-1.135,2.539-2.536C57.704,42.11,56.569,40.97,55.165,40.97z"/>
	</g>
</g>
</svg>
