<?xml version="1.0" encoding="utf-8"?>
<!-- Generator: Adobe Illustrator 16.0.0, SVG Export Plug-In . SVG Version: 6.00 Build 0)  -->
<!DOCTYPE svg PUBLIC "-//W3C//DTD SVG 1.1//EN" "http://www.w3.org/Graphics/SVG/1.1/DTD/svg11.dtd">
<svg version="1.1" id="Capa_1" xmlns="http://www.w3.org/2000/svg" xmlns:xlink="http://www.w3.org/1999/xlink" x="0px" y="0px"
	 width="18.01px" height="18.02px" viewBox="296.995 386.99 18.01 18.02" enable-background="new 296.995 386.99 18.01 18.02"
	 xml:space="preserve">
<g>
	<path d="M308.295,401.509c0,0,1.573,0,1.573-1.574v-7.87c0-1.574-1.573-1.574-1.573-1.574h-9.377c0,0-1.574,0-1.574,1.574v7.87
		c0,1.574,1.574,1.574,1.574,1.574H308.295z M298.131,399.92v-7.84c0-0.801,0.795-0.801,0.795-0.801h9.451c0,0,0.796,0,0.796,0.801
		v7.84c0,0.802-0.796,0.802-0.796,0.802h-9.451C298.926,400.722,298.131,400.722,298.131,399.92z"/>
	<polygon points="310.785,397.498 310.785,398.463 314.656,401.509 314.656,390.491 310.785,393.566 310.785,394.552 
		313.87,392.238 313.87,399.812 	"/>
</g>
</svg>
