<?xml version="1.0" encoding="utf-8"?>
<!-- Generator: Adobe Illustrator 16.0.0, SVG Export Plug-In . SVG Version: 6.00 Build 0)  -->
<!DOCTYPE svg PUBLIC "-//W3C//DTD SVG 1.1//EN" "http://www.w3.org/Graphics/SVG/1.1/DTD/svg11.dtd">
<svg version="1.1" id="图形" xmlns="http://www.w3.org/2000/svg" xmlns:xlink="http://www.w3.org/1999/xlink" x="0px" y="0px"
	 width="80px" height="81.839px" viewBox="0 0 80 81.839" enable-background="new 0 0 80 81.839" xml:space="preserve">
<rect x="22.818" display="none" fill="#F1F1F1" width="80" height="81.839"/>
<g id="_x31__5_">
	<g>
		<path fill="#444444" d="M22.932,46.6H11.569c-6.275,0-11.364,5.088-11.364,11.363v11.364c0,6.275,5.088,11.364,11.364,11.364
			h11.363c6.275,0,11.364-5.089,11.364-11.364V57.963C34.296,51.688,29.208,46.6,22.932,46.6z M28.614,69.328
			c0,3.141-2.543,5.682-5.682,5.682H11.569c-3.139,0-5.682-2.541-5.682-5.682V57.963c0-3.135,2.543-5.681,5.682-5.681h11.363
			c3.138,0,5.682,2.546,5.682,5.681V69.328z M68.387,46.6H57.022c-6.275,0-11.363,5.088-11.363,11.363v11.364
			c0,6.275,5.088,11.364,11.363,11.364h11.364c6.275,0,11.363-5.089,11.363-11.364V57.963C79.75,51.688,74.662,46.6,68.387,46.6z
			 M74.068,69.328c0,3.141-2.544,5.682-5.682,5.682H57.022c-3.138,0-5.681-2.541-5.681-5.682V57.963
			c0-3.135,2.543-5.681,5.681-5.681h11.364c3.138,0,5.682,2.546,5.682,5.681V69.328z M22.932,1.147H11.569
			c-6.275,0-11.364,5.088-11.364,11.364v11.363c0,6.275,5.088,11.364,11.364,11.364h11.363c6.275,0,11.364-5.088,11.364-11.364
			V12.511C34.296,6.236,29.208,1.147,22.932,1.147z M28.614,23.875c0,3.138-2.543,5.682-5.682,5.682H11.569
			c-3.139,0-5.682-2.543-5.682-5.682V12.511c0-3.139,2.543-5.682,5.682-5.682h11.363c3.138,0,5.682,2.543,5.682,5.682V23.875z
			 M68.387,1.147H57.022c-6.275,0-11.363,5.088-11.363,11.364v11.363c0,6.275,5.088,11.364,11.363,11.364h11.364
			c6.275,0,11.363-5.088,11.363-11.364V12.511C79.75,6.236,74.662,1.147,68.387,1.147z M74.068,23.875
			c0,3.138-2.544,5.682-5.682,5.682H57.022c-3.138,0-5.681-2.543-5.681-5.682V12.511c0-3.139,2.543-5.682,5.681-5.682h11.364
			c3.138,0,5.682,2.543,5.682,5.682V23.875z"/>
	</g>
</g>
</svg>
