<?xml version="1.0" encoding="utf-8"?>
<!-- Generator: Adobe Illustrator 16.0.0, SVG Export Plug-In . SVG Version: 6.00 Build 0)  -->
<!DOCTYPE svg PUBLIC "-//W3C//DTD SVG 1.1//EN" "http://www.w3.org/Graphics/SVG/1.1/DTD/svg11.dtd">
<svg version="1.1" id="图形" xmlns="http://www.w3.org/2000/svg" xmlns:xlink="http://www.w3.org/1999/xlink" x="0px" y="0px"
	 width="80px" height="81.839px" viewBox="0 0 80 81.839" enable-background="new 0 0 80 81.839" xml:space="preserve">
<rect x="22.818" display="none" fill="#F1F1F1" width="80" height="81.839"/>
<g id="List">
	<g>
		<path fill-rule="evenodd" clip-rule="evenodd" fill="#444444" d="M68.174,0.264H12.217c-5.144,0-9.326,4.705-9.326,10.492v60.328
			c0,5.789,4.183,10.492,9.326,10.492h55.957c5.144,0,9.326-4.703,9.326-10.492V10.756C77.5,4.969,73.317,0.264,68.174,0.264z
			 M72.837,71.083c0,2.895-2.094,5.245-4.663,5.245H12.217c-2.571,0-4.663-2.351-4.663-5.245V10.756
			c0-2.892,2.092-5.246,4.663-5.246h55.957c2.569,0,4.663,2.354,4.663,5.246V71.083z M63.511,18.624H23.875
			c-1.289,0-2.332,1.178-2.332,2.623c0,1.449,1.043,2.623,2.332,2.623h39.636c1.288,0,2.331-1.174,2.331-2.623
			C65.842,19.802,64.799,18.624,63.511,18.624z M63.511,31.739H23.875c-1.289,0-2.332,1.178-2.332,2.623
			c0,1.45,1.043,2.623,2.332,2.623h39.636c1.288,0,2.331-1.173,2.331-2.623C65.842,32.917,64.799,31.739,63.511,31.739z
			 M63.511,44.853H23.875c-1.289,0-2.332,1.18-2.332,2.623c0,1.45,1.043,2.624,2.332,2.624h39.636c1.288,0,2.331-1.174,2.331-2.624
			C65.842,46.033,64.799,44.853,63.511,44.853z M63.511,57.968H23.875c-1.289,0-2.332,1.179-2.332,2.623
			c0,1.449,1.043,2.623,2.332,2.623h39.636c1.288,0,2.331-1.174,2.331-2.623C65.842,59.147,64.799,57.968,63.511,57.968z
			 M14.548,23.87h4.663v-5.246h-4.663V23.87z M14.548,36.985h4.663v-5.246h-4.663V36.985z M14.548,50.1h4.663v-5.247h-4.663V50.1z
			 M14.548,63.214h4.663v-5.246h-4.663V63.214z"/>
	</g>
</g>
</svg>
