<?xml version="1.0" encoding="utf-8"?>
<!-- Generator: Adobe Illustrator 16.0.0, SVG Export Plug-In . SVG Version: 6.00 Build 0)  -->
<!DOCTYPE svg PUBLIC "-//W3C//DTD SVG 1.1//EN" "http://www.w3.org/Graphics/SVG/1.1/DTD/svg11.dtd">
<svg version="1.1" id="图形" xmlns="http://www.w3.org/2000/svg" xmlns:xlink="http://www.w3.org/1999/xlink" x="0px" y="0px"
	 width="80px" height="81.839px" viewBox="0 0 80 81.839" enable-background="new 0 0 80 81.839" xml:space="preserve">
<rect x="22.818" display="none" fill="#F1F1F1" width="80" height="81.839"/>
<g>
	<path fill="#444444" d="M43.39,68.837c1.228,3.156,2.195,5.896,3.322,9.091h-32.85c-7.964,0-13.373-4.854-13.373-12.972
		c0-11.319,2.654-28.699,17.329-28.699c1.553,0,8.115,6.96,17.93,6.96c9.816,0,16.376-6.96,17.931-6.96
		c1.523,0,2.912,0.197,4.185,0.545C53.188,47.316,42.85,70.056,43.39,68.837z M54.979,20.233C54.979,9.616,46.367,1,35.749,1
		C25.132,1,16.518,9.616,16.518,20.233c0,10.616,8.613,19.231,19.231,19.231C46.367,39.462,54.979,30.849,54.979,20.233z"/>
	<g>
		<path fill="#444444" d="M75.657,44.914L62.163,75.983l-11.139,4.394l-4.395-11.14l13.496-31.071L75.657,44.914z M60.867,69.717
			l-8.774-3.812l-1.478,3.4l1.131,2.867l3.429-1.354l1.351,3.429l2.865-1.131L60.867,69.717z M62.774,42.381
			c-0.158,0.063-0.301,0.18-0.38,0.368l-8.792,20.239c-0.081,0.19-0.07,0.371-0.008,0.528c0.138,0.35,0.475,0.495,0.823,0.36
			c0.158-0.065,0.298-0.183,0.379-0.369l8.792-20.241c0.084-0.187,0.069-0.37,0.008-0.525
			C63.461,42.389,63.122,42.246,62.774,42.381z M79.39,36.325l-2.693,6.197l-15.534-6.746l2.702-6.172
			c0.363-0.886,1.099-1.61,2.01-1.969c0.911-0.358,1.944-0.333,2.838,0.056l8.765,3.786c0.87,0.401,1.595,1.135,1.951,2.046
			C79.79,34.435,79.761,35.465,79.39,36.325z"/>
	</g>
</g>
</svg>
