<?xml version="1.0" encoding="utf-8"?>
<!-- Generator: Adobe Illustrator 16.0.0, SVG Export Plug-In . SVG Version: 6.00 Build 0)  -->
<!DOCTYPE svg PUBLIC "-//W3C//DTD SVG 1.1//EN" "http://www.w3.org/Graphics/SVG/1.1/DTD/svg11.dtd">
<svg version="1.1" id="图形" xmlns="http://www.w3.org/2000/svg" xmlns:xlink="http://www.w3.org/1999/xlink" x="0px" y="0px"
	 width="80px" height="81.839px" viewBox="0 0 80 81.839" enable-background="new 0 0 80 81.839" xml:space="preserve">
<rect x="22.818" display="none" fill="#F1F1F1" width="80" height="81.839"/>
<g>
	<g>
		<path fill="#444444" d="M51.775,48.12l-9.287,19.746c-0.535,1.123-1.708,1.811-2.933,1.811c-1.224,0-2.398-0.688-2.909-1.811
			L27.336,48.12c-0.664-1.401-0.842-3.01-0.842-4.568c0-7.22,5.842-13.063,13.063-13.063c7.221,0,13.063,5.841,13.063,13.063
			C52.616,45.11,52.438,46.718,51.775,48.12z M39.554,37.022c-3.597,0-6.531,2.933-6.531,6.533c0,3.598,2.933,6.531,6.531,6.531
			s6.532-2.934,6.532-6.531C46.086,39.956,43.152,37.022,39.554,37.022z"/>
	</g>
	<g>
		<path fill="#444444" d="M75.421,24.977v52.257c0,2.401-1.95,4.354-4.354,4.354H10.101c-2.404,0-4.354-1.949-4.354-4.354V4.655
			c0-2.404,1.951-4.354,4.354-4.354h40.643c2.402,0,5.763,1.405,7.438,3.083l14.152,14.154
			C74.016,19.215,75.421,22.573,75.421,24.977z M69.615,29.331H50.743c-2.402,0-4.354-1.95-4.354-4.354V6.106H11.553v69.675h58.063
			V29.331z M52.196,23.525h17.056c-0.27-0.771-0.681-1.543-0.998-1.86L54.057,7.467c-0.318-0.318-1.091-0.726-1.86-0.999V23.525z"/>
	</g>
</g>
</svg>
