<?xml version="1.0" encoding="utf-8"?>
<!-- Generator: Adobe Illustrator 16.0.0, SVG Export Plug-In . SVG Version: 6.00 Build 0)  -->
<!DOCTYPE svg PUBLIC "-//W3C//DTD SVG 1.1//EN" "http://www.w3.org/Graphics/SVG/1.1/DTD/svg11.dtd">
<svg version="1.1" id="图形" xmlns="http://www.w3.org/2000/svg" xmlns:xlink="http://www.w3.org/1999/xlink" x="0px" y="0px"
	 width="80px" height="81.839px" viewBox="0 0 80 81.839" enable-background="new 0 0 80 81.839" xml:space="preserve">
<rect x="22.818" display="none" fill="#F1F1F1" width="80" height="81.839"/>
<g>
	<g>
		<path fill="#444444" d="M35.037,61.367c11.185,0,11.659-10.376,11.659-10.376h-23.32C23.376,50.991,23.851,61.367,35.037,61.367z"
			/>
		<path fill="#444444" d="M9.071,68.808c0,0-23.094-22.813,6.76-47.034c32.896-24.745,57.47-26.887,40.851-4.919
			c-3.354,4.766,2.807,3.512,2.807,3.512s32.387-10.138,10.42,11.266c-4.841,5.571-0.283,6.197,3.099,5.916
			c4.726-1.03,12.147-4.942,0.604,11.674c-6.759,12.672-10.457,20.996-24.259,27.753C35.546,83.735,18.647,79.047,9.071,68.808z
			 M35.26,70.976c25.016,0,24.171-28.254,24.171-28.254H11.552C11.552,42.722,10.243,70.976,35.26,70.976z"/>
	</g>
</g>
</svg>
