<?xml version="1.0" encoding="utf-8"?>
<!-- Generator: Adobe Illustrator 21.0.0, SVG Export Plug-In . SVG Version: 6.00 Build 0)  -->
<svg version="1.1" id="图层_1" xmlns="http://www.w3.org/2000/svg" xmlns:xlink="http://www.w3.org/1999/xlink" x="0px" y="0px"
	 viewBox="0 0 1000 1000" style="enable-background:new 0 0 1000 1000;" xml:space="preserve">
<path d="M894.4-0.1H773.7H433.3H312.6c-33.6,0-61.2,27.5-61.2,61.2v0.8v56v36.5H137.3c-51.2,0-92.9,41.7-92.9,92.9v661.3
	c0,50.5,41.1,91.5,91.5,91.5H642c50.5,0,91.5-41,91.5-91.5v-23.5H896c32.9,0,59.5-26.7,59.5-59.5V410.2v-0.8V181.8V61.8V61
	C955.6,27.4,928.1-0.1,894.4-0.1z M642,920.1H135.9c-6.3,0-11.5-5.2-11.5-11.5V247.3c0-7,5.9-12.9,12.9-12.9h114.1v175v0.8v415.4
	c0,32.9,26.7,59.5,59.5,59.5h172.9h169.7v23.5C653.5,915,648.3,920.1,642,920.1z M855,426.4v0.8v36.2c0,10.7-8.6,19.3-19.3,19.3H758
	h-94.4H449h-77.7c-10.7,0-19.3-8.6-19.3-19.3v-36.2v-0.8V424c0-11.5,9.4-20.9,20.9-20.9h290.7h170.5c11.5,0,20.9,9.4,20.9,20.9
	V426.4z M855,263.4c0,11.1-9,20.1-20.1,20.1H663.6H372.1c-11.1,0-20.1-9-20.1-20.1V224c0-11.1,9-20.1,20.1-20.1h291.5h171.3
	c11.1,0,20.1,9,20.1,20.1V263.4z"/>
</svg>
