<?xml version="1.0" encoding="utf-8"?>
<!-- Generator: Adobe Illustrator 21.0.0, SVG Export Plug-In . SVG Version: 6.00 Build 0)  -->
<svg version="1.1" id="图层_1" xmlns="http://www.w3.org/2000/svg" xmlns:xlink="http://www.w3.org/1999/xlink" x="0px" y="0px"
	 viewBox="0 0 1000 1000" style="enable-background:new 0 0 1000 1000;" xml:space="preserve">
<style type="text/css">
	.st0{fill-rule:evenodd;clip-rule:evenodd;}
	.st1{stroke:#000000;stroke-miterlimit:10;}
</style>
<g>
	<path class="st0" d="M801.5,100h-471c-16,0-29,13-29,29V271c0,16-13,29-29,29H130.5c-16,0-29,13-29,29V871c0,16,13,29,29,29h641.9
		c16,0,29-13,29-29V564.6c0-7.1,2.6-14,7.3-19.3c13-14.6,27.2-29.8,42.7-45.3c0.2-0.2,0.3-0.3,0.5-0.5c18.3-18.3,49.5-5.3,49.5,20.6
		V950c0,27.6-22.4,50-50,50h-800c-27.6,0-50-22.4-50-50V265c0-7.6,3-14.8,8.2-20.3l230.2-236c5.5-5.6,13-8.8,20.8-8.8h590.8
		c27.6,0,50,22.4,50,50l0,143.5c0,9.5-4.7,18.4-12.5,23.8c-12.9,8.9-26.9,18.9-41.5,29.4c-19.2,13.8-46,0.1-46-23.5V100L801.5,100z"
		/>
	<path class="st1" d="M980.7,240.8C969.3,229.3,954,223,937.8,223c-16.2,0-31.5,6.3-42.9,17.8L520.6,615L355,449.4
		c-11.5-11.5-26.7-17.8-42.9-17.8c-16.2,0-31.5,6.3-42.9,17.8s-17.8,26.7-17.8,42.9c0,16.2,6.3,31.5,17.8,42.9l208.5,208.5
		c11.5,11.5,26.7,17.8,42.9,17.8c16.2,0,31.5-6.3,42.9-17.8l417.2-417.2c11.5-11.5,17.8-26.7,17.8-42.9S992.2,252.2,980.7,240.8z"/>
</g>
</svg>
