<?xml version="1.0" encoding="utf-8"?>
<!-- Generator: Adobe Illustrator 16.0.0, SVG Export Plug-In . SVG Version: 6.00 Build 0)  -->
<!DOCTYPE svg PUBLIC "-//W3C//DTD SVG 1.1//EN" "http://www.w3.org/Graphics/SVG/1.1/DTD/svg11.dtd">
<svg version="1.1" id="图形" xmlns="http://www.w3.org/2000/svg" xmlns:xlink="http://www.w3.org/1999/xlink" x="0px" y="0px"
	 width="80px" height="81.839px" viewBox="0 0 80 81.839" enable-background="new 0 0 80 81.839" xml:space="preserve">
<rect x="22.818" display="none" fill="#F1F1F1" width="80" height="81.839"/>
<g id="_x34__17_">
	<g>
		<path fill-rule="evenodd" clip-rule="evenodd" fill="#444444" d="M73.817,12.297l-6.82-6.805c-1.885-1.879-4.938-1.879-6.822,0
			L49.942,19.097c-1.562,2.306-1.882,4.926,0,6.805l4.176,4.162c-3.095,4.148-6.813,8.671-10.994,12.841
			c-4.731,4.718-9.995,9.009-14.726,12.527l-4.035-4.022c-1.883-1.881-4.511-1.561-6.821,0L3.9,61.616
			c-2.287,1.574-1.884,4.922,0,6.801l6.821,6.8c3.767,3.76,8.667,2.556,13.643,0c0,0,15.057-8.43,27.949-21.284
			c12.127-12.091,21.505-28.03,21.505-28.03C75.773,20.537,77.585,16.051,73.817,12.297z M70.408,22.5
			c-4.027,7.652-12.976,19.438-20.466,27.211c-8.634,9.337-28.989,22.108-28.989,22.108c-1.572,0.824-5.933,0.885-7.132-0.311
			L9.481,67.18c-0.896-1.5-1.299-3.235,0-4.327l8.682-6.496c1.469-0.99,3.142-1.193,4.341,0l5.348,5.334
			c1.259-0.885,21.354-14.055,32.532-32.183l-5.479-5.462c-1.198-1.195-0.994-2.866,0-4.328l6.512-8.657
			c1.199-1.602,3.142-1.199,4.34,0l4.342,4.328C71.8,16.986,71.307,20.708,70.408,22.5z"/>
	</g>
</g>
</svg>
