<?xml version="1.0" encoding="utf-8"?>
<!-- Generator: Adobe Illustrator 16.0.0, SVG Export Plug-In . SVG Version: 6.00 Build 0)  -->
<!DOCTYPE svg PUBLIC "-//W3C//DTD SVG 1.1//EN" "http://www.w3.org/Graphics/SVG/1.1/DTD/svg11.dtd">
<svg version="1.1" id="图形" xmlns="http://www.w3.org/2000/svg" xmlns:xlink="http://www.w3.org/1999/xlink" x="0px" y="0px"
	 width="80px" height="81.839px" viewBox="0 0 80 81.839" enable-background="new 0 0 80 81.839" xml:space="preserve">
<rect x="22.818" display="none" fill="#F1F1F1" width="80" height="81.839"/>
<g id="_x37__18_">
	<g>
		<path fill="#444444" d="M69.881,8.999H10.162c-5.497,0-9.954,4.457-9.954,9.953v44.79c0,5.496,4.457,9.954,9.954,9.954h59.719
			c5.496,0,9.953-4.458,9.953-9.954v-44.79C79.834,13.456,75.377,8.999,69.881,8.999z M67.393,13.975L40.021,37.771L12.65,13.975
			H67.393z M74.857,63.742c0,2.751-2.229,4.977-4.977,4.977H10.162c-2.749,0-4.977-2.226-4.977-4.977v-44.79
			c0-1.428,0.612-2.711,1.582-3.62l33.254,28.505l33.254-28.505c0.969,0.909,1.582,2.192,1.582,3.62V63.742z"/>
	</g>
</g>
</svg>
