<?xml version="1.0" encoding="utf-8"?>
<!-- Generator: Adobe Illustrator 16.0.0, SVG Export Plug-In . SVG Version: 6.00 Build 0)  -->
<!DOCTYPE svg PUBLIC "-//W3C//DTD SVG 1.1//EN" "http://www.w3.org/Graphics/SVG/1.1/DTD/svg11.dtd">
<svg version="1.1" id="图形" xmlns="http://www.w3.org/2000/svg" xmlns:xlink="http://www.w3.org/1999/xlink" x="0px" y="0px"
	 width="80px" height="81.839px" viewBox="0 0 80 81.839" enable-background="new 0 0 80 81.839" xml:space="preserve">
<g>
	<defs>
		<circle id="SVGID_1_" cx="40.138" cy="41.133" r="39.47"/>
	</defs>
	<clipPath id="SVGID_2_">
		<use xlink:href="#SVGID_1_"  overflow="visible"/>
	</clipPath>
	<g clip-path="url(#SVGID_2_)">
		<path opacity="0.25" fill="#FFF000" d="M40.048-0.529c-7.172,4.153-12.002,11.903-12.002,20.787
			c0,8.885,4.83,16.636,12.002,20.787c7.174-4.151,12.003-11.902,12.003-20.787C52.052,11.374,47.223,3.624,40.048-0.529z"/>
		<path opacity="0.25" fill="#FFF000" d="M32.83,0.104c-6.343,5.333-9.753,13.806-8.211,22.554
			c1.543,8.75,7.645,15.545,15.43,18.387c6.344-5.334,9.754-13.807,8.21-22.555C46.717,9.741,40.615,2.945,32.83,0.104z"/>
		<path opacity="0.25" fill="#FFF000" d="M25.83,1.978c-5.319,6.356-7.208,15.292-4.17,23.64
			c3.039,8.349,10.229,13.979,18.389,15.427c5.321-6.354,7.208-15.291,4.171-23.637C41.18,9.058,33.991,3.426,25.83,1.978z"/>
		<path opacity="0.25" fill="#F9BE00" d="M19.263,5.042c-4.137,7.183-4.443,16.309-0.002,24.003
			c4.442,7.693,12.501,11.992,20.788,12c4.138-7.182,4.444-16.309,0.003-24.003C35.608,9.348,27.549,5.05,19.263,5.042z"/>
		<path opacity="0.25" fill="#F9BE00" d="M13.327,9.198c-2.828,7.791-1.545,16.833,4.166,23.639
			c5.71,6.805,14.393,9.64,22.556,8.208c2.826-7.791,1.543-16.833-4.165-23.639C30.171,10.6,21.49,7.767,13.327,9.198z"/>
		<path opacity="0.25" fill="#F9BE00" d="M8.202,14.322c-1.431,8.164,1.403,16.845,8.208,22.556
			c6.805,5.711,15.848,6.994,23.638,4.166c1.43-8.163-1.402-16.845-8.208-22.557C25.036,12.777,15.993,11.495,8.202,14.322z"/>
		<path opacity="0.25" fill="#F08C00" d="M4.044,20.257c0.011,8.289,4.307,16.347,12.002,20.789
			c7.694,4.441,16.821,4.135,24.002-0.002c-0.007-8.287-4.306-16.347-11.999-20.789C20.356,15.813,11.227,16.121,4.044,20.257z"/>
		<path opacity="0.25" fill="#F08C00" d="M0.983,26.825c1.448,8.161,7.079,15.353,15.428,18.39
			c8.349,3.039,17.285,1.149,23.638-4.17c-1.447-8.16-7.078-15.35-15.427-18.389C16.272,19.617,7.338,21.505,0.983,26.825z"/>
		<path opacity="0.25" fill="#F08C00" d="M-0.892,33.826c2.842,7.786,9.637,13.889,18.386,15.432
			c8.75,1.541,17.22-1.87,22.554-8.213c-2.841-7.784-9.637-13.889-18.385-15.43C12.913,24.072,4.441,27.482-0.892,33.826z"/>
		<path opacity="0.25" fill="#E95504" d="M-1.524,41.044c4.153,7.174,11.902,12.004,20.787,12.004
			c8.884,0,16.636-4.83,20.786-12.004c-4.149-7.173-11.902-12.003-20.786-12.003C10.377,29.042,2.626,33.872-1.524,41.044z"/>
		<path opacity="0.25" fill="#E95504" d="M-0.892,48.264c5.333,6.343,13.805,9.755,22.556,8.211
			c8.748-1.545,15.544-7.646,18.385-15.431c-5.334-6.344-13.806-9.755-22.554-8.211C8.745,34.376,1.95,40.478-0.892,48.264z"/>
		<path opacity="0.25" fill="#E95504" d="M0.983,55.264c6.355,5.323,15.29,7.209,23.638,4.172
			c8.35-3.043,13.98-10.229,15.427-18.392c-6.353-5.32-15.289-7.208-23.638-4.169C8.062,39.914,2.431,47.104,0.983,55.264z"/>
		<path opacity="0.25" fill="#E50012" d="M4.047,61.832c7.18,4.134,16.309,4.442,24.002,0c7.693-4.441,11.992-12.499,11.999-20.787
			c-7.18-4.137-16.308-4.443-24.002-0.002C8.351,45.486,4.055,53.542,4.047,61.832z"/>
		<path opacity="0.25" fill="#E50012" d="M8.202,67.769c7.791,2.824,16.833,1.543,23.639-4.167
			c6.806-5.712,9.638-14.394,8.208-22.558c-7.79-2.828-16.833-1.543-23.638,4.167C9.605,50.922,6.771,59.605,8.202,67.769z"/>
		<path opacity="0.25" fill="#E50012" d="M13.327,72.893c8.163,1.431,16.844-1.403,22.556-8.206
			c5.708-6.81,6.991-15.851,4.165-23.643c-8.163-1.43-16.845,1.402-22.556,8.208C11.782,56.056,10.5,65.1,13.327,72.893z"/>
		<path opacity="0.25" fill="#B70D5E" d="M19.263,77.047c8.288-0.007,16.345-4.307,20.789-12c4.441-7.694,4.135-16.82-0.003-24.003
			c-8.287,0.008-16.346,4.306-20.788,12.001C14.819,60.738,15.126,69.868,19.263,77.047z"/>
		<path opacity="0.25" fill="#B70D5E" d="M25.83,80.111c8.161-1.448,15.35-7.078,18.39-15.428
			c3.037-8.348,1.152-17.283-4.171-23.639c-8.16,1.447-15.35,7.079-18.389,15.427C18.622,64.821,20.51,73.756,25.83,80.111z"/>
		<path opacity="0.25" fill="#B70D5E" d="M32.83,81.989c7.786-2.844,13.887-9.643,15.429-18.387
			c1.544-8.751-1.866-17.223-8.21-22.558c-7.785,2.844-13.887,9.638-15.43,18.387C23.077,68.178,26.487,76.654,32.83,81.989z"/>
		<path opacity="0.25" fill="#5F1985" d="M40.048,82.619c7.174-4.151,12.003-11.903,12.003-20.787
			c0-8.885-4.829-16.635-12.003-20.787c-7.172,4.152-12.002,11.902-12.002,20.787C28.046,70.715,32.876,78.467,40.048,82.619z"/>
		<path opacity="0.25" fill="#5F1985" d="M47.27,81.989c6.34-5.335,9.751-13.811,8.211-22.558
			c-1.543-8.749-7.646-15.543-15.432-18.387c-6.342,5.335-9.753,13.807-8.211,22.555C33.381,72.349,39.483,79.145,47.27,81.989z"/>
		<path opacity="0.25" fill="#5F1985" d="M54.269,80.111c5.321-6.354,7.207-15.29,4.17-23.64
			c-3.039-8.349-10.229-13.979-18.39-15.427c-5.319,6.355-7.208,15.291-4.169,23.639C38.916,73.033,46.106,78.663,54.269,80.111z"/>
		<path opacity="0.25" fill="#4D4397" d="M60.835,77.047c4.139-7.182,4.444-16.31,0.004-24.002
			c-4.442-7.695-12.502-11.993-20.791-12.001c-4.136,7.183-4.444,16.309-0.001,24.003C44.489,72.741,52.55,77.037,60.835,77.047z"/>
		<path opacity="0.25" fill="#4D4397" d="M66.772,72.893c2.826-7.793,1.542-16.837-4.169-23.641
			c-5.707-6.806-14.393-9.638-22.555-8.208c-2.825,7.792-1.542,16.833,4.167,23.639C49.926,71.49,58.608,74.324,66.772,72.893z"/>
		<path opacity="0.25" fill="#4D4397" d="M71.896,67.769c1.433-8.167-1.402-16.847-8.207-22.558
			c-6.807-5.71-15.847-6.995-23.64-4.167c-1.43,8.163,1.403,16.846,8.208,22.558C55.063,69.312,64.105,70.593,71.896,67.769z"/>
		<path opacity="0.25" fill="#009FD9" d="M76.056,61.832c-0.012-8.289-4.311-16.346-12.001-20.789
			c-7.697-4.441-16.823-4.135-24.006,0.002c0.008,8.288,4.306,16.346,12,20.787C59.744,66.277,68.871,65.965,76.056,61.832z"/>
		<path opacity="0.25" fill="#009FD9" d="M79.115,55.264c-1.447-8.161-7.08-15.351-15.427-18.391
			c-8.351-3.037-17.284-1.149-23.64,4.171c1.448,8.162,7.08,15.349,15.428,18.387C63.824,62.473,72.76,60.583,79.115,55.264z"/>
		<path opacity="0.25" fill="#009FD9" d="M80.991,48.264c-2.845-7.786-9.638-13.888-18.388-15.431
			c-8.75-1.544-17.221,1.867-22.555,8.211c2.842,7.785,9.637,13.886,18.386,15.431C67.186,58.019,75.656,54.607,80.991,48.264z"/>
		<path opacity="0.25" fill="#74C5BE" d="M81.621,41.044c-4.149-7.174-11.901-12.003-20.786-12.003s-16.633,4.829-20.787,12.003
			c4.151,7.174,11.902,12.004,20.787,12.004S77.472,48.218,81.621,41.044z"/>
		<path opacity="0.25" fill="#74C5BE" d="M80.991,33.826c-5.335-6.344-13.809-9.754-22.557-8.212
			c-8.749,1.544-15.544,7.646-18.386,15.431c5.334,6.343,13.805,9.752,22.555,8.213C71.354,47.714,78.146,41.612,80.991,33.826z"/>
		<path opacity="0.25" fill="#74C5BE" d="M79.115,26.827c-6.355-5.321-15.291-7.209-23.639-4.172
			c-8.349,3.04-13.98,10.229-15.428,18.39c6.356,5.319,15.29,7.209,23.64,4.17C72.035,42.177,77.668,34.986,79.115,26.827z"/>
		<path opacity="0.25" fill="#009844" d="M76.056,20.257c-7.185-4.136-16.313-4.442-24.007-0.002
			c-7.694,4.443-11.992,12.5-12,20.789c7.183,4.137,16.309,4.443,24.003,0.002C71.748,36.604,76.044,28.546,76.056,20.257z"/>
		<path opacity="0.25" fill="#009844" d="M71.896,14.322c-7.79-2.828-16.832-1.545-23.64,4.166
			c-6.805,5.712-9.637,14.392-8.208,22.557c7.79,2.826,16.833,1.545,23.64-4.166S73.328,22.486,71.896,14.322z"/>
		<path opacity="0.25" fill="#009844" d="M66.772,9.198c-8.166-1.431-16.847,1.402-22.558,8.208s-6.991,15.848-4.167,23.639
			c8.163,1.432,16.848-1.403,22.555-8.208C68.317,26.031,69.596,16.99,66.772,9.198z"/>
		<path opacity="0.25" fill="#CEDA00" d="M60.835,5.042c-8.289,0.008-16.346,4.306-20.788,12
			c-4.443,7.694-4.135,16.821,0.001,24.003c8.289-0.008,16.348-4.307,20.791-12C65.279,21.349,64.974,12.224,60.835,5.042z"/>
		<path opacity="0.25" fill="#CEDA00" d="M54.269,1.979c-8.162,1.447-15.353,7.079-18.39,15.427
			c-3.038,8.348-1.152,17.284,4.169,23.639c8.162-1.447,15.351-7.078,18.39-15.427C61.476,17.268,59.59,8.334,54.269,1.979z"/>
		<path opacity="0.25" fill="#CEDA00" d="M47.27,0.104C39.483,2.945,33.379,9.741,31.837,18.49
			c-1.542,8.75,1.867,17.221,8.211,22.555c7.786-2.842,13.889-9.637,15.432-18.387C57.021,13.908,53.609,5.438,47.27,0.104z"/>
	</g>
</g>
<rect x="22.818" display="none" fill="#F1F1F1" width="80" height="81.839"/>
</svg>
