<?xml version="1.0" encoding="utf-8"?>
<!-- Generator: Adobe Illustrator 16.0.0, SVG Export Plug-In . SVG Version: 6.00 Build 0)  -->
<!DOCTYPE svg PUBLIC "-//W3C//DTD SVG 1.1//EN" "http://www.w3.org/Graphics/SVG/1.1/DTD/svg11.dtd">
<svg version="1.1" id="图形" xmlns="http://www.w3.org/2000/svg" xmlns:xlink="http://www.w3.org/1999/xlink" x="0px" y="0px"
	 width="80px" height="81.839px" viewBox="0 0 80 81.839" enable-background="new 0 0 80 81.839" xml:space="preserve">
<rect x="22.818" display="none" fill="#F1F1F1" width="80" height="81.839"/>
<radialGradient id="SVGID_1_" cx="67.2656" cy="132.1577" r="42.1347" gradientTransform="matrix(0.9445 0 0 0.9445 -23.5325 -83.834)" gradientUnits="userSpaceOnUse">
	<stop  offset="0.15" style="stop-color:#FFF000"/>
	<stop  offset="1" style="stop-color:#E50012"/>
</radialGradient>
<path fill="url(#SVGID_1_)" d="M6.555,29.63c0.014-0.018,0.024-0.028,0.044-0.039c0,0,0,0.008,0,0.01
	c1.883-1.644,4.049-3.065,6.545-4.17c17.419-7.783,30.393,0.066,33.681,10.813c0.09,0.318,0.23,0.611,0.348,0.916
	c-0.418-10.917-14.552-23.083-34.264-16.482c-2.537,0.843-4.75,1.98-6.725,3.318c-0.36,0.237-0.72,0.479-1.052,0.726
	c-0.215,0.174-0.432,0.356-0.648,0.555c-2.083,1.951-3.302,4.509-2.737,5.711C2.323,32.187,4.469,31.579,6.555,29.63z
	 M14.186,16.994c0.029-0.003,0.043-0.013,0.059-0.013l-0.001,0.008c2.388-0.736,4.951-1.148,7.666-1.141
	C40.979,15.855,49.652,28.328,48.3,39.482c-0.046,0.328-0.04,0.65-0.049,0.979c4.037-10.142-3.948-27.024-24.63-29.055
	c-2.658-0.257-5.151-0.118-7.482,0.291c-0.422,0.074-0.85,0.144-1.267,0.235c-0.263,0.07-0.53,0.142-0.812,0.241
	c-2.69,0.932-4.84,2.766-4.808,4.099C9.288,17.599,11.502,17.919,14.186,16.994z M26.284,8.566c0.028,0.007,0.038,0,0.06,0.007
	l-0.007,0.008c2.484,0.305,4.98,0.975,7.472,2.092c17.406,7.795,20.279,22.734,14.527,32.371c-0.174,0.284-0.304,0.581-0.438,0.874
	c7.798-7.618,7.341-26.303-10.742-36.599c-2.319-1.329-4.641-2.216-6.947-2.798c-0.413-0.109-0.832-0.214-1.25-0.298
	c-0.263-0.046-0.546-0.08-0.837-0.111c-2.842-0.251-5.543,0.546-6.058,1.78C21.562,7.122,23.453,8.313,26.284,8.566z M37.421,49.524
	c-0.266-0.197-0.539-0.361-0.822-0.527c6.729,8.58,25.281,10.081,37.368-6.891c1.553-2.19,2.682-4.419,3.496-6.655
	c0.145-0.41,0.296-0.815,0.425-1.221c0.071-0.264,0.142-0.538,0.199-0.821c0.546-2.812,0.041-5.601-1.125-6.235
	c-1.163-0.637-2.553,1.125-3.101,3.931c-0.003,0.021-0.003,0.044-0.007,0.063c0-0.005-0.003-0.011-0.003-0.011
	c-0.565,2.443-1.493,4.885-2.855,7.246C61.458,54.973,46.364,56.279,37.421,49.524z M40.744,5.81
	c0.021,0.016,0.037,0.021,0.055,0.031c-0.007,0-0.011,0.005-0.011,0.005c2.135,1.289,4.16,2.93,5.972,4.962
	c12.756,14.233,9.33,29.052,0.167,35.505c-0.266,0.188-0.509,0.402-0.764,0.617c10.213-3.766,17.366-21.024,5.023-37.817
	c-1.577-2.167-3.351-3.931-5.221-5.393c-0.335-0.27-0.675-0.544-1.018-0.783c-0.229-0.155-0.465-0.302-0.72-0.444
	c-1.563-0.872-3.248-1.347-4.524-1.352c-0.758-0.003-1.373,0.16-1.73,0.502C37.019,2.558,38.262,4.427,40.744,5.81z M66.805,18.206
	c-0.007-0.004-0.014-0.008-0.014-0.008c0.479,2.463,0.61,5.073,0.326,7.781C65.116,45.022,51.86,52.376,40.95,49.866
	c-0.317-0.079-0.64-0.109-0.964-0.156c9.623,5.094,27.173-1.115,31.346-21.56c0.54-2.629,0.662-5.125,0.499-7.505
	c-0.026-0.429-0.054-0.864-0.103-1.284c-0.041-0.27-0.085-0.55-0.152-0.837c-0.639-2.788-2.236-5.13-3.557-5.232
	c-1.32-0.105-1.873,2.069-1.234,4.856C66.791,18.171,66.798,18.183,66.805,18.206z M55.11,9.25c0,0-0.017-0.003-0.017-0.007
	c1.439,2.06,2.609,4.384,3.45,6.98c5.89,18.209-3.244,30.349-14.227,32.503c-0.329,0.062-0.631,0.167-0.947,0.251
	c10.854,0.727,24.373-12.119,19.902-32.497c-0.57-2.622-1.474-4.952-2.587-7.059c-0.192-0.38-0.394-0.767-0.608-1.129
	c-0.143-0.237-0.305-0.473-0.479-0.703c-1.713-2.287-4.12-3.772-5.368-3.331c-1.25,0.446-0.867,2.66,0.845,4.944
	C55.086,9.22,55.097,9.23,55.11,9.25z M18.52,69.595h0.011c-0.97-2.306-1.645-4.828-1.93-7.539
	c-1.986-19.047,9.463-29.01,20.651-28.83c0.328,0.011,0.651-0.023,0.977-0.049c-10.467-2.971-26.346,6.762-26.201,27.637
	c0.022,2.686,0.418,5.147,1.068,7.442c0.121,0.415,0.233,0.832,0.369,1.232c0.092,0.263,0.196,0.522,0.326,0.788
	c1.206,2.59,3.241,4.552,4.558,4.381c1.305-0.177,1.406-2.421,0.197-5.011C18.542,69.624,18.531,69.612,18.52,69.595z
	 M70.233,59.792c-0.019,0.011-0.03,0.026-0.053,0.031c0,0,0.006-0.013,0.01-0.014c-2.186,1.215-4.613,2.153-7.278,2.716
	c-18.644,3.977-29.713-6.416-30.696-17.609c-0.029-0.328-0.097-0.641-0.153-0.968c-1.851,10.768,9.45,25.615,30.104,23.275
	c2.646-0.302,5.058-0.949,7.261-1.842c0.399-0.161,0.806-0.317,1.187-0.493c0.24-0.122,0.491-0.257,0.739-0.403
	c2.446-1.478,4.167-3.728,3.863-5.016C74.901,58.176,72.672,58.323,70.233,59.792z M60.15,70.56c-0.022,0-0.04,0.005-0.057,0.008
	c0-0.003,0.005-0.008,0.005-0.014c-2.487,0.222-5.084,0.085-7.74-0.483C33.711,66.083,27.81,52.068,31.443,41.438
	c0.108-0.312,0.165-0.624,0.248-0.952c-6.048,9.082-1.738,27.265,18.082,33.563c2.545,0.821,5.002,1.202,7.373,1.288
	c0.431,0.019,0.862,0.043,1.283,0.035c0.273-0.017,0.562-0.035,0.849-0.072c2.822-0.349,5.312-1.69,5.553-3.005
	C65.073,70.991,62.979,70.209,60.15,70.56z M4.723,44.244c0,0,0.001,0.006,0.001,0.011c1.058-2.277,2.468-4.468,4.292-6.49
	c12.766-14.227,27.794-12.356,35.148-3.875c0.205,0.244,0.452,0.459,0.687,0.695c-4.803-9.802-22.636-15.149-37.976-1.063
	c-1.979,1.808-3.537,3.754-4.795,5.771c-0.231,0.367-0.464,0.735-0.667,1.103c-0.133,0.243-0.252,0.497-0.367,0.767
	C0.458,42.554,0.156,44,0.151,45.183c-0.006,1.059,0.228,1.906,0.707,2.313c1.009,0.858,2.726-0.571,3.837-3.2
	C4.708,44.276,4.708,44.254,4.723,44.244z M79.509,43.503c-0.812-1.051-2.789-0.009-4.423,2.335
	c-0.019,0.015-0.023,0.032-0.032,0.048c0-0.004-0.005-0.013-0.005-0.016c-1.506,2.005-3.337,3.856-5.539,5.453
	c-15.422,11.247-29.748,6.276-35.183-3.55c-0.161-0.284-0.344-0.545-0.525-0.821c2.663,10.596,19.007,19.537,36.921,8.969
	c2.309-1.36,4.234-2.932,5.889-4.647c0.304-0.313,0.602-0.616,0.879-0.938c0.18-0.213,0.353-0.434,0.52-0.678
	c1.16-1.664,1.833-3.529,1.839-4.853C79.852,44.263,79.743,43.813,79.509,43.503z M40.775,32.818
	c0.297,0.145,0.605,0.239,0.916,0.354c-8.362-6.996-26.819-4.587-35.126,14.544c-1.071,2.458-1.709,4.874-2.049,7.236
	c-0.049,0.428-0.122,0.854-0.16,1.272c-0.018,0.279-0.023,0.558-0.023,0.858c0.049,2.861,1.128,5.478,2.396,5.862
	c1.271,0.372,2.26-1.639,2.217-4.492c0-0.028-0.012-0.046-0.006-0.066c0,0.005,0.007,0.01,0.007,0.013
	c0.05-2.509,0.454-5.083,1.296-7.681C16.139,32.508,30.626,28.081,40.775,32.818z M31.857,75.958
	c-0.012-0.022-0.029-0.027-0.039-0.043h0.01c-1.828-1.712-3.462-3.734-4.82-6.106c-9.527-16.584-3.106-30.367,7.189-34.767
	c0.306-0.125,0.582-0.291,0.873-0.447c-10.77,1.563-21.338,16.95-12.74,35.948c1.101,2.445,2.465,4.544,3.989,6.362
	c0.27,0.334,0.544,0.677,0.832,0.985c0.189,0.195,0.392,0.392,0.617,0.583c1.686,1.474,3.685,2.381,5.014,2.366
	c0.365-0.004,0.679-0.077,0.922-0.229C34.829,79.909,34.009,77.829,31.857,75.958z M46.572,76.276
	c-0.019-0.008-0.039-0.008-0.053-0.021h0.008c-2.354-0.819-4.672-2-6.872-3.607c-15.425-11.266-15.14-26.474-7.509-34.705
	c0.217-0.235,0.409-0.495,0.611-0.759c-9.206,5.818-12.629,24.19,2.922,38.042c2,1.78,4.083,3.142,6.217,4.188
	c0.383,0.191,0.781,0.393,1.161,0.549c0.255,0.104,0.514,0.202,0.799,0.288c2.724,0.836,5.536,0.625,6.289-0.474
	C50.893,78.675,49.297,77.112,46.572,76.276z"/>
</svg>
